<svg width="68" height="61" viewBox="0 0 68 61" fill="none" xmlns="http://www.w3.org/2000/svg">
<path d="M11.2639 50.8627C10.037 48.9645 8.67525 47.1396 7.61282 45.1521C5.1978 40.6344 4.19249 35.755 4.40497 30.2894C1.90541 30.4039 12.3355 30.3055 8.45134 30.2642C8.18631 38.7637 10.9098 45.8321 17.3163 50.9405C27.077 58.721 37.4522 58.6889 48.0125 52.1541C48.7368 53.1386 49.4657 54.1278 50.3727 55.362C48.8236 56.2687 47.4345 57.2602 45.906 57.9448C35.0189 62.8219 24.7693 61.7274 15.2166 54.501C14.947 54.2972 14.6431 54.1393 14.3552 53.9607C13.3248 52.928 12.2944 51.8953 11.2639 50.8627Z" fill="#F7941E"/>
<path d="M0 31.0565L6.52994 19.7223L13.0576 31.0565H0Z" fill="#F7941E"/>
<path d="M56.7359 10.9801C57.9628 12.8783 59.3245 14.7033 60.387 16.6907C62.802 21.2084 63.8073 26.0878 63.5948 31.5534C66.0944 31.4389 55.6643 31.5373 59.5484 31.5785C59.8135 23.0791 57.09 16.0107 50.6834 10.9023C40.9228 3.12179 30.5476 3.15383 19.9872 9.68872C19.263 8.70414 18.5341 7.71497 17.6271 6.48081C19.1761 5.57407 20.5653 4.58261 22.0938 3.89798C32.9809 -0.979142 43.2304 0.115358 52.7832 7.34175C53.0528 7.54553 53.3566 7.70352 53.6445 7.88212C54.675 8.91479 55.7054 9.94747 56.7359 10.9801Z" fill="#F7941E"/>
<path d="M67.9998 30.7863L61.4722 42.1205L54.9422 30.7863H67.9998Z" fill="#F7941E"/>
<path d="M37.3861 9.00071C37.3478 9.55609 37.6246 10.0427 37.0525 10.3346C36.9191 10.4017 36.9602 10.942 36.9049 11.3934C37.3534 11.3934 37.7041 11.3766 38.0547 11.3967C38.5856 11.4269 39.0299 11.7541 39.0441 12.3665C39.054 12.8212 38.7715 13.2927 38.6026 13.7457C38.489 14.0478 38.2307 14.338 38.2378 14.6283C38.2577 15.4538 38.3911 16.2743 38.4592 17.0981C38.5061 17.6586 38.5842 18.2592 37.8148 18.1955C37.6913 18.1854 37.5507 18.4371 37.4187 18.568C37.5564 18.7207 37.6884 18.9992 37.8318 19.0076C38.6608 19.0546 39.4927 19.0797 40.3217 19.0294C40.8767 18.9958 41.0328 19.2492 40.9945 19.8549C40.9604 20.4086 40.9647 20.969 40.9917 21.5244C41.0215 22.1234 40.8639 22.3952 40.3089 22.3566C39.5736 22.3063 38.834 22.3449 38.0447 22.3449V25.1067C38.3897 25.1067 38.719 25.0765 39.0427 25.1167C39.2868 25.1469 39.6971 25.214 39.7269 25.355C39.8021 25.7107 39.8262 26.3164 39.6516 26.4674C38.817 27.1889 39.0143 28.1856 39.0072 29.1369C39.0015 29.8702 39.0909 30.6101 38.57 31.2125C38.4422 31.3618 38.4422 31.7041 38.4394 31.9591C38.428 33.2326 38.4323 34.5044 38.4379 35.778C38.4408 36.4189 38.3329 37.0498 38.9348 37.528C39.3379 37.8485 39.1889 38.6136 38.7999 39.0649C38.6438 39.2461 38.4706 39.5012 38.4507 39.7394C38.3414 41.127 38.1512 41.3703 37.0042 41.424C36.8949 41.4291 36.7856 41.4559 36.5812 41.4878C36.5812 42.3334 36.5585 43.174 36.5897 44.013C36.6096 44.5533 36.4747 44.7781 35.9893 44.763C34.9573 44.7311 33.9239 44.7244 32.8933 44.763C32.3666 44.7831 32.2446 44.5298 32.2673 43.9643C32.3013 43.1506 32.2758 42.3351 32.2758 41.4207C31.972 41.4207 31.7548 41.424 31.5362 41.4207C30.8307 41.4039 30.4233 40.9525 30.4148 40.1018C30.4091 39.6304 30.3594 39.2864 29.9776 38.976C29.5318 38.6136 29.5389 37.7495 29.9903 37.382C30.3793 37.0666 30.4134 36.7041 30.4105 36.2394C30.4006 34.8602 30.4091 33.4809 30.4077 32.1017C30.4077 31.8903 30.4701 31.6017 30.3779 31.4792C29.5858 30.4205 29.9691 29.1084 29.8058 27.7879C29.2664 27.7879 28.7383 27.7879 28.2117 27.7879C27.9874 27.7879 27.7631 27.7963 27.5388 27.7879C25.9944 27.7275 24.3875 27.4456 23.5145 29.6151C23.2462 29.3517 23.0858 29.2175 22.9481 29.0564C21.7869 27.6923 20.6257 26.3265 19.4717 24.9556C18.8385 24.204 18.8442 22.959 19.4802 22.2023C20.6186 20.8482 21.7613 19.4975 22.9055 18.1519C23.4591 17.5008 24.5706 17.4992 25.1313 18.1619C26.4146 19.6804 27.6808 21.219 28.9754 22.7241C29.1188 22.8902 29.4112 22.9523 29.6227 22.9288C29.7135 22.9187 29.8385 22.5697 29.8441 22.37C29.8683 21.4959 29.8782 20.6183 29.847 19.7458C29.8271 19.1837 30.0017 18.9656 30.4673 19.026C30.6447 19.0495 30.8435 19.0797 31.001 19.0076C31.1487 18.9405 31.2551 18.7458 31.3801 18.6066C31.2608 18.4623 31.1586 18.2257 31.0195 18.1904C30.3793 18.0277 30.2714 17.7223 30.3864 16.9522C30.5198 16.0562 30.5369 15.1334 30.5553 14.2223C30.5582 14.0578 30.3466 13.8565 30.2004 13.7239C29.7959 13.3582 29.6568 12.8917 29.776 12.3212C29.9009 11.7273 30.2657 11.4471 30.7555 11.4018C31.1061 11.3699 31.461 11.395 31.8428 11.395C31.8826 10.8464 32.07 10.395 31.5163 10.1282C31.4028 10.0745 31.3886 9.59636 31.417 9.32622C31.4312 9.20038 31.6569 9.01413 31.7875 9.01245C33.6229 8.99567 35.4598 9.00071 37.3861 9.00071ZM37.9894 37.0263V31.6202H30.8335V37.0263H37.9894ZM33.5832 25.5614C33.5647 25.9473 33.5363 26.2577 33.5377 26.5681C33.542 28.0144 33.5477 27.7762 32.4717 27.7879C31.7605 27.7963 31.0479 27.7879 30.2955 27.7879V30.0883H38.5955C38.5955 28.7141 38.6083 27.4154 38.5813 26.1167C38.5771 25.9271 38.3826 25.5849 38.2704 25.5832C36.7274 25.5479 35.1844 25.5597 33.5832 25.5597V25.5614ZM20.3262 23.5999C21.5626 25.053 22.8217 26.5329 23.9886 27.9054C25.2307 26.4725 26.5011 25.006 27.739 23.5764C26.5011 22.1083 25.2591 20.6351 24.0439 19.1921C22.8132 20.6519 21.5697 22.1251 20.3262 23.5999ZM31.0734 13.9521V16.7273H37.7552V13.9521H31.0734ZM33.5746 25.1033C34.3426 25.1033 35.0339 25.1251 35.7224 25.0832C35.8473 25.0765 36.0645 24.8164 36.0673 24.6704C36.0915 22.9858 36.083 21.3012 36.083 19.573H32.6988C32.6988 20.7593 32.686 21.8902 32.7144 23.0211C32.7187 23.1771 32.9273 23.4539 33.0466 23.4573C33.5008 23.4707 33.5463 23.7828 33.5406 24.1939C33.5363 24.4523 33.559 24.7124 33.5746 25.1033ZM34.4448 11.838V11.8346C33.3901 11.8346 32.3354 11.8313 31.2807 11.8346C30.4744 11.838 30.1082 12.1014 30.1508 12.6837C30.209 13.5108 30.7399 13.479 31.2495 13.4773C33.3362 13.4739 35.4243 13.4756 37.511 13.4773C38.0391 13.4773 38.604 13.5243 38.692 12.6786C38.7488 12.1316 38.3187 11.838 37.5422 11.8363C36.5102 11.8346 35.4768 11.8363 34.4448 11.8363V11.838ZM34.3909 38.8283C35.5776 38.8283 36.7657 38.8283 37.9525 38.8283C38.3286 38.8283 38.7318 38.7965 38.746 38.226C38.7616 37.6068 38.3428 37.5464 37.9411 37.5464C35.589 37.5464 33.2368 37.5464 30.8846 37.5481C30.473 37.5481 30.0656 37.6337 30.0911 38.2428C30.1153 38.8032 30.5184 38.8351 30.896 38.8351C32.0614 38.8317 33.2254 38.8351 34.3909 38.8351V38.8283ZM32.7215 44.2781C33.7933 44.2781 34.838 44.2882 35.8814 44.2613C35.9765 44.2596 36.1426 44.0365 36.1468 43.909C36.171 43.1959 36.1667 42.4828 36.144 41.7697C36.1412 41.6572 35.9978 41.4576 35.9183 41.4559C34.8579 41.4341 33.7961 41.4425 32.7229 41.4425V44.2781H32.7215ZM30.2615 19.5697C30.2615 20.7744 30.253 21.9304 30.2728 23.0865C30.2757 23.2157 30.4304 23.4456 30.5241 23.4523C31.0138 23.4909 31.5078 23.4909 31.9976 23.4556C32.0969 23.4489 32.2644 23.2325 32.2673 23.11C32.2871 21.9321 32.28 20.7542 32.28 19.5697H30.2615ZM29.8058 23.4405C29.3416 23.4808 28.8036 23.3348 28.541 23.5882C27.729 24.3768 27.0221 25.3164 26.1676 26.3231H29.8058V23.4405ZM30.8534 39.2864C30.7356 39.8988 30.7981 40.1857 31.2949 40.1807C33.3745 40.1639 35.4541 40.1807 37.5323 40.1522C37.7026 40.1505 37.9809 39.9223 38.0163 39.7445C38.1129 39.2679 37.7765 39.2864 37.5039 39.2864C35.9836 39.2864 34.4633 39.2864 32.943 39.2864C32.2545 39.2864 31.5646 39.2864 30.8534 39.2864ZM37.9951 19.5428C37.9951 20.2022 37.9581 20.7828 38.0163 21.3499C38.0348 21.5378 38.2846 21.8214 38.4465 21.8398C39.0001 21.9019 39.5622 21.8918 40.1187 21.8499C40.2691 21.8382 40.5232 21.6351 40.5332 21.5009C40.5772 20.8599 40.553 20.214 40.553 19.5428H37.9951ZM37.5195 25.0496V19.5781H36.5344V25.0496H37.5195ZM30.2984 26.3114H32.334V24.0127H30.2984V26.3114ZM32.3397 10.291V11.3481H36.5017V10.291H32.3397ZM36.9191 18.1787C35.3562 18.1787 33.8316 18.1653 32.3084 18.1988C32.1466 18.2022 31.9905 18.4807 31.8301 18.63C32.0061 18.7643 32.1793 19.0109 32.3581 19.016C33.7265 19.0495 35.095 19.021 36.462 19.0445C36.973 19.0529 37.0908 18.8079 36.9176 18.1804L36.9191 18.1787ZM38.0447 17.6267C37.4769 17.0881 31.1061 17.1535 30.71 17.6267H38.0447ZM25.5217 27.2191H32.7002C32.1196 26.7023 25.949 26.7426 25.5217 27.2191ZM19.8606 23.1721C19.9515 23.0982 20.0324 23.0513 20.0934 22.9791C21.2319 21.6385 22.3717 20.2995 23.4988 18.9438C23.5712 18.8566 23.5301 18.6384 23.5429 18.4807C23.4094 18.5126 23.2377 18.4925 23.1482 18.5831C22.8146 18.9321 22.5066 19.3163 22.19 19.6888C21.4008 20.6217 20.6073 21.5512 19.828 22.4959C19.7343 22.6083 19.6945 22.8013 19.6704 22.964C19.6633 23.0143 19.7854 23.0932 19.862 23.1721H19.8606ZM28.4487 22.8633C28.3692 22.7358 28.3153 22.6217 28.2401 22.5311C27.1328 21.214 26.027 19.8952 24.9056 18.5965C24.8204 18.4992 24.6174 18.5445 24.4698 18.5227C24.501 18.6787 24.4883 18.8817 24.5692 18.9841C24.9823 19.5076 25.4166 20.0059 25.8453 20.5126C26.5281 21.318 27.2081 22.1267 27.8994 22.9221C27.9817 23.0177 28.1222 23.068 28.2401 23.0831C28.294 23.0898 28.3607 22.959 28.4473 22.8617L28.4487 22.8633ZM23.6763 28.4775C23.611 28.3768 23.5656 28.2862 23.5045 28.2141C22.3803 26.8902 21.2574 25.5647 20.1232 24.2543C20.038 24.1553 19.8634 24.1637 19.7314 24.1217C19.7541 24.2979 19.7229 24.5345 19.8081 24.6402C20.4071 25.3885 21.0289 26.11 21.6449 26.8399C22.1347 27.4188 22.6202 28.0044 23.1241 28.5664C23.2178 28.6721 23.3839 28.7057 23.5216 28.7258C23.5613 28.7309 23.6181 28.5732 23.6763 28.4758V28.4775ZM30.4574 30.7041C31.2055 31.1839 37.8432 31.1286 38.2165 30.7041H30.4574ZM36.9162 9.71213C36.9148 9.66683 36.9134 9.61984 36.9105 9.57454H31.9337C31.9337 9.61984 31.9365 9.66683 31.9379 9.71213H36.9162ZM31.1884 40.7294C31.1884 40.7663 31.1884 40.8032 31.1884 40.8418H37.5806C37.5806 40.8049 37.5806 40.768 37.5806 40.7294H31.1884ZM32.8904 26.6805C32.9401 26.6822 32.9884 26.6855 33.0381 26.6872V24.0009L32.8904 24.011V26.6805Z" fill="#F7941E"/>
<path d="M23.966 21.5096C24.5864 22.3015 25.096 22.9526 25.607 23.6053C25.1116 24.211 24.5778 24.8637 23.9093 25.6808C23.4422 25.0667 22.988 24.4945 22.5664 23.8888C22.4855 23.773 22.4699 23.4542 22.5451 23.3502C22.9866 22.7328 23.4649 22.1505 23.966 21.5113V21.5096ZM24.0285 22.3183C23.6552 22.7428 23.2974 23.1505 22.9653 23.5281C23.3329 24.0163 23.6552 24.4425 24.0129 24.9157C24.4231 24.4559 24.7851 24.0499 25.1258 23.6657C24.7155 23.1606 24.3791 22.7479 24.0285 22.3166V22.3183Z" fill="#F7941E"/>
<path d="M32.0857 46.4613C32.2261 46.4613 32.3398 46.3268 32.3398 46.161C32.3398 45.9951 32.2261 45.8606 32.0857 45.8606C31.9454 45.8606 31.8316 45.9951 31.8316 46.161C31.8316 46.3268 31.9454 46.4613 32.0857 46.4613Z" fill="#F7941E"/>
<path d="M31.3447 47.3372C31.4851 47.3372 31.5988 47.2027 31.5988 47.0368C31.5988 46.8709 31.4851 46.7365 31.3447 46.7365C31.2044 46.7365 31.0906 46.8709 31.0906 47.0368C31.0906 47.2027 31.2044 47.3372 31.3447 47.3372Z" fill="#F7941E"/>
<path d="M30.5782 48.1761C30.7185 48.1761 30.8323 48.0416 30.8323 47.8758C30.8323 47.7099 30.7185 47.5754 30.5782 47.5754C30.4379 47.5754 30.3241 47.7099 30.3241 47.8758C30.3241 48.0416 30.4379 48.1761 30.5782 48.1761Z" fill="#F7941E"/>
<path d="M29.8329 49.1241C29.9733 49.1241 30.087 48.9896 30.087 48.8238C30.087 48.6579 29.9733 48.5234 29.8329 48.5234C29.6926 48.5234 29.5788 48.6579 29.5788 48.8238C29.5788 48.9896 29.6926 49.1241 29.8329 49.1241Z" fill="#F7941E"/>
<path d="M29.0919 50C29.2323 50 29.346 49.8655 29.346 49.6996C29.346 49.5337 29.2323 49.3993 29.0919 49.3993C28.9516 49.3993 28.8378 49.5337 28.8378 49.6996C28.8378 49.8655 28.9516 50 29.0919 50Z" fill="#F7941E"/>
<path d="M28.324 50.8389C28.4643 50.8389 28.5781 50.7044 28.5781 50.5386C28.5781 50.3727 28.4643 50.2382 28.324 50.2382C28.1836 50.2382 28.0699 50.3727 28.0699 50.5386C28.0699 50.7044 28.1836 50.8389 28.324 50.8389Z" fill="#F7941E"/>
<path d="M36.4181 46.4613C36.5585 46.4613 36.6722 46.3268 36.6722 46.161C36.6722 45.9951 36.5585 45.8606 36.4181 45.8606C36.2778 45.8606 36.164 45.9951 36.164 46.161C36.164 46.3268 36.2778 46.4613 36.4181 46.4613Z" fill="#F7941E"/>
<path d="M37.1591 47.3372C37.2994 47.3372 37.4132 47.2027 37.4132 47.0368C37.4132 46.8709 37.2994 46.7365 37.1591 46.7365C37.0188 46.7365 36.905 46.8709 36.905 47.0368C36.905 47.2027 37.0188 47.3372 37.1591 47.3372Z" fill="#F7941E"/>
<path d="M37.8689 48.2432C38.0092 48.2432 38.123 48.1087 38.123 47.9429C38.123 47.777 38.0092 47.6425 37.8689 47.6425C37.7285 47.6425 37.6148 47.777 37.6148 47.9429C37.6148 48.1087 37.7285 48.2432 37.8689 48.2432Z" fill="#F7941E"/>
<path d="M38.6709 49.1241C38.8112 49.1241 38.925 48.9896 38.925 48.8238C38.925 48.6579 38.8112 48.5234 38.6709 48.5234C38.5306 48.5234 38.4168 48.6579 38.4168 48.8238C38.4168 48.9896 38.5306 49.1241 38.6709 49.1241Z" fill="#F7941E"/>
<path d="M39.4119 50C39.5522 50 39.666 49.8655 39.666 49.6996C39.666 49.5337 39.5522 49.3993 39.4119 49.3993C39.2716 49.3993 39.1578 49.5337 39.1578 49.6996C39.1578 49.8655 39.2716 50 39.4119 50Z" fill="#F7941E"/>
<path d="M40.1217 50.906C40.262 50.906 40.3758 50.7715 40.3758 50.6057C40.3758 50.4398 40.262 50.3053 40.1217 50.3053C39.9813 50.3053 39.8676 50.4398 39.8676 50.6057C39.8676 50.7715 39.9813 50.906 40.1217 50.906Z" fill="#F7941E"/>
<path d="M34.4393 46.7617C34.5796 46.7617 34.6934 46.6272 34.6934 46.4613C34.6934 46.2954 34.5796 46.161 34.4393 46.161C34.299 46.161 34.1852 46.2954 34.1852 46.4613C34.1852 46.6272 34.299 46.7617 34.4393 46.7617Z" fill="#F7941E"/>
<path d="M34.4393 47.9999C34.5796 47.9999 34.6934 47.8655 34.6934 47.6996C34.6934 47.5337 34.5796 47.3992 34.4393 47.3992C34.299 47.3992 34.1852 47.5337 34.1852 47.6996C34.1852 47.8655 34.299 47.9999 34.4393 47.9999Z" fill="#F7941E"/>
<path d="M34.3996 49.2348C34.5399 49.2348 34.6536 49.1004 34.6536 48.9345C34.6536 48.7686 34.5399 48.6342 34.3996 48.6342C34.2592 48.6342 34.1455 48.7686 34.1455 48.9345C34.1455 49.1004 34.2592 49.2348 34.3996 49.2348Z" fill="#F7941E"/>
<path d="M34.4393 50.5268C34.5796 50.5268 34.6934 50.3923 34.6934 50.2265C34.6934 50.0606 34.5796 49.9261 34.4393 49.9261C34.299 49.9261 34.1852 50.0606 34.1852 50.2265C34.1852 50.3923 34.299 50.5268 34.4393 50.5268Z" fill="#F7941E"/>
<path d="M34.4393 51.7668C34.5796 51.7668 34.6934 51.6323 34.6934 51.4664C34.6934 51.3005 34.5796 51.1661 34.4393 51.1661C34.299 51.1661 34.1852 51.3005 34.1852 51.4664C34.1852 51.6323 34.299 51.7668 34.4393 51.7668Z" fill="#F7941E"/>
<path d="M34.3996 53C34.5399 53 34.6536 52.8655 34.6536 52.6997C34.6536 52.5338 34.5399 52.3993 34.3996 52.3993C34.2592 52.3993 34.1455 52.5338 34.1455 52.6997C34.1455 52.8655 34.2592 53 34.3996 53Z" fill="#F7941E"/>
<path d="M35.4756 46.7398C35.6159 46.7398 35.7296 46.6054 35.7296 46.4395C35.7296 46.2736 35.6159 46.1392 35.4756 46.1392C35.3352 46.1392 35.2215 46.2736 35.2215 46.4395C35.2215 46.6054 35.3352 46.7398 35.4756 46.7398Z" fill="#F7941E"/>
<path d="M35.8148 47.9127C35.9552 47.9127 36.0689 47.7782 36.0689 47.6123C36.0689 47.4465 35.9552 47.312 35.8148 47.312C35.6745 47.312 35.5607 47.4465 35.5607 47.6123C35.5607 47.7782 35.6745 47.9127 35.8148 47.9127Z" fill="#F7941E"/>
<path d="M36.1158 49.0956C36.2561 49.0956 36.3699 48.9611 36.3699 48.7952C36.3699 48.6294 36.2561 48.4949 36.1158 48.4949C35.9754 48.4949 35.8617 48.6294 35.8617 48.7952C35.8617 48.9611 35.9754 49.0956 36.1158 49.0956Z" fill="#F7941E"/>
<path d="M36.509 50.302C36.6493 50.302 36.7631 50.1675 36.7631 50.0016C36.7631 49.8358 36.6493 49.7013 36.509 49.7013C36.3686 49.7013 36.2549 49.8358 36.2549 50.0016C36.2549 50.1675 36.3686 50.302 36.509 50.302Z" fill="#F7941E"/>
<path d="M36.8482 51.4748C36.9886 51.4748 37.1023 51.3403 37.1023 51.1745C37.1023 51.0086 36.9886 50.8741 36.8482 50.8741C36.7079 50.8741 36.5941 51.0086 36.5941 51.1745C36.5941 51.3403 36.7079 51.4748 36.8482 51.4748Z" fill="#F7941E"/>
<path d="M37.1478 52.6577C37.2881 52.6577 37.4019 52.5232 37.4019 52.3574C37.4019 52.1915 37.2881 52.057 37.1478 52.057C37.0074 52.057 36.8937 52.1915 36.8937 52.3574C36.8937 52.5232 37.0074 52.6577 37.1478 52.6577Z" fill="#F7941E"/>
<path d="M33.271 46.7398C33.4114 46.7398 33.5251 46.6054 33.5251 46.4395C33.5251 46.2736 33.4114 46.1392 33.271 46.1392C33.1307 46.1392 33.0169 46.2736 33.0169 46.4395C33.0169 46.6054 33.1307 46.7398 33.271 46.7398Z" fill="#F7941E"/>
<path d="M32.9318 47.9127C33.0721 47.9127 33.1859 47.7782 33.1859 47.6123C33.1859 47.4465 33.0721 47.312 32.9318 47.312C32.7914 47.312 32.6777 47.4465 32.6777 47.6123C32.6777 47.7782 32.7914 47.9127 32.9318 47.9127Z" fill="#F7941E"/>
<path d="M32.6308 49.0956C32.7712 49.0956 32.8849 48.9611 32.8849 48.7952C32.8849 48.6294 32.7712 48.4949 32.6308 48.4949C32.4905 48.4949 32.3767 48.6294 32.3767 48.7952C32.3767 48.9611 32.4905 49.0956 32.6308 49.0956Z" fill="#F7941E"/>
<path d="M32.239 50.302C32.3794 50.302 32.4931 50.1675 32.4931 50.0016C32.4931 49.8358 32.3794 49.7013 32.239 49.7013C32.0987 49.7013 31.9849 49.8358 31.9849 50.0016C31.9849 50.1675 32.0987 50.302 32.239 50.302Z" fill="#F7941E"/>
<path d="M31.8998 51.4748C32.0401 51.4748 32.1539 51.3403 32.1539 51.1745C32.1539 51.0086 32.0401 50.8741 31.8998 50.8741C31.7594 50.8741 31.6457 51.0086 31.6457 51.1745C31.6457 51.3403 31.7594 51.4748 31.8998 51.4748Z" fill="#F7941E"/>
<path d="M31.5988 52.6577C31.7392 52.6577 31.8529 52.5232 31.8529 52.3574C31.8529 52.1915 31.7392 52.057 31.5988 52.057C31.4585 52.057 31.3447 52.1915 31.3447 52.3574C31.3447 52.5232 31.4585 52.6577 31.5988 52.6577Z" fill="#F7941E"/>
</svg>
