<svg width="68" height="60" viewBox="0 0 68 60" fill="none" xmlns="http://www.w3.org/2000/svg">
<path d="M11.2639 49.9413C10.037 48.0431 8.67526 46.2182 7.61283 44.2307C5.19781 39.713 4.19249 34.8336 4.40497 29.368C1.90541 29.4825 12.3355 29.3841 8.45135 29.3429C8.18631 37.8423 10.9098 44.9107 17.3163 50.0191C27.077 57.7996 37.4522 57.7676 48.0125 51.2327C48.7368 52.2173 49.4657 53.2064 50.3727 54.4406C48.8236 55.3473 47.4345 56.3388 45.906 57.0234C35.0189 61.9005 24.7693 60.806 15.2166 53.5797C14.947 53.3759 14.6431 53.2179 14.3552 53.0393C13.3248 52.0066 12.2944 50.9739 11.2639 49.9413Z" fill="#F7941E"/>
<path d="M0 30.1351L6.52993 18.801L13.0576 30.1351H0Z" fill="#F7941E"/>
<path d="M56.7359 10.0587C57.9628 11.9569 59.3245 13.7818 60.387 15.7693C62.802 20.287 63.8073 25.1664 63.5948 30.632C66.0944 30.5175 55.6643 30.6159 59.5485 30.6572C59.8135 22.1577 57.09 15.0893 50.6834 9.98089C40.9228 2.20038 30.5476 2.23244 19.9873 8.76733C19.263 7.78275 18.5341 6.79358 17.6271 5.55942C19.1761 4.65268 20.5653 3.66123 22.0938 2.9766C32.9809 -1.90053 43.2304 -0.806033 52.7832 6.42036C53.0528 6.62414 53.3567 6.78213 53.6445 6.96073C54.675 7.9934 55.7054 9.02607 56.7359 10.0587Z" fill="#F7941E"/>
<path d="M67.9998 29.8649L61.4722 41.1991L54.9422 29.8649H67.9998Z" fill="#F7941E"/>
<path d="M16.6073 29.1545C16.696 28.494 16.7512 27.8264 16.8782 27.1731C17.9164 21.7382 20.8679 17.677 25.7015 15.0136C28.4181 13.5174 31.3648 12.8665 34.4553 13.0226C39.3033 13.2628 43.3625 15.2153 46.5921 18.8466C49.0234 21.5797 50.438 24.7979 50.776 28.4388C51.2484 33.5207 49.7738 37.9997 46.3356 41.7751C43.5663 44.8156 40.0993 46.5832 36.033 47.1668C35.6038 47.2293 35.1722 47.2701 34.743 47.3205C34.0741 47.3205 33.4051 47.3205 32.7362 47.3205C32.6499 47.3013 32.566 47.2725 32.4773 47.2653C29.8207 47.0779 27.3319 46.3214 25.0614 44.9381C20.5898 42.217 17.8373 38.2783 16.8734 33.1124C16.7536 32.4687 16.6936 31.8155 16.6073 31.1646C16.6073 30.497 16.6073 29.8245 16.6073 29.1545ZM36.0521 14.1226C35.6925 15.2802 35.3496 16.3849 35.0068 17.4921C34.954 17.665 34.8725 17.8355 34.6663 17.7467C34.6016 17.7178 34.6064 17.5113 34.5992 17.384C34.5944 17.3216 34.6327 17.2567 34.6543 17.1919C34.9732 16.1616 35.2921 15.1313 35.623 14.0649C32.8345 13.7455 30.1851 14.1202 27.6005 15.1601C28.0081 16.9853 28.4085 18.7746 28.8185 20.607C30.4417 19.7856 32.1272 19.3966 33.9206 19.4182C33.9758 19.2501 34.0046 19.0772 34.0861 18.9403C34.1388 18.8514 34.2731 18.8106 34.3714 18.7481C34.4098 18.849 34.4745 18.9499 34.4769 19.0507C34.4793 19.1684 34.4265 19.2861 34.3906 19.4326C36.1792 19.5575 37.8288 20.0786 39.3441 20.9937C39.6582 20.7031 39.9339 20.4245 40.2384 20.1795C40.3295 20.1051 40.4998 20.1291 40.634 20.1075C40.6005 20.2396 40.6052 20.4077 40.5237 20.4965C40.2864 20.7559 40.0154 20.9841 39.7469 21.2338C39.8068 21.2867 39.8356 21.3179 39.8716 21.3419C41.2166 22.2858 42.31 23.4602 43.1204 24.8915C43.2067 25.0453 43.3002 25.0741 43.4704 25.0332C45.0672 24.673 46.6665 24.3272 48.2633 23.9741C48.3976 23.9453 48.5294 23.8997 48.6781 23.8588C47.5776 21.3035 45.9664 19.1924 43.8109 17.4633C43.3985 17.8451 43.0029 18.2174 42.5977 18.5824C42.4706 18.6953 42.3435 18.9451 42.1397 18.7265C41.9215 18.4936 42.1853 18.3735 42.3148 18.2462C42.6816 17.8908 43.0604 17.5473 43.4512 17.1823C41.231 15.5371 38.7854 14.5236 36.0521 14.1226ZM32.0601 46.3479C37.3133 47.0035 43.0988 44.6883 46.4219 40.3077C45.1943 38.9772 43.9643 37.6467 42.7607 36.3426C42.1733 36.9862 41.6506 37.6443 41.0416 38.2063C40.4302 38.7683 39.7325 39.2366 39.042 39.7721C39.1355 40.1972 39.241 40.6752 39.3417 41.1531C39.3753 41.3164 39.4328 41.5326 39.1954 41.547C39.0995 41.5518 38.9365 41.3644 38.8981 41.2371C38.7759 40.8169 38.6991 40.3822 38.6008 39.9331C38.4426 40.0051 38.3203 40.0603 38.2004 40.1156C36.9512 40.692 35.6373 41.0138 34.2659 41.0762C32.2519 41.1675 30.3458 40.7448 28.5763 39.7649C28.3869 39.6593 28.2718 39.6809 28.116 39.8274C27.061 40.8241 25.9988 41.8111 24.9391 42.8006C24.7281 42.9976 24.5195 43.1945 24.3085 43.3938C25.8142 44.7171 30.1084 46.4055 31.6357 46.2758C31.9138 45.3776 32.1919 44.4722 32.4725 43.5691C32.506 43.4635 32.5228 43.3434 32.5852 43.2569C32.6331 43.1897 32.7698 43.108 32.8129 43.132C32.8897 43.1753 32.9544 43.2858 32.9712 43.3794C32.9856 43.4563 32.928 43.5475 32.9016 43.634C32.6187 44.5346 32.3406 45.44 32.0601 46.3479ZM24.5866 24.44C24.6106 24.4208 24.6226 24.4136 24.6274 24.4064C25.5769 22.9846 26.7661 21.8126 28.2334 20.924C28.3078 20.8784 28.3557 20.7007 28.3341 20.6022C28.08 19.4134 27.8139 18.227 27.5477 17.0406C27.423 16.4834 27.296 15.9262 27.1665 15.3594C21.5728 17.8211 18.1346 23.2272 17.6647 28.2418C19.3981 28.7774 21.1364 29.3178 22.8747 29.8557C22.9059 29.7909 22.9275 29.7645 22.9323 29.7333C22.9443 29.6564 22.949 29.5772 22.9538 29.5003C23.0306 28.2034 23.3495 26.969 23.8889 25.7922C24.028 25.4872 24.3229 25.1773 24.2917 24.8964C24.2606 24.6202 23.8937 24.392 23.7043 24.123C23.6396 24.0318 23.6659 23.8757 23.6516 23.7508C23.7762 23.7772 23.9345 23.7628 24.0184 23.8348C24.227 24.0149 24.402 24.2359 24.5866 24.44ZM42.9693 35.9055C44.2161 37.2552 45.4557 38.5977 46.6952 39.9403C48.0187 38.5473 49.7522 34.3949 49.7354 32.6585C48.7956 32.3679 47.8509 32.0749 46.9062 31.7819C46.7528 31.7338 46.5802 31.6954 46.6449 31.4769C46.712 31.2535 46.8847 31.328 47.0333 31.3736C47.7358 31.5897 48.4359 31.8083 49.1384 32.0244C49.3662 32.0941 49.5964 32.1589 49.829 32.2262C50.2054 29.3994 49.7211 26.3085 48.8315 24.3127C47.0597 24.7042 45.283 25.0981 43.4824 25.4968C43.5232 25.612 43.5471 25.6961 43.5807 25.773C44.137 26.9954 44.4583 28.2755 44.5326 29.6156C44.5494 29.9374 44.4654 30.3433 44.6285 30.5546C44.7915 30.766 45.2135 30.7636 45.5108 30.8861C45.6307 30.9365 45.7194 31.0662 45.8225 31.1598C45.6786 31.2031 45.5276 31.3015 45.3957 31.2775C45.108 31.2295 44.8299 31.119 44.5446 31.0326C44.1921 33.3886 44.0459 33.8425 42.9693 35.9055ZM23.8985 43.12C25.2532 41.8664 26.5791 40.6415 27.9193 39.3999C27.8186 39.3278 27.7515 39.275 27.6796 39.227C26.5383 38.4536 25.5865 37.4954 24.8048 36.3618C24.3756 35.7374 24.3732 35.7422 23.642 35.9079C23.1744 36.0136 22.7045 36.1048 22.2393 36.2201C22.0403 36.2681 21.8509 36.2729 21.8174 36.052C21.8054 35.9775 22.0188 35.8575 22.141 35.7782C22.201 35.7374 22.2897 35.7398 22.3664 35.723C22.9586 35.5885 23.5485 35.4516 24.167 35.3099C23.3758 33.7848 22.973 32.1998 22.9107 30.5234C22.9059 30.4273 22.7668 30.2832 22.6613 30.2496C21.0381 29.7357 19.4101 29.2385 17.7821 28.7366C17.7246 28.7174 17.6599 28.715 17.5783 28.7006C17.3506 31.4168 17.7294 34.0082 18.7868 36.5083C18.8803 36.4915 18.945 36.4819 19.0097 36.4675C19.5108 36.3594 20.0119 36.2537 20.5107 36.1433C20.6833 36.1048 20.8559 36.1216 20.8679 36.3162C20.8727 36.405 20.7169 36.5203 20.6114 36.5876C20.5322 36.638 20.4195 36.638 20.3212 36.6596C19.8825 36.7557 19.4437 36.8517 18.9786 36.9526C20.1342 39.4287 21.7574 41.4629 23.8985 43.12ZM33.7504 20.314C28.3054 20.2924 23.841 24.7595 23.829 30.24C23.8146 35.6869 28.2982 40.1852 33.7408 40.1828C39.1763 40.1804 43.6263 35.7302 43.6502 30.2712C43.6766 24.8339 39.2026 20.3356 33.7504 20.314Z" fill="#F7941E"/>
<path d="M44.3504 20.919C44.6573 20.9166 44.9306 21.1808 44.933 21.4858C44.9378 21.8196 44.6597 22.1102 44.3336 22.1174C44.0339 22.1246 43.7773 21.8533 43.7725 21.5338C43.7701 21.2144 44.0483 20.919 44.3504 20.919Z" fill="#F7941E"/>
<path d="M39.1043 17.379C39.1043 17.7248 38.879 17.9674 38.5601 17.9626C38.2436 17.9578 37.9655 17.6792 37.9655 17.3646C37.9631 17.0356 38.2196 16.7882 38.5649 16.7882C38.8718 16.7858 39.1043 17.038 39.1043 17.379Z" fill="#F7941E"/>
<path d="M31.5014 16.1301C31.8083 16.1373 32.0721 16.4159 32.0649 16.7209C32.0553 17.0235 31.77 17.2949 31.4703 17.2853C31.161 17.2757 30.9068 17.0019 30.914 16.6897C30.9212 16.3703 31.1825 16.1205 31.5014 16.1301Z" fill="#F7941E"/>
<path d="M41.6482 19.4444C41.4061 19.6485 41.1831 19.8455 40.9433 20.0232C40.9193 20.04 40.7755 19.9511 40.7443 19.8839C40.7155 19.8239 40.7323 19.699 40.7779 19.6485C40.9193 19.4948 41.0776 19.3507 41.2454 19.2259C41.3006 19.185 41.4157 19.185 41.4852 19.2114C41.5427 19.2355 41.5715 19.3291 41.6482 19.4444Z" fill="#F7941E"/>
<path d="M42.4298 41.4363C42.123 41.4315 41.8712 41.1649 41.876 40.8479C41.8808 40.5188 42.1541 40.2451 42.4682 40.2523C42.7919 40.2619 43.0412 40.5092 43.0412 40.8239C43.0436 41.1553 42.7559 41.4411 42.4298 41.4363Z" fill="#F7941E"/>
<path d="M28.9192 42.5242C29.2261 42.5242 29.4658 42.786 29.4586 43.115C29.4514 43.4585 29.2213 43.7034 28.9096 43.701C28.5811 43.6962 28.3102 43.4056 28.3174 43.067C28.3246 42.7596 28.5883 42.5242 28.9192 42.5242Z" fill="#F7941E"/>
<path d="M36.5652 43.7971C36.5652 44.1117 36.3087 44.3735 35.9946 44.3759C35.6877 44.3783 35.4144 44.1069 35.4144 43.8019C35.412 43.4969 35.6829 43.2255 35.9922 43.2255C36.3063 43.2231 36.5628 43.4801 36.5652 43.7971Z" fill="#F7941E"/>
<path d="M39.9243 43.7467C39.8788 43.8019 39.8236 43.9316 39.7517 43.9412C39.6702 43.9532 39.5143 43.8739 39.4951 43.8043C39.4064 43.4945 39.3417 43.1775 39.2985 42.858C39.2889 42.7908 39.4112 42.6515 39.4855 42.6419C39.5599 42.6347 39.6965 42.7332 39.7205 42.81C39.802 43.1006 39.8524 43.3984 39.9243 43.7467Z" fill="#F7941E"/>
<path d="M33.1438 42.565C33.0383 42.4498 32.9328 42.3801 32.9424 42.3369C32.9975 42.1063 33.0743 41.8806 33.1654 41.6596C33.175 41.638 33.3884 41.6668 33.3908 41.6812C33.4051 41.8446 33.4195 42.0175 33.3836 42.1736C33.35 42.2961 33.2469 42.4017 33.1438 42.565Z" fill="#F7941E"/>
<path d="M25.0566 20.2273C24.7521 20.2297 24.4883 19.9656 24.4811 19.6509C24.4739 19.3171 24.7305 19.0385 25.047 19.0313C25.3731 19.0241 25.6488 19.2931 25.6464 19.6149C25.6416 19.9223 25.3539 20.2225 25.0566 20.2273Z" fill="#F7941E"/>
<path d="M21.4337 25.4245C21.4242 25.7847 21.2036 26.0153 20.8823 26.0009C20.5466 25.9865 20.2757 25.6911 20.2925 25.3597C20.3093 25.0474 20.5754 24.8121 20.8991 24.8169C21.2084 24.8265 21.4433 25.0931 21.4337 25.4245Z" fill="#F7941E"/>
<path d="M22.352 22.1511C22.4815 22.2039 22.5343 22.2111 22.5606 22.2375C22.7357 22.42 22.9203 22.5978 23.0689 22.7995C23.1121 22.8571 23.0689 23.0132 23.0162 23.0877C22.9898 23.1261 22.8172 23.1141 22.7644 23.0661C22.587 22.9028 22.4096 22.7299 22.2801 22.5281C22.2322 22.4561 22.3209 22.2928 22.352 22.1511Z" fill="#F7941E"/>
<path d="M21.8605 21.4546C21.7167 21.5554 21.6016 21.6587 21.5824 21.6443C21.3978 21.4882 21.2275 21.3153 21.0549 21.1472C21.1268 21.0751 21.2515 20.931 21.2611 20.9382C21.4505 21.0847 21.628 21.2504 21.8605 21.4546Z" fill="#F7941E"/>
<path d="M47.1292 35.0767C47.1244 35.425 46.899 35.6651 46.5802 35.6603C46.2613 35.6555 45.9903 35.3817 45.9879 35.0599C45.9855 34.7165 46.2301 34.4835 46.585 34.4883C46.9014 34.4931 47.134 34.7429 47.1292 35.0767Z" fill="#F7941E"/>
<path d="M47.2731 27.4131C47.5728 27.4179 47.8533 27.7037 47.8461 28.0015C47.8389 28.3089 47.568 28.5683 47.2539 28.5635C46.9398 28.5586 46.6785 28.2921 46.6833 27.9823C46.6881 27.682 46.971 27.4083 47.2731 27.4131Z" fill="#F7941E"/>
<path d="M23.7571 38.9169C23.7618 39.2268 23.4765 39.539 23.1816 39.5462C22.8579 39.5534 22.5774 39.2844 22.5726 38.9626C22.5702 38.6552 22.8651 38.3478 23.1648 38.3478C23.4693 38.3478 23.7523 38.6191 23.7571 38.9169Z" fill="#F7941E"/>
<path d="M20.2205 31.9282C20.525 31.933 20.796 32.2116 20.7912 32.5166C20.7864 32.8216 20.5059 33.0978 20.2062 33.0906C19.9064 33.0858 19.6283 32.7976 19.6307 32.5022C19.6355 32.2019 19.9208 31.9234 20.2205 31.9282Z" fill="#F7941E"/>
<path d="M33.7408 39.1955C28.8113 39.2003 24.7904 35.1776 24.7713 30.223C24.7545 25.266 28.7753 21.2288 33.736 21.2264C38.6943 21.224 42.72 25.2612 42.7056 30.2182C42.6912 35.1728 38.6752 39.1907 33.7408 39.1955ZM33.736 21.6683C29.039 21.6755 25.2388 25.4821 25.2268 30.1918C25.2124 34.887 29.0726 38.7536 33.7528 38.7392C38.4354 38.7224 42.2644 34.875 42.25 30.1966C42.2356 25.5014 38.4018 21.6611 33.736 21.6683Z" fill="#F7941E"/>
<path d="M31.8683 29.003C31.686 28.6811 31.1298 28.4794 31.547 27.9943C31.7484 27.7589 31.9594 27.843 32.5228 28.3377C32.7218 28.256 32.9328 28.1864 33.127 28.0807C33.2013 28.0399 33.2565 27.9246 33.2757 27.8358C33.3068 27.6844 33.2541 27.4971 33.3284 27.3794C33.4147 27.2425 33.5946 27.084 33.736 27.0816C33.8775 27.0792 34.0213 27.2594 34.1604 27.3626C34.1748 27.3722 34.182 27.4059 34.1796 27.4251C34.0549 28.0327 34.4673 28.1984 34.9828 28.3185C35.2489 28.1768 35.4863 27.5596 35.9394 28.0183C36.3662 28.4506 35.8004 28.6811 35.6206 28.9837C35.7117 29.1999 35.7908 29.4184 35.8987 29.6226C35.9347 29.6898 36.0449 29.7355 36.1289 29.7499C36.2583 29.7739 36.3974 29.7451 36.5293 29.7691C36.7738 29.8123 36.8937 29.9732 36.8865 30.2206C36.8793 30.4487 36.7594 30.6553 36.5341 30.6265C36.033 30.5616 35.8507 30.833 35.7476 31.2437C35.7285 31.3181 35.6853 31.3854 35.6565 31.4526C36.1217 32.0747 36.1744 32.2404 35.9155 32.4373C35.4935 32.7567 35.2849 32.3388 35.0212 32.1419C34.7886 32.238 34.5608 32.322 34.3426 32.4253C34.2803 32.4565 34.2203 32.5382 34.2036 32.6102C34.1772 32.7159 34.2012 32.8336 34.1868 32.9441C34.1556 33.1986 34.007 33.3595 33.748 33.3619C33.4891 33.3667 33.2685 33.2034 33.3068 32.9609C33.4099 32.3196 32.8465 32.3773 32.5396 32.1659C32.5084 32.1443 32.4173 32.1827 32.3718 32.2164C32.2926 32.274 32.2303 32.3581 32.1512 32.4205C31.9378 32.5862 31.7196 32.6078 31.5254 32.3965C31.3456 32.2019 31.3624 31.9954 31.5326 31.7937C31.6309 31.6784 31.8131 31.5415 31.7963 31.4382C31.758 31.1908 31.6333 30.9579 31.5278 30.7249C31.5086 30.6841 31.4199 30.6625 31.36 30.6553C31.2377 30.6433 31.1154 30.6505 30.9931 30.6409C30.7246 30.6169 30.5951 30.4583 30.5951 30.1966C30.5975 29.9492 30.739 29.7451 30.9715 29.7763C31.4439 29.8387 31.6573 29.6178 31.7676 29.2071C31.7843 29.1326 31.8347 29.0678 31.8683 29.003ZM32.3933 30.247C32.3933 30.9723 33.0095 31.5943 33.7312 31.5991C34.4505 31.6039 35.0763 30.9819 35.0835 30.259C35.0907 29.5097 34.4697 28.8877 33.7288 28.8949C32.9952 28.9021 32.3933 29.5121 32.3933 30.247Z" fill="#F7941E"/>
<path d="M36.7906 36.2583C36.4789 36.2535 35.8268 35.6939 35.8292 35.3937C35.8316 35.2544 35.9083 35.0863 36.0066 34.9831C36.817 34.1521 37.637 33.3331 38.4618 32.5166C38.7255 32.2548 38.8502 32.3148 39.1379 32.5286C39.8212 33.0377 39.7325 33.6405 39.4544 34.3106C38.9557 35.5306 37.8408 36.1743 36.7906 36.2583ZM36.3686 35.3337C36.7235 35.7996 36.793 35.8308 37.3517 35.6603C38.2963 35.3697 38.9101 34.7405 39.1954 33.7966C39.3585 33.2611 39.2961 33.1314 38.8526 32.848C38.0206 33.6814 37.1958 34.5075 36.3686 35.3337Z" fill="#F7941E"/>
<path d="M30.5831 36.2055C29.1086 36.0638 27.8954 34.9158 27.7443 33.3475C27.7132 33.0281 28.2478 32.3821 28.5691 32.3556C28.7058 32.3436 28.888 32.4037 28.9839 32.4973C29.8135 33.3067 30.6287 34.1281 31.4415 34.9518C31.6788 35.192 31.6669 35.4057 31.4463 35.6579C31.0315 36.1358 30.9044 36.2151 30.5831 36.2055ZM28.6219 32.8312C28.3893 33.0689 28.1783 33.2851 28.2886 33.6934C28.5451 34.6636 29.1134 35.3289 30.0532 35.6675C30.6742 35.8909 30.7582 35.8645 31.1681 35.3745C30.3242 34.5315 29.4826 33.691 28.6219 32.8312Z" fill="#F7941E"/>
<path d="M39.7733 27.0696C39.7733 27.3914 39.2578 28.0423 38.9485 28.0615C38.8118 28.0687 38.632 28.0015 38.5337 27.9054C37.6897 27.0792 36.8577 26.2411 36.0258 25.4029C35.81 25.1843 35.8268 24.961 36.0138 24.7184C36.3494 24.2813 36.7259 24.1084 37.3061 24.2525C38.7519 24.6079 39.6774 25.804 39.7733 27.0696ZM38.9125 27.5812C39.03 27.3722 39.2722 27.1441 39.2554 26.9399C39.1667 25.888 38.3491 24.9898 37.3325 24.6848C36.8865 24.5527 36.5556 24.644 36.3255 24.9874C37.1718 25.8376 38.0134 26.6806 38.9125 27.5812Z" fill="#F7941E"/>
<path d="M31.6549 25.1051C31.6117 25.1675 31.5494 25.302 31.4511 25.4005C30.6431 26.217 29.8327 27.0312 29.0175 27.8406C28.7537 28.1023 28.5451 28.0951 28.2622 27.8406C27.634 27.2762 27.5813 26.7982 28.0704 25.8736C28.5931 24.8889 29.4179 24.3245 30.516 24.1636C30.9691 24.0964 31.6764 24.6416 31.6549 25.1051ZM28.5691 27.5764C29.4251 26.719 30.2642 25.8784 31.1538 24.9898C30.9739 24.8769 30.7677 24.6392 30.5927 24.6608C29.4443 24.7905 28.6482 25.4149 28.2646 26.5221C28.0608 27.1057 28.0968 27.1873 28.5691 27.5764Z" fill="#F7941E"/>
</svg>
