<svg width="60" height="60" viewBox="0 0 60 60" fill="none" xmlns="http://www.w3.org/2000/svg">
<circle cx="30" cy="30" r="28.5" stroke="#F7941E" stroke-width="3"/>
<path d="M27.0619 26.9207C27.0619 24.1553 27.1007 21.6851 27.0232 19.2174C27.0103 18.823 26.5609 18.3244 26.1787 18.0827C24.9932 17.3373 23.6682 16.7904 22.5551 15.961C22.1083 15.6278 22.0747 14.7602 21.8552 14.137C22.4854 14.0785 23.1982 13.8037 23.7302 14.0021C24.8021 14.4015 25.7757 15.0554 27.0671 15.755C27.0671 14.17 26.9561 12.8548 27.1162 11.5701C27.1885 10.99 27.8032 10.471 28.1725 9.92407C28.6038 10.4888 29.3967 11.0485 29.4071 11.6209C29.5052 16.77 29.4639 21.9191 29.4639 27.0707C29.4639 33.2629 29.4639 39.455 29.4639 45.6446C29.4639 46.0491 29.6085 46.5477 29.4226 46.8403C29.1023 47.344 28.5754 47.718 28.1364 48.1454C27.7799 47.7104 27.1627 47.2982 27.1136 46.8327C26.9767 45.4614 27.0645 44.0673 27.0645 42.3196C25.8739 42.9556 24.9364 43.6221 23.8904 43.9554C23.2705 44.1538 22.4802 43.8282 21.7674 43.7392C22.067 43.1362 22.3614 42.5333 22.6661 41.9354C22.6868 41.8947 22.7643 41.8718 22.8185 41.854C26.7469 40.7092 27.7025 37.9642 27.0852 34.3034C26.9328 33.4054 27.0619 32.4615 27.0619 31.1081C24.4844 32.5735 22.1264 33.8785 19.8252 35.2752C19.5488 35.4431 19.4868 36.0995 19.4817 36.5294C19.4713 37.8574 19.6547 39.2006 19.5126 40.5082C19.4584 41.0043 18.7197 41.4266 18.291 41.882C17.9036 41.4037 17.2708 40.9662 17.183 40.4396C17.0074 39.3762 17.1314 38.267 17.1314 36.8449C15.7548 37.5826 14.6442 38.3051 13.4303 38.7758C12.8673 38.9946 11.8135 38.9717 11.501 38.6155C10.7701 37.7887 11.5036 37.1654 12.2681 36.7228C13.3787 36.0791 14.4944 35.4431 15.8219 34.6824C14.6623 33.9854 13.5595 33.4613 12.6478 32.7108C12.2216 32.3623 12.1674 31.5787 11.9427 30.9911C12.5522 30.8791 13.1798 30.6349 13.7687 30.7011C14.2491 30.7545 14.7527 31.1081 15.1349 31.4515C17.3173 33.4181 19.4042 33.1789 21.6279 31.4465C22.7953 30.5382 24.1925 29.915 25.7732 28.9966C23.2783 27.5948 21.0752 26.3152 18.8179 25.1348C18.477 24.9567 17.8261 25.1297 17.4232 25.3357C16.1758 25.9743 15.0187 26.8036 13.7351 27.3506C13.265 27.5516 12.5367 27.1674 11.9272 27.0479C12.157 26.4704 12.2268 25.7046 12.6503 25.3561C13.5311 24.631 14.5977 24.1273 15.84 23.3819C14.4918 22.6085 13.2831 22.0463 12.25 21.2628C11.7774 20.9041 11.6482 20.1052 11.3641 19.5048C12.0718 19.4234 12.8776 19.0953 13.4717 19.314C14.6442 19.7491 15.7031 20.4868 17.134 21.278C17.134 19.805 17.01 18.6577 17.1882 17.5561C17.2708 17.0448 17.9423 16.6276 18.3453 16.1671C18.7559 16.6352 19.4584 17.0702 19.5204 17.579C19.665 18.7696 19.5617 20.0035 19.4455 21.2093C19.3422 22.2931 19.8097 22.896 20.742 23.3896C22.7953 24.4784 24.7969 25.6486 27.0619 26.9207Z" fill="#F7941E"/>
<path d="M30.6881 19.5863C35.714 19.7974 39.6579 23.7228 39.8077 28.5285C39.9781 33.9701 36.4398 37.9439 30.6881 38.6079C30.6881 32.2885 30.6881 25.987 30.6881 19.5863Z" fill="#F7941E"/>
<path d="M35.7889 40.493C36.024 40.6838 36.7032 41.0018 36.9951 41.5284C37.5452 42.5307 38.116 43.6323 38.2012 44.7288C38.2554 45.4309 37.6175 46.5198 36.9847 46.8301C36.4811 47.0769 35.182 46.6292 34.823 46.1C34.1308 45.0824 33.7253 43.818 33.4387 42.602C33.1571 41.4037 34.1153 40.465 35.7889 40.493Z" fill="#F7941E"/>
<path d="M39.4022 13.1779C38.6222 14.7323 38.0772 16.1366 37.2301 17.3323C36.9383 17.7444 35.7089 17.9428 35.2259 17.6782C34.6603 17.3679 34.0327 16.3553 34.1567 15.8058C34.4537 14.4957 35.0477 13.1957 35.7915 12.0661C36.0834 11.626 37.2017 11.364 37.7673 11.5472C38.3897 11.7507 38.8159 12.5546 39.4022 13.1779Z" fill="#F7941E"/>
<path d="M43.3718 26.0989C42.7985 25.5443 41.9978 25.1195 41.8764 24.5547C41.737 23.9085 41.9797 22.7739 42.4498 22.4915C43.6146 21.7919 44.9757 21.3136 46.3187 21.0541C46.8482 20.9524 47.8864 21.5451 48.0724 22.0463C48.2971 22.6492 48.1111 23.8653 47.6617 24.1553C46.4298 24.9541 44.9654 25.4121 43.3718 26.0989Z" fill="#F7941E"/>
<path d="M48.0207 35.84C47.9458 37.3537 46.781 38.239 45.5594 37.8396C44.4617 37.4809 43.2943 37.0993 42.4085 36.4124C41.8661 35.9926 41.4658 34.9089 41.613 34.2576C41.737 33.7081 42.863 32.8813 43.3357 32.9983C44.7691 33.3519 46.1353 34.0464 47.4525 34.7435C47.8141 34.9343 47.9097 35.6085 48.0207 35.84Z" fill="#F7941E"/>
</svg>
