<svg width="68" height="60" viewBox="0 0 68 60" fill="none" xmlns="http://www.w3.org/2000/svg">
<path d="M11.2639 49.9413C10.037 48.0431 8.67525 46.2182 7.61282 44.2307C5.1978 39.7131 4.19249 34.8337 4.40497 29.3681C1.90541 29.4826 12.3355 29.3841 8.45134 29.3429C8.18631 37.8424 10.9098 44.9108 17.3163 50.0192C27.077 57.7997 37.4522 57.7676 48.0125 51.2327C48.7368 52.2173 49.4657 53.2065 50.3727 54.4406C48.8236 55.3474 47.4345 56.3388 45.906 57.0234C35.0189 61.9006 24.7693 60.8061 15.2166 53.5797C14.947 53.3759 14.6431 53.2179 14.3552 53.0393C13.3248 52.0066 12.2944 50.974 11.2639 49.9413Z" fill="#F7941E"/>
<path d="M0 30.1351L6.52994 18.801L13.0576 30.1351H0Z" fill="#F7941E"/>
<path d="M56.7359 10.0587C57.9628 11.9569 59.3245 13.7819 60.387 15.7694C62.802 20.287 63.8073 25.1664 63.5948 30.632C66.0944 30.5175 55.6643 30.6159 59.5484 30.6572C59.8135 22.1577 57.09 15.0893 50.6834 9.9809C40.9228 2.2004 30.5476 2.23244 19.9872 8.76734C19.263 7.78275 18.5341 6.79359 17.6271 5.55942C19.1761 4.65269 20.5653 3.66123 22.0938 2.9766C32.9809 -1.90053 43.2304 -0.806029 52.7832 6.42036C53.0528 6.62415 53.3566 6.78214 53.6445 6.96073C54.675 7.9934 55.7054 9.02608 56.7359 10.0587Z" fill="#F7941E"/>
<path d="M67.9998 29.8649L61.4722 41.1991L54.9422 29.8649H67.9998Z" fill="#F7941E"/>
<path d="M32.9428 30.6507C29.7727 30.6507 26.6357 30.6507 23.4727 30.6507C23.4656 30.7798 23.4561 30.89 23.4561 31.0003C23.4561 33.1094 23.4609 35.2186 23.449 37.3277C23.449 37.5693 23.5272 37.6726 23.7478 37.7711C25.1917 38.4092 25.9908 39.9764 25.6565 41.4756C25.3079 43.0404 23.973 44.1196 22.3796 44.122C20.791 44.1243 19.4182 43.0498 19.0815 41.5413C18.7353 39.9882 19.5201 38.4116 20.9831 37.7711C21.2131 37.6702 21.2747 37.5553 21.2747 37.3253C21.27 32.1499 21.27 26.9721 21.2747 21.7966C21.2747 21.562 21.2036 21.4541 20.9807 21.3532C19.5154 20.708 18.7353 19.1385 19.0815 17.5807C19.4134 16.0722 20.7934 14.9953 22.3844 15C23.9778 15.0047 25.315 16.0863 25.6588 17.6487C25.9884 19.1526 25.1894 20.7151 23.743 21.3509C23.5178 21.4494 23.449 21.562 23.4514 21.7966C23.4609 23.894 23.4561 25.9914 23.4561 28.0888C23.4561 28.1991 23.4561 28.3117 23.4561 28.4525C26.6239 28.4525 29.7608 28.4525 32.9428 28.4525C32.9475 28.3516 32.957 28.2437 32.957 28.1357C32.957 26.0266 32.9523 23.9175 32.9641 21.8083C32.9665 21.5526 32.8811 21.4447 32.6511 21.3415C31.1929 20.6846 30.4223 19.1385 30.7661 17.5948C31.1005 16.0792 32.4638 15 34.0453 15C35.6268 15 36.9902 16.0792 37.3269 17.5971C37.6683 19.1409 36.9025 20.6822 35.4419 21.3438C35.2119 21.4471 35.1265 21.555 35.1289 21.8107C35.1408 23.9081 35.136 26.0055 35.136 28.1029C35.136 28.2132 35.136 28.3234 35.136 28.4595C38.3085 28.4595 41.4478 28.4595 44.6393 28.4595C44.6393 28.3281 44.6393 28.2085 44.6393 28.0912C44.6393 25.9938 44.6346 23.8964 44.644 21.799C44.644 21.5644 44.5777 21.4517 44.3524 21.3532C42.8586 20.6963 42.0762 19.0869 42.4674 17.5197C42.861 15.9361 44.3192 14.9062 46.0193 15.0094C47.57 15.1032 48.8859 16.3654 49.0803 17.9443C49.2534 19.3543 48.452 20.769 47.1171 21.3509C46.8705 21.4588 46.8207 21.5878 46.8207 21.8271C46.8278 24.3304 46.8254 26.8337 46.8254 29.3369C46.8254 30.2449 46.4318 30.6367 45.5166 30.6367C42.1449 30.639 38.7756 30.639 35.404 30.639C35.3352 30.639 35.2688 30.646 35.1716 30.6484C35.1597 30.7329 35.1337 30.8173 35.1337 30.9018C35.1337 33.0437 35.1384 35.1881 35.1337 37.33C35.1337 37.5482 35.1858 37.6585 35.4016 37.757C36.9025 38.421 37.6802 39.9717 37.3245 41.5436C36.9784 43.0803 35.5771 44.1501 33.9552 44.1196C32.3619 44.0891 31.0341 42.9559 30.7329 41.3676C30.4532 39.899 31.2522 38.3999 32.6725 37.7664C32.8977 37.6655 32.9641 37.5529 32.9618 37.3207C32.9546 35.1998 32.957 33.0813 32.957 30.9604C32.9546 30.8689 32.9475 30.7798 32.9428 30.6507Z" fill="#F7941E"/>
<path d="M46.8231 34.9605C46.8231 35.7605 46.8302 36.5605 46.8184 37.3605C46.8136 37.574 46.8871 37.6702 47.0839 37.757C48.573 38.4092 49.3649 39.9741 49.014 41.5413C48.6749 43.0474 47.3021 44.122 45.7158 44.1196C44.1248 44.1173 42.7828 43.0357 42.439 41.4756C42.1047 39.9553 42.9061 38.4022 44.3738 37.757C44.5919 37.6608 44.6441 37.5482 44.6441 37.33C44.6346 35.7417 44.6346 34.1511 44.6441 32.5628C44.6465 31.9411 45.0448 31.5 45.6115 31.4484C46.2849 31.3874 46.8089 31.8402 46.8207 32.5253C46.835 33.337 46.8231 34.1488 46.8231 34.9605C46.8207 34.9605 46.8207 34.9605 46.8231 34.9605Z" fill="#F7941E"/>
</svg>
