<svg width="30" height="30" viewBox="0 0 30 30" fill="none" xmlns="http://www.w3.org/2000/svg">
<rect width="30" height="30" rx="15" fill="white"/>
<path d="M5.47248 22.9767C4.98532 22.2174 4.44463 21.4875 4.02278 20.6925C3.06387 18.8855 2.66471 16.9338 2.74908 14.7477C1.7566 14.7935 5.89796 14.7541 4.35572 14.7376C4.25049 18.1373 5.33187 20.9645 7.87565 23.0078C11.7512 26.1199 15.8708 26.1071 20.0638 23.4932C20.3514 23.887 20.6408 24.2827 21.001 24.7763C20.3859 25.139 19.8343 25.5356 19.2274 25.8094C14.9046 27.7602 10.8349 27.3224 7.04193 24.432C6.93488 24.3504 6.81423 24.2873 6.69992 24.2158C6.29077 23.8028 5.88163 23.3897 5.47248 22.9767Z" fill="#2E2E2E"/>
<path d="M1 15.0536L3.59277 10.521L6.18463 15.0536H1Z" fill="#2E2E2E"/>
<path d="M23.5275 7.02334C24.0147 7.78259 24.5554 8.51253 24.9772 9.30749C25.9361 11.1145 26.3353 13.0662 26.2509 15.2523C27.2434 15.2065 23.102 15.2459 24.6443 15.2624C24.7495 11.8627 23.6681 9.03548 21.1244 6.9922C17.2488 3.88012 13.1292 3.89294 8.93616 6.5068C8.64858 6.11298 8.35918 5.71733 7.99903 5.22368C8.61411 4.861 9.16568 4.46444 9.7726 4.19059C14.0954 2.23982 18.1651 2.6776 21.9581 5.56804C22.0651 5.64956 22.1858 5.71275 22.3001 5.78419C22.7092 6.19724 23.1184 6.61029 23.5275 7.02334Z" fill="#2E2E2E"/>
<path d="M28 14.9464L25.4081 19.479L22.8154 14.9464H28Z" fill="#2E2E2E"/>
</svg>
