<svg width="45" height="39" viewBox="0 0 45 39" fill="none" xmlns="http://www.w3.org/2000/svg">
<path d="M37.0632 6.50802C37.8571 7.73615 38.7381 8.91687 39.4255 10.2028C40.988 13.1257 41.6385 16.2827 41.501 19.8189C43.1182 19.7449 36.3699 19.8086 38.883 19.8352C39.0545 14.3361 37.2924 9.76279 33.1473 6.45765C26.8322 1.42365 20.1194 1.44439 13.2868 5.67248C12.8182 5.03545 12.3466 4.39546 11.7598 3.59695C12.762 3.0103 13.6608 2.36882 14.6498 1.92586C21.6937 -1.22965 28.3252 -0.521502 34.5058 4.15398C34.6803 4.28583 34.8769 4.38805 35.0631 4.50361C35.7298 5.17174 36.3965 5.83988 37.0632 6.50802Z" fill="#F7941E"/>
<path d="M40.1262 19.3228H44.3511L42.2387 22.9891L40.1262 26.6554L38.0153 22.9891L35.9028 19.3228H40.1262Z" fill="#F7941E"/>
<path d="M7.64241 32.3121C6.84858 31.0839 5.96754 29.9032 5.28015 28.6173C3.71762 25.6944 3.06718 22.5374 3.20466 19.0012C1.58744 19.0752 8.33573 19.0115 5.82268 18.9849C5.6512 24.484 7.41328 29.0573 11.5583 32.3624C17.8735 37.3964 24.5863 37.3757 31.4188 33.1476C31.8874 33.7846 32.359 34.4246 32.9459 35.2231C31.9436 35.8098 31.0448 36.4513 30.0559 36.8942C23.0119 40.0497 16.3804 39.3416 10.1998 34.6661C10.0254 34.5343 9.82877 34.432 9.64251 34.3165C8.97581 33.6483 8.30911 32.9802 7.64241 32.3121Z" fill="#F7941E"/>
<path d="M4.57837 19.4955H0.35498L2.46741 15.8306L4.57837 12.1643L6.69082 15.8306L8.80325 19.4955H4.57837Z" fill="#F7941E"/>
<path d="M3.49238 2.02319C3.7406 2.06025 3.87778 2.24873 4.03456 2.40983C4.50651 2.89313 4.9752 3.37964 5.44553 3.86455C6.06609 4.50572 6.68666 5.14528 7.30559 5.78646C7.33825 5.82029 7.36111 5.82995 7.4101 5.81707C8.32299 5.56253 9.21791 6.09899 9.40571 7.01886C9.4694 7.333 9.42858 7.64231 9.29466 7.93712C9.2914 7.94357 9.28486 7.9484 9.27507 7.95968C9.13136 7.76153 8.98928 7.5666 8.8472 7.37167C8.73452 7.21701 8.62347 7.06236 8.51079 6.9077C8.36871 6.71116 8.12539 6.66444 7.92289 6.79977C7.72039 6.93509 7.52279 7.07525 7.32682 7.22023C7.17331 7.333 7.11615 7.59076 7.27129 7.79697C7.51789 8.12722 7.75632 8.46231 7.99964 8.79417C8.00944 8.80706 8.01597 8.82156 8.0372 8.857C7.94902 8.857 7.87716 8.85861 7.80531 8.857C7.03777 8.83444 6.38127 8.24482 6.29472 7.49088C6.26532 7.2299 6.29309 6.97214 6.39924 6.72727C6.41883 6.68217 6.41393 6.65478 6.37637 6.61773C5.5778 5.86862 4.78087 5.1179 3.98393 4.36557C3.58056 3.9886 3.17883 3.61001 2.77873 3.22982C2.54193 3.00428 2.54193 2.66598 2.77056 2.43399C2.82935 2.37761 2.88978 2.32284 2.94367 2.26323C3.04982 2.14724 3.1723 2.05864 3.32907 2.02319C3.38296 2.02319 3.43849 2.02319 3.49238 2.02319ZM3.1331 2.88668C3.1331 3.08161 3.28498 3.23304 3.48095 3.23304C3.66875 3.23304 3.82879 3.07839 3.83206 2.89313C3.83532 2.70947 3.66875 2.54193 3.48258 2.54032C3.28988 2.5371 3.1331 2.69336 3.1331 2.88668Z" fill="#F7941E"/>
<path d="M5.87988 3.6099C6.20975 3.49874 6.52167 3.39242 6.84828 3.28287C6.88258 3.00256 6.92014 2.7013 6.9577 2.39844C7.39536 2.39844 7.82486 2.39844 8.26579 2.39844C8.30335 2.69969 8.34091 3.00095 8.37847 3.30542C8.71488 3.37631 9.03823 3.47941 9.34198 3.63568C9.46282 3.69689 9.58204 3.76133 9.69472 3.83383C9.74208 3.86444 9.76821 3.85638 9.8074 3.82738C10.0311 3.6534 10.2565 3.47941 10.4753 3.31026C10.784 3.61473 11.091 3.9176 11.4029 4.2253C11.2184 4.45728 11.0289 4.6957 10.8362 4.93896C11.1139 5.35138 11.3049 5.80245 11.4062 6.2938C11.6495 6.32119 11.8912 6.35019 12.1329 6.37757C12.1819 6.38241 12.2309 6.38402 12.2782 6.39691C12.2978 6.40174 12.324 6.42913 12.324 6.44524C12.3256 6.85926 12.324 7.27328 12.3223 7.6857C12.3223 7.68731 12.3191 7.68892 12.3142 7.69375C12.0365 7.72758 11.7573 7.76463 11.478 7.79363C11.4192 7.80007 11.398 7.82102 11.3882 7.87096C11.2968 8.30431 11.122 8.70384 10.8869 9.0792C10.8705 9.10336 10.8558 9.12914 10.8362 9.15814C11.024 9.39495 11.2135 9.63338 11.3964 9.86375C11.0877 10.1682 10.7807 10.4711 10.4672 10.7788C10.2385 10.6016 9.99847 10.4163 9.75351 10.2278C9.66369 10.2794 9.57224 10.3342 9.48079 10.3841C9.15254 10.5677 8.80306 10.6934 8.43562 10.7723C8.38827 10.782 8.3703 10.7997 8.3654 10.8416C8.34254 11.0382 8.31804 11.2347 8.29518 11.4312C8.28538 11.5166 8.27395 11.602 8.26252 11.6906C7.82649 11.6906 7.39373 11.6906 6.95443 11.6906C6.9332 11.5198 6.91034 11.3475 6.88911 11.1767C6.87605 11.0704 6.86298 10.9641 6.85482 10.8577C6.84992 10.7933 6.81236 10.782 6.75683 10.7691C6.30611 10.6676 5.88477 10.4969 5.49937 10.2456C5.49121 10.2391 5.47977 10.2359 5.46508 10.2294C5.22502 10.4147 4.98332 10.6016 4.74979 10.7836C4.43951 10.4791 4.13249 10.1747 3.82058 9.86858C4.00185 9.63982 4.19128 9.40139 4.36929 9.17908C4.24354 8.92293 4.1129 8.68128 4.00348 8.42836C3.93653 8.2576 3.8908 8.07717 3.84181 7.89996C3.82221 7.83229 3.80751 7.79685 3.72096 7.7888C3.45151 7.76624 3.18205 7.72597 2.90116 7.69053C2.89953 7.66475 2.89626 7.63253 2.89626 7.60192C2.89626 7.23623 2.8979 6.87054 2.89463 6.50645C2.893 6.42268 2.91096 6.39529 3.00241 6.38724C3.27187 6.36308 3.54132 6.32441 3.81568 6.29058C3.88427 5.98772 3.97572 5.69129 4.12106 5.40293C4.46727 5.66552 4.80858 5.92328 5.15153 6.18264C5.1205 6.30991 5.08131 6.43396 5.05681 6.56123C4.9131 7.33611 5.08621 8.0385 5.58429 8.65551C5.97133 9.13397 6.47431 9.44006 7.08181 9.55927C7.88038 9.71554 8.60873 9.54477 9.24563 9.04053C9.77474 8.62329 10.0932 8.07394 10.1863 7.41505C10.2908 6.68044 10.1079 6.01188 9.63266 5.43031C9.21786 4.92446 8.67895 4.61999 8.03062 4.51044C7.63705 4.44439 7.24512 4.47017 6.86298 4.58777C6.81236 4.60227 6.78623 4.59421 6.75193 4.55716C6.47268 4.24946 6.18852 3.94176 5.87988 3.6099Z" fill="#F7941E"/>
<path d="M14.8393 23.2878C14.5241 23.2878 14.2335 23.2878 13.9166 23.2878C13.9166 23.4972 13.9166 23.7018 13.9166 23.9064C13.9166 24.4171 13.9199 24.9262 13.915 25.4369C13.9101 25.8525 13.7615 25.9927 13.3434 25.9927C12.7964 25.9927 12.2509 25.9927 11.7038 25.9927C11.3201 25.9927 11.1551 25.838 11.1551 25.4626C11.1535 23.8806 11.1535 22.2987 11.1535 20.7183C11.1535 19.9353 11.1519 19.1508 11.1519 18.3679C11.1519 17.9941 11.3184 17.8298 11.6957 17.8298C12.264 17.8298 12.8339 17.8282 13.4022 17.8298C13.7582 17.8314 13.9362 18.0569 13.9281 18.4146C13.9117 19.1154 13.9232 19.8161 13.9232 20.5266C14.222 20.5266 14.5111 20.5266 14.8361 20.5266C14.8361 20.3381 14.8361 20.1416 14.8361 19.9466C14.8361 19.7179 14.854 19.4875 14.8328 19.2603C14.7805 18.7078 15.3243 17.9877 16.0053 17.8475C16.314 17.7847 16.6471 17.8072 16.9672 17.8282C17.253 17.8475 17.4473 17.7653 17.6351 17.5414C18.1953 16.868 18.7815 16.2188 19.358 15.5583C19.6389 15.2361 20.0014 15.0911 20.426 15.0895C21.1577 15.0863 21.8909 15.0895 22.6372 15.0895C22.6372 14.6416 22.6372 14.2099 22.6372 13.7427C22.4576 13.7427 22.273 13.7427 22.0901 13.7427C21.7015 13.7427 21.3112 13.7443 20.9225 13.7427C20.5322 13.7411 20.3591 13.5703 20.3591 13.1934C20.3591 12.6392 20.3591 12.085 20.3591 11.5308C20.3591 11.1732 20.5371 11.0024 20.9176 11.0024C22.5409 11.0008 24.1658 11.0024 25.789 11.0024C26.2463 11.0024 26.7019 11.0008 27.1592 11.0024C27.5315 11.004 27.7275 11.1957 27.7258 11.5614C27.7258 12.0931 27.7226 12.6263 27.7177 13.1579C27.7144 13.5768 27.5446 13.7411 27.1134 13.7427C26.5533 13.7443 25.9932 13.7427 25.4232 13.7427C25.4232 14.1954 25.4232 14.6288 25.4232 15.0895C25.5212 15.0895 25.6078 15.0895 25.6943 15.0895C26.9599 15.0895 28.2239 15.1121 29.4879 15.0814C30.2293 15.0637 30.961 15.7242 30.9348 16.5023C30.9022 17.4818 30.925 18.4645 30.9234 19.4456C30.9234 19.5036 30.9316 19.56 30.9365 19.6293C31.0818 19.6293 31.2124 19.6293 31.3725 19.6293C31.3774 19.5519 31.3872 19.4746 31.3872 19.3973C31.3888 18.9091 31.3855 18.421 31.3888 17.9345C31.3921 17.5269 31.5456 17.3723 31.9571 17.369C32.5107 17.3658 33.0643 17.3658 33.618 17.369C33.9821 17.3723 34.1487 17.5414 34.1487 17.9023C34.1503 20.2672 34.152 22.6321 34.1503 24.9971C34.1503 25.374 33.9707 25.5496 33.5886 25.5496C33.0349 25.5496 32.4813 25.5512 31.9277 25.5496C31.5636 25.548 31.3921 25.3837 31.3888 25.0244C31.3839 24.5299 31.3872 24.0337 31.3872 23.5391C31.3872 23.4602 31.3872 23.3796 31.3872 23.291C31.2271 23.291 31.0949 23.291 30.9234 23.291C30.9234 23.5053 30.9169 23.7163 30.925 23.9274C30.943 24.3768 30.7731 24.7393 30.4547 25.0551C29.3736 26.1296 28.2974 27.2089 27.2261 28.2931C26.924 28.5976 26.5615 28.7362 26.1434 28.7362C24.2327 28.7394 22.322 28.741 20.4113 28.7346C20.0194 28.7329 19.6618 28.6057 19.3939 28.3028C18.7652 27.5908 18.1397 26.8771 17.5192 26.157C17.4228 26.0458 17.333 25.9878 17.1811 25.9927C16.8676 26.0039 16.5508 25.9749 16.2389 25.9975C15.6003 26.0442 14.7854 25.2387 14.8312 24.5991C14.8638 24.1722 14.8393 23.7421 14.8393 23.2878ZM32.3115 18.2792C32.3115 18.8721 32.3115 19.4472 32.3115 20.0223C32.3115 20.3768 32.1515 20.5411 31.8003 20.5443C31.3807 20.5475 30.9626 20.5475 30.5429 20.5443C30.1738 20.5427 30.0187 20.3864 30.0187 20.0143C30.017 18.8318 30.0187 17.6494 30.017 16.4653C30.017 16.0931 29.9289 16.011 29.5532 16.011C26.5745 16.011 23.5942 16.0174 20.6155 16.0029C20.2856 16.0013 20.0798 16.1109 19.879 16.3493C19.2551 17.0855 18.6117 17.804 17.9797 18.5338C17.8572 18.6756 17.7135 18.7303 17.529 18.7287C17.1174 18.7223 16.7059 18.7255 16.2944 18.7271C15.9204 18.7287 15.7604 18.8818 15.7587 19.2523C15.7555 21.026 15.7555 22.7997 15.7587 24.5718C15.7587 24.9375 15.9057 25.0776 16.2764 25.0824C16.6863 25.0873 17.0979 25.0873 17.5078 25.0824C17.6988 25.0808 17.8621 25.134 17.9862 25.2758C18.6574 26.049 19.3303 26.8207 19.9949 27.5988C20.1272 27.7519 20.2709 27.8147 20.4783 27.8131C22.3727 27.805 24.2654 27.8066 26.1597 27.8115C26.3279 27.8115 26.4504 27.7696 26.5729 27.6471C27.6654 26.542 28.7677 25.4465 29.8586 24.3398C29.9468 24.2496 30.0023 24.0965 30.0089 23.9676C30.0285 23.6068 30.0154 23.2443 30.017 22.8818C30.0187 22.5306 30.1934 22.355 30.5511 22.3518C30.9479 22.3486 31.3447 22.3502 31.7416 22.3518C32.1384 22.3534 32.3099 22.5258 32.3099 22.9189C32.3099 23.4795 32.3099 24.0385 32.3099 24.6056C32.625 24.6056 32.919 24.6056 33.2146 24.6056C33.2146 22.4871 33.2146 20.3848 33.2146 18.2776C32.9141 18.2793 32.6299 18.2792 32.3115 18.2792ZM12.0941 18.7287C12.0941 20.8536 12.0941 22.9624 12.0941 25.0824C12.3995 25.0824 12.6869 25.0824 12.9989 25.0824C12.9989 24.9987 12.9989 24.9262 12.9989 24.8553C12.9989 24.3011 13.0185 23.7453 12.994 23.1928C12.9597 22.4211 13.172 22.326 13.8546 22.3518C14.1796 22.3647 14.5062 22.3534 14.8214 22.3534C14.8214 22.0345 14.8214 21.7509 14.8214 21.4577C14.3853 21.4577 13.9673 21.4593 13.5476 21.4577C13.1703 21.4561 12.9972 21.2886 12.9972 20.9213C12.9972 20.33 12.9972 19.7388 12.9972 19.1476C12.9972 19.0106 12.9972 18.8721 12.9972 18.7271C12.6853 18.7287 12.4028 18.7287 12.0941 18.7287ZM23.5811 15.0734C23.893 15.0734 24.187 15.0734 24.4973 15.0734C24.4973 14.5208 24.4973 13.9828 24.4973 13.4447C24.4973 12.9549 24.6361 12.818 25.1358 12.818C25.6796 12.818 26.2234 12.818 26.7754 12.818C26.7754 12.5119 26.7754 12.2284 26.7754 11.9368C24.9366 11.9368 23.1108 11.9368 21.2785 11.9368C21.2785 12.2348 21.2785 12.5184 21.2785 12.818C21.8729 12.818 22.4543 12.8164 23.0357 12.818C23.4097 12.8196 23.5942 13.0403 23.5844 13.4076C23.5681 13.9602 23.5811 14.5128 23.5811 15.0734Z" fill="#F7941E"/>
<path d="M22.2421 26.3101C22.683 25.0004 23.124 23.6923 23.5731 22.3616C22.8055 22.3616 22.0674 22.3616 21.29 22.3616C21.3488 22.2343 21.3913 22.1312 21.4419 22.0313C22.1245 20.6829 22.8072 19.3345 23.4963 17.9878C23.5306 17.9217 23.6123 17.8363 23.6727 17.8363C24.3896 17.8251 25.1065 17.8299 25.8724 17.8299C25.1016 19.0494 24.3488 20.2399 23.578 21.4594C24.3504 21.4594 25.0853 21.4594 25.8724 21.4594C24.6574 23.1107 23.4702 24.7249 22.2829 26.3391C22.2682 26.3295 22.2552 26.3198 22.2421 26.3101Z" fill="#F7941E"/>
</svg>
