<svg width="45" height="39" viewBox="0 0 45 39" fill="none" xmlns="http://www.w3.org/2000/svg">
<path d="M35.3511 22.8376C35.3057 22.8746 35.2653 22.9285 35.2132 22.9454C34.9844 23.0161 34.7522 23.075 34.5167 23.1407C34.542 23.3193 34.579 23.4877 34.5891 23.6578C34.6093 24.0216 34.6227 24.3854 34.6227 24.7492C34.6244 25.8204 34.6261 26.8933 34.6093 27.9645C34.6059 28.1649 34.5151 28.3653 34.4545 28.5624C34.4259 28.6516 34.3502 28.7022 34.251 28.7173C33.7144 28.7999 33.1761 28.7965 32.6361 28.7746C32.5217 28.7695 32.4073 28.7611 32.2946 28.7443C32.0322 28.7055 31.8623 28.5523 31.8219 28.2912C31.7933 28.1059 31.8051 27.9156 31.7933 27.7287C31.7849 27.6007 31.7698 27.471 31.7563 27.3379C31.6924 27.3379 31.652 27.3379 31.6117 27.3379C29.4148 27.3379 27.2179 27.3396 25.021 27.3345C24.915 27.3345 24.873 27.3649 24.8528 27.4693C24.7922 27.7859 24.7266 28.1026 24.6543 28.4158C24.587 28.7005 24.5584 28.7392 24.2741 28.7561C23.793 28.7847 23.3103 28.7914 22.8292 28.7999C22.6795 28.8015 22.5281 28.7746 22.3784 28.7645C22.227 28.7544 22.1294 28.6786 22.0722 28.5405C21.9511 28.2558 21.9208 27.9544 21.9225 27.6495C21.9292 26.4048 21.941 25.1602 21.9511 23.9155C21.9528 23.6831 21.9561 23.4489 21.9645 23.2165C21.9679 23.1407 21.9427 23.1054 21.8703 23.0885C21.6836 23.043 21.5003 22.9858 21.3135 22.9487C21.221 22.9302 21.1941 22.883 21.1891 22.8005C21.1706 22.5495 21.2799 22.339 21.3926 22.1302C21.5962 21.7563 21.9141 21.5895 22.3363 21.6333C22.4927 21.6501 22.5785 21.5558 22.6391 21.4464C22.7249 21.2897 22.7938 21.1213 22.8527 20.9529C23.0495 20.3903 23.2514 19.8311 23.428 19.2619C23.6837 18.4366 24.2439 17.9296 25.0547 17.7123C25.5643 17.5742 26.0925 17.4984 26.6157 17.4142C27.4298 17.2845 28.2491 17.2475 29.0733 17.3098C29.6368 17.3519 30.1869 17.4749 30.737 17.5894C31.1407 17.6736 31.5444 17.7612 31.9397 17.8757C32.4157 18.0138 32.7269 18.3422 32.8968 18.8037C33.1946 19.6122 33.489 20.4223 33.7884 21.2308C33.822 21.3217 33.8758 21.4059 33.933 21.4851C34.0104 21.5946 34.1114 21.6451 34.2577 21.6333C34.6816 21.603 34.9878 21.7984 35.1846 22.1689C35.2485 22.2902 35.2973 22.4199 35.3528 22.5445C35.3511 22.6422 35.3511 22.7399 35.3511 22.8376ZM23.6164 21.8472C26.7149 22.4923 29.7933 22.5192 32.8867 21.8472C32.806 21.6097 32.7253 21.384 32.6529 21.155C32.483 20.6227 32.3148 20.0888 32.15 19.5549C32.0103 19.1019 31.7345 18.7869 31.2567 18.6943C31.0582 18.6555 30.8513 18.6471 30.6478 18.6404C29.5208 18.6033 28.392 18.5764 27.265 18.5326C26.5417 18.5039 25.8301 18.5545 25.132 18.7515C24.8578 18.829 24.6493 18.9688 24.5534 19.2585C24.4306 19.6257 24.2825 19.9844 24.1513 20.3499C23.9697 20.8451 23.7964 21.3419 23.6164 21.8472ZM24.3498 25.2629C24.5937 25.2343 24.7653 25.2191 24.9335 25.1922C25.1034 25.1652 25.2531 25.0861 25.3608 24.9513C25.3978 24.9058 25.4298 24.8284 25.418 24.7761C25.381 24.6111 25.2935 24.4696 25.132 24.4006C24.7165 24.2203 24.301 24.0401 23.8788 23.8767C23.6484 23.7875 23.4078 23.7134 23.1639 23.6679C22.9234 23.6224 22.7484 23.7471 22.6828 23.9829C22.6424 24.1311 22.6155 24.2877 22.6105 24.441C22.597 24.8519 22.7585 25.0658 23.1656 25.1298C23.5828 25.1972 24.0033 25.2258 24.3498 25.2629ZM32.0272 25.2343C32.5301 25.2646 33.023 25.2006 33.5108 25.0995C33.743 25.0524 33.8977 24.9109 33.9095 24.6667C33.9196 24.4595 33.9196 24.2473 33.8843 24.0452C33.8254 23.7151 33.6303 23.6157 33.3106 23.7184C33.1794 23.7605 33.0432 23.7959 32.9153 23.8481C32.3737 24.062 31.832 24.2759 31.2937 24.5016C31.0448 24.606 31.0078 24.8671 31.208 25.0456C31.2719 25.1029 31.361 25.1467 31.4435 25.1635C31.6369 25.1972 31.8337 25.2107 32.0272 25.2343Z" fill="#F7941E"/>
<path d="M18.1917 7.62354C18.4457 7.69596 18.6442 7.8307 18.7166 8.0985C18.7384 8.18103 18.7502 8.26692 18.7502 8.35282C18.7519 9.18822 18.7519 10.0219 18.7519 10.8573C18.7519 11.3272 18.4828 11.6001 18.0168 11.6001C17.82 11.6001 17.6249 11.6018 17.428 11.6001C17.0378 11.5934 16.7552 11.3138 16.7535 10.923C16.7501 10.0438 16.7501 9.16295 16.7535 8.28377C16.7552 7.97892 16.9604 7.72459 17.2531 7.6488C17.2716 7.64206 17.2901 7.63196 17.3069 7.62354C17.603 7.62354 17.8974 7.62354 18.1917 7.62354Z" fill="#F7941E"/>
<path d="M25.5076 7.62354C25.627 7.68922 25.7616 7.73807 25.8642 7.82396C26.0089 7.94523 26.0627 8.11871 26.0627 8.30903C26.0627 9.17643 26.0644 10.0455 26.0627 10.9129C26.061 11.3171 25.7784 11.5984 25.373 11.6018C25.1611 11.6035 24.9474 11.6051 24.7355 11.6018C24.3553 11.595 24.0677 11.3121 24.066 10.9297C24.0626 10.0539 24.0626 9.17811 24.066 8.30061C24.0677 7.99071 24.246 7.75491 24.537 7.65385C24.5572 7.64543 24.5774 7.63364 24.5992 7.62354C24.902 7.62354 25.2048 7.62354 25.5076 7.62354Z" fill="#F7941E"/>
<path d="M21.4047 26.1807C21.4047 26.6287 21.4047 27.0582 21.4047 27.4994C21.3677 27.5028 21.3323 27.5062 21.297 27.5062C19.6771 27.5062 18.0572 27.5062 16.4373 27.5062C15.4633 27.5062 14.4893 27.5062 13.5154 27.5079C13.2883 27.5079 13.0864 27.459 12.9317 27.2788C12.8291 27.1592 12.7786 27.0211 12.7668 26.8662C12.7635 26.8291 12.7668 26.792 12.7668 26.755C12.7651 21.0689 12.7651 15.3845 12.7651 9.69843C12.7651 9.21336 13.0175 8.95398 13.5053 8.9523C14.3363 8.94893 15.1656 8.95062 15.9965 8.95062C16.0201 8.95062 16.0436 8.95062 16.0773 8.95062C16.0773 9.39358 16.0773 9.8298 16.0773 10.2778C16.0319 10.2778 15.9881 10.2778 15.9444 10.2778C15.5558 10.2778 15.1672 10.2778 14.7787 10.2778C14.3867 10.2778 14.1008 10.5507 14.0974 10.9431C14.0907 11.5124 14.094 12.0817 14.094 12.6509C14.094 15.1032 14.094 17.5572 14.094 20.0095C14.094 21.8235 14.094 23.6374 14.0957 25.4514C14.0957 25.8354 14.2858 26.0863 14.634 26.1655C14.6895 26.1773 14.7467 26.179 14.8039 26.179C16.9554 26.179 19.1085 26.179 21.26 26.179C21.3071 26.1807 21.3508 26.1807 21.4047 26.1807Z" fill="#F7941E"/>
<path d="M21.4079 15.5783C23.0194 15.5783 24.6309 15.5783 26.2441 15.5783C26.2929 15.5783 26.3417 15.5783 26.3905 15.58C26.5906 15.5918 26.7151 15.7131 26.7219 15.9169C26.7286 16.1291 26.7286 16.343 26.7219 16.5552C26.7151 16.7826 26.5822 16.9005 26.335 16.9022C25.906 16.9039 25.4787 16.8988 25.0498 16.8988C24.0018 16.8988 22.9522 16.9022 21.9042 16.9039C20.9941 16.9039 20.0841 16.9005 19.174 16.9005C18.3128 16.9005 17.4515 16.9022 16.5919 16.9039C16.5347 16.9039 16.4776 16.9022 16.4204 16.8971C16.2151 16.882 16.0923 16.7658 16.0856 16.562C16.0789 16.3447 16.0789 16.1274 16.0856 15.9101C16.0923 15.7165 16.2219 15.5935 16.412 15.58C16.4607 15.5767 16.5095 15.5767 16.5583 15.5767C18.1765 15.5783 19.7931 15.5783 21.4079 15.5783Z" fill="#F7941E"/>
<path d="M30.0492 16.8804C29.6052 16.8804 29.1728 16.8804 28.7271 16.8804C28.7237 16.8366 28.7203 16.7945 28.7203 16.7507C28.7203 14.6706 28.7203 12.5906 28.722 10.5105C28.722 10.113 28.4882 9.89575 28.0441 9.8907C27.6555 9.88733 27.267 9.8907 26.8784 9.8907C26.8347 9.8907 26.7909 9.8907 26.7388 9.8907C26.7388 9.57406 26.7388 9.2692 26.7388 8.94751C26.8582 8.94751 26.9743 8.94751 27.092 8.94751C27.8288 8.94751 28.5639 8.94751 29.3007 8.94919C29.3949 8.94919 29.4891 8.95256 29.5816 8.97277C29.913 9.04351 30.0526 9.22036 30.0526 9.55553C30.0526 11.9522 30.0526 14.3473 30.0526 16.744C30.0492 16.7861 30.0492 16.8299 30.0492 16.8804Z" fill="#F7941E"/>
<path d="M18.3215 22.2042C17.6436 22.2042 16.964 22.2025 16.2861 22.2059C16.1583 22.2059 16.1196 22.125 16.1078 22.0307C16.0893 21.8976 16.0859 21.7612 16.0859 21.6282C16.0859 21.4446 16.0859 21.2593 16.1044 21.0774C16.1229 20.909 16.17 20.8787 16.3366 20.8787C17.6655 20.8787 18.9944 20.8787 20.3233 20.8787C20.4814 20.8787 20.5403 20.9157 20.5453 21.074C20.5571 21.389 20.5571 21.704 20.5453 22.0172C20.5403 22.1705 20.478 22.2092 20.3199 22.2092C19.6538 22.2092 18.9876 22.2092 18.3215 22.2092C18.3215 22.2059 18.3215 22.2042 18.3215 22.2042Z" fill="#F7941E"/>
<path d="M23.396 8.95898C23.396 9.39858 23.396 9.83143 23.396 10.271C22.0688 10.271 20.7449 10.271 19.416 10.271C19.416 9.83143 19.416 9.40026 19.416 8.95898C20.7432 8.95898 22.062 8.95898 23.396 8.95898Z" fill="#F7941E"/>
<path d="M37.0632 6.50802C37.8571 7.73615 38.7381 8.91687 39.4255 10.2028C40.988 13.1257 41.6385 16.2827 41.501 19.8189C43.1182 19.7449 36.3699 19.8086 38.883 19.8352C39.0545 14.3361 37.2924 9.76279 33.1473 6.45765C26.8322 1.42365 20.1194 1.44439 13.2868 5.67248C12.8182 5.03545 12.3466 4.39546 11.7598 3.59695C12.762 3.0103 13.6608 2.36882 14.6498 1.92586C21.6937 -1.22965 28.3252 -0.521502 34.5058 4.15398C34.6803 4.28583 34.8769 4.38805 35.0631 4.50361C35.7298 5.17174 36.3965 5.83988 37.0632 6.50802Z" fill="#F7941E"/>
<path d="M40.1262 19.3228H44.3511L42.2387 22.9891L40.1262 26.6554L38.0153 22.9891L35.9028 19.3228H40.1262Z" fill="#F7941E"/>
<path d="M7.64241 32.3121C6.84858 31.0839 5.96754 29.9032 5.28015 28.6173C3.71762 25.6944 3.06718 22.5374 3.20466 19.0012C1.58744 19.0752 8.33573 19.0115 5.82268 18.9849C5.6512 24.484 7.41328 29.0573 11.5583 32.3624C17.8735 37.3964 24.5863 37.3757 31.4188 33.1476C31.8874 33.7846 32.359 34.4246 32.9459 35.2231C31.9436 35.8098 31.0448 36.4513 30.0559 36.8942C23.0119 40.0497 16.3804 39.3416 10.1998 34.6661C10.0254 34.5343 9.82877 34.432 9.64251 34.3165C8.97581 33.6483 8.30911 32.9802 7.64241 32.3121Z" fill="#F7941E"/>
<path d="M4.57837 19.4955H0.35498L2.46741 15.8306L4.57837 12.1643L6.69082 15.8306L8.80325 19.4955H4.57837Z" fill="#F7941E"/>
</svg>
