<svg width="44" height="39" viewBox="0 0 44 39" fill="none" xmlns="http://www.w3.org/2000/svg">
<path d="M2.58489 2.65137C2.84649 2.69042 2.99105 2.88906 3.15628 3.05884C3.65366 3.56817 4.1476 4.0809 4.64327 4.59193C5.29727 5.26765 5.95127 5.94167 6.60355 6.61739C6.63797 6.65304 6.66206 6.66323 6.71369 6.64965C7.67576 6.3814 8.6189 6.94676 8.81682 7.91619C8.88394 8.24726 8.84092 8.57324 8.69979 8.88393C8.69635 8.89072 8.68946 8.89581 8.67914 8.9077C8.52768 8.69887 8.37795 8.49344 8.22822 8.28801C8.10947 8.12502 7.99244 7.96203 7.87368 7.79905C7.72395 7.59192 7.46752 7.54268 7.2541 7.6853C7.04069 7.82791 6.83245 7.97562 6.62592 8.12842C6.46414 8.24726 6.4039 8.51891 6.5674 8.73622C6.82728 9.08427 7.07856 9.43741 7.33499 9.78715C7.34532 9.80073 7.3522 9.81601 7.37458 9.85336C7.28164 9.85336 7.20591 9.85506 7.13019 9.85336C6.32129 9.8296 5.62943 9.20821 5.53821 8.41364C5.50724 8.1386 5.53649 7.86696 5.64836 7.6089C5.66901 7.56136 5.66385 7.5325 5.62427 7.49345C4.78267 6.70398 3.9428 5.91281 3.10292 5.11994C2.67782 4.72266 2.25444 4.32368 1.83279 3.92301C1.58323 3.68532 1.58323 3.32878 1.82418 3.0843C1.88614 3.02488 1.94982 2.96715 2.00661 2.90434C2.11848 2.7821 2.24756 2.68872 2.41278 2.65137C2.46958 2.65137 2.52809 2.65137 2.58489 2.65137ZM2.20625 3.56138C2.20625 3.76681 2.36631 3.9264 2.57284 3.9264C2.77076 3.9264 2.93942 3.76342 2.94287 3.56817C2.94631 3.37462 2.77076 3.19805 2.57456 3.19636C2.37148 3.19296 2.20625 3.35765 2.20625 3.56138Z" fill="#F7941E"/>
<path d="M5.10127 4.32361C5.44892 4.20646 5.77764 4.09441 6.12185 3.97896C6.158 3.68354 6.19758 3.36606 6.23716 3.04688C6.69841 3.04688 7.15104 3.04688 7.61573 3.04688C7.65531 3.36436 7.6949 3.68185 7.73448 4.00273C8.08902 4.07743 8.42979 4.18609 8.7499 4.35077C8.87726 4.41529 9.0029 4.4832 9.12165 4.5596C9.17156 4.59186 9.1991 4.58337 9.2404 4.55281C9.47619 4.36945 9.71369 4.18609 9.94431 4.00782C10.2696 4.3287 10.5932 4.64788 10.9219 4.97216C10.7274 5.21664 10.5278 5.46791 10.3247 5.72428C10.6172 6.15891 10.8186 6.63429 10.9253 7.15212C11.1818 7.18098 11.4365 7.21154 11.6912 7.2404C11.7428 7.24549 11.7944 7.24719 11.8444 7.26077C11.865 7.26587 11.8925 7.29473 11.8925 7.31171C11.8943 7.74804 11.8925 8.18437 11.8908 8.619C11.8908 8.6207 11.8874 8.6224 11.8822 8.62749C11.5896 8.66314 11.2953 8.70219 11.001 8.73275C10.9391 8.73954 10.9167 8.76161 10.9064 8.81425C10.81 9.27095 10.6259 9.692 10.378 10.0876C10.3608 10.1131 10.3453 10.1402 10.3247 10.1708C10.5226 10.4203 10.7222 10.6716 10.915 10.9144C10.5897 11.2353 10.2662 11.5545 9.93571 11.8787C9.69476 11.692 9.44177 11.4967 9.18361 11.2981C9.08895 11.3524 8.99257 11.4102 8.89619 11.4628C8.55026 11.6563 8.18195 11.7888 7.79472 11.872C7.74481 11.8821 7.72587 11.9008 7.72071 11.945C7.69662 12.1521 7.6708 12.3592 7.64671 12.5663C7.63638 12.6563 7.62433 12.7463 7.61229 12.8397C7.15276 12.8397 6.69668 12.8397 6.23372 12.8397C6.21135 12.6597 6.18725 12.4781 6.16488 12.2981C6.15111 12.186 6.13734 12.074 6.12874 11.9619C6.12357 11.894 6.08399 11.8821 6.02547 11.8686C5.55046 11.7616 5.10643 11.5816 4.70026 11.3168C4.69166 11.31 4.67961 11.3066 4.66412 11.2998C4.41113 11.495 4.15641 11.692 3.9103 11.8838C3.5833 11.563 3.25974 11.2421 2.93102 10.9195C3.12206 10.6784 3.3217 10.4271 3.50929 10.1928C3.37677 9.9229 3.23909 9.66823 3.12378 9.40168C3.05321 9.22171 3.00502 9.03156 2.95339 8.84481C2.93274 8.7735 2.91725 8.73615 2.82604 8.72766C2.54206 8.70389 2.25809 8.66145 1.96207 8.62409C1.96035 8.59693 1.9569 8.56297 1.9569 8.53072C1.9569 8.14532 1.95862 7.75992 1.95518 7.37622C1.95346 7.28794 1.97239 7.25908 2.06877 7.25059C2.35275 7.22512 2.63672 7.18437 2.92586 7.14872C2.99814 6.82954 3.09452 6.51714 3.24769 6.21324C3.61256 6.48998 3.97226 6.76163 4.33368 7.03497C4.30098 7.16909 4.25967 7.29982 4.23386 7.43395C4.0824 8.25058 4.26484 8.99081 4.78976 9.64107C5.19765 10.1453 5.72773 10.4679 6.36796 10.5935C7.20956 10.7582 7.97715 10.5782 8.64836 10.0468C9.20598 9.60711 9.54159 9.02817 9.63969 8.33377C9.74983 7.55958 9.55708 6.855 9.05625 6.2421C8.6191 5.709 8.05115 5.38812 7.3679 5.27267C6.95312 5.20306 6.54007 5.23022 6.13734 5.35416C6.08399 5.36944 6.05645 5.36095 6.02031 5.3219C5.72601 4.99763 5.42655 4.67335 5.10127 4.32361Z" fill="#F7941E"/>
<path d="M22.2593 26.8407C18.3348 26.8407 14.4112 26.8407 10.4866 26.8407C9.58003 26.8407 8.8877 26.1309 8.8877 25.198C8.8877 22.4297 8.8877 19.6625 8.8877 16.8952C8.8877 15.954 9.57902 15.2484 10.4988 15.2484C14.1655 15.2484 17.8312 15.2484 21.498 15.2484C21.5528 15.2484 21.6076 15.2442 21.6614 15.2515C21.8066 15.2723 21.9101 15.4005 21.9091 15.5486C21.9081 15.6976 21.8015 15.8185 21.6533 15.8362C21.5995 15.8425 21.5447 15.8394 21.4899 15.8394C17.8627 15.8394 14.2366 15.8394 10.6094 15.8414C10.4531 15.8414 10.2886 15.8519 10.1404 15.8988C9.712 16.0363 9.46024 16.4335 9.45923 16.9338C9.45923 17.8291 9.45923 18.7244 9.45923 19.6197C9.45923 21.4406 9.4704 23.2625 9.45314 25.0834C9.44705 25.7494 9.87341 26.2539 10.5861 26.2528C17.4231 26.2435 24.2612 26.2476 31.0983 26.2476C32.0648 26.2476 33.0302 26.2497 33.9966 26.2476C34.5245 26.2466 34.9133 25.96 35.0321 25.4847C35.0605 25.3731 35.0696 25.2533 35.0696 25.1376C35.0717 22.411 35.0706 19.6833 35.0716 16.9567C35.0716 16.2698 34.6595 15.8435 33.9885 15.8394C33.7205 15.8373 33.4535 15.8404 33.1855 15.8373C32.9835 15.8352 32.8647 15.7205 32.8688 15.5371C32.8718 15.362 32.9916 15.2463 33.1835 15.2484C33.5601 15.2515 33.9387 15.2307 34.3113 15.2744C35.0625 15.3641 35.6412 16.053 35.6422 16.8306C35.6452 19.6385 35.6452 22.4474 35.6422 25.2554C35.6412 26.1309 34.9275 26.8386 34.0606 26.8386C30.1268 26.8386 26.1921 26.8386 22.2583 26.8386L22.2593 26.8407Z" fill="#F7941E"/>
<path d="M22.2654 20.0064C18.7378 20.0064 15.2101 20.0064 11.6834 20.0064C11.4012 20.0064 11.3068 19.9116 11.3068 19.6249C11.3068 18.8724 11.3068 18.1188 11.3068 17.3663C11.3068 16.9848 11.3748 16.9171 11.7515 16.9171C14.134 16.9171 16.5176 16.9171 18.9002 16.9171C23.5131 16.9171 28.1249 16.9171 32.7378 16.9171C32.8018 16.9171 32.8667 16.915 32.9307 16.9192C33.1083 16.9285 33.223 17.0338 33.2241 17.2162C33.2281 18.0459 33.2281 18.8745 33.2241 19.7042C33.2241 19.8938 33.1053 20.0022 32.9215 20.0085C32.8617 20.0106 32.8028 20.0085 32.7429 20.0085C29.2497 20.0085 25.7576 20.0085 22.2644 20.0085L22.2654 20.0064ZM18.3216 19.4092C18.3216 19.3331 18.3216 19.2726 18.3216 19.2122C18.3216 18.9631 18.3165 18.7129 18.3236 18.4649C18.3287 18.2814 18.4515 18.1647 18.617 18.1678C18.7743 18.1709 18.888 18.2856 18.9012 18.4607C18.9063 18.5264 18.9032 18.5931 18.9032 18.6587C18.9032 18.9058 18.9032 19.1538 18.9032 19.4061H20.7569C20.7569 19.3466 20.7569 19.2966 20.7569 19.2466C20.7569 18.9975 20.7549 18.7484 20.7569 18.4982C20.7589 18.3169 20.8473 18.1991 20.9904 18.173C21.1843 18.1376 21.3335 18.2689 21.3366 18.4878C21.3406 18.7911 21.3366 19.0955 21.3366 19.4071H23.1923C23.1923 19.3498 23.1923 19.2997 23.1923 19.2508C23.1923 18.9964 23.1892 18.7421 23.1933 18.4878C23.1974 18.2648 23.3577 18.1293 23.5537 18.1751C23.6917 18.2074 23.7719 18.3273 23.7729 18.5128C23.775 18.8067 23.7729 19.1017 23.7729 19.4029H25.6266C25.6266 19.0955 25.6246 18.8005 25.6266 18.5066C25.6287 18.2981 25.7383 18.1709 25.9109 18.1678C26.0916 18.1647 26.2022 18.2929 26.2063 18.5097C26.2083 18.6212 26.2063 18.7338 26.2063 18.8453V19.405H28.063C28.063 19.3446 28.063 19.2935 28.063 19.2435C28.063 18.9839 28.0589 18.7244 28.065 18.4649C28.0691 18.2898 28.1848 18.172 28.3422 18.1678C28.5036 18.1626 28.6203 18.2679 28.6396 18.443C28.6477 18.518 28.6447 18.5952 28.6447 18.6712C28.6447 18.9141 28.6447 19.1559 28.6447 19.405H30.4994C30.4994 19.3456 30.4994 19.2966 30.4994 19.2466C30.4994 18.9871 30.4963 18.7275 30.5014 18.468C30.5055 18.2856 30.6242 18.1668 30.7897 18.1657C30.9542 18.1657 31.0669 18.2835 31.076 18.469C31.079 18.5295 31.076 18.591 31.076 18.6525C31.076 18.9005 31.076 19.1486 31.076 19.4029H32.6332V17.5143H11.8976V19.4081H13.4518C13.4518 19.3446 13.4518 19.2904 13.4518 19.2351C13.4518 18.9756 13.4488 18.7161 13.4549 18.4565C13.4589 18.3002 13.5584 18.1908 13.6955 18.1709C13.8325 18.1511 13.9604 18.221 14.0051 18.3513C14.0244 18.4075 14.0295 18.4701 14.0295 18.5305C14.0315 18.8192 14.0305 19.108 14.0305 19.4029H15.8781C15.8811 19.355 15.8852 19.3195 15.8852 19.2841C15.8852 19.0142 15.8801 18.7442 15.8882 18.4753C15.8933 18.2793 16.0141 18.1647 16.1867 18.1689C16.3501 18.1741 16.4598 18.295 16.4648 18.4805C16.4679 18.5722 16.4648 18.6639 16.4648 18.7557C16.4648 18.9725 16.4648 19.1882 16.4648 19.4092H18.3216Z" fill="#F7941E"/>
<path d="M22.2644 24.3413C21.0513 24.3413 19.8382 24.3413 18.6251 24.3413C18.3307 24.3413 18.2383 24.2496 18.2383 23.9536C18.2373 23.298 18.2373 22.6413 18.2383 21.9857C18.2383 21.7001 18.3368 21.6001 18.6129 21.6001C21.0493 21.6001 23.4857 21.6001 25.922 21.6001C26.1911 21.6001 26.2936 21.7012 26.2946 21.9732C26.2956 22.6392 26.2966 23.3053 26.2946 23.9713C26.2946 24.2402 26.1941 24.3402 25.9352 24.3402C24.712 24.3402 23.4887 24.3402 22.2654 24.3402L22.2644 24.3413ZM21.031 23.7399H23.4978V22.2108H21.031V23.7399ZM18.818 23.7378H20.4392V22.2108H18.818V23.7378ZM25.7068 23.7441V22.2108H24.0907V23.7441H25.7068Z" fill="#F7941E"/>
<path d="M14.9218 25.3023C13.6701 25.3023 12.656 24.26 12.6549 22.9738C12.6549 21.6793 13.665 20.6443 14.9309 20.6433C16.1745 20.6433 17.1886 21.6835 17.1886 22.9613C17.1886 24.26 16.1796 25.3033 14.9208 25.3023H14.9218ZM14.9167 24.7103C15.8486 24.7134 16.612 23.9348 16.6151 22.978C16.6181 22.0212 15.8588 21.2363 14.9279 21.2321C13.999 21.228 13.2326 22.0097 13.2285 22.9665C13.2244 23.9223 13.9848 24.7071 14.9167 24.7103Z" fill="#F7941E"/>
<path d="M29.5908 25.3023C28.4274 25.2783 27.461 24.383 27.3534 23.2281C27.2407 22.0232 27.9859 20.957 29.1259 20.6954C29.4852 20.613 29.8436 20.6234 30.1999 20.7204C30.405 20.7756 30.5014 20.9215 30.4547 21.0956C30.407 21.2749 30.2649 21.3447 30.0547 21.2926C28.9208 21.0112 27.8864 21.8596 27.9189 23.0436C27.9432 23.9014 28.6396 24.6467 29.472 24.705C30.3512 24.7665 31.146 24.1495 31.2689 23.2792C31.3044 23.029 31.2689 22.7643 31.2384 22.511C31.212 22.2974 31.2689 22.1483 31.4435 22.1045C31.611 22.0628 31.747 22.1587 31.8018 22.3589C32.2069 23.8264 31.075 25.3325 29.5908 25.3023Z" fill="#F7941E"/>
<path d="M30.5329 15.8394C30.3694 15.8394 30.206 15.8414 30.0436 15.8394C29.8416 15.8362 29.7228 15.7226 29.7248 15.5413C29.7268 15.3662 29.8456 15.2515 30.0365 15.2505C30.3684 15.2473 30.6994 15.2473 31.0313 15.2505C31.2201 15.2515 31.342 15.3693 31.343 15.5433C31.344 15.7195 31.2272 15.8362 31.0374 15.8404C30.8689 15.8446 30.7014 15.8404 30.5329 15.8404V15.8394Z" fill="#F7941E"/>
<path d="M24.2298 15.8394C24.0663 15.8394 23.9029 15.8425 23.7394 15.8394C23.5496 15.8352 23.4288 15.7164 23.4298 15.5444C23.4298 15.3755 23.5577 15.2515 23.7425 15.2494C24.0795 15.2463 24.4155 15.2463 24.7526 15.2494C24.9262 15.2515 25.052 15.3755 25.0561 15.5381C25.0602 15.707 24.9353 15.8341 24.7505 15.8383C24.577 15.8425 24.4044 15.8383 24.2308 15.8383L24.2298 15.8394Z" fill="#F7941E"/>
<path d="M27.3879 15.8394C27.2194 15.8394 27.0509 15.8425 26.8834 15.8394C26.6936 15.8352 26.5758 15.7174 26.5768 15.5423C26.5788 15.3693 26.7007 15.2515 26.8895 15.2494C27.2214 15.2463 27.5524 15.2473 27.8843 15.2494C28.0691 15.2505 28.198 15.3734 28.2011 15.5402C28.2041 15.7143 28.0742 15.8362 27.8782 15.8394C27.7148 15.8414 27.5514 15.8394 27.3879 15.8394Z" fill="#F7941E"/>
<path d="M16.1166 22.9238C16.1207 23.127 16.0131 23.2615 15.8415 23.2677C15.6771 23.274 15.5613 23.1531 15.5451 22.9592C15.5146 22.5965 15.2893 22.363 14.938 22.3307C14.7462 22.313 14.6284 22.1963 14.6325 22.0305C14.6375 21.8554 14.7705 21.7408 14.9654 21.7429C15.5786 21.7512 16.1055 22.2921 16.1166 22.9227V22.9238Z" fill="#F7941E"/>
<path d="M36.7078 6.50802C37.5016 7.73615 38.3826 8.91687 39.07 10.2028C40.6325 13.1257 41.283 16.2827 41.1455 19.8189C42.7627 19.7449 36.0145 19.8086 38.5275 19.8352C38.699 14.3361 36.9369 9.76279 32.7918 6.45765C26.4767 1.42365 19.7639 1.44439 12.9314 5.67248C12.4627 5.03545 11.9912 4.39546 11.4043 3.59695C12.4066 3.0103 13.3054 2.36882 14.2943 1.92586C21.3382 -1.22965 27.9697 -0.521502 34.1504 4.15398C34.3248 4.28583 34.5214 4.38805 34.7077 4.50361C35.3744 5.17174 36.0411 5.83988 36.7078 6.50802Z" fill="#F7941E"/>
<path d="M39.7712 19.3228H43.9961L41.8837 22.9891L39.7712 26.6554L37.6603 22.9891L35.5479 19.3228H39.7712Z" fill="#F7941E"/>
<path d="M7.28792 32.3121C6.49409 31.0839 5.61305 29.9032 4.92566 28.6173C3.36313 25.6944 2.71269 22.5374 2.85017 19.0012C1.23295 19.0752 7.98124 19.0115 5.46819 18.9849C5.29671 24.484 7.05879 29.0573 11.2038 32.3624C17.519 37.3964 24.2318 37.3757 31.0643 33.1476C31.533 33.7846 32.0045 34.4246 32.5914 35.2231C31.5891 35.8098 30.6903 36.4513 29.7014 36.8942C22.6574 40.0497 16.026 39.3416 9.84533 34.6661C9.67089 34.5343 9.47428 34.432 9.28802 34.3165C8.62132 33.6483 7.95462 32.9802 7.28792 32.3121Z" fill="#F7941E"/>
<path d="M4.22339 19.4952H0L2.11243 15.8304L4.22339 12.1641L6.33584 15.8304L8.44827 19.4952H4.22339Z" fill="#F7941E"/>
</svg>
