<svg width="45" height="39" viewBox="0 0 45 39" fill="none" xmlns="http://www.w3.org/2000/svg">
<g clip-path="url(#clip0_257_2895)">
<path d="M21.0989 17.4177C21.0989 15.6285 21.1239 14.0303 21.0738 12.4337C21.0654 12.1785 20.7747 11.8559 20.5274 11.6996C19.7604 11.2173 18.9031 10.8634 18.1829 10.3268C17.8938 10.1112 17.8721 9.54991 17.7301 9.14665C18.1378 9.10879 18.599 8.93102 18.9432 9.05941C19.6367 9.31783 20.2667 9.74085 21.1022 10.1935C21.1022 9.16804 21.0304 8.31707 21.134 7.48585C21.1808 7.11057 21.5785 6.77478 21.8174 6.4209C22.0965 6.78631 22.6095 7.14842 22.6162 7.51877C22.6797 10.8502 22.6529 14.1817 22.6529 17.5148C22.6529 21.5211 22.6529 25.5275 22.6529 29.5322C22.6529 29.7939 22.7465 30.1165 22.6262 30.3058C22.419 30.6317 22.0781 30.8736 21.794 31.1502C21.5634 30.8687 21.164 30.602 21.1323 30.3008C21.0437 29.4136 21.1005 28.5116 21.1005 27.3808C20.3302 27.7923 19.7236 28.2236 19.0468 28.4392C18.6458 28.5676 18.1345 28.3569 17.6733 28.2993C17.8671 27.9092 18.0576 27.5191 18.2548 27.1323C18.2682 27.106 18.3183 27.0912 18.3534 27.0796C20.895 26.3389 21.5133 24.5629 21.1139 22.1944C21.0153 21.6133 21.0989 21.0027 21.0989 20.127C19.4312 21.0751 17.9055 21.9195 16.4167 22.8231C16.2379 22.9318 16.1977 23.3564 16.1944 23.6346C16.1877 24.4938 16.3064 25.3629 16.2145 26.2089C16.1794 26.5299 15.7015 26.8031 15.4241 27.0977C15.1734 26.7883 14.764 26.5052 14.7072 26.1645C14.5936 25.4764 14.6738 24.7588 14.6738 23.8387C13.7831 24.316 13.0646 24.7835 12.2792 25.088C11.9149 25.2295 11.2331 25.2147 11.0309 24.9843C10.558 24.4494 11.0326 24.0461 11.5272 23.7597C12.2458 23.3433 12.9677 22.9318 13.8266 22.4396C13.0763 21.9886 12.3627 21.6495 11.7729 21.164C11.4972 20.9385 11.4621 20.4315 11.3167 20.0513C11.711 19.9789 12.1171 19.8208 12.4981 19.8636C12.8089 19.8982 13.1348 20.127 13.3821 20.3492C14.7941 21.6216 16.1443 21.4668 17.583 20.3459C18.3383 19.7583 19.2424 19.355 20.265 18.7608C18.6508 17.8539 17.2254 17.026 15.765 16.2622C15.5444 16.147 15.1233 16.2589 14.8626 16.3923C14.0555 16.8054 13.3069 17.342 12.4764 17.6959C12.1722 17.8259 11.701 17.5774 11.3067 17.5C11.4554 17.1264 11.5005 16.6309 11.7745 16.4054C12.3444 15.9363 13.0345 15.6104 13.8383 15.1281C12.966 14.6278 12.1839 14.264 11.5155 13.757C11.2097 13.525 11.1262 13.0081 10.9424 12.6197C11.4002 12.567 11.9216 12.3547 12.3059 12.4962C13.0646 12.7777 13.7497 13.255 14.6754 13.7669C14.6754 12.8139 14.5952 12.0716 14.7105 11.3588C14.764 11.028 15.1985 10.7581 15.4592 10.4601C15.7248 10.763 16.1794 11.0445 16.2195 11.3737C16.313 12.144 16.2462 12.9423 16.171 13.7225C16.1042 14.4237 16.4066 14.8138 17.0099 15.1331C18.3383 15.8376 19.6334 16.5947 21.0989 17.4177Z" fill="#F7941E"/>
<path d="M23.4448 12.6724C26.6966 12.809 29.2483 15.3487 29.3452 18.458C29.4555 21.9788 27.1662 24.5498 23.4448 24.9794C23.4448 20.8908 23.4448 16.8137 23.4448 12.6724Z" fill="#F7941E"/>
<path d="M26.745 26.1991C26.8971 26.3226 27.3366 26.5283 27.5254 26.869C27.8813 27.5176 28.2506 28.2303 28.3058 28.9397C28.3409 29.394 27.9281 30.0985 27.5187 30.2993C27.1929 30.4589 26.3524 30.1692 26.1201 29.8269C25.6722 29.1685 25.4099 28.3504 25.2244 27.5636C25.0423 26.7884 25.6622 26.181 26.745 26.1991Z" fill="#F7941E"/>
<path d="M29.0828 8.52593C28.5782 9.53162 28.2256 10.4402 27.6775 11.2138C27.4886 11.4805 26.6932 11.6089 26.3808 11.4377C26.0148 11.2369 25.6087 10.5818 25.689 10.2262C25.8811 9.37855 26.2655 8.53745 26.7467 7.80663C26.9355 7.52188 27.6591 7.35234 28.025 7.47085C28.4278 7.60253 28.7035 8.12266 29.0828 8.52593Z" fill="#F7941E"/>
<path d="M31.6516 16.8862C31.2806 16.5274 30.7626 16.2525 30.684 15.8871C30.5938 15.469 30.7509 14.7349 31.055 14.5522C31.8086 14.0995 32.6893 13.7901 33.5582 13.6222C33.9008 13.5564 34.5725 13.9399 34.6928 14.2641C34.8382 14.6542 34.7179 15.441 34.4271 15.6286C33.63 16.1455 32.6826 16.4418 31.6516 16.8862Z" fill="#F7941E"/>
<path d="M34.6594 23.1886C34.6109 24.1679 33.8573 24.7407 33.0669 24.4823C32.3567 24.2502 31.6014 24.0033 31.0282 23.5589C30.6773 23.2873 30.4183 22.5861 30.5135 22.1648C30.5938 21.8092 31.3223 21.2743 31.6281 21.35C32.5555 21.5788 33.4395 22.0282 34.2917 22.4792C34.5257 22.6026 34.5875 23.0388 34.6594 23.1886Z" fill="#F7941E"/>
</g>
<path d="M37.0632 6.50802C37.8571 7.73615 38.7381 8.91687 39.4255 10.2028C40.988 13.1257 41.6385 16.2827 41.501 19.8189C43.1182 19.7449 36.3699 19.8086 38.883 19.8352C39.0545 14.3361 37.2924 9.76279 33.1473 6.45765C26.8322 1.42365 20.1194 1.44439 13.2868 5.67248C12.8182 5.03545 12.3466 4.39546 11.7598 3.59695C12.762 3.0103 13.6608 2.36882 14.6498 1.92586C21.6937 -1.22965 28.3252 -0.521502 34.5058 4.15398C34.6803 4.28583 34.8769 4.38805 35.0631 4.50361C35.7298 5.17174 36.3965 5.83988 37.0632 6.50802Z" fill="#F7941E"/>
<path d="M40.1262 19.3228H44.3511L42.2387 22.9891L40.1262 26.6554L38.0153 22.9891L35.9028 19.3228H40.1262Z" fill="#F7941E"/>
<path d="M7.64241 32.3121C6.84858 31.0839 5.96754 29.9032 5.28015 28.6173C3.71762 25.6944 3.06718 22.5374 3.20466 19.0012C1.58744 19.0752 8.33573 19.0115 5.82268 18.9849C5.6512 24.484 7.41328 29.0573 11.5583 32.3624C17.8735 37.3964 24.5863 37.3757 31.4188 33.1476C31.8874 33.7846 32.359 34.4246 32.9459 35.2231C31.9436 35.8098 31.0448 36.4513 30.0559 36.8942C23.0119 40.0497 16.3804 39.3416 10.1998 34.6661C10.0254 34.5343 9.82877 34.432 9.64251 34.3165C8.97581 33.6483 8.30911 32.9802 7.64241 32.3121Z" fill="#F7941E"/>
<path d="M4.57837 19.4952H0.35498L2.46741 15.8304L4.57837 12.1641L6.69082 15.8304L8.80325 19.4952H4.57837Z" fill="#F7941E"/>
<defs>
<clipPath id="clip0_257_2895">
<rect width="23.9174" height="24.7293" fill="white" transform="translate(10.8389 6.4209)"/>
</clipPath>
</defs>
</svg>
