<svg width="60" height="60" viewBox="0 0 60 60" fill="none" xmlns="http://www.w3.org/2000/svg">
<g clip-path="url(#clip0_204_54)">
<path d="M30.7619 33.5667C30.9022 33.5667 31.0044 33.5667 31.1038 33.5667C33.4032 33.5667 35.7026 33.5697 38.002 33.5638C39.2905 33.5608 40.2343 32.4385 40.0151 31.1866C39.8486 30.2263 39.0247 29.5281 38.0283 29.5222C36.3396 29.5163 34.6537 29.5222 32.9649 29.5222C32.2403 29.5222 31.5128 29.5193 30.7882 29.5252C29.6195 29.5311 28.8219 30.2587 28.6933 31.4222C28.6875 31.4664 28.6787 31.5076 28.6612 31.6225C28.0914 31.4104 27.545 31.2042 26.9461 30.9804C27.3464 30.3559 27.4223 29.6842 27.8694 29.1452C29.0205 27.7607 29.4617 26.1346 29.2601 24.3377C29.2514 24.2671 29.2514 24.1993 29.2426 24.0933C34.8115 24.0933 40.3657 24.0933 45.9872 24.0933C45.9083 23.9548 45.8616 23.8664 45.8061 23.781C44.7542 22.1226 43.8164 20.4023 43.0918 18.57C42.7616 17.7334 42.0662 17.2798 41.1692 17.2798C36.807 17.2798 32.4419 17.2768 28.0797 17.2857C27.7876 17.2857 27.6356 17.2179 27.5246 16.9234C27.3493 16.4697 27.1009 16.0426 26.8701 15.5742C26.9841 15.5742 27.0863 15.5742 27.1857 15.5742C32.1351 15.5742 37.0846 15.5742 42.0341 15.5742C43.1414 15.5742 44.0384 16.1928 44.4036 17.2444C45.2042 19.5509 46.4021 21.6454 47.749 23.6632C47.7783 23.7074 47.8104 23.7486 47.8425 23.7898C47.8513 23.8016 47.8718 23.8075 47.8893 23.8193C48.0821 23.7133 48.1756 23.563 48.161 23.3303C48.1464 23.1123 48.1581 22.8885 48.1785 22.6705C48.2574 21.8074 48.9733 21.1446 49.8323 21.1387C50.0865 21.1357 50.3407 21.1387 50.5919 21.1387C51.6964 21.1446 52.5554 22.1196 52.4297 23.2213C52.3654 23.7692 51.86 24.2288 51.2931 24.2376C50.6211 24.2464 49.9462 24.2641 49.2742 24.2288C48.9061 24.2111 48.6548 24.3348 48.4444 24.6647C48.6168 24.9092 48.8009 25.1684 49.0171 25.4719C44.4913 25.6339 40.0239 25.7929 35.5536 25.955C35.5536 25.9697 35.5536 25.9844 35.5536 25.9991C36.4973 25.9991 37.4381 25.9991 38.3819 25.9991C42.2298 25.9991 46.0778 25.9991 49.9228 25.9962C51.0243 25.9962 51.6321 26.4027 52.0177 27.4455C53.0491 30.241 53.0228 33.0306 51.9505 35.8113C51.8132 36.1648 51.6584 36.5095 51.5298 36.8659C51.4685 37.0368 51.375 37.0898 51.1997 37.0839C50.8169 37.0721 50.4342 37.081 50.0222 37.081C50.0222 37.2165 50.0222 37.3196 50.0222 37.4227C50.0222 38.4802 50.028 39.5377 50.0251 40.5952C50.0222 41.3552 49.7066 41.9473 49.0375 42.3067C48.8243 42.4216 48.5584 42.4864 48.3159 42.4923C47.3458 42.5129 46.3729 42.4598 45.4058 42.5099C44.6432 42.5512 43.644 41.8295 43.6235 40.7572C43.6001 39.6467 43.6147 38.5361 43.6147 37.4256C43.6147 37.3225 43.6147 37.2194 43.6147 37.081C43.492 37.081 43.3985 37.081 43.305 37.081C39.8866 37.081 36.4681 37.078 33.0496 37.0839C32.8773 37.0839 32.7838 37.0486 32.7224 36.8718C32.3134 35.6906 31.6939 34.639 30.8583 33.714C30.8262 33.6816 30.8116 33.6433 30.7619 33.5667ZM45.213 29.5723C44.3131 29.5576 43.5738 30.3117 43.5534 31.2602C43.5329 32.2176 44.2546 33.0188 45.1574 33.0335C46.0603 33.0483 46.8112 32.2735 46.8199 31.3162C46.8287 30.3735 46.1041 29.587 45.213 29.5723ZM47.2903 31.2867C47.2874 32.1734 47.936 32.8774 48.7629 32.8862C49.5927 32.8951 50.2822 32.1675 50.2764 31.2926C50.2705 30.4295 49.581 29.7108 48.7658 29.7166C47.9565 29.7225 47.2933 30.4295 47.2903 31.2867Z" fill="#F7941E"/>
<path d="M25.1551 23.1948C26.242 23.3952 26.7416 24.0845 26.651 25.2539C26.5663 26.3615 26.1806 27.3248 25.2369 27.9934C25.1697 28.0406 25.12 28.1466 25.1054 28.232C24.6847 30.7713 22.2041 32.9364 19.7586 33.2221C18.5636 33.3605 17.4738 32.9894 16.4687 32.3649C15.2211 31.5902 14.2686 30.5474 13.7456 29.1482C13.6258 28.83 13.6346 28.45 13.4709 28.1643C13.3161 27.8903 12.9859 27.7224 12.7873 27.4661C12.086 26.5706 11.7851 25.5544 12.0364 24.4203C12.1824 23.7634 12.536 23.2803 13.284 23.2273C13.3336 23.2243 13.4154 23.1006 13.4154 23.0328C13.4242 22.4879 13.4037 21.9576 13.2664 21.4156C12.6587 19.009 13.6959 16.5817 15.8639 15.2119C18.8762 13.3119 23.0134 14.2693 24.7548 17.2828C25.5671 18.6908 25.6985 20.1784 25.269 21.7485C25.1405 22.211 25.1872 22.7176 25.1551 23.1948ZM24.5853 24.055C24.5853 23.8017 24.5737 23.5984 24.5883 23.3981C24.6058 23.1536 24.4655 23.0976 24.2815 23.1389C24.1704 23.1624 24.0594 23.239 23.9776 23.3215C23.8403 23.457 23.7263 23.6161 23.6036 23.7634C23.291 24.1375 23.1274 24.1345 22.8264 23.7428C21.0909 21.4952 17.4855 21.5099 15.7616 23.7693C15.4899 24.1286 15.3117 24.1286 15.0166 23.7781C14.8705 23.6043 14.7419 23.404 14.5666 23.2626C14.4614 23.1772 14.2803 23.1477 14.14 23.1624C14.0874 23.1683 14.0319 23.3657 14.0202 23.4806C13.9998 23.6573 14.0144 23.837 14.0144 24.0462C13.8625 23.9843 13.766 23.946 13.6696 23.9077C13.1846 23.7162 12.8369 23.8429 12.6762 24.3466C12.574 24.6648 12.5214 25.0271 12.5594 25.357C12.6645 26.3026 12.9889 27.1362 13.9063 27.6017C13.9618 27.6311 14.0144 27.7165 14.0232 27.7813C14.1897 29.263 14.9435 30.406 16.0538 31.328C17.015 32.1233 18.0932 32.6654 19.37 32.6565C20.3722 32.6477 21.2604 32.2588 22.0726 31.6933C23.3027 30.839 24.1967 29.7314 24.5094 28.2261C24.5824 27.8756 24.6058 27.5457 25.0178 27.422C25.1171 27.3925 25.1989 27.2865 25.2749 27.201C25.7424 26.6885 26.0141 26.0787 26.0462 25.3924C26.0638 25.0241 26.0112 24.6353 25.9001 24.2848C25.7657 23.8547 25.4122 23.7369 24.9915 23.893C24.8688 23.9372 24.749 23.9872 24.5853 24.055ZM19.294 20.3375C19.8696 20.3404 20.4481 20.3434 21.0237 20.3375C21.7308 20.3316 22.3327 19.8279 22.4262 19.1239C22.47 18.788 22.4729 18.4346 22.432 18.0987C22.3356 17.3476 21.7366 16.8409 20.9857 16.8409C19.8579 16.8409 18.733 16.838 17.6052 16.8439C16.7988 16.8468 16.1794 17.4536 16.1473 18.2696C16.1385 18.4817 16.1414 18.6938 16.1473 18.9029C16.1736 19.7336 16.793 20.3375 17.6169 20.3375C18.1779 20.3375 18.736 20.3375 19.294 20.3375Z" fill="#F7941E"/>
<path d="M13.1465 33.3694C13.8097 33.2398 14.4233 33.1102 15.0427 33.0071C15.1333 32.9923 15.2618 33.0895 15.3466 33.1661C16.2289 33.9762 17.234 34.5624 18.4086 34.8128C19.8169 35.1133 21.0732 34.6891 22.2449 33.9438C22.613 33.7111 22.9344 33.4047 23.2821 33.1396C23.361 33.0807 23.4662 32.9923 23.545 33.0041C24.1703 33.1131 24.7897 33.2398 25.45 33.3723C24.3252 35.6494 23.8898 37.9883 24.1469 40.4215C20.9067 40.2594 17.6957 40.2653 14.4525 40.4156C14.7126 37.9971 14.2743 35.6582 13.1465 33.3694Z" fill="#F7941E"/>
<path d="M27.3258 34.2295C27.9364 34.58 28.4711 35.0101 28.9327 35.5315C30.116 36.86 30.6273 38.4507 30.6624 40.2034C30.6741 40.8426 30.5894 41.4848 30.5514 42.127C30.5397 42.3037 30.455 42.4009 30.2826 42.4274C30.1365 42.4481 29.9904 42.4952 29.8443 42.4981C28.8743 42.504 27.9043 42.5011 26.9342 42.507C26.7823 42.507 26.6976 42.4716 26.6479 42.3126C25.7743 39.5701 25.9788 36.913 27.2498 34.3355C27.2702 34.3031 27.2936 34.2766 27.3258 34.2295Z" fill="#F7941E"/>
<path d="M11.3263 34.2001C11.5717 34.8511 11.8434 35.4608 12.0333 36.0942C12.644 38.1415 12.6119 40.1917 11.9778 42.2331C11.9165 42.4334 11.8288 42.507 11.6126 42.5041C10.6601 42.4923 9.70762 42.5011 8.75512 42.4982C8.65286 42.4982 8.54768 42.4776 8.44542 42.4658C8.17661 42.4334 8.05682 42.292 8.01884 42.0062C7.76465 40.0385 7.9458 38.1532 8.99763 36.4241C9.55861 35.4991 10.33 34.7833 11.3263 34.2001Z" fill="#F7941E"/>
<path d="M20.1939 14.0572C19.6008 14.0572 19.0018 14.0572 18.4087 14.0572C18.5343 13.7272 18.8849 13.5063 19.2881 13.5004C19.6154 13.4945 20.1033 13.7007 20.1939 14.0572Z" fill="#F7941E"/>
<path d="M21.8154 26.494C21.4648 26.4881 21.1784 26.1965 21.1872 25.8548C21.196 25.5043 21.4823 25.2274 21.8329 25.2303C22.1806 25.2333 22.464 25.5219 22.4582 25.8725C22.4523 26.223 22.166 26.497 21.8154 26.494Z" fill="#F7941E"/>
<path d="M16.7695 25.2303C17.123 25.2274 17.4035 25.5072 17.4035 25.8636C17.4035 26.2201 17.126 26.4999 16.7695 26.494C16.4277 26.4911 16.1559 26.2201 16.1472 25.8754C16.1384 25.5219 16.4189 25.2333 16.7695 25.2303Z" fill="#F7941E"/>
</g>
<circle cx="30" cy="30" r="28.5" stroke="#F7941E" stroke-width="3"/>
<defs>
<clipPath id="clip0_204_54">
<rect width="44.8608" height="29.0124" fill="white" transform="translate(7.9165 13.5004)"/>
</clipPath>
</defs>
</svg>
