<svg width="45" height="39" viewBox="0 0 45 39" fill="none" xmlns="http://www.w3.org/2000/svg">
<g clip-path="url(#clip0_257_4704)">
<path d="M22.8199 21.8621C22.9019 21.8621 22.9617 21.8621 23.0198 21.8621C24.3646 21.8621 25.7093 21.8638 27.054 21.8604C27.8076 21.8586 28.3595 21.2039 28.2313 20.4735C28.1339 19.9133 27.6521 19.506 27.0694 19.5025C26.0818 19.4991 25.0959 19.5025 24.1083 19.5025C23.6845 19.5025 23.259 19.5008 22.8353 19.5042C22.1518 19.5077 21.6853 19.9322 21.6102 20.611C21.6067 20.6368 21.6016 20.6608 21.5914 20.7278C21.2582 20.6041 20.9387 20.4838 20.5884 20.3532C20.8225 19.9889 20.8669 19.597 21.1283 19.2825C21.8015 18.4748 22.0595 17.5262 21.9416 16.4779C21.9365 16.4366 21.9365 16.3971 21.9314 16.3353C25.1881 16.3353 28.4364 16.3353 31.7239 16.3353C31.6777 16.2545 31.6504 16.2029 31.6179 16.1531C31.0028 15.1855 30.4543 14.1819 30.0306 13.113C29.8375 12.6249 29.4308 12.3603 28.9062 12.3603C26.3552 12.3603 23.8024 12.3586 21.2513 12.3637C21.0805 12.3637 20.9916 12.3242 20.9267 12.1523C20.8242 11.8877 20.6789 11.6385 20.5439 11.3652C20.6106 11.3652 20.6704 11.3652 20.7285 11.3652C23.623 11.3652 26.5175 11.3652 29.412 11.3652C30.0596 11.3652 30.5842 11.7261 30.7978 12.3396C31.2659 13.6853 31.9665 14.9071 32.7542 16.0843C32.7713 16.1101 32.7901 16.1342 32.8089 16.1582C32.814 16.1651 32.826 16.1686 32.8362 16.1754C32.949 16.1136 33.0037 16.0259 32.9951 15.8901C32.9866 15.763 32.9934 15.6324 33.0054 15.5052C33.0515 15.0017 33.4701 14.615 33.9725 14.6116C34.1212 14.6098 34.2698 14.6116 34.4168 14.6116C35.0626 14.615 35.565 15.1838 35.4915 15.8266C35.4539 16.1462 35.1583 16.4143 34.8268 16.4195C34.4338 16.4246 34.0391 16.4349 33.6461 16.4143C33.4308 16.404 33.2839 16.4762 33.1609 16.6686C33.2617 16.8113 33.3693 16.9625 33.4958 17.1395C30.849 17.234 28.2364 17.3268 25.6222 17.4214C25.6222 17.43 25.6222 17.4386 25.6222 17.4471C26.1741 17.4471 26.7243 17.4471 27.2762 17.4471C29.5265 17.4471 31.7768 17.4471 34.0255 17.4454C34.6696 17.4454 35.025 17.6826 35.2506 18.2909C35.8538 19.9218 35.8384 21.5493 35.2113 23.1716C35.131 23.3778 35.0404 23.5789 34.9652 23.7868C34.9294 23.8865 34.8747 23.9174 34.7722 23.914C34.5483 23.9071 34.3245 23.9123 34.0836 23.9123C34.0836 23.9913 34.0836 24.0515 34.0836 24.1116C34.0836 24.7286 34.087 25.3456 34.0853 25.9625C34.0836 26.4059 33.899 26.7513 33.5077 26.961C33.383 27.028 33.2275 27.0658 33.0857 27.0693C32.5184 27.0813 31.9494 27.0503 31.3838 27.0796C30.9379 27.1036 30.3535 26.6826 30.3415 26.057C30.3279 25.4091 30.3364 24.7613 30.3364 24.1134C30.3364 24.0532 30.3364 23.9931 30.3364 23.9123C30.2647 23.9123 30.21 23.9123 30.1553 23.9123C28.1561 23.9123 26.157 23.9106 24.1578 23.914C24.057 23.914 24.0023 23.8934 23.9664 23.7903C23.7272 23.1011 23.365 22.4876 22.8763 21.948C22.8575 21.9291 22.849 21.9068 22.8199 21.8621ZM31.2711 19.5317C30.7448 19.5231 30.3125 19.9631 30.3005 20.5165C30.2886 21.075 30.7106 21.5424 31.2386 21.551C31.7666 21.5596 32.2057 21.1076 32.2108 20.5491C32.216 19.9992 31.7922 19.5403 31.2711 19.5317ZM32.4859 20.5319C32.4842 21.0492 32.8636 21.4599 33.3471 21.4651C33.8324 21.4702 34.2356 21.0458 34.2322 20.5354C34.2288 20.0318 33.8255 19.6125 33.3488 19.6159C32.8755 19.6194 32.4876 20.0318 32.4859 20.5319Z" fill="#F7941E"/>
<path d="M19.5406 15.8111C20.1763 15.9279 20.4684 16.3301 20.4155 17.0123C20.3659 17.6585 20.1404 18.2205 19.5885 18.6106C19.5492 18.6381 19.5201 18.6999 19.5116 18.7498C19.2655 20.2312 17.8149 21.4943 16.3847 21.661C15.6858 21.7417 15.0485 21.5252 14.4607 21.1609C13.7311 20.7089 13.1741 20.1005 12.8682 19.2842C12.7982 19.0986 12.8033 18.8769 12.7076 18.7102C12.617 18.5504 12.424 18.4525 12.3078 18.303C11.8977 17.7805 11.7217 17.1876 11.8686 16.526C11.9541 16.1427 12.1608 15.8609 12.5982 15.83C12.6273 15.8283 12.6751 15.7561 12.6751 15.7165C12.6803 15.3986 12.6683 15.0893 12.588 14.7731C12.2326 13.369 12.8392 11.9529 14.107 11.1538C15.8687 10.0454 18.2882 10.6039 19.3065 12.362C19.7815 13.1834 19.8584 14.0513 19.6073 14.9673C19.5321 15.2371 19.5594 15.5327 19.5406 15.8111ZM19.2074 16.3129C19.2074 16.1651 19.2006 16.0465 19.2091 15.9296C19.2194 15.787 19.1374 15.7544 19.0297 15.7784C18.9648 15.7922 18.8999 15.8368 18.852 15.885C18.7717 15.964 18.7051 16.0568 18.6333 16.1427C18.4505 16.361 18.3548 16.3593 18.1788 16.1307C17.1638 14.8195 15.0553 14.8281 14.0472 16.1462C13.8883 16.3558 13.7841 16.3558 13.6115 16.1513C13.5261 16.0499 13.4509 15.9331 13.3484 15.8506C13.2868 15.8008 13.1809 15.7836 13.0989 15.7922C13.0681 15.7956 13.0357 15.9107 13.0288 15.9778C13.0169 16.0809 13.0254 16.1857 13.0254 16.3077C12.9366 16.2716 12.8802 16.2493 12.8238 16.227C12.5401 16.1153 12.3368 16.1891 12.2428 16.483C12.183 16.6686 12.1523 16.88 12.1745 17.0725C12.236 17.6241 12.4257 18.1105 12.9622 18.382C12.9947 18.3992 13.0254 18.449 13.0305 18.4868C13.1279 19.3513 13.5688 20.0181 14.2181 20.556C14.7802 21.02 15.4107 21.3362 16.1574 21.331C16.7435 21.3259 17.2629 21.099 17.738 20.7691C18.4573 20.2707 18.9802 19.6245 19.163 18.7463C19.2057 18.5418 19.2194 18.3494 19.4603 18.2772C19.5184 18.26 19.5663 18.1981 19.6107 18.1483C19.8841 17.8493 20.043 17.4935 20.0618 17.0931C20.072 16.8783 20.0413 16.6514 19.9763 16.4469C19.8977 16.196 19.691 16.1273 19.4449 16.2184C19.3732 16.2441 19.3031 16.2734 19.2074 16.3129ZM16.113 14.1441C16.4496 14.1458 16.7879 14.1475 17.1245 14.1441C17.538 14.1406 17.89 13.8468 17.9447 13.436C17.9703 13.2401 17.9721 13.0339 17.9481 12.838C17.8917 12.3998 17.5415 12.1042 17.1023 12.1042C16.4428 12.1042 15.7849 12.1025 15.1254 12.1059C14.6538 12.1076 14.2915 12.4616 14.2727 12.9377C14.2676 13.0614 14.2693 13.1851 14.2727 13.3072C14.2881 13.7918 14.6504 14.1441 15.1322 14.1441C15.4603 14.1441 15.7866 14.1441 16.113 14.1441Z" fill="#F7941E"/>
<path d="M12.5181 21.7469C12.9059 21.6713 13.2648 21.5957 13.627 21.5355C13.68 21.527 13.7552 21.5837 13.8047 21.6283C14.3207 22.1009 14.9085 22.4429 15.5954 22.589C16.419 22.7643 17.1537 22.5168 17.8389 22.082C18.0542 21.9463 18.2422 21.7675 18.4455 21.6129C18.4916 21.5785 18.5531 21.527 18.5993 21.5338C18.9649 21.5974 19.3272 21.6713 19.7133 21.7486C19.0555 23.0771 18.8009 24.4416 18.9513 25.8611C17.0563 25.7666 15.1785 25.77 13.2818 25.8577C13.4339 24.4468 13.1776 23.0822 12.5181 21.7469Z" fill="#F7941E"/>
<path d="M20.8104 22.2488C21.1675 22.4533 21.4802 22.7042 21.7502 23.0084C22.4422 23.7834 22.7412 24.7114 22.7617 25.734C22.7685 26.1069 22.719 26.4815 22.6968 26.8562C22.6899 26.9593 22.6404 27.016 22.5396 27.0315C22.4541 27.0435 22.3687 27.071 22.2833 27.0727C21.716 27.0762 21.1487 27.0744 20.5814 27.0779C20.4926 27.0779 20.443 27.0573 20.414 26.9645C19.9031 25.3645 20.0227 23.8144 20.766 22.3106C20.7779 22.2917 20.7916 22.2763 20.8104 22.2488Z" fill="#F7941E"/>
<path d="M11.4536 22.2317C11.5971 22.6115 11.756 22.9672 11.8671 23.3367C12.2242 24.5311 12.2054 25.7272 11.8346 26.9181C11.7987 27.035 11.7474 27.078 11.621 27.0763C11.064 27.0694 10.5069 27.0745 9.94991 27.0728C9.8901 27.0728 9.82859 27.0608 9.76879 27.0539C9.61159 27.035 9.54153 26.9525 9.51932 26.7858C9.37066 25.6378 9.4766 24.538 10.0917 23.5292C10.4198 22.9896 10.8709 22.572 11.4536 22.2317Z" fill="#F7941E"/>
<path d="M16.6392 10.4801C16.2924 10.4801 15.9421 10.4801 15.5952 10.4801C15.6687 10.2877 15.8737 10.1588 16.1095 10.1553C16.3009 10.1519 16.5863 10.2722 16.6392 10.4801Z" fill="#F7941E"/>
<path d="M17.5877 17.7358C17.3827 17.7324 17.2152 17.5622 17.2203 17.3629C17.2255 17.1584 17.3929 16.9968 17.5979 16.9985C17.8013 17.0003 17.967 17.1687 17.9636 17.3732C17.9602 17.5777 17.7927 17.7375 17.5877 17.7358Z" fill="#F7941E"/>
<path d="M14.637 16.9985C14.8438 16.9968 15.0078 17.1601 15.0078 17.368C15.0078 17.576 14.8455 17.7392 14.637 17.7358C14.4371 17.7341 14.2782 17.576 14.2731 17.3749C14.2679 17.1687 14.432 17.0003 14.637 16.9985Z" fill="#F7941E"/>
</g>
<path d="M37.0632 6.50802C37.8571 7.73615 38.7381 8.91687 39.4255 10.2028C40.988 13.1257 41.6385 16.2827 41.501 19.8189C43.1182 19.7449 36.3699 19.8086 38.883 19.8352C39.0545 14.3361 37.2924 9.76279 33.1473 6.45765C26.8322 1.42365 20.1194 1.44439 13.2868 5.67248C12.8182 5.03545 12.3466 4.39546 11.7598 3.59695C12.762 3.0103 13.6608 2.36882 14.6498 1.92586C21.6937 -1.22965 28.3252 -0.521502 34.5058 4.15398C34.6803 4.28583 34.8769 4.38805 35.0631 4.50361C35.7298 5.17174 36.3965 5.83988 37.0632 6.50802Z" fill="#F7941E"/>
<path d="M40.1262 19.3228H44.3511L42.2387 22.9891L40.1262 26.6554L38.0153 22.9891L35.9028 19.3228H40.1262Z" fill="#F7941E"/>
<path d="M7.64241 32.3121C6.84858 31.0839 5.96754 29.9032 5.28015 28.6173C3.71762 25.6944 3.06718 22.5374 3.20466 19.0012C1.58744 19.0752 8.33573 19.0115 5.82268 18.9849C5.6512 24.484 7.41328 29.0573 11.5583 32.3624C17.8735 37.3964 24.5863 37.3757 31.4188 33.1476C31.8874 33.7846 32.359 34.4246 32.9459 35.2231C31.9436 35.8098 31.0448 36.4513 30.0559 36.8942C23.0119 40.0497 16.3804 39.3416 10.1998 34.6661C10.0254 34.5343 9.82877 34.432 9.64251 34.3165C8.97581 33.6483 8.30911 32.9802 7.64241 32.3121Z" fill="#F7941E"/>
<path d="M4.57837 19.4955H0.35498L2.46741 15.8306L4.57837 12.1643L6.69082 15.8306L8.80325 19.4955H4.57837Z" fill="#F7941E"/>
<defs>
<clipPath id="clip0_257_4704">
<rect width="26.2351" height="16.9259" fill="white" transform="translate(9.45947 10.1555)"/>
</clipPath>
</defs>
</svg>
