<svg width="256" height="64" viewBox="0 0 256 64" fill="none" xmlns="http://www.w3.org/2000/svg">
<rect width="256" height="64" rx="31" fill="white"/>
<path d="M96.6758 18.0625C96.6758 18.9805 96.3503 19.7389 95.6992 20.3379C95.0482 20.9368 94.166 21.3177 93.0527 21.4805V21.5391C94.3613 21.6693 95.3639 22.0306 96.0605 22.623C96.7637 23.2155 97.1152 23.987 97.1152 24.9375C97.1152 26.2526 96.5814 27.291 95.5137 28.0527C94.4525 28.8145 92.9811 29.1953 91.0996 29.1953C89.0033 29.1953 87.3203 28.9382 86.0508 28.4238V25.8848C86.6628 26.1777 87.3789 26.4089 88.1992 26.5781C89.026 26.7409 89.7975 26.8223 90.5137 26.8223C92.916 26.8223 94.1172 26.1224 94.1172 24.7227C94.1172 24.0911 93.7298 23.6061 92.9551 23.2676C92.1868 22.929 91.0475 22.7598 89.5371 22.7598H88.1992V20.3965H89.4004C90.9108 20.3965 92.0111 20.2533 92.7012 19.9668C93.3913 19.6803 93.7363 19.2051 93.7363 18.541C93.7363 18.0527 93.5182 17.6654 93.082 17.3789C92.6523 17.0859 92.0046 16.9395 91.1387 16.9395C89.7975 16.9395 88.502 17.3268 87.252 18.1016L85.9336 16.0801C86.7474 15.5397 87.61 15.1458 88.5215 14.8984C89.4329 14.6445 90.4453 14.5176 91.5586 14.5176C93.1146 14.5176 94.3548 14.8431 95.2793 15.4941C96.2103 16.1452 96.6758 17.0013 96.6758 18.0625ZM106.48 29L105.904 27.5156H105.826C105.325 28.1471 104.807 28.5866 104.273 28.834C103.746 29.0749 103.056 29.1953 102.203 29.1953C101.155 29.1953 100.328 28.8958 99.7227 28.2969C99.1237 27.6979 98.8242 26.8451 98.8242 25.7383C98.8242 24.5794 99.2279 23.7266 100.035 23.1797C100.849 22.6263 102.073 22.3203 103.707 22.2617L105.602 22.2031V21.7246C105.602 20.6178 105.035 20.0645 103.902 20.0645C103.03 20.0645 102.005 20.3281 100.826 20.8555L99.8398 18.8438C101.096 18.1862 102.49 17.8574 104.02 17.8574C105.484 17.8574 106.607 18.1764 107.389 18.8145C108.17 19.4525 108.561 20.4225 108.561 21.7246V29H106.48ZM105.602 23.9414L104.449 23.9805C103.583 24.0065 102.939 24.1628 102.516 24.4492C102.092 24.7357 101.881 25.1719 101.881 25.7578C101.881 26.5977 102.363 27.0176 103.326 27.0176C104.016 27.0176 104.566 26.819 104.977 26.4219C105.393 26.0247 105.602 25.4974 105.602 24.8398V23.9414ZM121.559 18.082V29H118.57V20.3184H114.615V29H111.637V18.082H121.559ZM127.564 18.082V22.3984C127.564 22.8542 127.49 23.9674 127.34 25.7383L132.379 18.082H135.963V29H133.082V24.6445C133.082 23.8698 133.147 22.776 133.277 21.3633L128.258 29H124.684V18.082H127.564ZM143.531 29.1953C140.133 29.1953 138.434 27.3301 138.434 23.5996C138.434 21.7441 138.896 20.3281 139.82 19.3516C140.745 18.3685 142.07 17.877 143.795 17.877C145.058 17.877 146.191 18.1243 147.193 18.6191L146.314 20.9238C145.846 20.735 145.41 20.582 145.006 20.4648C144.602 20.3411 144.199 20.2793 143.795 20.2793C142.245 20.2793 141.471 21.3796 141.471 23.5801C141.471 25.7155 142.245 26.7832 143.795 26.7832C144.368 26.7832 144.898 26.7083 145.387 26.5586C145.875 26.4023 146.363 26.1615 146.852 25.8359V28.3848C146.37 28.6908 145.882 28.9023 145.387 29.0195C144.898 29.1367 144.28 29.1953 143.531 29.1953ZM156.324 29L155.748 27.5156H155.67C155.169 28.1471 154.651 28.5866 154.117 28.834C153.59 29.0749 152.9 29.1953 152.047 29.1953C150.999 29.1953 150.172 28.8958 149.566 28.2969C148.967 27.6979 148.668 26.8451 148.668 25.7383C148.668 24.5794 149.072 23.7266 149.879 23.1797C150.693 22.6263 151.917 22.3203 153.551 22.2617L155.445 22.2031V21.7246C155.445 20.6178 154.879 20.0645 153.746 20.0645C152.874 20.0645 151.848 20.3281 150.67 20.8555L149.684 18.8438C150.94 18.1862 152.333 17.8574 153.863 17.8574C155.328 17.8574 156.451 18.1764 157.232 18.8145C158.014 19.4525 158.404 20.4225 158.404 21.7246V29H156.324ZM155.445 23.9414L154.293 23.9805C153.427 24.0065 152.783 24.1628 152.359 24.4492C151.936 24.7357 151.725 25.1719 151.725 25.7578C151.725 26.5977 152.206 27.0176 153.17 27.0176C153.86 27.0176 154.41 26.819 154.82 26.4219C155.237 26.0247 155.445 25.4974 155.445 24.8398V23.9414ZM170.514 18.082V20.3184H166.939V29H163.961V20.3184H160.377V18.082H170.514ZM175.436 18.082V22.3984C175.436 22.8542 175.361 23.9674 175.211 25.7383L180.25 18.082H183.834V29H180.953V24.6445C180.953 23.8698 181.018 22.776 181.148 21.3633L176.129 29H172.555V18.082H175.436ZM191.402 29.1953C188.004 29.1953 186.305 27.3301 186.305 23.5996C186.305 21.7441 186.767 20.3281 187.691 19.3516C188.616 18.3685 189.941 17.877 191.666 17.877C192.929 17.877 194.062 18.1243 195.064 18.6191L194.186 20.9238C193.717 20.735 193.281 20.582 192.877 20.4648C192.473 20.3411 192.07 20.2793 191.666 20.2793C190.117 20.2793 189.342 21.3796 189.342 23.5801C189.342 25.7155 190.117 26.7832 191.666 26.7832C192.239 26.7832 192.77 26.7083 193.258 26.5586C193.746 26.4023 194.234 26.1615 194.723 25.8359V28.3848C194.241 28.6908 193.753 28.9023 193.258 29.0195C192.77 29.1367 192.151 29.1953 191.402 29.1953ZM200.24 22.3008H202.34C204.02 22.3008 205.263 22.5677 206.07 23.1016C206.878 23.6354 207.281 24.4427 207.281 25.5234C207.281 27.8411 205.673 29 202.457 29H197.262V18.082H200.24V22.3008ZM204.303 25.5625C204.303 25.1393 204.133 24.8333 203.795 24.6445C203.456 24.4557 202.952 24.3613 202.281 24.3613H200.24V26.9395H202.32C203.642 26.9395 204.303 26.4805 204.303 25.5625ZM103.795 42.082V46.2812H107.955V42.082H110.934V53H107.955V48.498H103.795V53H100.816V42.082H103.795ZM120.992 53L120.416 51.5156H120.338C119.837 52.1471 119.319 52.5866 118.785 52.834C118.258 53.0749 117.568 53.1953 116.715 53.1953C115.667 53.1953 114.84 52.8958 114.234 52.2969C113.635 51.6979 113.336 50.8451 113.336 49.7383C113.336 48.5794 113.74 47.7266 114.547 47.1797C115.361 46.6263 116.585 46.3203 118.219 46.2617L120.113 46.2031V45.7246C120.113 44.6178 119.547 44.0645 118.414 44.0645C117.542 44.0645 116.516 44.3281 115.338 44.8555L114.352 42.8438C115.608 42.1862 117.001 41.8574 118.531 41.8574C119.996 41.8574 121.119 42.1764 121.9 42.8145C122.682 43.4525 123.072 44.4225 123.072 45.7246V53H120.992ZM120.113 47.9414L118.961 47.9805C118.095 48.0065 117.451 48.1628 117.027 48.4492C116.604 48.7357 116.393 49.1719 116.393 49.7578C116.393 50.5977 116.874 51.0176 117.838 51.0176C118.528 51.0176 119.078 50.819 119.488 50.4219C119.905 50.0247 120.113 49.4974 120.113 48.8398V47.9414ZM135.777 53.1953C132.379 53.1953 130.68 51.3301 130.68 47.5996C130.68 45.7441 131.142 44.3281 132.066 43.3516C132.991 42.3685 134.316 41.877 136.041 41.877C137.304 41.877 138.437 42.1243 139.439 42.6191L138.561 44.9238C138.092 44.735 137.656 44.582 137.252 44.4648C136.848 44.3411 136.445 44.2793 136.041 44.2793C134.492 44.2793 133.717 45.3796 133.717 47.5801C133.717 49.7155 134.492 50.7832 136.041 50.7832C136.614 50.7832 137.145 50.7083 137.633 50.5586C138.121 50.4023 138.609 50.1615 139.098 49.8359V52.3848C138.616 52.6908 138.128 52.9023 137.633 53.0195C137.145 53.1367 136.526 53.1953 135.777 53.1953ZM146.158 43.9961C145.527 43.9961 145.032 44.1979 144.674 44.6016C144.316 44.9987 144.111 45.5651 144.059 46.3008H148.238C148.225 45.5651 148.033 44.9987 147.662 44.6016C147.291 44.1979 146.79 43.9961 146.158 43.9961ZM146.578 53.1953C144.82 53.1953 143.447 52.7103 142.457 51.7402C141.467 50.7702 140.973 49.3965 140.973 47.6191C140.973 45.7897 141.428 44.377 142.34 43.3809C143.258 42.3783 144.524 41.877 146.139 41.877C147.682 41.877 148.883 42.3164 149.742 43.1953C150.602 44.0742 151.031 45.2884 151.031 46.8379V48.2832H143.99C144.023 49.1296 144.273 49.7904 144.742 50.2656C145.211 50.7409 145.868 50.9785 146.715 50.9785C147.372 50.9785 147.994 50.9102 148.58 50.7734C149.166 50.6367 149.778 50.4186 150.416 50.1191V52.4238C149.895 52.6842 149.339 52.8763 148.746 53C148.154 53.1302 147.431 53.1953 146.578 53.1953ZM159.449 53.1953C158.167 53.1953 157.161 52.7298 156.432 51.7988H156.275C156.38 52.7103 156.432 53.2376 156.432 53.3809V57.8047H153.453V42.082H155.875L156.295 43.498H156.432C157.128 42.4173 158.16 41.877 159.527 41.877C160.816 41.877 161.826 42.375 162.555 43.3711C163.284 44.3672 163.648 45.7507 163.648 47.5215C163.648 48.6868 163.476 49.6992 163.131 50.5586C162.792 51.418 162.307 52.0723 161.676 52.5215C161.044 52.9707 160.302 53.1953 159.449 53.1953ZM158.57 44.2598C157.835 44.2598 157.298 44.4876 156.959 44.9434C156.62 45.3926 156.445 46.138 156.432 47.1797V47.502C156.432 48.6738 156.604 49.5137 156.949 50.0215C157.301 50.5293 157.854 50.7832 158.609 50.7832C159.944 50.7832 160.611 49.6829 160.611 47.4824C160.611 46.4082 160.445 45.6042 160.113 45.0703C159.788 44.5299 159.273 44.2598 158.57 44.2598ZM176.188 44.9434C176.188 45.5293 176.002 46.0306 175.631 46.4473C175.266 46.8574 174.726 47.1211 174.01 47.2383V47.3164C174.785 47.4076 175.396 47.6745 175.846 48.1172C176.301 48.5534 176.529 49.0938 176.529 49.7383C176.529 50.7995 176.113 51.61 175.279 52.1699C174.446 52.7233 173.255 53 171.705 53H166.109V42.082H171.705C173.202 42.082 174.322 42.3262 175.064 42.8145C175.813 43.2962 176.188 44.0059 176.188 44.9434ZM173.443 49.582C173.443 49.1523 173.277 48.8431 172.945 48.6543C172.613 48.459 172.115 48.3613 171.451 48.3613H169.088V50.9395H171.51C172.141 50.9395 172.62 50.8223 172.945 50.5879C173.277 50.347 173.443 50.0117 173.443 49.582ZM173.17 45.1777C173.17 44.5137 172.643 44.1816 171.588 44.1816H169.088V46.3398H171.246C171.878 46.3398 172.356 46.2487 172.682 46.0664C173.007 45.8841 173.17 45.5879 173.17 45.1777ZM178.775 39.2598C178.775 38.2897 179.316 37.8047 180.396 37.8047C181.477 37.8047 182.018 38.2897 182.018 39.2598C182.018 39.722 181.881 40.0833 181.607 40.3438C181.34 40.5977 180.937 40.7246 180.396 40.7246C179.316 40.7246 178.775 40.2363 178.775 39.2598ZM181.881 53H178.902V42.082H181.881V53ZM189.449 53.1953C186.051 53.1953 184.352 51.3301 184.352 47.5996C184.352 45.7441 184.814 44.3281 185.738 43.3516C186.663 42.3685 187.988 41.877 189.713 41.877C190.976 41.877 192.109 42.1243 193.111 42.6191L192.232 44.9238C191.764 44.735 191.327 44.582 190.924 44.4648C190.52 44.3411 190.117 44.2793 189.713 44.2793C188.163 44.2793 187.389 45.3796 187.389 47.5801C187.389 49.7155 188.163 50.7832 189.713 50.7832C190.286 50.7832 190.816 50.7083 191.305 50.5586C191.793 50.4023 192.281 50.1615 192.77 49.8359V52.3848C192.288 52.6908 191.799 52.9023 191.305 53.0195C190.816 53.1367 190.198 53.1953 189.449 53.1953Z" fill="#111111"/>
<g clip-path="url(#clip0_204_51)">
<path d="M35.7619 35.5667C35.9022 35.5667 36.0044 35.5667 36.1038 35.5667C38.4032 35.5667 40.7026 35.5697 43.002 35.5638C44.2905 35.5608 45.2343 34.4385 45.0151 33.1866C44.8486 32.2263 44.0247 31.5281 43.0283 31.5222C41.3396 31.5163 39.6537 31.5222 37.9649 31.5222C37.2403 31.5222 36.5128 31.5193 35.7882 31.5252C34.6195 31.5311 33.8219 32.2587 33.6933 33.4222C33.6875 33.4664 33.6787 33.5076 33.6612 33.6225C33.0914 33.4104 32.545 33.2042 31.9461 32.9804C32.3464 32.3559 32.4223 31.6842 32.8694 31.1452C34.0205 29.7607 34.4617 28.1346 34.2601 26.3377C34.2514 26.2671 34.2514 26.1993 34.2426 26.0933C39.8115 26.0933 45.3657 26.0933 50.9872 26.0933C50.9083 25.9548 50.8616 25.8664 50.8061 25.781C49.7542 24.1226 48.8164 22.4023 48.0918 20.57C47.7616 19.7334 47.0662 19.2798 46.1692 19.2798C41.807 19.2798 37.4419 19.2768 33.0797 19.2857C32.7876 19.2857 32.6356 19.2179 32.5246 18.9234C32.3493 18.4697 32.1009 18.0426 31.8701 17.5742C31.9841 17.5742 32.0863 17.5742 32.1857 17.5742C37.1351 17.5742 42.0846 17.5742 47.0341 17.5742C48.1414 17.5742 49.0384 18.1928 49.4036 19.2444C50.2042 21.5509 51.4021 23.6454 52.749 25.6632C52.7783 25.7074 52.8104 25.7486 52.8425 25.7898C52.8513 25.8016 52.8718 25.8075 52.8893 25.8193C53.0821 25.7133 53.1756 25.563 53.161 25.3303C53.1464 25.1123 53.1581 24.8885 53.1785 24.6705C53.2574 23.8074 53.9733 23.1446 54.8323 23.1387C55.0865 23.1357 55.3407 23.1387 55.5919 23.1387C56.6964 23.1446 57.5554 24.1196 57.4297 25.2213C57.3654 25.7692 56.86 26.2288 56.2932 26.2376C55.6211 26.2464 54.9462 26.2641 54.2742 26.2288C53.9061 26.2111 53.6548 26.3348 53.4444 26.6647C53.6168 26.9092 53.8009 27.1684 54.0171 27.4719C49.4913 27.6339 45.0239 27.7929 40.5536 27.955C40.5536 27.9697 40.5536 27.9844 40.5536 27.9991C41.4973 27.9991 42.4381 27.9991 43.3819 27.9991C47.2298 27.9991 51.0778 27.9991 54.9228 27.9962C56.0243 27.9962 56.6321 28.4027 57.0177 29.4455C58.0491 32.241 58.0228 35.0306 56.9505 37.8113C56.8132 38.1648 56.6584 38.5095 56.5298 38.8659C56.4685 39.0368 56.375 39.0898 56.1997 39.0839C55.8169 39.0721 55.4342 39.081 55.0222 39.081C55.0222 39.2165 55.0222 39.3196 55.0222 39.4227C55.0222 40.4802 55.028 41.5377 55.0251 42.5952C55.0222 43.3552 54.7066 43.9473 54.0375 44.3067C53.8243 44.4216 53.5584 44.4864 53.3159 44.4923C52.3458 44.5129 51.3729 44.4598 50.4058 44.5099C49.6432 44.5512 48.644 43.8295 48.6235 42.7572C48.6001 41.6467 48.6148 40.5361 48.6148 39.4256C48.6148 39.3225 48.6148 39.2194 48.6148 39.081C48.492 39.081 48.3985 39.081 48.305 39.081C44.8866 39.081 41.4681 39.078 38.0496 39.0839C37.8773 39.0839 37.7838 39.0486 37.7224 38.8718C37.3134 37.6906 36.6939 36.6389 35.8583 35.714C35.8262 35.6816 35.8116 35.6433 35.7619 35.5667ZM50.213 31.5723C49.3131 31.5576 48.5738 32.3117 48.5534 33.2602C48.5329 34.2176 49.2546 35.0188 50.1574 35.0335C51.0603 35.0483 51.8112 34.2735 51.8199 33.3162C51.8287 32.3735 51.1041 31.587 50.213 31.5723ZM52.2903 33.2867C52.2874 34.1734 52.936 34.8774 53.7629 34.8862C54.5927 34.8951 55.2822 34.1675 55.2764 33.2926C55.2705 32.4295 54.581 31.7108 53.7658 31.7166C52.9565 31.7225 52.2933 32.4295 52.2903 33.2867Z" fill="#F7941E"/>
<path d="M30.1551 25.1948C31.242 25.3952 31.7416 26.0845 31.651 27.2539C31.5663 28.3615 31.1806 29.3248 30.2369 29.9934C30.1697 30.0406 30.12 30.1466 30.1054 30.232C29.6847 32.7713 27.2041 34.9364 24.7586 35.2221C23.5636 35.3605 22.4738 34.9894 21.4687 34.3649C20.2211 33.5902 19.2686 32.5474 18.7456 31.1482C18.6258 30.83 18.6346 30.45 18.4709 30.1643C18.3161 29.8903 17.9859 29.7224 17.7873 29.4661C17.086 28.5706 16.7851 27.5544 17.0364 26.4203C17.1824 25.7634 17.536 25.2803 18.284 25.2273C18.3336 25.2243 18.4154 25.1006 18.4154 25.0328C18.4242 24.4879 18.4037 23.9576 18.2664 23.4156C17.6587 21.009 18.6959 18.5817 20.8639 17.2119C23.8762 15.3119 28.0134 16.2693 29.7548 19.2828C30.5671 20.6908 30.6985 22.1784 30.269 23.7485C30.1405 24.211 30.1872 24.7176 30.1551 25.1948ZM29.5853 26.055C29.5853 25.8017 29.5737 25.5984 29.5883 25.3981C29.6058 25.1536 29.4655 25.0976 29.2815 25.1389C29.1704 25.1624 29.0594 25.239 28.9776 25.3215C28.8403 25.457 28.7263 25.6161 28.6036 25.7634C28.291 26.1375 28.1274 26.1345 27.8264 25.7428C26.0909 23.4952 22.4855 23.5099 20.7616 25.7693C20.4899 26.1286 20.3117 26.1286 20.0166 25.7781C19.8705 25.6043 19.7419 25.404 19.5666 25.2626C19.4614 25.1772 19.2803 25.1477 19.14 25.1624C19.0874 25.1683 19.0319 25.3657 19.0202 25.4806C18.9998 25.6573 19.0144 25.837 19.0144 26.0462C18.8625 25.9843 18.766 25.946 18.6696 25.9077C18.1846 25.7162 17.8369 25.8429 17.6762 26.3466C17.574 26.6648 17.5214 27.0271 17.5594 27.357C17.6645 28.3026 17.9889 29.1362 18.9063 29.6017C18.9618 29.6311 19.0144 29.7165 19.0232 29.7813C19.1897 31.263 19.9435 32.406 21.0538 33.328C22.015 34.1233 23.0932 34.6654 24.37 34.6565C25.3722 34.6477 26.2604 34.2588 27.0726 33.6933C28.3027 32.839 29.1967 31.7314 29.5094 30.2261C29.5824 29.8756 29.6058 29.5457 30.0178 29.422C30.1171 29.3925 30.1989 29.2865 30.2749 29.201C30.7424 28.6885 31.0141 28.0787 31.0462 27.3924C31.0638 27.0241 31.0112 26.6353 30.9001 26.2848C30.7657 25.8547 30.4122 25.7369 29.9915 25.893C29.8688 25.9372 29.749 25.9872 29.5853 26.055ZM24.294 22.3375C24.8696 22.3404 25.4481 22.3434 26.0237 22.3375C26.7308 22.3316 27.3327 21.8279 27.4262 21.1239C27.47 20.788 27.4729 20.4346 27.432 20.0987C27.3356 19.3476 26.7366 18.8409 25.9857 18.8409C24.8579 18.8409 23.733 18.838 22.6052 18.8439C21.7988 18.8468 21.1794 19.4536 21.1473 20.2696C21.1385 20.4817 21.1414 20.6938 21.1473 20.9029C21.1736 21.7336 21.793 22.3375 22.6169 22.3375C23.1779 22.3375 23.736 22.3375 24.294 22.3375Z" fill="#F7941E"/>
<path d="M18.1465 35.3694C18.8097 35.2398 19.4233 35.1102 20.0427 35.0071C20.1333 34.9923 20.2618 35.0895 20.3466 35.1661C21.2289 35.9762 22.234 36.5624 23.4086 36.8128C24.8169 37.1133 26.0732 36.6891 27.2449 35.9438C27.613 35.7111 27.9344 35.4047 28.2821 35.1396C28.361 35.0807 28.4662 34.9923 28.545 35.0041C29.1703 35.1131 29.7897 35.2398 30.45 35.3723C29.3252 37.6494 28.8898 39.9883 29.1469 42.4215C25.9067 42.2594 22.6957 42.2653 19.4525 42.4156C19.7126 39.9971 19.2743 37.6582 18.1465 35.3694Z" fill="#F7941E"/>
<path d="M32.3258 36.2295C32.9364 36.58 33.4711 37.0101 33.9327 37.5315C35.116 38.86 35.6273 40.4507 35.6624 42.2034C35.6741 42.8426 35.5894 43.4848 35.5514 44.127C35.5397 44.3037 35.455 44.4009 35.2826 44.4274C35.1365 44.4481 34.9904 44.4952 34.8443 44.4981C33.8743 44.504 32.9043 44.5011 31.9342 44.507C31.7823 44.507 31.6976 44.4716 31.6479 44.3126C30.7743 41.5701 30.9788 38.913 32.2498 36.3355C32.2702 36.3031 32.2936 36.2766 32.3258 36.2295Z" fill="#F7941E"/>
<path d="M16.3263 36.2001C16.5717 36.8511 16.8434 37.4608 17.0333 38.0942C17.644 40.1415 17.6119 42.1917 16.9778 44.2331C16.9165 44.4334 16.8288 44.507 16.6126 44.5041C15.6601 44.4923 14.7076 44.5011 13.7551 44.4982C13.6529 44.4982 13.5477 44.4776 13.4454 44.4658C13.1766 44.4334 13.0568 44.292 13.0188 44.0062C12.7646 42.0385 12.9458 40.1532 13.9976 38.4241C14.5586 37.4991 15.33 36.7833 16.3263 36.2001Z" fill="#F7941E"/>
<path d="M25.1939 16.0572C24.6008 16.0572 24.0018 16.0572 23.4087 16.0572C23.5343 15.7272 23.8849 15.5063 24.2881 15.5004C24.6154 15.4945 25.1033 15.7007 25.1939 16.0572Z" fill="#F7941E"/>
<path d="M26.8154 28.494C26.4648 28.4881 26.1784 28.1965 26.1872 27.8548C26.196 27.5043 26.4823 27.2274 26.8329 27.2303C27.1806 27.2333 27.464 27.5219 27.4582 27.8725C27.4523 28.223 27.166 28.497 26.8154 28.494Z" fill="#F7941E"/>
<path d="M21.7695 27.2303C22.123 27.2274 22.4035 27.5072 22.4035 27.8636C22.4035 28.2201 22.126 28.4999 21.7695 28.494C21.4277 28.4911 21.1559 28.2201 21.1472 27.8754C21.1384 27.5219 21.4189 27.2333 21.7695 27.2303Z" fill="#F7941E"/>
</g>
<circle cx="35" cy="32" r="28.5" stroke="#F7941E" stroke-width="3"/>
<defs>
<clipPath id="clip0_204_51">
<rect width="44.8608" height="29.0124" fill="white" transform="translate(12.9165 15.5004)"/>
</clipPath>
</defs>
</svg>
