<svg width="45" height="39" viewBox="0 0 45 39" fill="none" xmlns="http://www.w3.org/2000/svg">
<g clip-path="url(#clip0_257_4747)">
<path d="M22.2025 17.8196C21.8334 17.8196 21.4904 17.8196 21.1343 17.8196C21.1343 16.3764 21.1343 14.9232 21.1343 13.4501C21.0559 13.4401 20.9922 13.4252 20.9285 13.4252C20.5087 13.4236 20.0889 13.4385 19.6707 13.4236C19.1513 13.4037 18.4718 12.9778 18.395 12.2322C18.3411 11.7003 18.3346 11.1535 18.3983 10.6232C18.4832 9.9074 19.0729 9.43847 19.8047 9.42687C20.4923 9.41527 21.1816 9.4219 21.8693 9.42355C22.4606 9.42521 23.0519 9.40864 23.6416 9.44178C24.3554 9.47989 24.9156 10.1096 24.9205 10.8337C24.9238 11.2297 24.9238 11.6241 24.9205 12.0201C24.914 12.8072 24.2868 13.4385 23.5093 13.4418C23.078 13.4435 22.6468 13.4418 22.2025 13.4418C22.2025 14.9198 22.2025 16.383 22.2025 17.8196ZM21.6472 10.5139C21.0444 10.5139 20.4417 10.5122 19.839 10.5139C19.5727 10.5139 19.4355 10.6514 19.4322 10.9231C19.429 11.2628 19.429 11.6025 19.4322 11.9422C19.4355 12.2073 19.576 12.3581 19.839 12.3581C21.0444 12.3614 22.2499 12.3614 23.4537 12.3581C23.7183 12.3581 23.8556 12.2057 23.8572 11.9405C23.8588 11.6009 23.8588 11.2612 23.8572 10.9215C23.8556 10.6514 23.72 10.5122 23.4521 10.5122C22.851 10.5122 22.2499 10.5139 21.6472 10.5139Z" fill="#F7941E"/>
<path d="M22.2043 25.3606C22.4134 25.3838 22.6094 25.3871 22.7972 25.4302C23.266 25.5379 23.6058 25.8113 23.7903 26.272C23.939 26.6431 24.0795 27.0193 24.251 27.3788C24.6985 28.3184 24.0141 29.2065 23.0765 29.2397C22.1275 29.2728 21.1752 29.2612 20.2246 29.2446C19.4912 29.2314 18.9129 28.6663 18.9097 27.9737C18.9097 27.8014 18.9587 27.6191 19.0207 27.4551C19.1661 27.069 19.336 26.6928 19.4879 26.3084C19.7329 25.692 20.2033 25.4153 20.8355 25.3821C20.9253 25.3772 21.0152 25.3821 21.1262 25.3821C21.1262 24.0267 21.1262 22.6912 21.1262 21.354C21.3173 21.3689 21.4921 21.3954 21.6669 21.3904C21.84 21.3871 22.0132 21.3523 22.2043 21.3291C22.2043 22.6713 22.2043 24.0151 22.2043 25.3606ZM21.6359 28.1709C21.6359 28.1725 21.6359 28.1742 21.6359 28.1742C21.8613 28.1742 22.0867 28.1792 22.3121 28.1725C22.5783 28.1659 22.8479 28.1725 23.1108 28.1344C23.3183 28.1046 23.3493 28.0085 23.2709 27.8196C23.1206 27.4551 22.9638 27.0938 22.8201 26.7276C22.7531 26.5553 22.6355 26.4675 22.4624 26.4658C21.9201 26.4609 21.3778 26.4625 20.8371 26.4658C20.664 26.4675 20.5447 26.5487 20.4761 26.7227C20.334 27.0889 20.1772 27.4501 20.0269 27.8146C19.9485 28.0068 19.9779 28.0748 20.1788 28.1377C20.2474 28.1593 20.3226 28.1659 20.3945 28.1676C20.8077 28.1725 21.2226 28.1709 21.6359 28.1709Z" fill="#F7941E"/>
<path d="M33.2183 10.4276C33.2183 10.759 33.2248 11.049 33.2134 11.3373C33.2101 11.4003 33.1513 11.4798 33.0958 11.5212C32.6368 11.8659 32.1729 12.2039 31.7123 12.5453C31.4836 12.7143 31.4379 12.9231 31.5849 13.1302C31.7286 13.334 31.9459 13.3572 32.1762 13.1865C32.5143 12.938 32.8508 12.6878 33.2134 12.421C33.2134 12.9015 33.2444 13.3522 33.2052 13.7963C33.1644 14.2503 32.7675 14.5569 32.3134 14.5585C31.9851 14.5585 31.6551 14.5602 31.3268 14.5569C30.8482 14.5519 30.4448 14.1426 30.4431 13.6588C30.4415 12.194 30.4415 10.7292 30.4431 9.26438C30.4431 8.73745 30.8074 8.35137 31.3317 8.33646C31.6666 8.32652 32.0014 8.32486 32.3363 8.33646C32.8867 8.35303 33.2689 8.80042 33.2134 9.36546C33.2069 9.4334 33.1334 9.50796 33.0729 9.5527C32.6286 9.88742 32.1778 10.2155 31.7303 10.5453C31.4967 10.7176 31.4411 10.928 31.5784 11.1302C31.7156 11.3323 31.954 11.3588 32.186 11.1898C32.5208 10.9462 32.8524 10.6977 33.2183 10.4276Z" fill="#F7941E"/>
<path d="M33.2181 26.5637C33.2181 26.9034 33.223 27.21 33.2132 27.5165C33.2116 27.5629 33.1528 27.6159 33.1087 27.6491C32.6432 27.9954 32.1728 28.34 31.7056 28.6847C31.5684 28.7858 31.4785 28.9167 31.5128 29.094C31.5455 29.2646 31.6517 29.4071 31.8216 29.4138C31.9539 29.4187 32.1074 29.3641 32.2185 29.2862C32.5501 29.0608 32.8637 28.8123 33.21 28.5538C33.21 28.9747 33.2377 29.3641 33.2018 29.7468C33.161 30.1942 32.7771 30.5041 32.3296 30.5091C31.9947 30.5124 31.6599 30.5107 31.3234 30.5091C30.8252 30.5057 30.4397 30.1213 30.4397 29.6176C30.4397 28.5107 30.4462 27.4038 30.4479 26.2986C30.4479 25.9838 30.4446 25.6689 30.4397 25.3541C30.4332 24.9382 30.5606 24.5935 30.9395 24.3831C30.9869 24.3566 31.0408 24.3268 31.0914 24.3251C31.5651 24.3185 32.0404 24.287 32.5125 24.3234C32.9127 24.3549 33.1936 24.7576 33.2214 25.1685C33.241 25.4618 33.1642 25.654 32.9062 25.8181C32.4945 26.0799 32.1123 26.3897 31.7187 26.6814C31.4883 26.852 31.4377 27.0674 31.5798 27.2679C31.7187 27.4651 31.949 27.4883 32.1744 27.3259C32.5158 27.0824 32.8523 26.8338 33.2181 26.5637Z" fill="#F7941E"/>
<path d="M10.1885 28.5074C10.5822 28.7957 10.9546 29.0708 11.3287 29.3392C11.51 29.4701 11.6652 29.4651 11.8138 29.3425C12.036 29.1569 12.0196 28.8752 11.7648 28.6863C11.3042 28.3417 10.8435 27.997 10.3748 27.6656C10.231 27.5646 10.164 27.4585 10.1787 27.2762C10.1967 27.0376 10.1836 26.7957 10.1836 26.5173C10.3045 26.6035 10.4042 26.6731 10.5038 26.746C10.77 26.9415 11.0347 27.1404 11.3025 27.3342C11.528 27.4966 11.755 27.4684 11.8971 27.2696C12.0294 27.0824 11.9804 26.852 11.7648 26.693C11.278 26.3317 10.7913 25.9722 10.2996 25.6176C10.2147 25.5563 10.1787 25.4933 10.1885 25.3889C10.2 25.2729 10.1853 25.1536 10.2016 25.0376C10.2572 24.6482 10.5446 24.345 10.9661 24.3118C11.3891 24.277 11.8187 24.282 12.2401 24.3218C12.6567 24.3599 12.9572 24.7427 12.9588 25.1702C12.9621 26.6598 12.9621 28.1495 12.9588 29.6391C12.9572 30.1197 12.5684 30.5074 12.0948 30.5107C11.7468 30.514 11.4005 30.5157 11.0526 30.5107C10.6132 30.5057 10.2277 30.176 10.1951 29.7319C10.1657 29.3359 10.1885 28.9366 10.1885 28.5074Z" fill="#F7941E"/>
<path d="M10.1836 12.3815C10.587 12.6731 10.9545 12.9416 11.327 13.205C11.5344 13.3525 11.7533 13.321 11.8889 13.1305C12.0261 12.9383 11.9918 12.7212 11.7843 12.5654C11.3106 12.2108 10.8353 11.8579 10.3534 11.5165C10.226 11.4254 10.1705 11.3326 10.1803 11.1719C10.195 10.92 10.1836 10.6665 10.1836 10.3782C10.5527 10.6499 10.8974 10.9084 11.2469 11.1586C11.3286 11.2183 11.4217 11.2796 11.5181 11.2978C11.7043 11.3343 11.8644 11.2315 11.933 11.0675C12.0065 10.8885 11.9673 10.7195 11.8039 10.5903C11.6259 10.4478 11.4397 10.3185 11.2567 10.1843C10.9317 9.9457 10.6034 9.7104 10.2832 9.46351C10.2326 9.42374 10.1885 9.33757 10.1868 9.27129C10.1721 8.80567 10.4678 8.40965 10.9251 8.36491C11.358 8.32349 11.8023 8.3268 12.2351 8.36822C12.668 8.40965 12.9588 8.79242 12.9588 9.23153C12.9604 10.7145 12.9604 12.1976 12.9588 13.6806C12.9588 14.1578 12.57 14.5505 12.0979 14.5571C11.75 14.5621 11.4037 14.5621 11.0558 14.5588C10.5772 14.5538 10.1868 14.1562 10.1836 13.6723C10.1819 13.2547 10.1836 12.8388 10.1836 12.3815Z" fill="#F7941E"/>
<path d="M22.622 19.6241C22.5959 20.2024 22.1402 20.6316 21.5766 20.6034C21.0098 20.5752 20.6064 20.103 20.6374 19.5015C20.6636 18.9845 21.1487 18.5454 21.6616 18.5736C22.2235 18.605 22.6465 19.069 22.622 19.6241Z" fill="#F7941E"/>
<path d="M24.9219 26.8735C25.9264 26.8735 26.9424 26.8735 27.9698 26.8735C27.9698 27.2281 27.9698 27.5761 27.9698 27.9373C27.0437 27.9373 26.1208 27.9373 25.2241 27.9373C25.1228 27.5794 25.0231 27.2281 24.9219 26.8735Z" fill="#F7941E"/>
<path d="M18.0667 27.9406C17.2255 27.9406 16.3516 27.9406 15.4663 27.9406C15.4663 27.5876 15.4663 27.2396 15.4663 26.8784C16.4366 26.8784 17.4003 26.8784 18.3673 26.8784C18.2693 27.2231 18.1713 27.5661 18.0667 27.9406Z" fill="#F7941E"/>
<path d="M25.7227 11.9869C25.7227 11.629 25.7227 11.2794 25.7227 10.9231C26.4757 10.9231 27.2205 10.9231 27.9735 10.9231C27.9735 11.2827 27.9735 11.6306 27.9735 11.9869C27.2254 11.9869 26.4855 11.9869 25.7227 11.9869Z" fill="#F7941E"/>
<path d="M13.7559 28.8669C13.7559 27.9125 13.7559 26.958 13.7559 26.0036C14.2475 25.9887 14.6559 26.3566 14.6722 26.8404C14.6853 27.2348 14.6836 27.6308 14.6738 28.0252C14.6591 28.5256 14.2247 28.9199 13.7559 28.8669Z" fill="#F7941E"/>
<path d="M13.7578 12.9215C13.7578 11.9605 13.7578 11.0126 13.7578 10.0632C14.0682 9.99856 14.4504 10.2272 14.5958 10.5669C14.6154 10.6117 14.6415 10.6597 14.6415 10.7061C14.6431 11.2347 14.6791 11.7666 14.6268 12.2885C14.5876 12.6763 14.1743 12.9348 13.7578 12.9215Z" fill="#F7941E"/>
<path d="M15.4644 10.9199C16.1667 10.9199 16.8626 10.9199 17.5682 10.9199C17.5682 11.2762 17.5682 11.6258 17.5682 11.9854C16.8658 11.9854 16.17 11.9854 15.4644 11.9854C15.4644 11.6275 15.4644 11.2795 15.4644 10.9199Z" fill="#F7941E"/>
<path d="M29.6461 25.9919C29.6461 26.9613 29.6461 27.9108 29.6461 28.8602C29.3391 28.9166 28.9323 28.6962 28.8425 28.3399C28.6922 27.7451 28.684 27.1253 28.849 26.5338C28.947 26.1808 29.2656 26.0218 29.6461 25.9919Z" fill="#F7941E"/>
<path d="M29.6441 10.0432C29.6441 11.0059 29.6441 11.9537 29.6441 12.9016C29.3746 12.9562 29.0185 12.7673 28.8764 12.4658C28.8127 12.3315 28.7735 12.1741 28.7669 12.025C28.7522 11.6621 28.7604 11.2976 28.762 10.9347C28.7669 10.4475 29.141 10.0631 29.6441 10.0432Z" fill="#F7941E"/>
</g>
<path d="M37.0632 6.50802C37.8571 7.73615 38.7381 8.91687 39.4255 10.2028C40.988 13.1257 41.6385 16.2827 41.501 19.8189C43.1182 19.7449 36.3699 19.8086 38.883 19.8352C39.0545 14.3361 37.2924 9.76279 33.1473 6.45765C26.8322 1.42365 20.1194 1.44439 13.2868 5.67248C12.8182 5.03545 12.3466 4.39546 11.7598 3.59695C12.762 3.0103 13.6608 2.36882 14.6498 1.92586C21.6937 -1.22965 28.3252 -0.521502 34.5058 4.15398C34.6803 4.28583 34.8769 4.38805 35.0631 4.50361C35.7298 5.17174 36.3965 5.83988 37.0632 6.50802Z" fill="#F7941E"/>
<path d="M40.1262 19.3228H44.3511L42.2387 22.9891L40.1262 26.6554L38.0153 22.9891L35.9028 19.3228H40.1262Z" fill="#F7941E"/>
<path d="M7.64241 32.3121C6.84858 31.0839 5.96754 29.9032 5.28015 28.6173C3.71762 25.6944 3.06718 22.5374 3.20466 19.0012C1.58744 19.0752 8.33573 19.0115 5.82268 18.9849C5.6512 24.484 7.41328 29.0573 11.5583 32.3624C17.8735 37.3964 24.5863 37.3757 31.4188 33.1476C31.8874 33.7846 32.359 34.4246 32.9459 35.2231C31.9436 35.8098 31.0448 36.4513 30.0559 36.8942C23.0119 40.0497 16.3804 39.3416 10.1998 34.6661C10.0254 34.5343 9.82877 34.432 9.64251 34.3165C8.97581 33.6483 8.30911 32.9802 7.64241 32.3121Z" fill="#F7941E"/>
<path d="M4.57837 19.4955H0.35498L2.46741 15.8306L4.57837 12.1643L6.69082 15.8306L8.80325 19.4955H4.57837Z" fill="#F7941E"/>
<defs>
<clipPath id="clip0_257_4747">
<rect width="23.0493" height="22.184" fill="white" transform="translate(10.1772 8.32983)"/>
</clipPath>
</defs>
</svg>
