<svg width="66" height="65" viewBox="0 0 66 65" fill="none" xmlns="http://www.w3.org/2000/svg">
<path d="M34.5605 64.3098C34.1994 64.2753 33.8382 64.2362 33.4771 64.2085C28.2624 63.8082 23.4502 62.1951 19.1234 59.2611C12.1121 54.5047 7.74848 47.9488 6.18659 39.6049C5.04565 33.5138 5.79094 27.6138 8.27984 21.9369C8.31205 21.8609 8.34885 21.7873 8.38566 21.7137C8.39256 21.6976 8.40866 21.6861 8.44316 21.6446C8.94922 21.8747 9.46449 22.1095 9.97975 22.3442C10.4973 22.5812 11.0126 22.8205 11.5278 23.0598C8.33735 30.5224 8.23384 37.9826 11.6106 45.383C14.1179 50.8804 18.1204 55.0409 23.4778 57.8298C34.3236 63.4768 47.5686 61.0353 55.6426 51.9597C63.7695 42.8242 64.7149 29.3557 57.9015 19.3366C54.2072 13.9036 49.1903 10.2426 42.8507 8.4983C36.5273 6.75865 30.3648 7.35004 24.3749 10.0838C23.8872 9.05747 23.4019 8.03117 22.9004 6.97496C23.1534 6.8599 23.3904 6.74945 23.6319 6.64129C26.6338 5.31815 29.7667 4.50125 33.0377 4.21591C33.6956 4.15838 34.3581 4.13997 35.0206 4.10085C35.0896 4.09625 35.1586 4.07094 35.2276 4.05713C35.5957 4.05713 35.9637 4.05713 36.3317 4.05713C36.4007 4.07324 36.4698 4.10085 36.5388 4.10085C39.5015 4.16068 42.3953 4.63471 45.197 5.59198C53.1698 8.31421 59.0746 13.4457 62.8264 20.9888C65.5775 26.523 66.4194 32.3955 65.5752 38.5073C65.1059 41.906 64.0547 45.1253 62.4537 48.1628C60.0269 52.7651 56.6432 56.5067 52.3003 59.3647C47.9735 62.2089 43.2211 63.822 38.0546 64.2109C37.7004 64.2385 37.3485 64.2753 36.9965 64.3098C36.1799 64.3098 35.3702 64.3098 34.5605 64.3098Z" fill="#F7941E"/>
<path d="M36.9518 16C37.4611 16.0677 37.9705 16.1306 38.4799 16.2056C40.9526 16.5587 43.2555 17.4077 45.3695 18.7403C48.3563 20.622 50.6425 23.164 52.1849 26.3687C53.0793 28.2238 53.6389 30.1805 53.8733 32.2364C54.3037 36.0457 53.658 39.6519 51.8669 43.0235C49.7601 46.9877 46.613 49.8078 42.4759 51.4912C40.9119 52.1273 39.2906 52.5385 37.619 52.6836C33.1303 53.0778 29.0004 52.0233 25.3057 49.3821C22.5006 47.3771 20.4249 44.765 19.069 41.5748C18.3874 39.9712 17.9546 38.2951 17.7585 36.5561C17.3209 32.6983 17.9952 29.0534 19.8175 25.6407C21.4388 22.6077 23.7417 20.2326 26.6855 18.4864C28.6082 17.3472 30.6792 16.6216 32.8673 16.237C33.3647 16.15 33.8741 16.1282 34.3786 16.0701C34.4791 16.058 34.5771 16.0242 34.6776 16.0024C35.4356 16 36.1937 16 36.9518 16ZM51.6517 33.2328C51.1064 24.8716 44.1618 18.7379 36.947 18.3969C36.947 19.1201 36.947 19.8456 36.947 20.5688C36.1722 20.5688 35.4332 20.5688 34.6584 20.5688C34.6584 19.8215 34.6584 19.1007 34.6584 18.3775C26.2407 18.9604 20.291 26.122 20.0016 33.2425C20.719 33.2425 21.434 33.2425 22.1419 33.2425C22.1419 34.0262 22.1419 34.7735 22.1419 35.5427C21.4077 35.5427 20.6999 35.5427 19.992 35.5427C20.1475 38.8683 21.6445 43.2388 25.4611 46.5572C28.0965 48.8476 31.1718 50.1247 34.6943 50.398C34.6943 49.6289 34.6943 48.9057 34.6943 48.1898C35.4619 48.1898 36.1913 48.1898 36.9566 48.1898C36.9566 48.9323 36.9566 49.6555 36.9566 50.381C44.9199 49.8901 51.2356 43.1541 51.6397 35.5306C50.9223 35.5306 50.2073 35.5306 49.4803 35.5306C49.4803 34.7469 49.4803 34.002 49.4803 33.2304C50.2097 33.2328 50.9175 33.2328 51.6517 33.2328Z" fill="#F7941E"/>
<path d="M35.8039 36.6794C34.6895 36.6746 33.7736 35.8813 33.5799 34.7203C33.5369 34.4567 33.434 34.3067 33.2093 34.1761C31.2746 33.0611 29.3495 31.9316 27.4197 30.8118C27.0132 30.5772 26.7836 30.2216 26.8003 29.7621C26.8171 29.3412 27.0036 28.9833 27.4006 28.7753C27.8047 28.5649 28.1897 28.6084 28.5771 28.8357C29.7585 29.5299 30.9446 30.2168 32.1307 30.9061C32.9055 31.3584 33.6851 31.8034 34.4552 32.2654C34.6369 32.3742 34.7852 32.3912 34.9765 32.2993C35.7872 31.905 36.5429 32.0622 37.2196 32.6113C37.454 32.7999 37.6046 32.6838 37.7864 32.5774C39.6014 31.5156 41.4141 30.4466 43.2364 29.3969C43.4157 29.2929 43.674 29.2131 43.8557 29.2638C44.0207 29.3098 44.224 29.5468 44.236 29.7137C44.2503 29.8951 44.1164 30.1708 43.9609 30.27C43.2674 30.7199 42.5452 31.1238 41.8302 31.5422C40.6273 32.246 39.4269 32.9523 38.2168 33.6464C38.0423 33.7456 37.9777 33.8423 38.0279 34.0383C38.334 35.2331 37.2937 36.6818 35.8039 36.6794Z" fill="#F7941E"/>
<path d="M0 11.0704C0 10.6617 0 10.2529 0 9.84419C0.011957 9.77163 0.0263053 9.69907 0.0382623 9.62651C0.10283 9.17664 0.138701 8.71952 0.234356 8.27691C0.774811 5.76877 2.04942 3.7105 4.07015 2.16257C6.58589 0.234909 9.41969 -0.403614 12.5094 0.247002C14.9821 0.76943 16.9932 2.07792 18.5309 4.0999C20.1905 6.28152 20.8816 8.76789 20.6234 11.5034C20.4129 13.7189 19.5616 15.678 18.1004 17.3468C16.4982 19.1777 14.5038 20.3193 12.122 20.7474C11.7322 20.8176 11.3376 20.8563 10.9454 20.9095C10.5413 20.9095 10.1371 20.9095 9.73296 20.9095C9.68035 20.8974 9.63013 20.8805 9.57752 20.8756C7.96094 20.7595 6.44719 20.2927 5.06736 19.4365C2.38661 17.7798 0.73894 15.3877 0.160223 12.2556C0.0884815 11.8638 0.0526106 11.4647 0 11.0704ZM18.9805 10.4658C18.9853 5.65509 15.1064 1.72238 10.3475 1.71996C5.58868 1.71512 1.70028 5.63816 1.6955 10.4488C1.69071 15.262 5.57194 19.1923 10.3308 19.1971C15.0873 19.2019 18.9757 15.2789 18.9805 10.4658Z" fill="#23283F"/>
<path d="M8.72379 12.6859C8.76445 12.6158 8.79554 12.5311 8.85054 12.4755C10.8043 10.497 12.7605 8.521 14.7118 6.54255C14.9103 6.3418 15.1232 6.19184 15.4149 6.20152C15.764 6.21119 16.0223 6.37324 16.1682 6.69009C16.3141 7.00693 16.2734 7.31168 16.0606 7.58982C16.008 7.65996 15.9434 7.72043 15.8812 7.78331C13.717 9.97219 11.5528 12.1611 9.3886 14.3499C8.8888 14.8554 8.44639 14.853 7.9442 14.3427C6.87764 13.2664 5.81347 12.1877 4.74691 11.1114C4.53169 10.8937 4.39299 10.6518 4.42886 10.3326C4.46473 9.99879 4.64169 9.76419 4.94301 9.63358C5.23954 9.50539 5.52172 9.55134 5.77999 9.74725C5.85413 9.80288 5.92108 9.87302 5.98804 9.94075C6.82503 10.7873 7.66202 11.6338 8.499 12.4803C8.55161 12.5335 8.58749 12.6013 8.63053 12.6617C8.66162 12.6714 8.69271 12.6787 8.72379 12.6859Z" fill="#23283F"/>
</svg>
