<svg width="66" height="66" viewBox="0 0 66 66" fill="none" xmlns="http://www.w3.org/2000/svg">
<path d="M53.1198 50.629C51.2208 50.629 49.3534 50.629 47.4438 50.629C47.4438 49.7821 47.4438 48.9557 47.4438 48.1087C41.2305 48.1087 35.062 48.1087 28.8513 48.1087C28.8513 48.9326 28.8513 49.759 28.8513 50.6188C26.9444 50.6188 25.0822 50.6188 23.17 50.6188C23.17 50.0439 23.17 49.4792 23.17 48.9146C23.17 48.5809 23.141 48.2447 23.1753 47.9136C23.278 46.9281 23.0331 46.1093 22.4062 45.2752C21.4633 44.0202 21.2526 42.5059 21.3368 40.9583C21.3948 39.9111 21.5976 38.8999 22.0849 37.958C22.5853 36.9852 23.2754 36.1716 24.2525 35.6198C24.5502 35.453 24.6687 35.2426 24.7319 34.9012C25.1481 32.6272 25.9251 30.5124 27.7424 28.9032C28.659 28.0896 29.7284 27.6302 30.9874 27.6302C35.702 27.6327 40.4193 27.643 45.1339 27.625C46.7985 27.6199 48.1049 28.2975 49.1611 29.4832C50.5439 31.0334 51.2366 32.8839 51.5711 34.8858C51.6133 35.1322 51.6238 35.3786 51.9162 35.5403C53.5281 36.436 54.4183 37.8527 54.795 39.5723C55.1558 41.2175 55.0821 42.8601 54.3788 44.4205C54.1154 45.0057 53.6809 45.519 53.3411 46.076C53.2384 46.2428 53.1356 46.4404 53.133 46.6252C53.1119 47.9419 53.1198 49.2611 53.1198 50.629ZM41.8969 34.6702C41.939 34.3494 41.9548 34.1133 42.0049 33.8849C42.3262 32.4527 43.659 31.344 45.2762 31.2721C46.9592 31.1977 48.6844 32.5708 48.795 34.1877C48.8266 34.6343 49.011 34.7267 49.3824 34.7267C49.5062 34.7267 49.63 34.7267 49.759 34.7267C49.493 33.2098 48.6739 31.2233 47.4122 30.1351C46.7669 29.5782 46.0452 29.2882 45.1655 29.2933C40.4509 29.3087 35.7362 29.3036 31.0216 29.2984C30.4185 29.2984 29.8759 29.4575 29.3754 29.7784C28.2797 30.4816 27.6423 31.5288 27.1551 32.6683C26.8759 33.3202 26.6994 34.0106 26.4808 34.6702C31.6616 34.6702 36.7714 34.6702 41.8969 34.6702ZM29.357 41.3818C29.3623 40.1806 28.3904 39.2002 27.1682 39.1745C25.9567 39.1489 24.8873 40.1652 24.8847 41.3484C24.8794 42.547 25.9224 43.5685 27.134 43.5556C28.3614 43.5428 29.3517 42.5752 29.357 41.3818ZM51.3867 41.3612C51.3867 40.1421 50.3727 39.1566 49.1374 39.1796C47.9232 39.2027 46.9223 40.1934 46.925 41.3715C46.9276 42.5521 47.9364 43.5454 49.148 43.5582C50.3859 43.5685 51.3867 42.5855 51.3867 41.3612ZM38.1173 43.1886C40.1612 43.1886 42.2051 43.1886 44.2489 43.1886C44.3912 43.1886 44.536 43.186 44.6756 43.1758C44.9812 43.1501 45.1813 43.0064 45.2077 42.6881C45.234 42.3724 45.0602 42.1902 44.7678 42.1158C44.6203 42.0773 44.457 42.0799 44.3016 42.0799C40.1849 42.0773 36.0681 42.0773 31.954 42.0773C31.3851 42.0773 31.0717 42.2723 31.0611 42.6368C31.0506 43.0064 31.3403 43.1886 31.9435 43.1886C34.0005 43.1886 36.0576 43.1886 38.1173 43.1886ZM38.1805 41.2688C40.2217 41.2688 42.263 41.2688 44.3069 41.2688C44.4491 41.2688 44.6177 41.3099 44.7283 41.2509C44.9074 41.1533 45.1603 41.0019 45.1813 40.8479C45.205 40.6631 45.0602 40.4116 44.91 40.2679C44.8021 40.1652 44.5624 40.1678 44.3833 40.1678C42.2577 40.1652 40.1348 40.1703 38.0093 40.1703C35.9838 40.1703 33.9584 40.1652 31.9356 40.1626C31.3904 40.1626 31.0585 40.3859 31.069 40.7478C31.0769 41.102 31.3482 41.2663 31.9303 41.2688C32.0172 41.2688 32.1015 41.2688 32.1884 41.2688C34.1823 41.2688 36.1814 41.2688 38.1805 41.2688ZM47.7072 34.624C47.6493 33.7719 47.299 33.1175 46.5483 32.6965C45.7002 32.2192 44.8521 32.2654 44.0514 32.7864C43.3982 33.2124 43.0742 33.831 43.0663 34.624C44.6282 34.624 46.148 34.624 47.7072 34.624Z" fill="#F7941E"/>
<path d="M25.0137 21.5605C25.4667 22.3228 25.9277 23.0799 26.3675 23.8473C26.6941 24.4171 27.0049 24.9971 27.2973 25.5874C27.4422 25.88 27.6397 25.9801 27.9689 25.9698C29.1252 25.9339 30.2815 25.9236 31.4404 25.9031C31.5273 25.9005 31.6116 25.9031 31.6985 25.9005C31.9197 25.8928 32.2253 25.9698 32.3412 25.8595C32.6045 25.6054 32.8074 25.2717 32.9759 24.9432C33.1129 24.6737 33.1445 24.3529 33.2604 24.0706C33.3157 23.9346 33.4606 23.7369 33.5633 23.7369C33.716 23.7369 33.961 23.8576 34.0005 23.9808C34.1111 24.3144 34.1796 24.6763 34.1796 25.0279C34.1796 25.3436 34.2586 25.4694 34.5852 25.4334C34.8117 25.4078 35.0409 25.3898 35.27 25.3898C35.6282 25.3872 35.8416 25.5515 35.8205 25.9236C35.7731 26.7706 35.7257 27.6201 35.6651 28.4645C35.6414 28.7905 35.4096 28.9701 35.1041 28.9984C34.2139 29.0831 33.3262 29.2576 32.4333 28.9547C32.2569 28.8957 32.0119 29.0523 31.7959 29.0677C30.0576 29.1934 28.3192 29.3038 26.5835 29.4296C26.3043 29.4501 26.199 29.3423 26.1726 29.0856C26.1094 28.4209 26.0357 27.7562 25.9593 27.094C25.9514 27.0298 25.9145 26.9682 25.817 26.9041C25.8012 27.0144 25.7775 27.1248 25.7723 27.2352C25.6933 29.3346 25.6353 31.4366 25.5326 33.5335C25.3772 36.716 25.1823 39.8985 25.0242 43.0811C24.94 44.7904 24.9005 46.5023 24.8214 48.2116C24.8083 48.5016 24.9163 48.612 25.1823 48.6633C25.4193 48.7121 25.6485 48.7916 25.8803 48.8609C26.5414 49.0637 26.8706 49.7438 26.5888 50.3778C26.5414 50.4856 26.3649 50.6036 26.2464 50.6062C24.6186 50.6267 22.9883 50.6344 21.3605 50.619C21.2341 50.619 21.0287 50.4368 21.0023 50.3136C20.9312 49.962 20.9049 49.5975 20.9128 49.2382C20.976 45.912 21.0524 42.5883 21.1103 39.262C21.1129 39.0541 21.0023 38.8462 20.947 38.6383C20.8654 38.8283 20.7363 39.0105 20.7126 39.2081C20.3702 41.7875 20.0436 44.3695 19.7117 46.9488C19.6459 47.4596 19.5642 47.9678 19.5273 48.4811C19.5168 48.612 19.6169 48.843 19.7144 48.8712C20.0963 48.9816 20.1647 49.2613 20.2148 49.5719C20.2227 49.6258 20.228 49.6822 20.2306 49.7387C20.2991 50.5857 20.2385 50.6421 19.3904 50.637C18.2894 50.6293 17.1911 50.637 16.0901 50.637C15.5423 50.637 15.5054 50.619 15.5265 50.0698C15.5844 48.4297 15.6503 46.7872 15.7293 45.1471C15.8452 42.7577 15.9821 40.3682 16.0928 37.9762C16.1086 37.6502 16.1797 37.5091 16.5511 37.5091C17.0173 37.5116 17.4071 37.3243 17.631 36.8803C17.6705 36.8033 17.8022 36.7211 17.8891 36.7211C18.3684 36.7314 18.832 36.7186 19.235 37.1035C19.8434 37.6836 20.789 37.5424 21.4132 37.0291C21.4685 36.9855 21.5133 36.8726 21.4922 36.8161C21.4711 36.7571 21.3684 36.7032 21.2947 36.6929C21.0682 36.6595 20.839 36.6364 20.6125 36.6339C20.3228 36.6339 20.2122 36.5286 20.2227 36.2335C20.249 35.4379 20.2359 35.4456 21.055 35.4687C21.2499 35.4738 21.4448 35.4045 21.6397 35.3686C21.5107 35.2146 21.4027 35.0323 21.2446 34.9117C20.5993 34.4215 19.9725 34.3958 19.285 34.8168C18.8478 35.0837 18.2183 35.0631 17.9997 34.8219C17.7021 34.4908 17.4545 34.1032 17.091 33.8081C17.0304 33.7593 17.0699 33.5951 17.0673 33.4847C17.0541 32.1347 17.0436 30.7847 17.0304 29.4347C17.0304 29.4219 17.0304 29.4065 17.0304 29.3936C17.0541 28.5082 17.1437 28.4132 18.0418 28.3054C18.2815 28.2772 18.5238 28.2541 18.7662 28.2233C19.4352 28.1309 19.4352 28.1309 19.5511 27.461C19.6327 26.9811 19.7275 26.5011 19.7986 26.0212C19.846 25.6952 19.9909 25.5489 20.3518 25.5515C21.9373 25.5669 23.5203 25.5387 25.1059 25.5669C25.5273 25.5746 25.6221 25.4334 25.6116 25.069C25.5774 23.8807 25.4062 22.718 24.9057 21.6144C24.94 21.5913 24.9768 21.5759 25.0137 21.5605ZM24.458 27.2198C24.6581 27.1505 24.9531 27.1376 25.0427 26.999C25.2982 26.5961 25.0532 26.2599 24.5607 26.2547C24.4606 26.2547 24.3605 26.2599 24.2604 26.2547C23.9812 26.2419 23.8469 26.3446 23.8416 26.6397C23.8285 27.1299 23.8522 27.1633 24.458 27.2198ZM21.2157 27.248C21.4053 27.153 21.6898 27.1017 21.7635 26.9528C21.8425 26.7937 21.7714 26.3805 21.6845 26.3574C21.3711 26.2701 21.0208 26.2727 20.6915 26.3112C20.6283 26.3189 20.5783 26.6371 20.5677 26.8168C20.5414 27.2942 20.9286 27.1145 21.2157 27.248Z" fill="#23283F"/>
<path d="M20.5519 24.7199C20.228 24.7199 19.9303 24.7404 19.6353 24.7147C19.2771 24.6814 19.1244 24.8071 19.077 25.1613C18.9953 25.767 18.8531 26.365 18.7662 26.9707C18.7214 27.2685 18.6055 27.4173 18.2815 27.4276C17.9997 27.4353 17.7205 27.4918 17.3491 27.538C17.4808 26.845 17.5993 26.2136 17.7179 25.5797C17.7574 25.3744 17.8338 25.1228 17.5045 25.11C17.3702 25.1049 17.1252 25.2358 17.1094 25.3333C16.8434 26.8937 16.5221 28.4491 16.3825 30.0224C16.2692 31.3057 16.3851 32.6069 16.3799 33.9004C16.3799 34.2084 16.4694 34.406 16.7855 34.4907C17.1042 34.5754 17.1885 34.7936 17.1542 35.099C17.1042 35.5122 17.0699 35.9306 17.0541 36.3464C17.0383 36.7236 16.8276 36.8802 16.4747 36.8545C15.7793 36.8058 15.084 36.7339 14.3887 36.6646C14.2938 36.6544 14.1911 36.6133 14.1174 36.5568C13.3957 35.9973 12.6556 36.0153 11.8891 36.4644C11.2886 36.8135 10.4773 36.5671 9.89789 35.8023C10.2535 35.8305 10.5406 35.8408 10.8224 35.8767C11.149 35.9203 11.2859 35.8048 11.3175 35.4763C11.3966 34.5908 11.4097 34.5908 10.5142 34.4522C10.3904 34.4343 10.2666 34.4137 10.0902 34.2931C10.3193 34.1622 10.53 33.9723 10.7776 33.9158C11.278 33.8055 11.8127 33.7336 12.2052 34.1751C12.5634 34.578 13.0427 34.5498 13.5063 34.5703C13.5748 34.5729 13.7223 34.3676 13.717 34.2649C13.6617 32.7917 13.5537 31.3185 13.5326 29.8453C13.5168 28.793 13.5748 27.7356 13.6749 26.6884C13.796 25.4436 13.9514 24.1989 14.1779 22.9721C14.4413 21.5451 15.1604 20.3747 16.5037 19.6381C16.7512 19.5021 16.9725 19.4687 17.2227 19.6176C19.0058 20.6801 20.1647 22.1713 20.5414 24.2014C20.5572 24.2836 20.5625 24.3683 20.5677 24.4504C20.5704 24.5043 20.5625 24.5608 20.5519 24.7199Z" fill="#23283F"/>
<path d="M21.1577 9.90576C21.6818 9.99559 22.1507 10.0469 22.6037 10.1624C23.2832 10.3344 23.7178 10.7887 23.9918 11.4149C24.5791 12.7521 24.3579 12.5955 25.8012 12.6263C26.1305 12.634 26.4571 12.634 26.7863 12.634C27.1129 12.634 27.1787 12.8085 27.0918 13.0755C26.9891 13.3963 26.7863 13.5862 26.4228 13.6247C24.45 13.8223 22.4799 14.0302 20.5098 14.2355C19.53 14.3382 18.5528 14.4332 17.5756 14.5538C17.2148 14.5974 17.0805 14.4845 17.0172 14.1329C16.6696 12.2182 17.6415 10.6937 19.5695 10.206C20.1041 10.07 20.6573 9.99816 21.1577 9.90576Z" fill="#23283F"/>
<path d="M24.1683 14.5179C24.4527 16.6635 23.0963 18.5346 21.2262 18.6423C19.2719 18.7553 17.4545 17.1435 17.4466 15.2417C19.6722 15.003 21.9058 14.7617 24.1683 14.5179Z" fill="#23283F"/>
<path d="M19.0796 19.5124C19.6327 19.7614 20.1806 20.0308 20.7442 20.2567C21.4185 20.5288 22.1033 20.7854 22.8434 20.4415C22.9014 20.4158 23.0331 20.4697 23.091 20.5262C23.7916 21.2038 24.5871 23.642 24.4369 24.684C23.5388 24.684 22.638 24.684 21.7398 24.684C21.1183 21.9404 21.1183 21.9404 19.0796 19.5124Z" fill="#23283F"/>
<path d="M64.1215 32.8278C64.1215 50.1305 50.1025 64.1557 32.8107 64.1557C15.519 64.1557 1.5 50.1305 1.5 32.8278C1.5 15.5252 15.519 1.5 32.8107 1.5C50.1025 1.5 64.1215 15.5252 64.1215 32.8278Z" stroke="#F7941E" stroke-width="3"/>
</svg>
