<svg width="68" height="62" viewBox="0 0 68 62" fill="none" xmlns="http://www.w3.org/2000/svg">
<path d="M36.5819 61.3098C36.2208 61.2753 35.8597 61.2362 35.4985 61.2086C30.2838 60.8082 25.4716 59.1951 21.1448 56.2611C14.1335 51.5047 9.7699 44.9488 8.20801 36.6049C7.06707 30.5138 7.81236 24.6138 10.3013 18.9369C10.3335 18.8609 10.3703 18.7873 10.4071 18.7137C10.414 18.6976 10.4301 18.6861 10.4646 18.6446C10.9706 18.8747 11.4859 19.1095 12.0012 19.3442C12.5187 19.5812 13.034 19.8205 13.5493 20.0598C10.3588 27.5224 10.2553 34.9826 13.6321 42.383C16.1394 47.8804 20.1419 52.0409 25.4992 54.8298C36.345 60.4768 49.59 58.0353 57.664 48.9597C65.7909 39.8242 66.7363 26.3557 59.9229 16.3366C56.2286 10.9036 51.2117 7.24255 44.8722 5.4983C38.5487 3.75865 32.3862 4.35004 26.3963 7.08378C25.9087 6.05748 25.4233 5.03117 24.9218 3.97496C25.1749 3.8599 25.4118 3.74945 25.6533 3.64129C28.6552 2.31815 31.7882 1.50125 35.0592 1.21591C35.717 1.15838 36.3795 1.13997 37.042 1.10085C37.111 1.09625 37.18 1.07094 37.249 1.05713C37.6171 1.05713 37.9851 1.05713 38.3532 1.05713C38.4222 1.07324 38.4912 1.10085 38.5602 1.10085C41.5229 1.16068 44.4167 1.63471 47.2184 2.59198C55.1912 5.31421 61.096 10.4457 64.8478 17.9888C67.5989 23.523 68.4408 29.3955 67.5966 35.5073C67.1273 38.906 66.0761 42.1253 64.4751 45.1628C62.0483 49.7651 58.6646 53.5067 54.3217 56.3647C49.9949 59.2089 45.2425 60.822 40.0761 61.2109C39.7218 61.2385 39.3699 61.2753 39.0179 61.3098C38.2013 61.3098 37.3916 61.3098 36.5819 61.3098Z" fill="#F7941E"/>
<path d="M10.2038 16.4292C10.1649 16.4629 10.142 16.4764 10.1328 16.4922C9.80766 17.0545 9.03367 17.0523 8.52073 16.6946C8.12916 16.4202 7.89101 16.0558 7.90017 15.5677C7.90246 15.4642 7.9368 15.3608 7.96428 15.2303C7.35288 15.6644 6.7804 15.5452 6.27434 15.1111C5.83696 14.7377 5.6469 14.2563 5.8736 13.712C5.68354 13.7885 5.49119 13.8987 5.28739 13.9437C4.36914 14.1416 3.38906 13.2261 3.73941 12.2499C3.83788 11.9755 4.07603 11.7461 4.25922 11.5009C4.36914 11.3547 4.48821 11.2175 4.61416 11.087C4.6943 11.0038 4.68972 10.9453 4.61416 10.8576C4.34166 10.5449 4.08061 10.221 3.8104 9.9061C3.73484 9.81838 3.71652 9.74415 3.77834 9.63618C3.91803 9.38875 4.03939 9.13458 4.17908 8.86241C4.38746 9.10534 4.5821 9.33252 4.77674 9.55746C4.96909 9.78014 5.16602 10.0006 5.36754 10.2323C5.69041 10.0343 6.02703 9.95559 6.3957 10.0478C6.67736 10.1175 6.92009 10.2548 7.11473 10.4617C7.44906 10.8148 7.67805 11.4222 7.23609 12.0835C7.81773 11.7753 8.33067 11.8855 8.78407 12.2657C9.23747 12.6436 9.42295 13.1227 9.2077 13.7367C9.75957 13.3903 10.2633 13.4826 10.7213 13.838C11.1839 14.1956 11.3831 14.6612 11.1839 15.2618C11.7266 14.9896 12.1663 15.1516 12.5395 15.5272C12.8395 15.8309 12.9746 16.1885 12.7754 16.6046C13.1853 16.9735 13.7623 17.0883 14.1493 16.7576C14.1974 16.7171 14.2455 16.6744 14.2775 16.6226C14.4172 16.3932 14.4516 16.319 14.2111 16.1458C13.5104 15.6509 12.8235 15.1381 12.1342 14.632C12.0014 14.5352 11.935 14.4093 11.967 14.2518C12.0014 14.0809 12.0998 13.9369 12.2785 13.9054C12.3838 13.8874 12.5235 13.9099 12.6128 13.9684C13.2791 14.4138 13.9341 14.8704 14.5935 15.3248C15.0447 15.6352 15.4935 15.9523 15.9492 16.2582C16.2491 16.4607 16.5903 16.4247 16.8468 16.1818C17.1308 15.9096 17.2086 15.5295 16.9934 15.2483C16.8766 15.0953 16.7003 14.9829 16.5377 14.8659C15.4546 14.0921 14.3691 13.3229 13.2837 12.5513C13.0479 12.3826 13.0021 12.1352 13.1578 11.917C13.2769 11.7483 13.5974 11.7056 13.799 11.8428C14.4287 12.2769 15.0561 12.7178 15.6835 13.1564C16.4323 13.6805 17.1789 14.2068 17.9299 14.7287C18.294 14.9806 18.7154 14.9334 18.9856 14.623C19.2466 14.3261 19.21 13.8425 18.8871 13.613C18.1498 13.0822 17.4055 12.5626 16.6636 12.0385C15.8828 11.4896 15.1019 10.9408 14.3233 10.392C14.3004 10.3762 14.2753 10.3605 14.2546 10.3402C14.0257 10.1423 13.9684 9.85212 14.1218 9.66317C14.2592 9.48997 14.5798 9.47198 14.8134 9.63393C15.5874 10.1738 16.3568 10.7159 17.1308 11.258C17.946 11.8293 18.7566 12.4029 19.5741 12.9697C19.897 13.1946 20.3641 13.1497 20.6938 12.8932C21.2228 12.4816 21.1198 11.8563 20.719 11.5234C19.668 10.6461 18.6352 9.7464 17.5933 8.85791C16.6316 8.03465 15.6629 7.21814 14.7058 6.39038C14.4126 6.13845 14.1241 5.87528 13.8608 5.59411C13.6432 5.36018 13.3639 5.28595 13.0776 5.24322C12.4617 5.14874 11.9258 5.3107 11.5869 5.85504C11.4701 6.04398 11.4518 6.29141 11.3831 6.5096C11.0763 7.48806 10.4855 8.2101 9.45272 8.49127C9.04283 8.60148 8.61003 8.61723 8.19785 8.45528C7.97115 8.3653 7.80399 8.2011 7.69179 7.99191C7.5979 7.81646 7.62538 7.64102 7.70095 7.45432C7.83834 7.12592 7.98718 6.79526 8.05817 6.45336C8.14061 6.06423 8.16809 5.6571 8.17496 5.25896C8.18182 4.84283 8.39478 4.51893 8.58256 4.17703C8.66041 4.03307 8.74514 3.89361 8.8459 3.71816C8.16351 3.71816 7.50859 3.71816 6.81704 3.71816C7.01168 3.34027 7.18114 2.99612 7.36433 2.65872C7.38723 2.61598 7.49027 2.59574 7.55668 2.59574C8.55279 2.59124 9.54661 2.59574 10.5427 2.59124C10.6389 2.59124 10.7465 2.55975 10.8335 2.51476C11.8136 1.98392 12.8647 1.75224 13.973 1.84671C14.5065 1.8917 15.0378 2.01541 15.5599 2.14362C16.501 2.37531 17.4307 2.65872 18.4154 2.66322C18.4726 2.66322 18.5528 2.7352 18.5803 2.79368C18.9398 3.51797 19.2947 4.24676 19.6474 4.97554C20.3847 6.4871 21.1198 8.00091 21.8594 9.51247C21.9167 9.62718 21.9098 9.71941 21.8548 9.82963C21.7151 10.1153 21.5961 10.4077 21.4518 10.6911C21.3854 10.8216 21.406 10.9093 21.4976 11.0218C21.8571 11.4604 22.0105 11.9643 21.9373 12.5243C21.848 13.2104 21.2801 13.7907 20.5908 13.9122C20.545 13.9212 20.5015 13.9347 20.458 13.9437C20.3298 13.9684 20.1626 13.9504 20.0824 14.0246C20.0115 14.0899 20.0298 14.2541 20.0183 14.3778C19.9382 15.1966 19.3588 15.7431 18.4337 15.7566C18.1292 15.7611 18.0124 15.8534 17.9093 16.1278C17.7216 16.6361 17.4055 17.0613 16.8239 17.1962C16.3911 17.2974 15.9812 17.1962 15.5897 17.0118C15.466 16.9533 15.3469 16.8858 15.2301 16.8251C15.0927 17.0005 14.9714 17.1805 14.8271 17.3357C14.3646 17.835 13.7165 17.9835 13.0845 17.7248C12.8372 17.6236 12.6036 17.4841 12.3769 17.3447C12.2601 17.2727 12.2029 17.2749 12.109 17.3807C11.9808 17.5291 11.8411 17.6821 11.6739 17.7788C11.4335 17.9183 11.1701 17.8485 10.9274 17.7451C10.3847 17.4999 10.1168 17.0253 10.2038 16.4292Z" fill="#23283F"/>
<path d="M21.3007 0C21.5732 0.0112467 21.7243 0.157454 21.8273 0.373391C22.1502 1.04594 22.4754 1.72075 22.8006 2.3933C23.6295 4.0983 24.4607 5.8033 25.2897 7.5083C25.3767 7.686 25.4591 7.86595 25.5461 8.0459C25.6858 8.33381 25.6148 8.62398 25.324 8.77243C24.7722 9.05135 24.2134 9.31677 23.6455 9.56195C23.2975 9.71041 23.0456 9.59569 22.883 9.26054C22.2693 7.99641 21.6602 6.73228 21.0465 5.46815C20.4214 4.17928 19.7939 2.89265 19.1688 1.60378C19.0062 1.26638 19.1138 0.980713 19.455 0.818761C19.9428 0.589328 20.4259 0.355396 20.916 0.130462C21.0396 0.0742283 21.1724 0.0427375 21.3007 0Z" fill="#23283F"/>
<path d="M4.32334 0.00899737C4.42181 0.0359895 4.52485 0.0517349 4.61645 0.0944724C5.1477 0.339651 5.67667 0.587078 6.20335 0.839005C6.49646 0.978464 6.60179 1.29112 6.45982 1.58579C5.97207 2.58899 5.47974 3.58995 4.99428 4.59316C4.41494 5.78531 3.84017 6.97971 3.26312 8.17186C3.08679 8.5385 2.91047 8.90739 2.72957 9.27179C2.57157 9.59119 2.30594 9.70816 1.9739 9.56195C1.41288 9.31677 0.858719 9.05585 0.311433 8.78143C-0.00457391 8.62398 -0.0709811 8.33156 0.0824423 8.01665C0.716745 6.71204 1.35105 5.40292 1.98764 4.0938C2.58759 2.85666 3.18984 1.61953 3.7875 0.380139C3.89513 0.155205 4.04855 0.0112467 4.32334 0.00899737Z" fill="#23283F"/>
<path d="M44.8088 26.2948C45.4981 26.5332 45.6767 27.0393 45.5782 27.6444C45.4202 28.6273 45.1019 29.5158 44.0005 29.8757C43.8722 29.9162 43.7738 30.0939 43.6982 30.2289C43.4326 30.6945 43.2494 31.2253 42.9082 31.6279C42.3472 32.2893 42.4823 32.9168 42.8006 33.5916C43.5127 35.1032 44.8111 35.8162 46.4049 36.0412C47.946 36.2593 49.0909 37.0106 49.8878 38.2905C50.8038 39.7571 51.1289 41.3833 51.1564 43.0838C51.1679 43.8194 50.8198 44.3457 50.2427 44.7686C48.8917 45.7583 47.3162 46.2172 45.7019 46.4691C41.0923 47.1889 36.4781 47.2339 31.8938 46.2442C30.5656 45.9563 29.2993 45.4996 28.2001 44.6741C27.7078 44.3052 27.3826 43.8464 27.3826 43.2098C27.3872 41.2146 27.7857 39.3297 29.0634 37.7147C29.8214 36.7542 30.8358 36.2121 32.0655 36.0569C34.1035 35.8027 35.466 34.714 35.9148 32.9911C36.0339 32.5367 36.0682 32.1161 35.679 31.7449C35.5095 31.5852 35.4019 31.3603 35.2759 31.1601C34.9096 30.5775 34.7355 29.9342 33.957 29.5631C33.1807 29.1919 32.867 28.2674 32.9242 27.3992C32.9517 26.9808 33.3066 26.5827 33.5883 26.207C33.1097 23.5123 33.8516 21.2225 35.6927 20.0348C37.5842 18.8134 40.9274 18.8314 42.7364 20.0686C44.5203 21.2855 45.379 23.834 44.8088 26.2948Z" fill="#F7941E"/>
<path d="M52.7296 42.5193C52.4708 41.4036 52.3105 40.3374 51.9716 39.3297C51.3373 37.429 50.2244 35.859 48.2643 35.0694C47.5658 34.7883 46.801 34.6713 46.0637 34.4846C45.237 34.2777 44.6348 33.8008 44.1974 33.0833C43.9478 32.6739 44.0577 32.467 44.4264 32.197C45.9973 31.0454 46.7392 29.4146 47.046 27.5701C47.101 27.2462 47.0895 26.8301 46.927 26.5647C46.4758 25.8314 46.4552 25.0486 46.4094 24.2389C46.311 22.5181 45.727 20.9751 44.5203 19.6682C45.2233 18.4153 46.3384 17.7338 47.7078 17.5448C48.6238 17.4189 49.6016 17.3919 50.5061 17.5561C53.1303 18.0329 54.7928 20.6129 54.2981 23.2986C54.2272 23.6788 54.1768 23.9667 54.6027 24.2074C54.7767 24.3063 54.8706 24.6437 54.8912 24.8822C54.9783 25.8764 54.4333 26.6929 53.412 27.1742C53.3913 27.1832 53.3616 27.1855 53.3524 27.2012C52.9402 27.9008 52.4525 28.5688 52.1571 29.3111C52.022 29.6485 52.1937 30.1614 52.3494 30.546C52.8944 31.8866 54.0142 32.6222 55.3927 32.8066C57.4582 33.0833 58.7383 34.2169 59.3749 36.0569C59.7138 37.0376 59.8283 38.0993 59.9794 39.1318C60.0801 39.829 59.7367 40.3689 59.1459 40.7693C57.8544 41.6488 56.3682 41.9794 54.8615 42.2426C54.1379 42.3708 53.4005 42.436 52.7296 42.5193Z" fill="#F7941E"/>
<path d="M25.908 42.5193C24.0417 42.3258 22.2739 42.0851 20.6045 41.3991C18.7268 40.6276 18.42 40.1327 18.6375 38.1668C18.8207 36.5293 19.3222 35.02 20.6114 33.8773C21.3098 33.2587 22.1594 32.9798 23.0914 32.8178C24.5638 32.5614 25.7408 31.8506 26.2675 30.3683C26.4713 29.7925 26.5468 29.2436 26.0202 28.7735C25.9102 28.6768 25.8393 28.5306 25.7706 28.3979C25.4683 27.8153 25.2187 27.2755 24.5363 26.9066C23.815 26.5152 23.5654 25.6672 23.6272 24.8214C23.6409 24.6392 23.6959 24.3693 23.8218 24.2996C24.3302 24.0184 24.2295 23.636 24.1859 23.1727C24.0142 21.3192 24.3348 19.6165 25.9423 18.3771C27.7765 16.9645 32.3952 16.8543 33.847 19.6659C32.3884 21.2517 31.9212 23.1637 32.0403 25.2601C32.0518 25.4423 32.0334 25.6627 31.9396 25.8067C31.1747 26.9718 31.3556 28.137 31.9235 29.2976C32.2052 29.8757 32.4845 30.465 32.8601 30.9846C33.1944 31.4457 33.6203 31.8686 34.0783 32.215C34.5409 32.5659 34.5546 32.8966 34.2432 33.3037C33.6295 34.1112 32.7593 34.5139 31.7838 34.6398C29.7229 34.9075 28.3078 36.0457 27.2888 37.7372C26.5331 38.9923 26.1392 40.3689 25.9973 41.8175C25.9789 42.0267 25.9446 42.2381 25.908 42.5193Z" fill="#F7941E"/>
</svg>
