<svg width="64" height="70" viewBox="0 0 64 70" fill="none" xmlns="http://www.w3.org/2000/svg">
<path d="M32.5605 69.3098C32.1994 69.2753 31.8382 69.2362 31.4771 69.2085C26.2624 68.8082 21.4502 67.1951 17.1234 64.2611C10.1121 59.5047 5.74848 52.9488 4.18659 44.6049C3.04565 38.5138 3.79094 32.6138 6.27984 26.9369C6.31205 26.8609 6.34885 26.7873 6.38566 26.7137C6.39256 26.6976 6.40866 26.6861 6.44316 26.6446C6.94922 26.8747 7.46449 27.1095 7.97975 27.3442C8.49731 27.5812 9.01257 27.8205 9.52784 28.0598C6.33735 35.5224 6.23384 42.9826 9.61065 50.383C12.118 55.8804 16.1204 60.0409 21.4778 62.8298C32.3236 68.4768 45.5686 66.0353 53.6426 56.9597C61.7695 47.8242 62.7149 34.3557 55.9015 24.3366C52.2072 18.9036 47.1903 15.2426 40.8507 13.4983C34.5273 11.7587 28.3648 12.35 22.3749 15.0838C21.8872 14.0575 21.4019 13.0312 20.9004 11.975C21.1534 11.8599 21.3904 11.7494 21.6319 11.6413C24.6338 10.3181 27.7667 9.50125 31.0377 9.21591C31.6956 9.15838 32.3581 9.13997 33.0206 9.10085C33.0896 9.09625 33.1586 9.07094 33.2276 9.05713C33.5957 9.05713 33.9637 9.05713 34.3317 9.05713C34.4007 9.07324 34.4698 9.10085 34.5388 9.10085C37.5015 9.16068 40.3953 9.63471 43.197 10.592C51.1698 13.3142 57.0746 18.4457 60.8264 25.9888C63.5775 31.523 64.4194 37.3955 63.5752 43.5073C63.1059 46.906 62.0547 50.1253 60.4537 53.1628C58.0269 57.7651 54.6432 61.5067 50.3003 64.3647C45.9734 67.2089 41.2211 68.822 36.0546 69.2109C35.7004 69.2385 35.3485 69.2753 34.9965 69.3098C34.1799 69.3098 33.3702 69.3098 32.5605 69.3098Z" fill="#F7941E"/>
<path d="M19.9402 21.3896C20.8422 21.5277 21.3395 22.2468 21.9062 22.8539C23.6177 24.6847 25.3224 26.5251 27.0293 28.3632C29.2822 30.7893 31.535 33.213 33.7832 35.6414C33.8988 35.7676 33.9844 35.8081 34.1602 35.7581C37.47 34.7939 40.7243 36.8271 41.402 40.3079C41.6333 41.496 41.483 42.6697 40.9973 43.784C40.9857 43.8078 40.9626 43.8268 40.9256 43.8673C40.4028 43.1173 39.8894 42.3792 39.3736 41.6412C38.9665 41.0555 38.5594 40.4698 38.1523 39.8841C37.6342 39.1413 36.7553 38.9603 36.0198 39.4746C35.2866 39.9865 34.5673 40.5198 33.8572 41.0674C33.3021 41.496 33.0939 42.4673 33.6536 43.253C34.5464 44.503 35.4161 45.7696 36.295 47.0314C36.3274 47.0791 36.3528 47.1338 36.4292 47.2719C36.1077 47.2719 35.8463 47.279 35.585 47.2719C32.7978 47.1838 30.4178 44.9529 30.1033 42.0983C29.9946 41.1103 30.094 40.1317 30.4849 39.2056C30.5566 39.0318 30.5404 38.927 30.4039 38.7937C27.5058 35.9557 24.6123 33.1106 21.7211 30.2678C20.264 28.8346 18.8068 27.4037 17.3589 25.9609C16.5008 25.1062 16.4985 23.8229 17.3311 22.9491C17.5393 22.7325 17.759 22.5253 17.958 22.2991C18.3419 21.8611 18.786 21.5254 19.3527 21.392C19.5446 21.3897 19.7412 21.3896 19.9402 21.3896ZM18.6357 24.6586C18.6357 25.3966 19.1884 25.9728 19.8985 25.9704C20.5832 25.968 21.1614 25.3847 21.173 24.6847C21.1845 23.9895 20.5832 23.3539 19.9031 23.3467C19.2069 23.3348 18.6357 23.9276 18.6357 24.6586Z" fill="#F7941E"/>
<path d="M28.6068 27.3965C29.8072 26.9751 30.9359 26.5751 32.1225 26.1585C32.2474 25.099 32.3838 23.9562 32.5203 22.8063C34.107 22.8063 35.6682 22.8063 37.2665 22.8063C37.4029 23.9467 37.5371 25.0895 37.6735 26.2442C38.8971 26.5132 40.0698 26.9037 41.1707 27.4942C41.6056 27.7275 42.0404 27.9679 42.4521 28.2417C42.6256 28.3584 42.7204 28.3275 42.8592 28.2156C43.671 27.5537 44.4875 26.8989 45.2832 26.2561C46.4026 27.4084 47.5198 28.556 48.6508 29.7203C47.9824 30.5988 47.2954 31.5011 46.5923 32.4225C47.5984 33.9867 48.29 35.6938 48.6624 37.5533C49.5436 37.6604 50.4225 37.7652 51.3014 37.8723C51.4772 37.8937 51.6576 37.8985 51.8288 37.9437C51.8982 37.9628 51.9977 38.0651 51.9977 38.1294C52.0023 39.696 51.9953 41.2626 51.9907 42.8292C51.9907 42.8364 51.9791 42.8435 51.963 42.8602C50.9568 42.9888 49.9437 43.1292 48.926 43.2364C48.7109 43.2602 48.6392 43.3387 48.5999 43.5292C48.2669 45.1696 47.6354 46.6862 46.7819 48.1076C46.7241 48.2028 46.6663 48.2957 46.5992 48.4076C47.2839 49.3051 47.9685 50.2075 48.6346 51.0813C47.5151 52.2336 46.398 53.3788 45.2623 54.5478C44.4343 53.8788 43.56 53.174 42.6741 52.4598C42.3457 52.6574 42.0173 52.8598 41.6865 53.055C40.4977 53.7478 39.2255 54.2264 37.8933 54.5264C37.7198 54.5668 37.6574 54.6311 37.6412 54.7859C37.5556 55.5311 37.4723 56.2763 37.3867 57.0191C37.3497 57.3405 37.3104 57.6619 37.2711 58C35.689 58 34.1209 58 32.5226 58C32.444 57.3524 32.363 56.7025 32.2867 56.0525C32.2404 55.6501 32.1919 55.2478 32.1618 54.843C32.1433 54.6002 32.0091 54.5525 31.8079 54.5049C30.1726 54.1192 28.6461 53.4716 27.2421 52.5193C27.2098 52.4979 27.1728 52.4836 27.1196 52.455C26.2499 53.1574 25.3733 53.8645 24.5198 54.5525C23.3957 53.3955 22.2809 52.2503 21.1498 51.086C21.8113 50.2194 22.4983 49.3194 23.1413 48.4766C22.6856 47.5076 22.2092 46.5886 21.816 45.6363C21.5523 44.9982 21.3904 44.3149 21.2123 43.6459C21.1429 43.3887 21.0897 43.253 20.7751 43.2244C19.7944 43.1364 18.8184 42.9864 17.8007 42.8554C17.7961 42.7554 17.7845 42.6388 17.7845 42.5221C17.7822 41.1388 17.7937 39.7555 17.7775 38.3723C17.7729 38.058 17.8354 37.9485 18.1707 37.9175C19.1514 37.8271 20.1252 37.6794 21.1244 37.5509C21.3719 36.4033 21.7049 35.2795 22.2323 34.1915C23.4882 35.1843 24.7303 36.1652 25.9723 37.1461C25.8567 37.6247 25.7156 38.0961 25.6323 38.5794C25.1119 41.5174 25.7387 44.1744 27.5475 46.51C28.9491 48.3219 30.7763 49.4813 32.9806 49.9313C35.8787 50.5241 38.5224 49.8766 40.8354 47.9695C42.7574 46.3862 43.9093 44.3125 44.2493 41.8102C44.6286 39.027 43.9648 36.4938 42.2393 34.2963C40.7359 32.382 38.7791 31.2273 36.4269 30.8131C34.9975 30.5607 33.5773 30.6607 32.1895 31.1035C32.0091 31.1607 31.912 31.1297 31.7894 30.9892C30.7555 29.8202 29.7239 28.6584 28.6068 27.3965Z" fill="#F7941E"/>
<path d="M10.2394 0.999939C10.3417 1.02613 10.4487 1.03565 10.5415 1.07851C10.7342 1.17136 10.9316 1.26421 11.1005 1.3904C11.7284 1.85228 12.3373 2.34274 12.9723 2.79272C13.5099 3.17366 14.0902 3.48555 14.7396 3.64507C15.3722 3.79982 16.0144 3.89982 16.6638 3.92601C17.3012 3.95458 17.9386 3.95458 18.5761 3.95458C19.3538 3.9522 19.9984 4.44741 20.1482 5.1831C20.1697 5.28547 20.1744 5.39261 20.1744 5.49737C20.172 6.9854 20.1768 8.47582 20.1601 9.96385C20.1482 11.0471 20.046 12.1233 19.8771 13.1923C19.6726 14.5089 19.3515 15.7922 18.8686 17.035C18.0623 19.1206 16.8731 20.9467 15.1701 22.4109C13.8357 23.5585 12.3278 24.3799 10.6224 24.8347C10.1181 24.9704 9.64244 24.8894 9.16436 24.7442C7.12123 24.1228 5.3992 22.9943 3.96021 21.4253C2.72577 20.0801 1.84573 18.523 1.21781 16.8159C0.761137 15.5731 0.461447 14.2851 0.266411 12.9732C0.0119116 11.2733 -0.00473787 9.56149 0.00239761 7.84965C0.0071546 7.0854 0.0166686 6.31876 1.91178e-05 5.55451C-0.0237658 4.57122 0.792058 3.9022 1.73156 3.95696C2.98503 4.02838 4.23136 3.93315 5.45866 3.64507C6.20551 3.46888 6.8596 3.09509 7.48514 2.66654C8.04647 2.28322 8.56974 1.8499 9.05971 1.3785C9.27139 1.17374 9.52589 1.07613 9.80417 1.02137C9.83509 1.01422 9.86602 1.0047 9.89694 0.997559C10.0111 0.999939 10.1253 0.999939 10.2394 0.999939ZM1.56031 5.4688C1.56031 5.51642 1.56031 5.56403 1.56031 5.61165C1.56031 6.51876 1.56745 7.42586 1.56031 8.33297C1.54604 9.95909 1.60075 11.5781 1.87427 13.1828C2.12639 14.6589 2.53074 16.0874 3.17293 17.4445C3.96021 19.1087 5.04005 20.5444 6.50282 21.6776C7.50179 22.4514 8.59828 23.0347 9.82082 23.3681C9.9778 23.4109 10.1277 23.4228 10.2846 23.3704C10.6033 23.2633 10.9292 23.1776 11.2408 23.0514C13.0817 22.3086 14.5683 21.1086 15.7504 19.523C16.7089 18.2397 17.3678 16.8088 17.8221 15.2755C18.362 13.4589 18.588 11.5947 18.6165 9.70672C18.6379 8.3282 18.6236 6.94969 18.6236 5.57118C18.6236 5.53546 18.6189 5.49975 18.6165 5.46166C18.588 5.45928 18.5689 5.4569 18.5499 5.45928C17.4891 5.49737 16.4307 5.45213 15.3794 5.295C14.7443 5.19976 14.1164 5.07358 13.5218 4.82121C12.4158 4.35218 11.4406 3.67602 10.5249 2.90938C10.3679 2.77844 10.2133 2.64035 10.0563 2.50226C10.0325 2.5213 10.0182 2.53321 10.004 2.54749C9.42837 3.09509 8.80996 3.58793 8.14636 4.026C7.42806 4.49979 6.6717 4.89978 5.82733 5.09977C4.75939 5.35452 3.67479 5.45452 2.57831 5.4688C2.24532 5.47356 1.90995 5.4688 1.56031 5.4688Z" fill="#23283F"/>
<path d="M9.26188 15.1779C9.30469 15.1065 9.33323 15.0232 9.39032 14.966C11.3621 12.9875 13.3386 11.0114 15.3128 9.03294C15.5126 8.83295 15.729 8.68295 16.0239 8.69247C16.376 8.702 16.6376 8.8639 16.7851 9.18293C16.9325 9.49958 16.8921 9.80671 16.6756 10.0829C16.6209 10.1519 16.5567 10.2138 16.4949 10.2757C14.309 12.4637 12.1232 14.6517 9.93499 16.8398C9.43075 17.3445 8.98359 17.3421 8.47697 16.8326C7.39952 15.7565 6.32444 14.6779 5.24698 13.6018C5.02816 13.3851 4.8902 13.1423 4.92588 12.8233C4.96394 12.4876 5.13995 12.2542 5.44677 12.1257C5.74646 11.9971 6.03188 12.0447 6.29114 12.2399C6.36725 12.2971 6.43385 12.3661 6.50044 12.4328C7.34719 13.278 8.19156 14.1256 9.03592 14.9732C9.08825 15.0255 9.12392 15.0946 9.16912 15.1541C9.19766 15.1613 9.23096 15.1708 9.26188 15.1779Z" fill="#23283F"/>
</svg>
