<svg width="70" height="69" viewBox="0 0 70 69" fill="none" xmlns="http://www.w3.org/2000/svg">
<path d="M15.5933 0C16.1867 0.166018 16.6848 0.477302 17.0901 0.931258C17.2729 1.13619 17.4663 1.33333 17.6306 1.55383C18.2929 2.44617 19.1937 2.99611 20.2429 3.35149C20.5396 3.45266 20.8231 3.59533 21.1039 3.73281C21.9861 4.16083 22.3464 4.90532 22.4286 5.82361C22.4815 6.43061 22.5213 7.03761 22.614 7.63943C22.7094 8.27237 23.0697 8.80415 23.4062 9.33852C23.6102 9.66537 23.8142 9.99481 23.9917 10.3346C24.397 11.1128 24.3414 11.891 23.9201 12.6459C23.7002 13.0402 23.4671 13.4267 23.2128 13.8003C22.6935 14.5629 22.5398 15.4163 22.4816 16.3061C22.4524 16.7626 22.4021 17.2218 22.3014 17.668C22.1557 18.3191 21.7265 18.786 21.1251 19.0791C20.5873 19.3385 20.0336 19.572 19.4772 19.7951C18.7539 20.0856 18.2135 20.5863 17.7207 21.1621C17.3842 21.5564 17.0345 21.9481 16.645 22.2931C15.9297 22.9313 15.0793 22.8742 14.2076 22.677C13.5665 22.5318 12.9148 22.3294 12.271 22.3346C11.5477 22.3398 10.8271 22.5603 10.1012 22.6641C9.65077 22.7289 9.18978 22.8093 8.74204 22.7782C7.8916 22.7211 7.38823 22.1064 6.8716 21.5331C6.56163 21.1881 6.2596 20.8353 5.93373 20.5058C5.4701 20.0311 4.8475 19.8184 4.2514 19.5694C3.91758 19.4293 3.57846 19.297 3.24995 19.144C2.33062 18.7211 1.92262 17.9715 1.84844 17.0117C1.8087 16.4981 1.76631 15.9844 1.70803 15.4734C1.6259 14.7445 1.27353 14.1219 0.876131 13.5201C0.695976 13.2451 0.523768 12.9624 0.359509 12.677C-0.133269 11.8184 -0.114724 10.9598 0.386002 10.1115C0.587353 9.76913 0.778106 9.42153 1.0086 9.09987C1.55171 8.33982 1.72922 7.48119 1.79016 6.58106C1.8193 6.15305 1.85904 5.72244 1.93587 5.29961C2.10543 4.36576 2.77836 3.86511 3.60761 3.51492C3.92288 3.38262 4.2408 3.24514 4.56402 3.131C5.32438 2.86122 5.93373 2.39429 6.44241 1.78729C7.06236 1.0454 7.65051 0.259403 8.68111 0C8.94869 0 9.21892 0 9.48651 0C9.86271 0.0933852 10.2389 0.178988 10.6125 0.280156C11.5106 0.518807 12.4114 0.61738 13.3254 0.357977C13.8076 0.223087 14.2977 0.119326 14.7852 0C15.0554 0 15.323 0 15.5933 0ZM12.1438 20.1608C16.9418 20.2257 20.99 16.3243 21.0827 11.6265C21.1807 6.63294 17.1617 2.64591 12.1253 2.65888C7.11534 2.67185 3.2314 6.60182 3.19696 11.3645C3.15722 16.3502 7.34318 20.2153 12.1438 20.1608Z" fill="#2C2C2C"/>
<path d="M12.13 19.1699C7.83274 19.2114 4.3462 15.8054 4.20843 11.6835C4.06007 7.27886 7.61814 3.63684 12.1379 3.6524C16.61 3.66796 19.9297 7.10246 20.0621 11.1569C20.2131 15.7717 16.414 19.2218 12.13 19.1699ZM14.7263 9.11543C14.9144 8.71336 15.0681 8.36316 15.2403 8.02594C15.4867 7.54604 15.6298 7.04799 15.5503 6.51102C15.4576 5.89105 15.2403 5.3463 14.57 5.11025C14.0587 4.92866 13.6481 5.20363 13.6057 5.73541C13.5818 6.02335 13.6136 6.36057 13.4679 6.58106C13.0466 7.22438 12.6095 7.87549 12.069 8.41764C11.6001 8.88716 11.1656 9.35408 10.8689 9.94034C10.7391 10.1971 10.5377 10.3658 10.2675 10.4721C10.196 10.5006 10.1112 10.5863 10.1032 10.6537C10.0688 10.9313 10.0582 11.214 10.0449 11.4942C9.99195 12.773 10.2781 14.0026 10.6172 15.227C10.7046 15.5383 10.8397 15.6965 11.1815 15.6472C11.2822 15.6316 11.3908 15.6628 11.4915 15.6835C12.1936 15.8288 12.8903 16 13.5951 16.1193C14.3448 16.2438 15.0999 16.2905 15.8391 16.0441C16.4987 15.8236 16.9412 15.4215 16.9836 14.6926C16.9862 14.6303 17.0339 14.5577 17.0869 14.5162C17.5876 14.1141 17.7174 13.6031 17.5929 13.0013C17.5744 12.9053 17.6035 12.7782 17.6565 12.6952C17.9003 12.3139 18.0142 11.8885 17.834 11.489C17.6698 11.1232 17.6512 10.8067 17.7201 10.415C17.8261 9.82879 17.3783 9.34111 16.671 9.24514C16.0616 9.15953 15.439 9.15953 14.7263 9.11543ZM7.9864 10.3735C7.9864 10.3684 7.9864 10.3632 7.9864 10.358C7.74531 10.358 7.50687 10.358 7.26578 10.358C6.62993 10.358 6.34381 10.62 6.3597 11.2451C6.37825 11.9196 6.37295 12.6018 6.48687 13.2633C6.63258 14.1167 6.85778 14.9598 7.10417 15.7899C7.25783 16.3139 7.72676 16.5162 8.26458 16.3865C8.81035 16.2542 9.35611 16.1167 9.90453 15.987C10.3602 15.8781 10.3629 15.8807 10.241 15.4553C10.2198 15.3826 10.196 15.3126 10.1748 15.2399C9.83034 14.0648 9.6078 12.8716 9.62634 11.6446C9.63164 11.3645 9.66344 11.0843 9.67933 10.8041C9.70582 10.3087 9.67668 10.2802 9.16271 10.3061C8.76796 10.3243 8.37585 10.3502 7.9864 10.3735Z" fill="#2C2C2C"/>
<path d="M9.31902 15.668C9.08323 15.668 8.87393 15.4708 8.87393 15.2477C8.87393 15.0013 9.08853 14.7912 9.32962 14.799C9.58395 14.8067 9.76941 15.0039 9.76411 15.2607C9.75881 15.5149 9.58925 15.668 9.31902 15.668Z" fill="#2C2C2C"/>
<path d="M59.5877 52C57.1556 52 54.7686 52 52.3232 52C52.3232 50.9105 52.3232 49.847 52.3232 48.7601C44.3725 48.7601 36.4801 48.7601 28.5268 48.7601C28.5268 49.8184 28.5268 50.882 28.5268 51.987C26.0867 51.987 23.7023 51.987 21.2543 51.987C21.2543 51.2477 21.2543 50.5214 21.2543 49.7951C21.2543 49.3645 21.2172 48.9339 21.2623 48.5084C21.3948 47.2426 21.0795 46.1894 20.2767 45.1154C19.0713 43.502 18.801 41.5538 18.907 39.5642C18.9785 38.2153 19.2408 36.9183 19.8634 35.7043C20.5046 34.454 21.3868 33.406 22.6373 32.6978C23.0162 32.4825 23.1698 32.2101 23.2493 31.7743C23.7818 28.8509 24.7753 26.1323 27.1014 24.0623C28.2751 23.0169 29.6422 22.4254 31.253 22.4254C37.2882 22.428 43.3234 22.441 49.356 22.4177C51.486 22.4099 53.1578 23.2815 54.5116 24.8068C56.2813 26.799 57.1662 29.1803 57.5954 31.7536C57.6484 32.0701 57.6617 32.3865 58.0379 32.5966C60.0991 33.7484 61.2383 35.572 61.7231 37.7795C62.1867 39.8937 62.0914 42.0078 61.1906 44.013C60.8515 44.7653 60.2978 45.4267 59.8633 46.1401C59.7334 46.3528 59.601 46.6096 59.5983 46.8483C59.5771 48.5422 59.5877 50.2413 59.5877 52ZM45.2256 31.476C45.2813 31.0636 45.2998 30.7601 45.3634 30.4669C45.774 28.6252 47.4776 27.1985 49.5494 27.1077C51.7033 27.0143 53.9102 28.7782 54.0506 30.8586C54.0903 31.4345 54.3288 31.5512 54.8004 31.5538C54.9593 31.5538 55.1156 31.5538 55.2825 31.5538C54.9434 29.6031 53.8943 27.048 52.2782 25.6498C51.4516 24.9339 50.5296 24.5629 49.4036 24.5655C43.3684 24.5863 37.3359 24.5785 31.3007 24.5707C30.5271 24.5707 29.8329 24.7756 29.1944 25.1881C27.7929 26.0934 26.9769 27.4397 26.3543 28.9027C25.9993 29.7406 25.7715 30.6304 25.4906 31.4786C32.1273 31.476 38.6632 31.476 45.2256 31.476ZM29.1785 40.109C29.1865 38.5655 27.9413 37.3048 26.3755 37.2711C24.8257 37.2374 23.4559 38.5448 23.4506 40.0649C23.4453 41.6057 24.778 42.9183 26.3305 42.9027C27.9015 42.8872 29.1706 41.642 29.1785 40.109ZM57.3676 40.0804C57.3676 38.511 56.0694 37.2452 54.4904 37.2737C52.9352 37.3022 51.6556 38.5785 51.6609 40.0908C51.6662 41.6109 52.9564 42.8846 54.5036 42.9027C56.0879 42.9183 57.3676 41.6576 57.3676 40.0804ZM40.3879 42.4306C43.0028 42.4306 45.6204 42.4306 48.2353 42.4306C48.4181 42.4306 48.6009 42.428 48.7837 42.4125C49.1758 42.3787 49.4328 42.1946 49.4646 41.7873C49.4964 41.3826 49.2738 41.1466 48.9003 41.0506C48.7095 41.0013 48.5029 41.0039 48.3042 41.0039C43.0373 41.0013 37.7677 41.0013 32.5008 41.0013C31.7722 41.0013 31.3695 41.2529 31.3589 41.7199C31.3457 42.1946 31.714 42.4306 32.4876 42.4306C35.1184 42.4332 37.7545 42.4306 40.3879 42.4306ZM40.4674 39.9611C43.0797 39.9611 45.6946 39.9611 48.3068 39.9611C48.4896 39.9611 48.7069 40.013 48.8473 39.9378C49.0778 39.8106 49.3983 39.6161 49.4248 39.419C49.4566 39.1829 49.2712 38.856 49.0778 38.6719C48.94 38.5396 48.6353 38.5448 48.4022 38.5448C45.684 38.5396 42.9631 38.5474 40.2449 38.5474C37.6538 38.5474 35.0627 38.5422 32.4717 38.5396C31.7749 38.5396 31.351 38.8249 31.3616 39.2918C31.3722 39.7484 31.7193 39.9585 32.4637 39.9637C32.5723 39.9637 32.6836 39.9637 32.7922 39.9637C35.3515 39.9611 37.9081 39.9611 40.4674 39.9611ZM52.6597 31.419C52.5855 30.3217 52.1378 29.4812 51.1761 28.9391C50.0898 28.3269 49.0062 28.3839 47.9809 29.0558C47.1464 29.6031 46.7304 30.3995 46.7199 31.419C48.7201 31.419 50.6674 31.419 52.6597 31.419Z" fill="#F7941E"/>
<path d="M38.6383 68.3098C38.2772 68.2753 37.9161 68.2362 37.5549 68.2085C32.3402 67.8082 27.528 66.1951 23.2012 63.2611C16.1899 58.5047 11.8263 51.9488 10.2644 43.6049C9.12347 37.5138 9.86876 31.6138 12.3577 25.9369C12.3899 25.8609 12.4267 25.7873 12.4635 25.7137C12.4704 25.6976 12.4865 25.6861 12.521 25.6446C13.027 25.8747 13.5423 26.1095 14.0576 26.3442C14.5751 26.5812 15.0904 26.8205 15.6057 27.0598C12.4152 34.5224 12.3117 41.9826 15.6885 49.383C18.1958 54.8804 22.1983 59.0409 27.5556 61.8298C38.4014 67.4768 51.6464 65.0353 59.7204 55.9597C67.8473 46.8242 68.7927 33.3557 61.9793 23.3366C58.285 17.9036 53.2681 14.2426 46.9286 12.4983C40.6051 10.7587 34.4426 11.35 28.4527 14.0838C27.9651 13.0575 27.4797 12.0312 26.9782 10.975C27.2313 10.8599 27.4682 10.7494 27.7097 10.6413C30.7116 9.31815 33.8446 8.50125 37.1156 8.21591C37.7734 8.15838 38.4359 8.13997 39.0984 8.10085C39.1674 8.09625 39.2364 8.07094 39.3054 8.05713C39.6735 8.05713 40.0415 8.05713 40.4096 8.05713C40.4786 8.07324 40.5476 8.10085 40.6166 8.10085C43.5793 8.16068 46.4731 8.63471 49.2748 9.59198C57.2476 12.3142 63.1524 17.4457 66.9042 24.9888C69.6553 30.523 70.4972 36.3955 69.653 42.5073C69.1837 45.906 68.1325 49.1253 66.5315 52.1628C64.1047 56.7651 60.721 60.5067 56.3781 63.3647C52.0513 66.2089 47.2989 67.822 42.1325 68.2109C41.7782 68.2385 41.4263 68.2753 41.0743 68.3098C40.2577 68.3098 39.448 68.3098 38.6383 68.3098Z" fill="#F7941E"/>
</svg>
