<svg width="69" height="71" viewBox="0 0 69 71" fill="none" xmlns="http://www.w3.org/2000/svg">
<path d="M27.685 35.8195C25.839 34.4485 23.9638 33.2315 21.8278 32.4462C21.7558 32.4202 21.6816 32.392 21.6074 32.3703C20.2426 31.9408 20.092 31.9798 19.1814 33.0189C18.9206 32.8757 18.6553 32.7282 18.3922 32.5829C18.9768 31.3269 19.6626 30.9689 21.0026 31.2336C22.9385 31.6154 24.6046 32.572 26.2415 33.5786C27.0307 34.0645 27.7929 34.5938 28.5506 35.1275C28.7822 35.2902 28.9373 35.2706 29.1667 35.1405C30.6462 34.2988 32.1279 33.4593 33.6208 32.6393C34.7293 32.0297 35.939 31.7564 37.2093 31.7195C40.5325 31.6219 43.8445 31.7737 47.1092 32.3703C48.3009 32.5872 49.4341 33.1339 50.5718 33.5829C51.5971 33.9886 52.5864 34.4745 53.6004 34.9084C53.8208 35.0017 54.0726 35.0515 54.3154 35.0732C55.995 35.2251 57.6813 35.314 59.3519 35.5288C60.638 35.6937 60.9168 36.1015 60.8943 37.3597C60.8876 37.735 60.8066 38.1146 60.8269 38.4877C60.8516 38.9259 60.982 39.3576 61.0023 39.7958C61.018 40.1537 60.9483 40.5182 60.9011 40.8783C60.8494 41.2753 60.7302 41.6679 60.7347 42.0627C60.7414 42.5335 60.5863 42.8111 60.0916 42.8936C58.4008 43.1712 56.7077 43.4511 55.0192 43.7439C54.8798 43.7678 54.6999 43.8632 54.6369 43.976C53.9062 45.2906 52.7775 46.0109 51.2351 46C49.7331 45.987 48.6156 45.2776 47.9321 43.9847C47.786 43.7092 47.5836 43.7353 47.3565 43.7353C42.727 43.7353 38.0997 43.7353 33.4702 43.7353C31.5927 43.7353 29.7175 43.7353 27.8401 43.7331C27.622 43.7331 27.4062 43.7114 27.1678 43.7005C26.2932 45.3752 24.9306 46.282 22.9318 45.9197C21.241 45.6139 20.3079 44.5119 19.9414 42.8914C19.4152 42.848 18.8756 42.8003 18.336 42.7591C17.4951 42.694 16.879 42.3881 16.7104 41.4965C16.6317 41.0779 16.3124 40.6592 16.3551 40.2665C16.4765 39.1515 16.8812 38.1406 17.9358 37.4812C18.9273 36.8607 20.0156 36.4724 21.1645 36.3423C23.0082 36.1297 24.8654 36.0234 26.7181 35.8759C27.0374 35.852 27.3612 35.839 27.685 35.8195ZM20.9172 42.3556C20.9014 43.835 22.0931 45.0195 23.6131 45.0347C25.1397 45.0498 26.3719 43.8871 26.3809 42.4228C26.3899 40.9694 25.1959 39.785 23.7052 39.7654C22.1718 39.7437 20.9329 40.8956 20.9172 42.3556ZM51.2598 45.0325C52.7842 45.0347 54.0029 43.8611 53.9984 42.3925C53.9939 40.9434 52.791 39.7719 51.2935 39.7633C49.7758 39.7524 48.5324 40.9303 48.5234 42.3816C48.5167 43.8415 49.7443 45.0303 51.2598 45.0325ZM40.0446 35.5093C40.0446 34.6546 40.0446 33.8498 40.0446 32.9538C38.691 33.0059 37.3712 33.0536 36.0514 33.1122C35.2667 33.1469 34.5674 33.4333 33.9266 33.8584C33.2206 34.327 32.5191 34.8021 31.8108 35.2706C31.7276 35.3249 31.6197 35.3466 31.523 35.3813C31.5635 35.4247 31.604 35.4681 31.6467 35.5114C34.4348 35.5093 37.2251 35.5093 40.0446 35.5093ZM47.4397 35.5028C45.4498 33.6957 43.2801 32.5265 40.4808 33.1013C40.4808 33.8823 40.4808 34.6871 40.4808 35.5028C42.8057 35.5028 45.0968 35.5028 47.4397 35.5028Z" fill="#F7941E"/>
<path d="M3.0826 0C3.21526 0.0325395 3.34792 0.0672483 3.48058 0.0997878C4.04268 0.240792 4.48787 0.561849 4.89259 0.952323C6.94766 2.94157 9.00947 4.92431 11.0623 6.91573C11.2152 7.06541 11.3209 7.08276 11.5142 6.98948C17.0926 4.33209 23.7727 7.56652 24.8924 13.4583C25.8278 18.374 22.4686 23.09 17.3759 24.0141C12.2292 24.9469 7.28942 21.6149 6.40579 16.6082C6.06403 14.671 6.36532 12.8206 7.26919 11.0613C7.35013 10.9051 7.33214 10.8205 7.20848 10.7012C5.10619 8.67937 3.01065 6.65107 0.906119 4.62929C0.44519 4.18675 0.134906 3.67913 0.0404718 3.05654C0.0359749 3.02834 0.0134906 3.00231 0 2.97411C0 2.7702 0 2.56411 0 2.3602C0.015739 2.31681 0.0404718 2.2756 0.0472171 2.23004C0.245079 1.14539 1.05676 0.316718 2.16749 0.0694176C2.26192 0.0477246 2.35411 0.0238623 2.4463 0C2.65765 0 2.87125 0 3.0826 0ZM15.6446 22.667C19.9908 22.6714 23.4849 19.2981 23.4939 15.0918C23.5029 10.9615 19.9908 7.55784 15.7098 7.54916C11.3478 7.54049 7.82905 10.9051 7.82455 15.0896C7.8178 19.2742 11.3164 22.6627 15.6446 22.667ZM10.0348 7.78779C10.019 7.77043 9.97855 7.72271 9.93358 7.67932C7.91673 5.73346 5.89989 3.78543 3.8808 1.84174C3.78861 1.75279 3.69193 1.66819 3.58625 1.59444C3.19727 1.32327 2.77457 1.24735 2.31364 1.3992C1.31758 1.73544 1.05452 2.90035 1.81898 3.64008C3.8718 5.62933 5.93362 7.61207 7.99093 9.59698C8.02916 9.63386 8.07412 9.66423 8.08087 9.66857C8.73741 9.03513 9.38047 8.41688 10.0348 7.78779Z" fill="#23283F"/>
<path d="M22.2865 13.8054C22.0346 13.8683 21.7828 13.9833 21.531 13.9833C20.0628 13.979 18.5923 13.966 17.1263 13.9117C16.508 13.89 16.182 14.1221 16.0403 14.6862C15.7525 15.8294 15.4535 16.9704 15.1432 18.1093C15.0578 18.426 14.9094 18.7254 14.7227 19.2092C13.5468 17.042 13.5288 14.6927 12.4743 12.6318C12.1955 13.5473 11.9055 14.4606 11.6379 15.3782C11.2647 16.6559 11.2332 16.6928 9.85039 16.606C9.57383 16.5886 9.30402 16.4845 9.02971 16.4194C9.0387 16.3565 9.0477 16.2936 9.05669 16.2329C9.45466 16.2047 9.85264 16.1548 10.2506 16.1548C10.7273 16.1548 10.9431 15.9791 11.06 15.5018C11.3748 14.2241 11.7683 12.9637 12.1438 11.7012C12.2157 11.4626 12.3529 11.2435 12.5508 11.0049C13.585 13.0505 13.6795 15.376 14.779 17.4455C14.9588 16.8186 15.141 16.1895 15.3186 15.5626C15.4782 14.9942 15.6109 14.4172 15.8042 13.8618C15.8582 13.71 16.0875 13.5126 16.2382 13.5104C18.1561 13.4952 20.074 13.5104 21.9919 13.5212C22.0684 13.5212 22.1448 13.5603 22.2213 13.5798C22.2438 13.6557 22.264 13.7295 22.2865 13.8054Z" fill="#23283F"/>
<path d="M37.4209 70.3098C37.0598 70.2753 36.6987 70.2362 36.3375 70.2085C31.1228 69.8082 26.3106 68.1951 21.9838 65.2611C14.9725 60.5047 10.6089 53.9488 9.047 45.6049C7.90606 39.5138 8.65135 33.6138 11.1403 27.9369C11.1725 27.8609 11.2093 27.7873 11.2461 27.7137C11.253 27.6976 11.2691 27.6861 11.3036 27.6446C11.8096 27.8747 12.3249 28.1095 12.8402 28.3442C13.3577 28.5812 13.873 28.8205 14.3882 29.0598C11.1978 36.5224 11.0942 43.9826 14.4711 51.383C16.9784 56.8804 20.9808 61.0409 26.3382 63.8298C37.184 69.4768 50.429 67.0353 58.503 57.9597C66.6299 48.8242 67.5753 35.3557 60.7619 25.3366C57.0676 19.9036 52.0507 16.2426 45.7111 14.4983C39.3877 12.7587 33.2252 13.35 27.2353 16.0838C26.7476 15.0575 26.2623 14.0312 25.7608 12.975C26.0139 12.8599 26.2508 12.7494 26.4923 12.6413C29.4942 11.3181 32.6272 10.5012 35.8982 10.2159C36.556 10.1584 37.2185 10.14 37.881 10.1009C37.95 10.0962 38.019 10.0709 38.088 10.0571C38.4561 10.0571 38.8241 10.0571 39.1922 10.0571C39.2612 10.0732 39.3302 10.1009 39.3992 10.1009C42.3619 10.1607 45.2557 10.6347 48.0574 11.592C56.0302 14.3142 61.935 19.4457 65.6868 26.9888C68.4379 32.523 69.2798 38.3955 68.4356 44.5073C67.9663 47.906 66.9151 51.1253 65.3141 54.1628C62.8873 58.7651 59.5036 62.5067 55.1607 65.3647C50.8339 68.2089 46.0815 69.822 40.9151 70.2109C40.5608 70.2385 40.2089 70.2753 39.8569 70.3098C39.0403 70.3098 38.2306 70.3098 37.4209 70.3098Z" fill="#F7941E"/>
</svg>
