<svg width="65" height="65" viewBox="0 0 65 65" fill="none" xmlns="http://www.w3.org/2000/svg">
<path d="M33.5798 64.3098C33.2187 64.2753 32.8575 64.2362 32.4964 64.2085C27.2817 63.8082 22.4695 62.1951 18.1426 59.2611C11.1314 54.5047 6.76777 47.9488 5.20588 39.6049C4.06494 33.5138 4.81023 27.6138 7.29913 21.9369C7.33133 21.8609 7.36814 21.7873 7.40494 21.7137C7.41184 21.6976 7.42794 21.6861 7.46245 21.6446C7.96851 21.8747 8.48377 22.1095 8.99903 22.3442C9.5166 22.5812 10.0319 22.8205 10.5471 23.0598C7.35664 30.5224 7.25312 37.9826 10.6299 45.383C13.1372 50.8804 17.1397 55.0409 22.4971 57.8298C33.3429 63.4768 46.5879 61.0353 54.6619 51.9597C62.7888 42.8242 63.7342 29.3557 56.9207 19.3366C53.2265 13.9036 48.2096 10.2426 41.87 8.4983C35.5466 6.75865 29.3841 7.35004 23.3942 10.0838C22.9065 9.05748 22.4212 8.03117 21.9197 6.97496C22.1727 6.8599 22.4097 6.74945 22.6512 6.64129C25.6531 5.31815 28.786 4.50125 32.057 4.21591C32.7149 4.15838 33.3774 4.13997 34.0399 4.10085C34.1089 4.09625 34.1779 4.07094 34.2469 4.05713C34.6149 4.05713 34.983 4.05713 35.351 4.05713C35.42 4.07324 35.489 4.10085 35.5581 4.10085C38.5208 4.16068 41.4146 4.63471 44.2163 5.59198C52.1891 8.31421 58.0939 13.4457 61.8456 20.9888C64.5968 26.523 65.4387 32.3955 64.5945 38.5073C64.1252 41.906 63.074 45.1253 61.473 48.1628C59.0462 52.7651 55.6625 56.5067 51.3196 59.3647C46.9927 62.2089 42.2404 63.822 37.0739 64.2109C36.7197 64.2385 36.3678 64.2753 36.0158 64.3098C35.1992 64.3098 34.3895 64.3098 33.5798 64.3098Z" fill="#F7941E"/>
<path d="M2.88941 0C3.4153 0.0774342 3.70746 0.483963 4.03857 0.825964C5.03841 1.85842 6.03392 2.89733 7.03159 3.93409C8.34739 5.30209 9.66319 6.67009 10.9768 8.04025C11.0439 8.11123 11.0937 8.13489 11.1976 8.10478C13.1323 7.56059 15.0324 8.70704 15.4285 10.6709C15.5627 11.3398 15.4761 12.0023 15.1926 12.6325C15.1861 12.6454 15.171 12.6562 15.1493 12.6798C14.8442 12.2561 14.5434 11.841 14.2425 11.4237C14.0045 11.0924 13.7664 10.7633 13.5284 10.4321C13.2254 10.0127 12.7125 9.91157 12.2818 10.202C11.8533 10.4923 11.4335 10.7913 11.018 11.101C10.6933 11.3441 10.5721 11.8904 10.8989 12.3335C11.4205 13.0391 11.9291 13.7532 12.442 14.4651C12.4614 14.4909 12.4744 14.5232 12.5199 14.6006C12.3316 14.6006 12.1801 14.6049 12.0264 14.6006C10.399 14.5512 9.00746 13.2929 8.82351 11.6818C8.76075 11.1247 8.81918 10.5719 9.04641 10.0492C9.0897 9.95244 9.07888 9.89221 8.9988 9.81693C7.30644 8.21662 5.61624 6.61202 3.92604 5.00741C3.07553 4.19865 2.22285 3.39205 1.37667 2.57684C0.874588 2.09502 0.872424 1.37015 1.36152 0.877587C1.48271 0.754983 1.6104 0.638832 1.72726 0.511926C1.95233 0.264567 2.21203 0.0752832 2.54315 0C2.66001 0 2.77471 0 2.88941 0ZM2.12763 1.84336C2.12763 2.26065 2.45009 2.58329 2.86561 2.58329C3.26597 2.58114 3.60358 2.25204 3.61007 1.85842C3.61656 1.46695 3.26381 1.10774 2.86777 1.10344C2.46091 1.09698 2.12763 1.43038 2.12763 1.84336Z" fill="#23283F"/>
<path d="M7.95343 3.38774C8.65461 3.14899 9.31468 2.92529 10.0072 2.68869C10.0808 2.09072 10.1587 1.44759 10.2388 0.798002C11.165 0.798002 12.0783 0.798002 13.011 0.798002C13.0911 1.44114 13.169 2.08642 13.2491 2.73816C13.9633 2.89088 14.6493 3.11027 15.2921 3.44367C15.5474 3.57488 15.8006 3.71039 16.0409 3.86525C16.1426 3.93193 16.1967 3.91473 16.2789 3.8502C16.7529 3.47808 17.229 3.10812 17.6943 2.74461C18.3478 3.3942 19.0014 4.04163 19.6615 4.69982C19.2698 5.19669 18.8694 5.70432 18.4604 6.2227C19.049 7.10458 19.4515 8.06821 19.6701 9.11787C20.1852 9.1781 20.6981 9.23833 21.211 9.29855C21.3149 9.31146 21.4188 9.31361 21.5183 9.33942C21.5594 9.35017 21.6157 9.40825 21.6157 9.44267C21.6179 10.3267 21.6157 11.2107 21.6114 12.0926C21.6114 12.0969 21.6049 12.1012 21.5962 12.1098C21.0097 12.183 20.4168 12.2626 19.8216 12.3228C19.6961 12.3357 19.6528 12.3809 19.6312 12.4884C19.4364 13.4133 19.0685 14.2694 18.5686 15.0717C18.5361 15.1255 18.5015 15.1771 18.4625 15.2416C18.8629 15.7492 19.2633 16.2569 19.6507 16.7494C18.9971 17.399 18.3435 18.0465 17.6813 18.7047C17.1965 18.3282 16.6858 17.9303 16.1685 17.5259C15.9759 17.6378 15.7855 17.7518 15.5907 17.8615C14.896 18.253 14.1537 18.5218 13.3746 18.6917C13.2729 18.7133 13.2383 18.7498 13.2275 18.838C13.1777 19.2574 13.1279 19.679 13.0781 20.0985C13.0565 20.2791 13.0327 20.462 13.011 20.6513C12.087 20.6513 11.1715 20.6513 10.2366 20.6513C10.1912 20.2856 10.1435 19.9199 10.0981 19.5521C10.07 19.3241 10.0418 19.0983 10.0245 18.8703C10.0137 18.7326 9.93579 18.7068 9.81676 18.681C8.86237 18.4637 7.96858 18.0981 7.15053 17.5603C7.13105 17.5474 7.10941 17.541 7.07911 17.5238C6.57054 17.9196 6.0598 18.3196 5.55988 18.7068C4.90414 18.0551 4.25273 17.4076 3.5905 16.7516C3.97572 16.2633 4.37825 15.7557 4.75265 15.2782C4.48646 14.7318 4.20945 14.2135 3.97789 13.6757C3.82423 13.3165 3.72901 12.9315 3.62513 12.5529C3.58401 12.4067 3.55371 12.3314 3.36976 12.3142C2.79626 12.2647 2.22709 12.1808 1.63195 12.1055C1.62978 12.0496 1.62329 11.9829 1.62329 11.9184C1.62329 11.1376 1.62762 10.3568 1.61896 9.57602C1.6168 9.39965 1.65359 9.33727 1.84836 9.32006C2.42186 9.26844 2.99103 9.18455 3.57535 9.11357C3.72035 8.46614 3.91512 7.8316 4.22243 7.21858C4.95608 7.77783 5.68107 8.33278 6.40606 8.88557C6.33897 9.15659 6.25673 9.42116 6.20696 9.69433C5.90398 11.3506 6.26972 12.8498 7.32582 14.1683C8.14387 15.19 9.21296 15.8439 10.5006 16.0977C12.193 16.4311 13.7382 16.0654 15.0908 14.9921C16.214 14.0995 16.887 12.9294 17.0861 11.5183C17.3069 9.94814 16.9195 8.51991 15.911 7.28096C15.0324 6.20119 13.8897 5.54945 12.5155 5.31714C11.6801 5.17518 10.8512 5.23111 10.0397 5.48062C9.93362 5.51288 9.87735 5.49567 9.80594 5.41609C9.20863 4.75575 8.60484 4.09971 7.95343 3.38774Z" fill="#23283F"/>
<path d="M20.1441 30.6662C21.8473 29.8208 23.6219 28.9325 25.4051 28.0571C27.3572 27.0977 29.2919 26.0911 31.5318 25.9126C32.2265 25.8566 32.9234 25.8265 33.6657 25.7835C33.6657 26.2008 33.6657 26.5751 33.6657 26.9923C33.0727 27.0633 32.4408 27.0526 31.8651 27.2268C30.4736 27.6484 29.0777 28.0807 27.7467 28.6464C26.2556 29.2788 24.8251 30.0488 23.3903 30.7995C23.1501 30.9243 22.8579 31.2813 22.8904 31.4857C22.925 31.6986 23.3146 31.9933 23.5656 32.0105C24.9009 32.1051 26.2405 32.1482 27.5801 32.1654C29.3742 32.1869 31.1704 32.1654 32.9645 32.1654C33.1874 32.1654 33.4103 32.1847 33.67 32.1976C33.67 34.8132 33.67 37.3965 33.67 40.0206C30.8912 40.0206 28.1168 40.0206 25.3467 40.0206C24.6607 36.6114 22.7173 34.8627 19.8324 34.9638C17.638 35.0412 14.9826 36.6953 14.7965 39.969C13.1431 40.3798 11.6541 39.2807 11.6282 37.6245C11.6152 36.762 11.6173 35.8973 11.626 35.0347C11.6282 34.8584 11.6411 34.6605 11.7212 34.5099C12.1086 33.77 12.7254 33.1484 12.8206 32.2536C12.8401 32.0621 13.221 31.8879 13.4569 31.7395C13.6819 31.5975 13.9351 31.5007 14.236 31.3566C14.4307 31.4943 14.632 31.7696 15.0302 31.4061C15.1839 31.2663 15.6556 31.505 16.0582 31.3867C16.5949 31.2297 17.2203 31.3717 17.8068 31.348C18.1985 31.333 18.5881 31.2512 19.1637 31.1738C17.2939 29.4724 15.5885 27.9043 13.1517 27.4548C12.7881 27.3881 12.457 27.3107 12.5284 26.8934C12.6042 26.4438 12.9807 26.4568 13.3573 26.517C14.803 26.745 16.0495 27.4075 17.1879 28.2549C18.1834 28.9927 19.1139 29.8187 20.1441 30.6662ZM12.7708 35.5036C13.5759 35.5079 15.3721 34.1529 15.5496 33.4022C15.647 32.9892 15.3959 32.8752 15.0605 32.9548C13.8789 33.2344 12.9981 33.9249 12.4137 34.9509C12.2449 35.2455 12.351 35.5036 12.7708 35.5036Z" fill="#F7941E"/>
<path d="M38.5004 20.2943C38.5004 20.7718 38.5004 21.2063 38.5004 21.6623C38.2537 21.6838 38.0286 21.6924 37.8079 21.7225C36.9444 21.8473 36.3016 22.5055 36.267 23.3529C36.2345 24.1359 36.2497 24.9188 36.2497 25.7039C36.2497 30.9071 36.2497 36.1102 36.2497 41.3155C36.2497 42.9158 36.8924 43.5546 38.522 43.5568C42.4651 43.5611 46.4104 43.5611 50.3534 43.5589C51.7948 43.5589 52.5219 42.8427 52.5219 41.4467C52.5219 35.7015 52.5241 29.9542 52.5262 24.209C52.5262 22.3291 52.1562 21.9053 50.256 21.6451C50.256 21.2041 50.256 20.7567 50.256 20.3136C52.2903 20.0641 53.9849 21.5053 53.9892 23.5035C54 28.9476 53.9935 34.3938 53.9935 39.8378C53.9935 40.4401 53.9957 41.0423 53.9935 41.6468C53.9892 43.5439 52.6193 44.9678 50.6802 44.9829C46.4666 45.013 42.2552 45.0087 38.0416 44.985C36.2302 44.9743 34.7932 43.5955 34.7867 41.8489C34.7629 35.6822 34.7607 29.5133 34.7824 23.3465C34.7932 21.4623 36.4336 20.1437 38.5004 20.2943Z" fill="#F7941E"/>
<path d="M19.9796 43.7396C17.8825 43.6966 16.2097 42.0103 16.2616 39.9948C16.3157 37.9256 18.0578 36.2995 20.1592 36.3554C22.2303 36.4113 23.9097 38.13 23.8578 40.1346C23.8037 42.1587 22.055 43.7826 19.9796 43.7396ZM20.051 42.1759C21.2673 42.1759 22.252 41.2209 22.2541 40.04C22.2563 38.9129 21.2543 37.9321 20.09 37.917C18.8629 37.902 17.8501 38.8892 17.8587 40.0959C17.8631 41.2252 18.8672 42.1759 20.051 42.1759Z" fill="#F7941E"/>
<path d="M49.7063 20.4298C49.7063 20.8299 49.7475 21.2364 49.6977 21.63C49.6176 22.2753 49.1285 22.6904 48.4988 22.7184C47.8344 22.7485 47.2219 22.3678 47.1591 21.7204C47.0747 20.8664 47.0769 19.9953 47.1527 19.1414C47.2132 18.4767 47.7932 18.096 48.4641 18.1197C49.148 18.1412 49.6176 18.5391 49.6999 19.2296C49.7475 19.6232 49.7085 20.0276 49.7063 20.4298C49.7085 20.4298 49.7085 20.4298 49.7063 20.4298Z" fill="#F7941E"/>
<path d="M43.0884 20.4276C43.0884 20.0469 43.0667 19.6641 43.0927 19.2833C43.1403 18.6036 43.6705 18.1218 44.3414 18.1089C45.0318 18.096 45.6226 18.5305 45.6702 19.1995C45.7265 20.019 45.7243 20.8471 45.6659 21.6666C45.6204 22.299 45.0231 22.7292 44.3674 22.7184C43.6749 22.7055 43.1425 22.2409 43.0927 21.5719C43.0646 21.1934 43.0862 20.8105 43.0884 20.4276Z" fill="#F7941E"/>
<path d="M41.6406 20.4018C41.6406 20.7632 41.6514 21.1246 41.6384 21.4859C41.6081 22.2022 41.0995 22.7012 40.3919 22.7227C39.6928 22.7442 39.089 22.2603 39.0501 21.572C39.009 20.8105 39.009 20.0448 39.0501 19.2855C39.089 18.5585 39.6885 18.081 40.4286 18.1132C41.132 18.1433 41.6146 18.6445 41.6384 19.3801C41.6492 19.72 41.6406 20.062 41.6406 20.4018Z" fill="#F7941E"/>
<path d="M38.5848 40.5992C38.5848 39.1387 38.5848 37.7234 38.5848 36.2715C40.0716 36.2715 41.528 36.2715 43.0321 36.2715C43.0321 37.6976 43.0321 39.128 43.0321 40.5992C41.5605 40.5992 40.104 40.5992 38.5848 40.5992ZM42.6534 40.197C42.6534 39.2269 42.662 38.2891 42.6491 37.3535C42.6447 36.9641 42.4305 36.6781 42.0193 36.6695C41.0216 36.6458 40.0218 36.6609 39.0198 36.6609C39.0198 37.8783 39.0198 39.0269 39.0198 40.197C40.2469 40.197 41.4285 40.197 42.6534 40.197Z" fill="#F7941E"/>
<path d="M45.5252 30.9415C47.0315 30.9415 48.4879 30.9415 49.9747 30.9415C49.9747 32.3869 49.9747 33.8001 49.9747 35.2477C48.4858 35.2477 47.0271 35.2477 45.5252 35.2477C45.5252 33.8195 45.5252 32.4063 45.5252 30.9415ZM49.596 34.8713C49.596 33.8797 49.6025 32.9569 49.5938 32.0342C49.5895 31.6147 49.3579 31.3157 48.9294 31.3007C47.9469 31.2684 46.96 31.2899 45.9667 31.2899C45.9667 32.5203 45.9667 33.6882 45.9667 34.8691C47.183 34.8713 48.3516 34.8713 49.596 34.8713Z" fill="#F7941E"/>
<path d="M43.0343 29.9176C41.5389 29.9176 40.0845 29.9176 38.5913 29.9176C38.5913 28.4829 38.5913 27.0698 38.5913 25.6093C40.0478 25.6093 41.5172 25.6093 43.0343 25.6093C43.0343 27.0268 43.0343 28.4378 43.0343 29.9176ZM42.6491 29.5305C42.6491 28.5045 42.6772 27.5064 42.6231 26.5127C42.6123 26.3212 42.2876 26.0008 42.095 25.99C41.0757 25.9384 40.0521 25.9663 39.0155 25.9663C39.0155 27.1924 39.0155 28.3453 39.0155 29.5305C40.2295 29.5305 41.4133 29.5305 42.6491 29.5305Z" fill="#F7941E"/>
<path d="M50.1522 36.3662C50.1522 36.6931 50.1522 36.9878 50.1522 37.319C48.1092 37.319 46.0879 37.319 44.0449 37.319C44.0449 36.99 44.0449 36.6974 44.0449 36.3662C46.0749 36.3662 48.0789 36.3662 50.1522 36.3662Z" fill="#F7941E"/>
<path d="M44.3999 26.5406C44.3999 26.2008 44.3999 25.9255 44.3999 25.6071C46.4385 25.6071 48.449 25.6071 50.4984 25.6071C50.4984 25.904 50.4984 26.1965 50.4984 26.5406C48.4879 26.5406 46.4623 26.5406 44.3999 26.5406Z" fill="#F7941E"/>
<path d="M38.2688 31.9739C38.2688 31.6534 38.2688 31.3609 38.2688 31.0275C40.275 31.0275 42.279 31.0275 44.3263 31.0275C44.3263 31.3265 44.3263 31.6341 44.3263 31.9739C42.3071 31.9739 40.301 31.9739 38.2688 31.9739Z" fill="#F7941E"/>
<path d="M50.5179 29.1885C50.5179 29.4079 50.5179 29.5649 50.5179 29.7649C48.4771 29.7649 46.4515 29.7649 44.402 29.7649C44.402 29.5649 44.402 29.3928 44.402 29.1885C46.4407 29.1885 48.4533 29.1885 50.5179 29.1885Z" fill="#F7941E"/>
<path d="M38.2667 35.1875C38.2667 34.981 38.2667 34.8067 38.2667 34.5981C40.2793 34.5981 42.2703 34.5981 44.3241 34.5981C44.3371 34.7788 44.3501 34.9659 44.3674 35.1875C42.3244 35.1875 40.3334 35.1875 38.2667 35.1875Z" fill="#F7941E"/>
<path d="M44.389 28.3539C44.389 28.1517 44.389 27.9968 44.389 27.7989C46.419 27.7989 48.4273 27.7989 50.5093 27.7989C50.5157 27.9581 50.5244 28.1388 50.5352 28.3539C48.4749 28.3539 46.4645 28.3539 44.389 28.3539Z" fill="#F7941E"/>
<path d="M50.1543 38.5429C50.1543 38.7344 50.1543 38.8892 50.1543 39.0914C48.1309 39.0914 46.1095 39.0914 44.0536 39.0914C44.0536 38.9151 44.0536 38.7451 44.0536 38.5429C46.0706 38.5429 48.0789 38.5429 50.1543 38.5429Z" fill="#F7941E"/>
<path d="M50.1435 39.9819C50.1435 40.1691 50.1435 40.3368 50.1435 40.5326C48.1179 40.5326 46.1247 40.5326 44.0774 40.5326C44.0579 40.3734 44.0363 40.2056 44.006 39.9819C46.0554 39.9819 48.0638 39.9819 50.1435 39.9819Z" fill="#F7941E"/>
<path d="M38.2623 33.7743C38.2623 33.5807 38.2623 33.4129 38.2623 33.2172C38.3922 33.2043 38.4917 33.1828 38.5913 33.1828C40.4871 33.1806 42.385 33.1806 44.3241 33.1806C44.3393 33.3957 44.3501 33.5656 44.3631 33.7721C42.3093 33.7743 40.2988 33.7743 38.2623 33.7743Z" fill="#F7941E"/>
<path d="M42.5841 20.3179C42.5841 20.6707 42.6036 21.0235 42.5733 21.3741C42.5647 21.4838 42.4218 21.5827 42.3418 21.686C42.2768 21.5892 42.1643 21.4945 42.1535 21.3934C42.1275 21.1203 42.1145 20.8363 42.1556 20.5675C42.1751 20.4449 42.3331 20.3438 42.4305 20.2341C42.4803 20.2599 42.5322 20.2878 42.5841 20.3179Z" fill="#F7941E"/>
<path d="M46.5986 20.2577C46.5986 20.675 46.6073 21.0643 46.5921 21.4515C46.59 21.5268 46.5186 21.6257 46.4493 21.6666C46.406 21.6924 46.2459 21.6343 46.2459 21.615C46.2524 21.174 46.2697 20.7331 46.3 20.2943C46.3 20.2814 46.4407 20.2749 46.5986 20.2577Z" fill="#F7941E"/>
<path d="M40.6126 28.5754C41.1342 27.8269 41.5735 27.1924 42.0128 26.56C42.0972 26.6116 42.1816 26.6632 42.2682 26.7149C41.9262 27.6054 41.2012 28.2894 40.6948 29.2465C40.2598 28.7819 39.8898 28.4055 39.5478 28.0076C39.4678 27.9151 39.4851 27.743 39.4591 27.6075C39.5803 27.6441 39.7383 27.6462 39.8184 27.7215C40.0781 27.9732 40.3139 28.2506 40.6126 28.5754Z" fill="#F7941E"/>
</svg>
