<svg width="74" height="75" viewBox="0 0 74 75" fill="none" xmlns="http://www.w3.org/2000/svg">
<path d="M42.4533 74.3098C42.0921 74.2753 41.731 74.2362 41.3699 74.2085C36.1551 73.8082 31.3429 72.1951 27.0161 69.2611C20.0049 64.5047 15.6412 57.9488 14.0794 49.6049C12.9384 43.5138 13.6837 37.6138 16.1726 31.9369C16.2048 31.8609 16.2416 31.7873 16.2784 31.7137C16.2853 31.6976 16.3014 31.6861 16.3359 31.6446C16.842 31.8747 17.3572 32.1095 17.8725 32.3442C18.3901 32.5812 18.9053 32.8205 19.4206 33.0598C16.2301 40.5224 16.1266 47.9826 19.5034 55.383C22.0107 60.8804 26.0132 65.0409 31.3705 67.8298C42.2164 73.4768 55.4614 71.0353 63.5353 61.9597C71.6622 52.8242 72.6076 39.3557 65.7942 29.3366C62.1 23.9036 57.0831 20.2426 50.7435 18.4983C44.42 16.7586 38.2576 17.35 32.2677 20.0838C31.78 19.0575 31.2946 18.0312 30.7932 16.975C31.0462 16.8599 31.2831 16.7494 31.5247 16.6413C34.5265 15.3181 37.6595 14.5012 40.9305 14.2159C41.5884 14.1584 42.2509 14.14 42.9133 14.1009C42.9823 14.0962 43.0514 14.0709 43.1204 14.0571C43.4884 14.0571 43.8565 14.0571 44.2245 14.0571C44.2935 14.0732 44.3625 14.1009 44.4315 14.1009C47.3943 14.1607 50.288 14.6347 53.0898 15.592C61.0625 18.3142 66.9674 23.4457 70.7191 30.9888C73.4703 36.523 74.3121 42.3955 73.4679 48.5073C72.9987 51.906 71.9475 55.1253 70.3465 58.1628C67.9197 62.7651 64.536 66.5067 60.193 69.3647C55.8662 72.2089 51.1138 73.822 45.9474 74.2109C45.5932 74.2385 45.2412 74.2753 44.8893 74.3098C44.0727 74.3098 43.263 74.3098 42.4533 74.3098Z" fill="#F7941E"/>
<path d="M1.00002 10.185C1.68673 8.51365 2.22723 8.15849 4.08109 8.15849C4.68164 8.15849 5.2848 8.13498 5.88535 8.17154C6.2274 8.19244 6.64256 8.21333 6.8854 8.40658C7.43111 8.8401 7.86194 8.62334 8.35282 8.35696C10.3294 7.29146 11.2929 5.57568 11.5906 3.42377C11.6402 3.06077 11.6584 2.69254 11.6846 2.32693C11.8177 0.480574 13.6246 -0.561428 15.267 0.318659C16.8676 1.17524 17.7344 2.62726 17.9694 4.36131C18.1365 5.58874 18.0008 6.85533 18.0008 8.2081C18.2096 8.2081 18.4525 8.20027 18.6953 8.2081C20.4395 8.26817 22.1863 8.30473 23.9305 8.39614C25.6251 8.48493 26.7662 9.31278 27.2048 10.9946C27.2048 11.3419 27.2048 11.6919 27.2048 12.0392C27.0012 12.5302 26.7844 13.0185 26.5964 13.5174C26.5494 13.6401 26.5494 13.8098 26.5938 13.9352C27.0847 15.2775 26.7296 16.4606 25.9541 17.5861C25.8366 17.7585 25.7818 18.0301 25.8131 18.239C26.0116 19.6257 25.6277 20.8349 24.706 21.8638C24.4789 22.1171 24.3796 22.3234 24.3979 22.6603C24.4815 24.1881 23.5859 25.4965 22.215 25.9039C22.014 25.9639 21.8129 26.0188 21.6119 26.0762C19.5935 26.0762 17.5725 26.0762 15.5542 26.0762C15.0946 26.0188 14.6299 25.99 14.1781 25.9012C12.2799 25.5278 10.3869 25.1335 8.4886 24.76C8.32932 24.7287 8.05255 24.7496 7.9951 24.8462C7.58516 25.5226 6.9585 25.8647 6.23524 26.0788C5.18558 26.0788 4.13854 26.0788 3.08888 26.0788C1.97656 25.7942 1.27941 25.0969 0.992188 23.9896C1.00002 19.3881 1.00002 14.7866 1.00002 10.185ZM15.7735 9.81159C15.8571 9.52432 15.891 9.35718 15.9537 9.20049C16.4628 7.89472 16.5934 6.53672 16.502 5.15522C16.4237 3.95392 15.9537 2.9093 15.0659 2.07883C14.7082 1.74456 14.3035 1.4364 13.7682 1.67143C13.2486 1.90125 13.246 2.38699 13.2434 2.85968C13.2434 2.95631 13.2434 3.05294 13.2329 3.14956C12.9144 6.35653 11.4626 8.78264 8.39721 10.0884C7.65566 10.4044 7.53033 10.5742 7.53033 11.3968C7.53033 14.9145 7.53294 18.4323 7.53294 21.9526C7.53294 22.7152 7.67133 22.8562 8.41026 23.086C12.6167 24.3918 16.9381 24.6242 21.3012 24.4545C22.1811 24.4205 22.7895 23.8068 22.8286 22.9398C22.8548 22.3705 22.5493 22.0231 21.9748 21.997C21.5492 21.9787 21.1158 22.0231 20.6954 21.9683C20.5413 21.9474 20.416 21.7202 20.2802 21.587C20.4238 21.4616 20.557 21.2501 20.7137 21.2266C21.0949 21.1718 21.4866 21.2083 21.8756 21.2083C23.424 21.2031 23.9175 20.8114 24.2517 19.3176C24.4423 18.4636 24.082 17.9648 23.1968 17.9126C22.6746 17.8812 22.1445 17.9361 21.6276 17.8786C21.4422 17.8577 21.2829 17.6253 21.1106 17.4895C21.2803 17.3746 21.4422 17.1735 21.6223 17.1578C22.1628 17.1134 22.7085 17.1448 23.2516 17.1396C24.4893 17.1291 25.2726 16.3117 25.2335 15.0712C25.2126 14.4131 24.8653 13.9639 24.2021 13.8725C23.6485 13.7968 23.0819 13.8203 22.5205 13.8072C22.2385 13.7994 21.9043 13.8046 21.967 13.4207C21.9905 13.2771 22.3064 13.1021 22.5023 13.0812C23.1368 13.0186 23.7843 13.0656 24.4162 12.9898C25.1995 12.8958 25.5416 12.5041 25.5859 11.7937C25.6512 10.7622 25.4136 10.2634 24.6094 10.078C23.9175 9.91605 23.1942 9.83509 22.484 9.82464C20.262 9.79069 18.053 9.81159 15.7735 9.81159ZM2.62672 17.1082C2.62672 19.2131 2.62411 21.3206 2.62672 23.4255C2.62672 24.1881 2.90611 24.4571 3.6816 24.4597C4.37876 24.4623 5.07853 24.4675 5.77569 24.4597C6.44151 24.4518 6.73917 24.1724 6.74179 23.5091C6.74962 19.2392 6.74962 14.972 6.74179 10.7021C6.74179 10.0545 6.42585 9.74891 5.77308 9.73585C5.09419 9.72279 4.41531 9.72802 3.73643 9.73324C2.9035 9.73846 2.62672 10.0179 2.62672 10.851C2.62672 12.935 2.62672 15.0216 2.62672 17.1082Z" fill="#23283F"/>
<path d="M34.7482 34.5453C34.3069 34.8613 33.8682 35.1799 33.4217 35.488C33.3591 35.5324 33.2573 35.5324 33.1711 35.5324C32.3042 35.5351 31.4347 35.5351 30.5678 35.5351C30.2075 35.5351 30.0091 35.71 30.0065 36.0234C30.0038 36.342 30.218 36.5536 30.5626 36.5614C30.8759 36.5692 31.1893 36.5718 31.5026 36.5718C40.2262 36.5718 48.9498 36.5718 57.6735 36.5718C58.0338 36.5718 58.368 36.6397 58.6578 36.8591C58.9816 37.1046 59.1409 37.431 59.1409 37.8384C59.1409 40.0922 59.1409 42.3433 59.1409 44.5971C59.1409 44.9052 59.1409 44.9026 58.8197 44.9052C57.8928 44.9131 56.9685 44.9026 56.0415 44.9392C54.4775 44.9993 52.9135 46.2554 52.4591 47.7596C52.0205 49.209 52.2555 50.5383 53.1981 51.7161C53.8273 52.5022 54.6603 52.9984 55.6629 53.1577C56.0703 53.223 56.488 53.2334 56.9006 53.2413C57.5638 53.2517 58.227 53.2413 58.8902 53.236C58.9686 53.236 59.0469 53.2178 59.1383 53.2073C59.1409 53.2595 59.1487 53.317 59.1487 53.3718C59.1513 55.1581 59.1513 56.947 59.1513 58.7333C59.1513 59.381 58.6161 59.9477 57.9685 59.9921C57.8876 59.9973 57.8092 59.9973 57.7283 59.9973C48.3624 59.9973 38.9964 59.9973 29.6305 59.9999C29.278 59.9999 28.9542 59.9451 28.6696 59.7231C28.338 59.4619 28.1683 59.1277 28.1683 58.7046C28.1683 51.6064 28.1656 44.5083 28.1761 37.4101C28.1761 36.8487 28.2544 36.2767 28.3615 35.7231C28.5025 34.9945 29.0169 34.6236 29.7297 34.5636C30.3302 34.5113 30.9334 34.5113 31.5366 34.5061C32.5131 34.4957 33.4896 34.5009 34.4662 34.5009C34.5523 34.5009 34.6411 34.5009 34.7273 34.5009C34.7403 34.5139 34.7456 34.5296 34.7482 34.5453Z" fill="#F7941E"/>
<path d="M34.333 36.0208C38.9364 32.7015 43.5188 29.3953 48.1195 26.0813C49.4329 27.8363 50.7463 29.586 52.0727 31.3592C51.6836 31.5107 51.3076 31.6569 50.929 31.8032C48.3963 32.7799 45.8635 33.7566 43.3308 34.7333C42.2237 35.159 41.114 35.5821 40.0017 36.0051C39.9233 36.0365 39.832 36.0495 39.7484 36.0495C37.9676 36.0521 36.1895 36.0521 34.4087 36.0521C34.3957 36.0469 34.3826 36.0391 34.333 36.0208Z" fill="#F7941E"/>
<path d="M60.9686 44.349C60.9686 44.9079 60.9686 45.4145 60.9686 45.9237C60.9739 47.3366 60.9713 48.7494 60.9869 50.1596C60.9895 50.426 60.9269 50.6193 60.7075 50.7916C60.1696 51.2147 59.6579 51.6691 59.1278 52.1052C59.0626 52.1601 58.9607 52.1966 58.8746 52.1966C58.0364 52.2045 57.1982 52.2071 56.3601 52.1993C54.9135 52.1836 53.6237 51.1181 53.3521 49.7C53.0362 48.0443 53.9918 46.4957 55.6525 46.0413C55.9162 45.9681 56.1982 45.9499 56.475 45.9472C57.2687 45.9342 58.0651 45.9472 58.8589 45.9368C58.9633 45.9368 59.0834 45.8872 59.1644 45.8219C59.7545 45.3466 60.3368 44.8661 60.9686 44.349ZM56.3993 50.6271C57.2635 50.6454 57.9607 49.9612 57.9763 49.0785C57.992 48.2637 57.2975 47.5272 56.5011 47.5142C55.629 47.4959 54.9135 48.1462 54.8639 48.9348C54.796 49.969 55.642 50.6506 56.3993 50.6271Z" fill="#F7941E"/>
<path d="M54.2164 31.7875C54.7464 33.216 55.2634 34.621 55.7909 36.0417C51.3573 36.0417 46.9419 36.0417 42.5266 36.0417C42.524 36.0312 42.5214 36.0182 42.5161 36.0077C46.4067 34.6027 50.2998 33.1977 54.2164 31.7875Z" fill="#F7941E"/>
<path d="M59.9477 43.9155C59.9477 43.8058 59.9477 43.7274 59.9477 43.6491C59.9477 41.3222 59.9477 38.9979 59.9477 36.6711C59.9477 36.2506 59.8067 35.885 59.4229 35.6865C59.2323 35.5873 58.9947 35.5455 58.7779 35.5403C58.1226 35.522 57.4646 35.5298 56.8092 35.5377C56.6551 35.5403 56.5716 35.4933 56.522 35.3418C56.4332 35.0676 56.3235 34.8012 56.2139 34.5009C56.5846 34.5009 56.9267 34.5009 57.2687 34.5009C57.8954 34.5035 58.5221 34.5322 59.1461 34.4983C59.7258 34.4643 60.1305 34.7385 60.4856 35.1355C60.8172 35.5063 60.9739 35.9294 60.9713 36.4439C60.9556 38.7107 60.9713 40.9775 60.9791 43.2443C60.9791 43.367 60.9478 43.4376 60.8276 43.4898C60.5378 43.6178 60.2558 43.764 59.9477 43.9155Z" fill="#F7941E"/>
<path d="M60.9948 51.7292C60.9948 53.2334 60.9948 54.6828 60.9948 56.1348C60.9948 56.4325 61.0052 56.7329 60.9921 57.0306C60.966 57.6365 60.5535 58.0935 59.9477 58.1875C59.9477 58.1144 59.9477 58.0439 59.9477 57.976C59.9477 56.1374 59.9503 54.2989 59.9425 52.463C59.9425 52.3011 59.9895 52.2175 60.1383 52.1522C60.4151 52.0295 60.6814 51.8859 60.9948 51.7292Z" fill="#F7941E"/>
</svg>
