<svg width="246" height="52" viewBox="0 0 246 52" fill="none" xmlns="http://www.w3.org/2000/svg">
<path d="M0.746216 0.290527L0.80766 51.4959L245.216 51.5853V0.290527H0.746216ZM37.0511 17.4424H23.5509C22.559 17.4424 21.6637 17.5408 20.8737 17.7375C20.0837 17.9343 19.3463 18.2562 18.6617 18.7123C17.977 19.1684 17.4152 19.7407 16.9588 20.4382C16.5111 21.1357 16.16 22.0032 15.9054 23.0495C15.6509 24.0957 15.528 25.2941 15.528 26.6444C15.528 27.9947 15.6509 29.193 15.9054 30.2393C16.16 31.2856 16.5111 32.162 16.9588 32.8506C17.4064 33.5481 17.977 34.1204 18.6617 34.5765C19.3463 35.0325 20.0837 35.3545 20.8737 35.5512C21.6637 35.748 22.5502 35.8463 23.5509 35.8463H37.0511V41.5159L23.5509 41.4712C18.8987 41.4623 15.4314 40.2103 13.1492 37.7243C10.9899 35.2561 9.91022 31.5628 9.91022 26.6623C9.91022 24.06 10.2174 21.7885 10.8231 19.8569C11.4288 17.9253 12.3153 16.3783 13.4652 15.2157C14.6327 14.0711 16.0634 13.2126 17.7576 12.6671C19.4429 12.0769 21.374 11.7728 23.5421 11.7728H37.0423V17.4424H37.0511ZM70.5033 41.5159H64.8767V17.4424H56.0024C53.4129 17.4424 51.4204 18.1579 50.0071 19.5887C48.5939 21.0195 47.8917 23.3803 47.8917 26.6623C47.8917 29.9353 48.5939 32.2782 50.0071 33.7001C51.4204 35.122 53.4217 35.8374 56.0024 35.8374H62.2434V41.507L56.0024 41.5249H55.9234C53.7465 41.5249 51.8154 41.2477 50.13 40.6843C48.4359 40.1209 47.0051 39.2535 45.8201 38.082C44.6702 36.9105 43.7837 35.3455 43.178 33.4139C42.5636 31.4734 42.2651 29.1841 42.2651 26.5371C42.2651 23.9437 42.5723 21.6902 43.1868 19.7765C43.8012 17.8627 44.6878 16.3336 45.8377 15.1889C47.0315 14.0443 48.4798 13.1858 50.1739 12.6403C51.868 12.059 53.8167 11.7728 56.0024 11.7728H70.5033V41.5159ZM101.269 40.6664V41.5159H95.6253C95.6253 34.8447 93.9312 31.5092 90.5517 31.5092H75.5329V25.8395H90.5517C92.237 25.8395 93.501 25.5087 94.3525 24.8469C95.2039 24.1852 95.6253 23.121 95.6253 21.6455C95.6253 20.1699 95.2039 19.1058 94.3525 18.444C93.501 17.7823 92.237 17.4514 90.5517 17.4514H75.5329V11.7818H90.5517C94.3437 11.7818 97.0824 12.6224 98.7677 14.3125C100.435 15.9848 101.269 18.3904 101.269 21.5292C101.269 25.3477 100.234 27.8785 98.1708 29.1036C100.234 30.91 101.269 34.7643 101.269 40.6664ZM140.129 41.5159H115.849V11.7728H121.493V35.8463H140.129V41.5159ZM172.554 41.5159H166.927V17.4424H158.053C155.463 17.4424 153.471 18.1579 152.058 19.5887C150.644 21.0195 149.942 23.3803 149.942 26.6623C149.942 29.9353 150.644 32.2782 152.058 33.7001C153.471 35.122 155.472 35.8374 158.053 35.8374H164.294V41.507L158.053 41.5249H157.974C155.797 41.5249 153.866 41.2477 152.181 40.6843C150.486 40.1209 149.056 39.2535 147.871 38.082C146.721 36.9105 145.834 35.3455 145.229 33.4139C144.614 31.4734 144.316 29.1841 144.316 26.5371C144.316 23.9437 144.623 21.6902 145.237 19.7765C145.852 17.8627 146.738 16.3336 147.888 15.1889C149.082 14.0443 150.53 13.1858 152.224 12.6403C153.919 12.059 155.867 11.7728 158.053 11.7728H172.554V41.5159ZM205.786 41.5159H200.221V24.1941C200.221 22.0211 199.554 20.3488 198.229 19.1863C196.903 18.0237 194.718 17.4424 191.663 17.4424C188.617 17.4424 186.423 18.0237 185.097 19.1863C183.772 20.3488 183.105 22.0121 183.105 24.1941V41.5159H177.54V23.9705C177.54 19.9732 178.654 16.9417 180.884 14.8759C183.175 12.8102 186.765 11.7728 191.645 11.7728H191.663C196.543 11.7728 200.134 12.8102 202.442 14.8759C204.672 16.9417 205.786 19.9732 205.786 23.9705V41.5159ZM238.659 26.6623C238.659 28.2988 238.528 29.8011 238.264 31.1693C238.001 32.5376 237.641 33.7359 237.193 34.7464C236.746 35.7569 236.184 36.6601 235.526 37.4381C234.858 38.2251 234.139 38.86 233.357 39.3608C232.524 39.8616 231.602 40.2729 230.592 40.6038C229.583 40.9347 228.574 41.1672 227.573 41.3013C226.563 41.4355 225.501 41.507 224.369 41.507H210.149V35.8374H224.369C225.712 35.8374 226.897 35.6764 227.933 35.3634C228.969 35.0504 229.873 34.5407 230.654 33.8432C231.435 33.1457 232.032 32.1977 232.436 31.0084C232.84 29.8101 233.041 28.3882 233.041 26.7249C233.041 25.0347 232.84 23.586 232.436 22.3698C232.032 21.1536 231.435 20.1878 230.654 19.4814C229.873 18.7749 228.96 18.2562 227.933 17.9343C226.897 17.6124 225.712 17.4514 224.369 17.4514H210.149V11.7818H224.369C226.634 11.7818 228.661 12.0679 230.434 12.6492C232.199 13.2036 233.7 14.0532 234.946 15.1978C236.149 16.3604 237.07 17.8985 237.711 19.8033C238.352 21.717 238.668 23.9705 238.668 26.5639V26.6623H238.659Z" fill="#F7941E"/>
</svg>
