<svg width="49" height="49" viewBox="0 0 49 49" fill="none" xmlns="http://www.w3.org/2000/svg">
<path d="M48.9984 24.519C48.8642 38.0522 37.789 48.9916 24.4591 48.7597C10.812 48.5248 0.157809 37.5212 0.322564 23.8385C0.481217 10.7478 11.5961 -0.0939806 24.752 0.000614358C38.2619 0.104364 49.1327 11.0957 48.9984 24.519ZM24.8344 9.28923C20.9779 9.20379 17.2923 9.58217 13.7775 11.5778C6.75105 15.5722 6.63817 33.652 13.8782 37.4511C15.5288 38.3177 15.9987 39.4314 15.9529 41.1799C15.9315 41.9733 16.5967 42.785 16.9475 43.5875C17.6523 43.1786 18.6073 42.9406 19.0222 42.3334C20.6698 39.9319 22.8177 38.9707 25.6826 39.4223C26.5308 39.5566 27.4186 39.4589 28.2881 39.4375C34.9943 39.2667 39.6288 35.2357 40.5227 28.5774C40.8217 26.3529 40.8675 24.0552 40.6936 21.8185C40.0956 14.0312 35.5282 9.69202 27.7024 9.29533C26.7504 9.24651 25.7894 9.28923 24.8344 9.28923Z" fill="#F7941E"/>
<path d="M17.1397 42.1748C17.0909 41.6683 16.9566 41.1801 17.0085 40.7132C17.3075 38.0737 16.9231 35.9255 14.2565 34.4058C13.1398 33.7681 12.1025 32.0715 11.9865 30.7685C11.6357 26.8474 11.3214 22.8286 11.8096 18.9533C12.2855 15.1756 15.1169 12.7314 18.9184 12.3194C22.5949 11.9228 26.3415 12.1852 30.0577 12.1852C30.4818 12.1852 30.9119 12.3439 31.3269 12.472C36.8187 14.1564 39.2656 19.6277 38.1276 27.656C37.2794 33.643 33.8318 37.0942 28.0989 36.7799C23.8763 36.548 20.6697 37.5122 18.5218 41.2655C18.354 41.5584 18.0672 41.7934 17.8048 42.0162C17.6919 42.1108 17.4936 42.0955 17.1397 42.1748ZM29.3681 33.2402C30.2102 32.5322 31.272 31.9311 31.8517 31.0218C32.114 30.6098 31.6167 29.1879 31.1011 28.9224C29.9234 28.3121 28.0684 27.415 27.2995 27.9032C24.7672 29.5205 23.556 27.6896 22.2288 26.4049C21.045 25.2576 19.6751 23.9516 21.2097 21.962C22.6315 20.1189 20.9565 18.8618 19.9283 17.7419C19.5103 17.2842 18.1068 17.2231 17.4783 17.571C15.9742 18.404 15.8308 19.8352 16.4868 21.4097C18.3601 25.8923 21.3379 29.3771 25.6673 31.6351C26.7351 32.1844 27.8731 32.5963 29.3681 33.2402ZM32.6083 25.3644C33.5389 19.8169 28.8128 15.1237 24.5902 16.5671C30.3872 18.2698 31.4276 19.3378 32.6083 25.3644ZM30.3719 23.7929C30.8448 20.1586 28.4254 17.8182 24.9137 18.8129C28.1386 19.2127 29.9143 20.775 30.3719 23.7929Z" fill="#F7941E"/>
</svg>
