<svg width="50" height="49" viewBox="0 0 50 49" fill="none" xmlns="http://www.w3.org/2000/svg">
<path d="M49.7105 24.3764C49.7353 37.7818 38.5994 48.7753 25.0125 48.7601C11.435 48.7448 0.305243 37.73 0.33306 24.3338C0.360876 11.0685 11.3515 0.233373 24.9198 0.0902446C38.4294 -0.052884 49.6889 10.9772 49.7105 24.3764ZM8.69657 24.7023C8.69657 27.0472 8.65021 29.3951 8.70584 31.7399C8.82947 36.853 12.2571 40.5713 17.4001 40.7723C22.5059 40.9733 27.6335 40.9672 32.7363 40.7601C37.6629 40.5591 41.3192 36.7982 41.4552 31.9531C41.5943 27.0928 41.5912 22.2204 41.4521 17.357C41.3223 12.7587 38.0554 9.0099 33.4749 8.74191C27.856 8.41302 22.1876 8.40389 16.5717 8.74496C11.9418 9.02513 8.84802 12.7617 8.71202 17.4058C8.64094 19.8359 8.69966 22.2691 8.69657 24.7023Z" fill="#F7941E"/>
<path d="M38.4293 25.0251C38.4262 27.1964 38.4757 29.3676 38.4169 31.5359C38.318 35.2024 35.8238 37.7696 32.0964 37.8488C27.3398 37.9493 22.58 37.9523 17.8234 37.8457C14.47 37.7696 11.9788 35.6653 11.8243 32.4038C11.5832 27.2968 11.5771 22.1594 11.8089 17.0525C11.9603 13.6814 14.4669 11.5862 17.9965 11.507C22.6635 11.4004 27.3367 11.3974 32.0068 11.504C35.9073 11.5923 38.352 14.1503 38.4262 17.9935C38.4695 20.3353 38.4324 22.6802 38.4293 25.0251ZM16.5593 24.6931C16.5686 29.2458 20.2898 32.9398 24.9228 32.9976C29.6733 33.0585 33.5305 29.3067 33.5089 24.6474C33.4903 20.1313 29.7011 16.349 25.1423 16.2973C20.4598 16.2485 16.5469 20.0734 16.5593 24.6931ZM33.9848 12.9231C33.0113 14.4305 32.0531 15.2649 32.1582 15.9349C32.2695 16.6414 33.3327 17.5397 34.1085 17.6829C34.5752 17.7712 35.7435 16.5987 35.7713 15.9592C35.8053 15.2162 34.9337 14.4366 33.9848 12.9231Z" fill="#F7941E"/>
<path d="M30.4523 24.5955C30.4986 27.4946 28.1682 29.9248 25.2351 30.0314C22.2618 30.1379 19.5883 27.6591 19.5389 24.7447C19.4894 21.87 22.1382 19.2663 25.0837 19.2937C27.9766 19.318 30.4059 21.7208 30.4523 24.5955Z" fill="#F7941E"/>
</svg>
