<svg width="33" height="58" viewBox="0 0 33 58" fill="none" xmlns="http://www.w3.org/2000/svg">
<path d="M32.9887 5.16231C32.9774 1.43019 31.5708 0.0181633 27.9052 0.011196C20.2912 -0.00273845 12.6794 -0.00506087 5.06544 0.00887362C1.38395 0.0181633 0.0271363 1.37213 0.0203522 5.19715C-0.00678407 21.2079 -0.00678407 37.2209 0.0203522 53.2317C0.0271363 56.7803 1.24149 57.981 4.6584 57.988C12.4171 58.0042 20.1758 57.9996 27.9346 57.9903C31.9032 57.9856 32.991 56.8616 32.9955 52.7463C33.0045 44.8524 32.9977 36.9608 32.9977 29.0669C32.9955 21.0987 33.0113 13.1305 32.9887 5.16231ZM20.7909 3.12788C20.7932 3.29974 20.7955 3.47392 20.8 3.64578C17.9303 3.64578 15.0629 3.64578 12.1932 3.64578C12.191 3.47392 12.1865 3.29974 12.1842 3.12788C15.0539 3.12788 17.9213 3.12788 20.7909 3.12788ZM16.5011 56.9661C15.1262 56.9661 14.0136 55.8212 14.0136 54.4114C14.0136 53.0017 15.1285 51.8568 16.5011 51.8568C17.8738 51.8568 18.9886 53.0017 18.9886 54.4114C18.9886 55.8212 17.8738 56.9661 16.5011 56.9661ZM28.3235 51.311C20.4223 51.239 12.5211 51.2274 4.61996 51.3157C2.84931 51.3342 2.36538 50.7235 2.38573 48.9793C2.46488 42.2931 2.41739 35.6045 2.41739 28.9183C2.41739 22.1554 2.46488 15.3926 2.38799 8.632C2.36764 6.86 2.76112 6.09128 4.68101 6.1145C12.5822 6.20972 20.4834 6.20043 28.3846 6.11683C30.1552 6.09825 30.6143 6.73227 30.6075 8.46711C30.551 21.9905 30.5442 35.5163 30.612 49.042C30.6188 50.8814 29.9992 51.3273 28.3235 51.311Z" fill="#F7941E"/>
<path d="M25.3825 28.7248C25.3314 33.9085 21.1169 38.0986 16.0443 38.0098C10.8511 37.9198 6.79679 33.7051 6.85948 28.4642C6.91986 23.45 11.1495 19.2973 16.1558 19.3335C21.2968 19.3732 25.4335 23.5833 25.3825 28.7248ZM16.1871 22.8913C14.7196 22.8586 13.3171 23.0035 11.9796 23.7679C9.30576 25.2979 9.2628 32.223 12.0179 33.6782C12.646 34.0101 12.8248 34.4367 12.8074 35.1065C12.7993 35.4104 13.0524 35.7213 13.1859 36.0287C13.4541 35.872 13.8175 35.7809 13.9754 35.5483C14.6024 34.6284 15.4197 34.2603 16.5099 34.4332C16.8327 34.4847 17.1705 34.4473 17.5014 34.4391C20.0534 34.3736 21.8169 32.8296 22.1571 30.2793C22.2709 29.4273 22.2883 28.5472 22.2222 27.6904C21.9946 24.7076 20.2565 23.0456 17.2785 22.8937C16.9163 22.875 16.5505 22.8913 16.1871 22.8913Z" fill="#F7941E"/>
<path d="M13.2591 35.4876C13.2405 35.2936 13.1895 35.1066 13.2092 34.9278C13.323 33.9167 13.1767 33.0939 12.1619 32.5118C11.737 32.2676 11.3423 31.6177 11.2981 31.1186C11.1646 29.6167 11.045 28.0774 11.2308 26.593C11.4119 25.146 12.4894 24.2098 13.936 24.052C15.335 23.9001 16.7608 24.0006 18.1749 24.0006C18.3363 24.0006 18.5 24.0614 18.6579 24.1105C20.7477 24.7557 21.6789 26.8513 21.2458 29.9265C20.923 32.2196 19.6111 33.5416 17.4295 33.4212C15.8227 33.3323 14.6024 33.7017 13.7851 35.1393C13.7212 35.2515 13.6121 35.3415 13.5122 35.4268C13.4693 35.4631 13.3938 35.4572 13.2591 35.4876ZM17.9125 32.0654C18.2329 31.7942 18.637 31.5639 18.8576 31.2156C18.9574 31.0579 18.7682 30.5132 18.572 30.4115C18.1238 30.1777 17.4179 29.8341 17.1253 30.0211C16.1617 30.6406 15.7007 29.9393 15.1957 29.4472C14.7452 29.0078 14.2239 28.5075 14.8079 27.7455C15.349 27.0395 14.7116 26.558 14.3203 26.129C14.1612 25.9537 13.6272 25.9303 13.388 26.0636C12.8156 26.3826 12.761 26.9308 13.0107 27.5339C13.7235 29.2509 14.8567 30.5857 16.5042 31.4506C16.9105 31.661 17.3436 31.8187 17.9125 32.0654ZM19.1455 29.0487C19.4996 26.9238 17.7012 25.1262 16.0943 25.679C18.3003 26.3312 18.6962 26.7403 19.1455 29.0487ZM18.2945 28.4467C18.4744 27.0547 17.5537 26.1582 16.2174 26.5393C17.4446 26.6924 18.1203 27.2908 18.2945 28.4467Z" fill="#F7941E"/>
</svg>
