<svg width="50" height="49" viewBox="0 0 50 49" fill="none" xmlns="http://www.w3.org/2000/svg">
<path d="M49.4553 24.0416C49.8262 37.1972 38.746 48.41 25.0293 48.7541C11.7268 49.0891 0.322025 38.2296 0.00677113 24.9278C-0.308483 11.5742 10.4225 0.586761 24.2628 0.0995142C37.5777 -0.369461 49.0752 10.557 49.4553 24.0416ZM21.2246 30.3271C21.2246 35.4188 21.2246 40.2364 21.2246 45.115C23.6107 45.115 25.6722 45.115 28.0088 45.115C28.0088 40.1329 28.0088 35.3153 28.0088 30.3606C29.7365 30.2479 31.1984 30.1535 32.9261 30.0408C33.2043 28.0644 33.4763 26.1368 33.773 24.0446C31.7146 23.935 29.9188 23.8376 28.1664 23.7462C27.5915 18.1398 27.5915 18.1398 33.6772 16.4558C33.6772 14.8387 33.6772 13.2186 33.6772 11.5711C30.4535 10.7093 27.4617 10.7885 24.6244 12.4086C20.0347 15.0306 21.4997 19.6746 21.0206 23.7401C19.1909 23.8497 17.5652 23.9502 15.8035 24.0568C15.8035 26.152 15.8035 28.0705 15.8035 30.0774C17.5992 30.1596 19.16 30.2296 21.2246 30.3271Z" fill="#F7941E"/>
</svg>
