<svg width="91" height="19" viewBox="0 0 91 19" fill="none" xmlns="http://www.w3.org/2000/svg">
<path d="M0 0L0.0228717 18.9669L91 19V0H0ZM13.5139 6.35321H8.48867C8.11946 6.35321 7.78618 6.38964 7.49212 6.46252C7.19805 6.53539 6.92359 6.65464 6.66874 6.82357C6.41388 6.9925 6.20477 7.2045 6.03486 7.46287C5.86823 7.72123 5.73753 8.04254 5.64278 8.43009C5.54802 8.81764 5.50228 9.26151 5.50228 9.76168C5.50228 10.2619 5.54802 10.7057 5.64278 11.0933C5.73753 11.4808 5.86823 11.8054 6.03486 12.0605C6.2015 12.3189 6.41388 12.5309 6.66874 12.6998C6.92359 12.8687 7.19805 12.988 7.49212 13.0608C7.78618 13.1337 8.11619 13.1702 8.48867 13.1702H13.5139V15.2702L8.48867 15.2537C6.75696 15.2503 5.46634 14.7866 4.61682 13.8658C3.81304 12.9515 3.41115 11.5835 3.41115 9.7683C3.41115 8.80439 3.52551 7.96304 3.75096 7.24756C3.97641 6.53208 4.30642 5.95903 4.73444 5.52842C5.16901 5.10443 5.70159 4.78644 6.3322 4.58438C6.95953 4.36576 7.67836 4.25314 8.4854 4.25314H13.5106V6.35321H13.5139ZM25.9659 15.2702H23.8715V6.35321H20.5682C19.6043 6.35321 18.8626 6.6182 18.3366 7.14819C17.8105 7.67817 17.5491 8.55265 17.5491 9.7683C17.5491 10.9806 17.8105 11.8485 18.3366 12.3752C18.8626 12.9018 19.6076 13.1668 20.5682 13.1668H22.8913V15.2669L20.5682 15.2735H20.5388C19.7285 15.2735 19.0097 15.1708 18.3823 14.9622C17.7517 14.7535 17.2191 14.4322 16.778 13.9983C16.35 13.5643 16.02 12.9847 15.7945 12.2692C15.5658 11.5504 15.4547 10.7024 15.4547 9.72193C15.4547 8.76133 15.5691 7.9266 15.7978 7.21775C16.0265 6.50889 16.3565 5.94247 16.7846 5.51848C17.2289 5.09449 17.7681 4.7765 18.3987 4.57444C19.0293 4.35914 19.7546 4.25314 20.5682 4.25314H25.9659V15.2702ZM37.4181 14.9555V15.2702H35.3172C35.3172 12.7992 34.6866 11.5636 33.4286 11.5636H27.8381V9.46356H33.4286C34.056 9.46356 34.5265 9.341 34.8434 9.09589C35.1604 8.85077 35.3172 8.45659 35.3172 7.91004C35.3172 7.36349 35.1604 6.96932 34.8434 6.7242C34.5265 6.47908 34.056 6.35652 33.4286 6.35652H27.8381V4.25645H33.4286C34.8401 4.25645 35.8596 4.56782 36.4869 5.19386C37.1077 5.81328 37.4181 6.70432 37.4181 7.86698C37.4181 9.28138 37.0326 10.2188 36.2647 10.6726C37.0326 11.3417 37.4181 12.7694 37.4181 14.9555ZM51.8828 15.2702H42.8452V4.25314H44.9462V13.1702H51.8828V15.2702ZM63.9526 15.2702H61.8582V6.35321H58.5548C57.591 6.35321 56.8493 6.6182 56.3232 7.14819C55.7972 7.67817 55.5358 8.55265 55.5358 9.7683C55.5358 10.9806 55.7972 11.8485 56.3232 12.3752C56.8493 12.9018 57.5942 13.1668 58.5548 13.1668H60.878V15.2669L58.5548 15.2735H58.5254C57.7151 15.2735 56.9963 15.1708 56.369 14.9622C55.7384 14.7535 55.2058 14.4322 54.7647 13.9983C54.3366 13.5643 54.0066 12.9847 53.7812 12.2692C53.5525 11.5504 53.4414 10.7024 53.4414 9.72193C53.4414 8.76133 53.5557 7.9266 53.7845 7.21775C54.0132 6.50889 54.3432 5.94247 54.7712 5.51848C55.2156 5.09449 55.7547 4.7765 56.3853 4.57444C57.0159 4.35914 57.7413 4.25314 58.5548 4.25314H63.9526V15.2702ZM76.3229 15.2702H74.2514V8.85408C74.2514 8.04916 74.0031 7.42974 73.5097 6.99913C73.0163 6.56851 72.2027 6.35321 71.0657 6.35321C69.9319 6.35321 69.115 6.56851 68.6217 6.99913C68.1283 7.42974 67.88 8.04585 67.88 8.85408V15.2702H65.8084V8.77127C65.8084 7.29062 66.2234 6.16771 67.0533 5.40254C67.9061 4.63738 69.2425 4.25314 71.0591 4.25314H71.0657C72.8823 4.25314 74.2187 4.63738 75.078 5.40254C75.9079 6.16771 76.3229 7.29062 76.3229 8.77127V15.2702ZM88.5593 9.7683C88.5593 10.3745 88.5102 10.931 88.4122 11.4378C88.3142 11.9446 88.1802 12.3884 88.0136 12.7627C87.847 13.137 87.6379 13.4716 87.3928 13.7598C87.1445 14.0513 86.8766 14.2864 86.5858 14.4719C86.2754 14.6574 85.9323 14.8098 85.5565 14.9324C85.1808 15.0549 84.805 15.141 84.4326 15.1907C84.0568 15.2404 83.6614 15.2669 83.24 15.2669H77.9468V13.1668H83.24C83.7399 13.1668 84.181 13.1072 84.5665 12.9913C84.9521 12.8753 85.2886 12.6865 85.5794 12.4282C85.8702 12.1698 86.0924 11.8187 86.2427 11.3781C86.393 10.9343 86.4681 10.4076 86.4681 9.79149C86.4681 9.16545 86.393 8.62884 86.2427 8.17835C86.0924 7.72786 85.8702 7.37012 85.5794 7.10844C85.2886 6.84676 84.9488 6.65464 84.5665 6.53539C84.181 6.41614 83.7399 6.35652 83.24 6.35652H77.9468V4.25645H83.24C84.0829 4.25645 84.8377 4.36245 85.4977 4.57775C86.1545 4.78312 86.7132 5.0978 87.1772 5.52179C87.6248 5.95241 87.9679 6.52214 88.2064 7.22768C88.4449 7.93654 88.5625 8.77127 88.5625 9.73187V9.7683H88.5593Z" fill="#F7941E"/>
</svg>
