<svg width="27" height="19" viewBox="0 0 27 19" fill="none" xmlns="http://www.w3.org/2000/svg">
<path d="M25 0H2C0.895431 0 0 0.895431 0 2C0 3.10457 0.895431 4 2 4H25C26.1046 4 27 3.10457 27 2C27 0.895431 26.1046 0 25 0Z" fill="#F7941E"/>
<path d="M24.5 7H2.5C1.11929 7 0 8.11929 0 9.5C0 10.8807 1.11929 12 2.5 12H24.5C25.8807 12 27 10.8807 27 9.5C27 8.11929 25.8807 7 24.5 7Z" fill="#F7941E"/>
<path d="M25 15H2C0.895431 15 0 15.8954 0 17C0 18.1046 0.895431 19 2 19H25C26.1046 19 27 18.1046 27 17C27 15.8954 26.1046 15 25 15Z" fill="#F7941E"/>
</svg>
