<svg width="14" height="14" viewBox="0 0 14 14" fill="none" xmlns="http://www.w3.org/2000/svg">
<path d="M13.9996 7.03943C13.961 10.9248 10.7758 14.0655 6.94218 13.999C3.01727 13.9315 -0.046841 10.7724 0.000542176 6.84407C0.0461704 3.08571 3.24278 -0.0269819 7.02642 0.000176383C10.9118 0.0299629 14.0383 3.18558 13.9996 7.03943ZM7.05011 2.66694C5.94099 2.64242 4.88101 2.75105 3.87017 3.324C1.84936 4.47078 1.8169 9.66152 3.89913 10.7522C4.37384 11.001 4.50897 11.3208 4.4958 11.8228C4.48966 12.0506 4.68095 12.2836 4.78186 12.514C4.98455 12.3966 5.2592 12.3283 5.37854 12.1539C5.85237 11.4645 6.4701 11.1885 7.29404 11.3182C7.53798 11.3567 7.79332 11.3287 8.0434 11.3226C9.97207 11.2735 11.3049 10.1162 11.562 8.20461C11.648 7.56595 11.6612 6.90627 11.6112 6.2641C11.4392 4.02836 10.1256 2.78259 7.87493 2.6687C7.60116 2.65468 7.32476 2.66694 7.05011 2.66694Z" fill="#F7941E"/>
<path d="M4.7982 11.8461C4.78449 11.701 4.74679 11.5612 4.76136 11.4274C4.84533 10.6713 4.73737 10.0559 3.98848 9.6206C3.67487 9.4379 3.38354 8.95188 3.35098 8.57863C3.25244 7.45536 3.16418 6.30413 3.30128 5.19398C3.43495 4.1118 4.23011 3.41161 5.29775 3.29361C6.33026 3.17997 7.38248 3.25514 8.42613 3.25514C8.54523 3.25514 8.66605 3.3006 8.78258 3.33731C10.3249 3.81984 11.0121 5.38716 10.6925 7.68701C10.4543 9.40206 9.48606 10.3907 7.87603 10.3007C6.69014 10.2342 5.78958 10.5105 5.18636 11.5857C5.13923 11.6696 5.05869 11.7369 4.985 11.8007C4.9533 11.8278 4.8976 11.8234 4.7982 11.8461ZM8.23248 9.28668C8.46897 9.08388 8.76716 8.91167 8.92996 8.65118C9.00365 8.53317 8.86398 8.12583 8.71917 8.04978C8.38843 7.87495 7.86746 7.61795 7.65153 7.75781C6.94034 8.22111 6.60017 7.69663 6.22744 7.32861C5.89498 6.99994 5.51025 6.62581 5.94125 6.05587C6.34054 5.5279 5.87013 5.16775 5.58137 4.84694C5.46398 4.71582 5.06983 4.69834 4.89332 4.79799C4.47089 5.03663 4.43061 5.4466 4.61484 5.89766C5.14095 7.18176 5.97724 8.18002 7.19311 8.82688C7.49301 8.98423 7.81262 9.10223 8.23248 9.28668ZM9.14246 7.03053C9.4038 5.44136 8.07653 4.09694 6.89064 4.5104C8.51867 4.99817 8.81086 5.30412 9.14246 7.03053ZM8.51439 6.58035C8.6472 5.53926 7.96771 4.8688 6.98147 5.15377C7.88717 5.26828 8.38586 5.71583 8.51439 6.58035Z" fill="#F7941E"/>
</svg>
