<svg width="14" height="25" viewBox="0 0 14 25" fill="none" xmlns="http://www.w3.org/2000/svg">
<path d="M13.9948 2.22538C13.99 0.616681 13.3933 0.00803958 11.8382 0.00503641C8.6081 -0.000969915 5.37898 -0.00197097 2.14891 0.00403536C0.587112 0.00803958 0.011512 0.591654 0.008634 2.24039C-0.002878 9.14166 -0.002878 16.0439 0.008634 22.9452C0.011512 24.4748 0.526674 24.9924 1.97623 24.9954C5.2677 25.0024 8.55918 25.0004 11.8507 24.9964C13.5343 24.9944 13.9957 24.5098 13.9976 22.736C14.0015 19.3334 13.9986 15.9318 13.9986 12.5292C13.9976 9.09461 14.0044 5.65999 13.9948 2.22538ZM8.82012 1.34845C8.82108 1.42253 8.82203 1.49761 8.82395 1.57169C7.60656 1.57169 6.39012 1.57169 5.17273 1.57169C5.17177 1.49761 5.16985 1.42253 5.16889 1.34845C6.38629 1.34845 7.60272 1.34845 8.82012 1.34845ZM7.00026 24.5549C6.41698 24.5549 5.94499 24.0614 5.94499 23.4537C5.94499 22.8461 6.41794 22.3526 7.00026 22.3526C7.58258 22.3526 8.05553 22.8461 8.05553 23.4537C8.05553 24.0614 7.58258 24.5549 7.00026 24.5549ZM12.0157 22.1173C8.66374 22.0863 5.31183 22.0813 1.95992 22.1193C1.20876 22.1273 1.00346 21.8641 1.0121 21.1123C1.04567 18.2302 1.02553 15.3472 1.02553 12.4652C1.02553 9.55009 1.04567 6.63502 1.01306 3.72095C1.00442 2.95715 1.17135 2.6258 1.98582 2.63581C5.33773 2.67685 8.68965 2.67285 12.0416 2.63681C12.7927 2.6288 12.9875 2.90209 12.9846 3.64988C12.9606 9.47902 12.9577 15.3092 12.9865 21.1393C12.9894 21.9321 12.7265 22.1243 12.0157 22.1173Z" fill="#F7941E"/>
</svg>
