<svg width="54" height="53" viewBox="0 0 54 53" fill="none" xmlns="http://www.w3.org/2000/svg">
<path d="M53.435 26.4486C53.4614 41.0439 41.5485 53.0133 27.0137 52.9967C12.4888 52.9801 0.582481 40.9875 0.612238 26.4022C0.641996 11.9594 12.3995 0.16246 26.9145 0.00662666C41.3667 -0.149207 53.4118 11.8599 53.435 26.4486ZM9.5593 26.8034C9.5593 29.3564 9.5097 31.9127 9.56922 34.4657C9.70147 40.0326 13.3682 44.081 18.8701 44.2998C24.3322 44.5187 29.8175 44.512 35.2763 44.2866C40.5467 44.0677 44.4581 39.973 44.6036 34.6978C44.7524 29.4061 44.7491 24.1012 44.6003 18.8061C44.4614 13.7996 40.9666 9.71804 36.0665 9.42627C30.0555 9.06818 23.9916 9.05824 17.984 9.42958C13.031 9.73462 9.72131 13.8029 9.57583 18.8592C9.49978 21.505 9.5626 24.1542 9.5593 26.8034Z" fill="#F7941E"/>
<path d="M41.3667 27.1548C41.3634 29.5189 41.4163 31.8829 41.3534 34.2436C41.2476 38.2356 38.5794 41.0307 34.5919 41.1169C29.5034 41.2263 24.4115 41.2296 19.323 41.1135C15.7356 41.0307 13.0707 38.7396 12.9053 35.1886C12.6474 29.6283 12.6408 24.0349 12.8888 18.4746C13.0508 14.8042 15.7323 12.5231 19.5082 12.4369C24.5008 12.3208 29.5001 12.3175 34.496 12.4335C38.6687 12.5297 41.284 15.3148 41.3633 19.4991C41.4096 22.0488 41.37 24.6018 41.3667 27.1548ZM17.9707 26.7934C17.9806 31.7503 21.9615 35.7721 26.9178 35.8351C31.9997 35.9014 36.126 31.8166 36.1029 26.7437C36.0831 21.8267 32.0294 17.7087 27.1525 17.6523C22.1434 17.5993 17.9575 21.7637 17.9707 26.7934ZM36.6121 13.9786C35.5706 15.6198 34.5456 16.5283 34.658 17.2577C34.777 18.027 35.9144 19.0051 36.7443 19.1609C37.2436 19.2571 38.4934 17.9806 38.5232 17.2843C38.5595 16.4753 37.6271 15.6265 36.6121 13.9786Z" fill="#F7941E"/>
<path d="M32.8329 26.6874C32.8825 29.8438 30.3895 32.4897 27.2517 32.6057C24.071 32.7218 21.211 30.0229 21.1581 26.8498C21.1052 23.7199 23.9387 20.8851 27.0897 20.9149C30.1845 20.9414 32.7833 23.5574 32.8329 26.6874Z" fill="#F7941E"/>
</svg>
