<svg width="53" height="53" viewBox="0 0 53 53" fill="none" xmlns="http://www.w3.org/2000/svg">
<path d="M52.906 26.0838C53.3028 40.4072 41.4494 52.6153 26.7757 52.9899C12.545 53.3547 0.344494 41.5312 0.00724358 27.0486C-0.330007 12.5097 11.1497 0.546953 25.9557 0.0164554C40.1996 -0.494148 52.4993 11.4023 52.906 26.0838ZM22.7055 32.9272C22.7055 38.4709 22.7055 43.7162 22.7055 49.0278C25.2581 49.0278 27.4634 49.0278 29.963 49.0278C29.963 43.6034 29.963 38.3582 29.963 32.9637C31.8113 32.841 33.3752 32.7382 35.2235 32.6155C35.5211 30.4637 35.812 28.3649 36.1294 26.0871C33.9274 25.9677 32.0064 25.8616 30.1317 25.7622C29.5167 19.6581 29.5167 19.6581 36.0269 17.8246C36.0269 16.064 36.0269 14.3001 36.0269 12.5064C32.5784 11.568 29.3778 11.6542 26.3426 13.4181C21.4326 16.2729 22.9998 21.3292 22.4873 25.7555C20.5299 25.8749 18.7908 25.9843 16.9061 26.1003C16.9061 28.3815 16.9061 30.4703 16.9061 32.6553C18.8272 32.7448 20.4969 32.8211 22.7055 32.9272Z" fill="#F7941E"/>
</svg>
