<svg width="60" height="60" viewBox="0 0 60 60" fill="none" xmlns="http://www.w3.org/2000/svg">
<circle cx="30" cy="30" r="28.5" stroke="#F7941E" stroke-width="3"/>
<path d="M29.7678 27.5417C29.1972 27.5417 28.6671 27.5417 28.1167 27.5417C28.1167 25.3111 28.1167 23.065 28.1167 20.7882C27.9955 20.7729 27.8971 20.7498 27.7986 20.7498C27.1498 20.7473 26.501 20.7703 25.8547 20.7473C25.0518 20.7165 24.0016 20.0583 23.8829 18.9058C23.7996 18.0838 23.7895 17.2386 23.888 16.4191C24.0193 15.3127 24.9306 14.5879 26.0617 14.57C27.1245 14.5521 28.1899 14.5623 29.2528 14.5649C30.1667 14.5674 31.0806 14.5418 31.992 14.593C33.0952 14.6519 33.9612 15.6251 33.9687 16.7443C33.9738 17.3564 33.9738 17.9659 33.9687 18.578C33.9586 19.7945 32.9892 20.7703 31.7875 20.7754C31.121 20.778 30.4545 20.7754 29.7678 20.7754C29.7678 23.0599 29.7678 25.3213 29.7678 27.5417ZM28.9094 16.25C27.9778 16.25 27.0463 16.2475 26.1147 16.25C25.7032 16.25 25.4911 16.4626 25.4861 16.8826C25.481 17.4076 25.481 17.9326 25.4861 18.4577C25.4911 18.8674 25.7082 19.1005 26.1147 19.1005C27.9778 19.1056 29.841 19.1056 31.7016 19.1005C32.1106 19.1005 32.3227 18.8649 32.3252 18.4551C32.3277 17.9301 32.3277 17.4051 32.3252 16.8801C32.3227 16.4626 32.1132 16.2475 31.6991 16.2475C30.7701 16.2475 29.841 16.25 28.9094 16.25Z" fill="#F7941E"/>
<path d="M29.7703 39.1971C30.0935 39.233 30.3964 39.2381 30.6868 39.3047C31.4113 39.4711 31.9364 39.8937 32.2217 40.6057C32.4515 41.1794 32.6686 41.7607 32.9337 42.3165C33.6254 43.7686 32.5676 45.1413 31.1185 45.1925C29.6517 45.2438 28.1798 45.2258 26.7105 45.2002C25.5769 45.1797 24.6832 44.3064 24.6782 43.2359C24.6782 42.9695 24.7539 42.6878 24.8499 42.4343C25.0746 41.8376 25.3371 41.2562 25.5719 40.662C25.9506 39.7093 26.6777 39.2816 27.6547 39.2304C27.7936 39.2227 27.9324 39.2304 28.1041 39.2304C28.1041 37.1355 28.1041 35.0712 28.1041 33.0045C28.3995 33.0275 28.6696 33.0685 28.9397 33.0608C29.2073 33.0557 29.4749 33.0019 29.7703 32.9661C29.7703 35.0405 29.7703 37.1175 29.7703 39.1971ZM28.8918 43.5407C28.8918 43.5432 28.8918 43.5458 28.8918 43.5458C29.2402 43.5458 29.5885 43.5535 29.9369 43.5432C30.3485 43.533 30.765 43.5432 31.1715 43.4843C31.4921 43.4382 31.5401 43.2897 31.4189 42.9977C31.1866 42.4343 30.9443 41.876 30.7221 41.31C30.6186 41.0436 30.4368 40.9079 30.1692 40.9053C29.331 40.8976 28.4929 40.9002 27.6572 40.9053C27.3896 40.9079 27.2053 41.0334 27.0993 41.3023C26.8796 41.8683 26.6373 42.4266 26.405 42.99C26.2838 43.2871 26.3293 43.3921 26.6398 43.4894C26.7458 43.5227 26.862 43.533 26.9731 43.5355C27.6118 43.5432 28.253 43.5407 28.8918 43.5407Z" fill="#F7941E"/>
<path d="M46.7937 16.1169C46.7937 16.6291 46.8038 17.0773 46.7862 17.5229C46.7811 17.6202 46.6902 17.7431 46.6044 17.8072C45.895 18.3399 45.178 18.8623 44.4661 19.3899C44.1126 19.6511 44.0419 19.9738 44.2691 20.294C44.4913 20.609 44.8271 20.6448 45.183 20.381C45.7056 19.9969 46.2257 19.6102 46.7862 19.1978C46.7862 19.9405 46.8341 20.6371 46.7735 21.3235C46.7104 22.0252 46.097 22.499 45.3951 22.5016C44.8877 22.5016 44.3777 22.5041 43.8703 22.499C43.1305 22.4913 42.507 21.8588 42.5044 21.1109C42.5019 18.847 42.5019 16.583 42.5044 14.319C42.5044 13.5046 43.0674 12.9079 43.8778 12.8848C44.3954 12.8695 44.9129 12.8669 45.4305 12.8848C46.2812 12.9104 46.872 13.6019 46.7862 14.4752C46.7761 14.5802 46.6625 14.6955 46.5691 14.7646C45.8824 15.282 45.1856 15.7891 44.4938 16.2987C44.1328 16.5651 44.047 16.8903 44.259 17.2028C44.4711 17.5152 44.8397 17.5562 45.1982 17.295C45.7157 16.9185 46.2282 16.5343 46.7937 16.1169Z" fill="#F7941E"/>
<path d="M46.7938 41.0564C46.7938 41.5815 46.8013 42.0552 46.7862 42.529C46.7837 42.6008 46.6928 42.6827 46.6246 42.7339C45.9051 43.2692 45.178 43.8019 44.456 44.3346C44.2439 44.4908 44.105 44.6931 44.1581 44.9672C44.2086 45.231 44.3727 45.4512 44.6352 45.4615C44.8397 45.4691 45.077 45.3846 45.2487 45.2643C45.7612 44.9159 46.2459 44.5318 46.7811 44.1323C46.7811 44.7828 46.8241 45.3846 46.7685 45.9762C46.7054 46.6677 46.1121 47.1466 45.4204 47.1543C44.9028 47.1594 44.3853 47.1569 43.8652 47.1543C43.0952 47.1492 42.4994 46.555 42.4994 45.7765C42.4994 44.0657 42.5095 42.3549 42.512 40.6467C42.512 40.1601 42.507 39.6735 42.4994 39.1869C42.4893 38.544 42.6862 38.0113 43.2719 37.6861C43.3451 37.6451 43.4285 37.599 43.5067 37.5964C44.2388 37.5862 44.9735 37.5375 45.7031 37.5939C46.3217 37.6425 46.7559 38.2649 46.7988 38.9C46.8291 39.3533 46.7104 39.6504 46.3116 39.904C45.6754 40.3086 45.0846 40.7875 44.4762 41.2383C44.1202 41.5021 44.0419 41.835 44.2616 42.1449C44.4762 42.4496 44.8321 42.4855 45.1805 42.2345C45.7082 41.858 46.2282 41.4739 46.7938 41.0564Z" fill="#F7941E"/>
<path d="M11.1993 44.0606C11.8077 44.5062 12.3834 44.9313 12.9615 45.3462C13.2417 45.5485 13.4816 45.5408 13.7113 45.3513C14.0546 45.0645 14.0294 44.6291 13.6356 44.3371C12.9236 43.8044 12.2117 43.2717 11.4871 42.7595C11.265 42.6033 11.1614 42.4394 11.1842 42.1577C11.2119 41.7889 11.1917 41.415 11.1917 40.9847C11.3786 41.1179 11.5326 41.2255 11.6866 41.3381C12.0981 41.6404 12.5071 41.9477 12.9211 42.2473C13.2695 42.4983 13.6204 42.4548 13.8401 42.1474C14.0445 41.858 13.9688 41.5021 13.6356 41.2562C12.8832 40.6979 12.1309 40.1421 11.371 39.5941C11.2397 39.4993 11.1842 39.402 11.1993 39.2406C11.217 39.0614 11.1943 38.877 11.2195 38.6977C11.3053 38.0958 11.7497 37.6272 12.401 37.576C13.0549 37.5222 13.7189 37.5299 14.3702 37.5913C15.014 37.6502 15.4785 38.2418 15.481 38.9026C15.4861 41.205 15.4861 43.5074 15.481 45.8098C15.4785 46.5525 14.8777 47.1517 14.1455 47.1569C13.6078 47.162 13.0726 47.1646 12.5348 47.1569C11.8557 47.1492 11.2599 46.6395 11.2094 45.9532C11.164 45.3411 11.1993 44.7239 11.1993 44.0606Z" fill="#F7941E"/>
<path d="M11.1917 19.1363C11.8153 19.587 12.3833 20.0019 12.9589 20.4091C13.2796 20.6371 13.6179 20.5884 13.8274 20.2939C14.0395 19.9968 13.9865 19.6613 13.6658 19.4206C12.9337 18.8725 12.199 18.327 11.4543 17.7994C11.2574 17.6586 11.1715 17.5151 11.1867 17.2667C11.2094 16.8774 11.1917 16.4856 11.1917 16.04C11.7623 16.46 12.295 16.8595 12.8352 17.2462C12.9615 17.3384 13.1054 17.4332 13.2543 17.4614C13.5421 17.5177 13.7895 17.3589 13.8956 17.1054C14.0092 16.8288 13.9486 16.5676 13.6961 16.3678C13.4209 16.1475 13.1331 15.9478 12.8504 15.7403C12.348 15.3715 11.8405 15.0079 11.3457 14.6263C11.2675 14.5648 11.1993 14.4316 11.1968 14.3292C11.174 13.6095 11.631 12.9974 12.3379 12.9283C13.0069 12.8643 13.6936 12.8694 14.3626 12.9334C15.0316 12.9974 15.481 13.589 15.481 14.2677C15.4835 16.5599 15.4835 18.852 15.481 21.1442C15.481 21.8818 14.8802 22.4887 14.1506 22.499C13.6128 22.5066 13.0776 22.5066 12.5399 22.5015C11.8001 22.4938 11.1968 21.8792 11.1917 21.1314C11.1892 20.486 11.1917 19.8431 11.1917 19.1363Z" fill="#F7941E"/>
<path d="M30.4166 30.3307C30.3762 31.2245 29.6719 31.8878 28.8009 31.8443C27.9248 31.8008 27.3013 31.0709 27.3492 30.1412C27.3896 29.3422 28.1394 28.6635 28.9322 28.707C29.8006 28.7557 30.4545 29.4728 30.4166 30.3307Z" fill="#F7941E"/>
<path d="M33.9713 41.5354C35.5239 41.5354 37.0942 41.5354 38.6822 41.5354C38.6822 42.0834 38.6822 42.6212 38.6822 43.1796C37.2507 43.1796 35.8243 43.1796 34.4383 43.1796C34.2818 42.6264 34.1278 42.0834 33.9713 41.5354Z" fill="#F7941E"/>
<path d="M23.3755 43.1847C22.0753 43.1847 20.7247 43.1847 19.3563 43.1847C19.3563 42.6392 19.3563 42.1013 19.3563 41.543C20.8559 41.543 22.3454 41.543 23.84 41.543C23.6885 42.0757 23.5371 42.6059 23.3755 43.1847Z" fill="#F7941E"/>
<path d="M35.2083 18.5268C35.2083 17.9736 35.2083 17.4332 35.2083 16.8826C36.3722 16.8826 37.5234 16.8826 38.6872 16.8826C38.6872 17.4384 38.6872 17.9762 38.6872 18.5268C37.531 18.5268 36.3873 18.5268 35.2083 18.5268Z" fill="#F7941E"/>
<path d="M16.7131 44.6163C16.7131 43.1411 16.7131 41.666 16.7131 40.1908C17.473 40.1677 18.1041 40.7363 18.1294 41.4841C18.1496 42.0937 18.147 42.7058 18.1319 43.3153C18.1092 44.0887 17.4376 44.6983 16.7131 44.6163Z" fill="#F7941E"/>
<path d="M16.7156 19.9712C16.7156 18.4858 16.7156 17.0209 16.7156 15.5534C17.1953 15.4535 17.786 15.807 18.0107 16.332C18.041 16.4011 18.0814 16.4754 18.0814 16.5471C18.0839 17.3641 18.1395 18.1862 18.0587 18.9929C17.9981 19.5922 17.3594 19.9917 16.7156 19.9712Z" fill="#F7941E"/>
<path d="M19.3538 16.8775C20.4394 16.8775 21.5149 16.8775 22.6055 16.8775C22.6055 17.4281 22.6055 17.9685 22.6055 18.5243C21.5199 18.5243 20.4444 18.5243 19.3538 18.5243C19.3538 17.9711 19.3538 17.4332 19.3538 16.8775Z" fill="#F7941E"/>
<path d="M41.2724 40.1729C41.2724 41.6711 41.2724 43.1386 41.2724 44.6061C40.7978 44.6931 40.1692 44.3525 40.0303 43.8019C39.7981 42.8825 39.7854 41.9246 40.0404 41.0103C40.1919 40.4648 40.6842 40.219 41.2724 40.1729Z" fill="#F7941E"/>
<path d="M41.2699 15.5227C41.2699 17.0107 41.2699 18.4756 41.2699 19.9405C40.8533 20.025 40.303 19.7331 40.0833 19.267C39.9849 19.0595 39.9243 18.8162 39.9142 18.5857C39.8915 18.0248 39.9041 17.4614 39.9066 16.9005C39.9142 16.1476 40.4923 15.5534 41.2699 15.5227Z" fill="#F7941E"/>
</svg>
