<svg width="68" height="60" viewBox="0 0 68 60" fill="none" xmlns="http://www.w3.org/2000/svg">
<path d="M11.2639 49.9415C10.0369 48.0434 8.67519 46.2185 7.61276 44.231C5.19774 39.7135 4.19243 34.8342 4.40491 29.3687C1.90535 29.4832 12.3354 29.3847 8.45128 29.3435C8.18624 37.8428 10.9097 44.9111 17.3163 50.0194C27.0769 57.7997 37.4522 57.7677 48.0125 51.2329C48.7368 52.2175 49.4656 53.2066 50.3727 54.4407C48.8236 55.3475 47.4344 56.3389 45.9059 57.0235C35.0189 61.9005 24.7693 60.8061 15.2166 53.5798C14.9469 53.376 14.6431 53.2181 14.3552 53.0395C13.3247 52.0068 12.2943 50.9742 11.2639 49.9415Z" fill="#F7941E"/>
<path d="M-6.10352e-05 30.1334L6.52988 18.8018L13.0575 30.1334H-6.10352e-05Z" fill="#F7941E"/>
<path d="M56.7359 10.0597C57.9629 11.9578 59.3246 13.7827 60.387 15.7702C62.8021 20.2877 63.8074 25.167 63.5949 30.6325C66.0945 30.518 55.6644 30.6165 59.5485 30.6577C59.8136 22.1584 57.0901 15.0901 50.6835 9.98184C40.9229 2.20148 30.5476 2.23353 19.9873 8.7683C19.263 7.78373 18.5342 6.79459 17.6271 5.56045C19.1762 4.65373 20.5654 3.6623 22.0939 2.97768C32.9809 -1.90164 43.2305 -0.804882 52.7832 6.41908C53.0528 6.62286 53.3567 6.78085 53.6446 6.95945C54.6751 7.9921 55.7055 9.02474 56.7359 10.0574V10.0597Z" fill="#F7941E"/>
<path d="M68 29.8654L61.4723 41.1994L54.9424 29.8654H68Z" fill="#F7941E"/>
<path d="M17.0046 22.0614C17.2742 21.4294 17.7608 21.2233 18.4303 21.2416C19.6207 21.2737 20.8133 21.2508 22.006 21.2508C22.1271 21.2508 22.2482 21.2508 22.4035 21.2508C22.4035 20.5708 22.4035 19.9205 22.4035 19.2702C22.4035 18.4208 22.8171 18.0086 23.6647 18.0063C24.6426 18.0063 25.6205 18.004 26.5984 18.0063C27.3593 18.0086 27.7934 18.4391 27.7979 19.197C27.8025 19.8701 27.7979 20.5433 27.7979 21.2325H29.8337C30.0347 20.928 30.1673 20.6005 30.4072 20.4036C30.6014 20.2433 30.9235 20.1792 31.1886 20.1769C33.2243 20.1586 35.2578 20.1678 37.2935 20.1678C38.0955 20.1678 38.4336 20.4403 38.6141 21.2371H40.7299C40.7367 21.1455 40.7481 21.0493 40.7481 20.9531C40.7481 20.3441 40.7436 19.7373 40.7504 19.1283C40.7596 18.4688 41.1982 18.0155 41.8494 18.0086C42.9164 17.9972 43.9857 17.9972 45.0527 18.0086C45.6856 18.0155 46.1311 18.4665 46.1402 19.1008C46.1517 19.7991 46.1425 20.4975 46.1425 21.2485C46.2728 21.2485 46.3916 21.2485 46.5081 21.2485C47.767 21.2485 49.0259 21.2485 50.2849 21.2485C51.1142 21.2485 51.5369 21.6652 51.5392 22.4872C51.5392 23.4787 51.5438 24.4701 51.5392 25.4615C51.5369 26.2217 51.1028 26.6499 50.3443 26.6568C50.0404 26.659 49.7388 26.6568 49.3824 26.6568V27.0575C49.3824 32.2299 49.3824 37.4 49.3824 42.5724C49.3824 43.5913 49.0168 43.9645 48.0115 43.9645C38.8495 43.9645 29.6852 43.9645 20.5232 43.9645C19.5338 43.9645 19.1591 43.589 19.1591 42.5976C19.1591 37.4366 19.1591 32.2779 19.1591 27.117V26.6568C18.9078 26.6568 18.6656 26.6384 18.4257 26.6613C17.7563 26.7209 17.2696 26.4804 17 25.8462V22.0614H17.0046ZM21.3457 26.6728V41.7756H47.2072V26.6728H21.3457ZM19.1797 24.4724H49.3572V23.4306H19.1797V24.4724ZM25.6274 20.1953H24.5787V21.2302H25.6274V20.1953ZM43.9697 21.2348V20.1907H42.9347V21.2348H43.9697Z" fill="#F7941E"/>
<path d="M41.8289 35.3118C41.8289 35.6713 41.8335 35.9964 41.8289 36.3216C41.8198 36.9902 41.3742 37.4664 40.7619 37.4733C40.1359 37.4802 39.6812 36.997 39.6721 36.3101C39.6675 35.9964 39.6721 35.6805 39.6721 35.3118C39.3522 35.3118 39.0415 35.3118 38.733 35.3118C38.0087 35.3072 37.5221 34.8791 37.5152 34.2425C37.5084 33.5923 38.0019 33.1526 38.7444 33.1504C39.0369 33.1504 39.327 33.1504 39.6721 33.1504C39.6721 32.8298 39.6721 32.5184 39.6721 32.2093C39.6766 31.4835 40.1039 30.9958 40.7391 30.9889C41.3879 30.982 41.8266 31.4766 41.8289 32.2207C41.8289 32.5138 41.8289 32.8046 41.8289 33.1504C42.1488 33.1504 42.4595 33.1504 42.7679 33.1504C43.4922 33.1549 43.9789 33.5831 43.9857 34.2196C43.9926 34.8699 43.4991 35.3095 42.7565 35.3118C42.4641 35.3118 42.1739 35.3118 41.8289 35.3118Z" fill="#F7941E"/>
<path d="M27.8323 33.148C28.5063 33.148 29.1803 33.1457 29.8544 33.148C30.5466 33.1526 31.0287 33.5945 31.0333 34.2218C31.0379 34.8492 30.5558 35.3071 29.8703 35.3094C28.4881 35.314 27.1058 35.314 25.7257 35.3094C25.0403 35.3071 24.5582 34.8469 24.5628 34.2195C24.5673 33.5945 25.0494 33.1526 25.744 33.148C26.4409 33.1434 27.1377 33.148 27.8346 33.148H27.8323Z" fill="#F7941E"/>
</svg>
