<svg width="68" height="60" viewBox="0 0 68 60" fill="none" xmlns="http://www.w3.org/2000/svg">
<path d="M11.2639 49.9413C10.037 48.0431 8.67526 46.2182 7.61283 44.2307C5.1978 39.7131 4.19249 34.8337 4.40497 29.3681C1.90541 29.4826 12.3355 29.3841 8.45136 29.3429C8.18632 37.8424 10.9098 44.9108 17.3163 50.0191C27.077 57.7997 37.4522 57.7676 48.0126 51.2327C48.7368 52.2173 49.4657 53.2065 50.3727 54.4406C48.8236 55.3474 47.4345 56.3388 45.906 57.0234C35.0189 61.9006 24.7693 60.8061 15.2166 53.5797C14.947 53.3759 14.6431 53.2179 14.3553 53.0393C13.3248 52.0066 12.2944 50.974 11.2639 49.9413Z" fill="#F7941E"/>
<path d="M-6.10352e-05 30.1328L6.52758 18.801L13.0575 30.1328H-6.10352e-05Z" fill="#F7941E"/>
<path d="M56.7359 10.0587C57.9629 11.9569 59.3246 13.7818 60.387 15.7693C62.802 20.287 63.8074 25.1664 63.5949 30.632C66.0944 30.5175 55.6644 30.6159 59.5485 30.6572C59.8136 22.1577 57.0901 15.0893 50.6835 9.98089C40.9229 2.20039 30.5476 2.23244 19.9873 8.76734C19.263 7.78275 18.5342 6.79359 17.6271 5.55942C19.1762 4.65269 20.5654 3.66123 22.0939 2.9766C32.9809 -1.90053 43.2305 -0.806029 52.7832 6.42036C53.0528 6.62415 53.3567 6.78214 53.6446 6.96073C54.675 7.9934 55.7055 9.02606 56.7359 10.0587Z" fill="#F7941E"/>
<path d="M68 29.8649L61.47 41.1991L54.9424 29.8649H68Z" fill="#F7941E"/>
<path d="M50.3704 28.7521H44.4003C43.0797 24.0559 40.0889 21.0495 35.3776 19.7077V13.7269C35.5239 13.7269 35.6678 13.7269 35.814 13.7269C36.2527 13.7933 36.6914 13.8529 37.1278 13.9284C43.5458 15.0412 48.7414 20.0786 50.062 26.4784C50.1922 27.1058 50.2699 27.7447 50.3704 28.3789V28.7521Z" fill="#F7941E"/>
<path d="M33.5109 17.6057V21.2578C38.8322 22.1623 41.9327 25.2671 42.8534 30.6114H46.4771C46.9821 34.5268 45.0925 40.6106 39.3714 43.8689C34.2329 46.7975 27.6436 46.0487 23.1608 41.9822C18.6118 37.8538 17.2455 31.3212 19.7747 25.7754C22.384 20.058 28.3084 17.0997 33.5086 17.6057H33.5109ZM32.5787 39.9741C37.2009 39.9741 40.9685 36.2029 40.9776 31.5708C40.9868 26.9272 37.2123 23.14 32.5787 23.14C27.9566 23.14 24.189 26.9112 24.1821 31.541C24.1753 36.1846 27.9497 39.9741 32.581 39.9718L32.5787 39.9741Z" fill="#F7941E"/>
<path d="M33.5178 38.0026V36.2556H31.6488V38.0026C30.5407 37.8469 29.5811 37.4416 28.6672 36.7639C29.1058 36.3517 29.5194 35.9625 29.9101 35.5961C29.4485 35.1313 29.0213 34.7031 28.5872 34.2658C28.2216 34.6413 27.8241 35.0466 27.3945 35.4862C26.7022 34.5726 26.3138 33.6018 26.1425 32.5004H27.8903V30.6297H26.147C26.3024 29.5192 26.7045 28.5552 27.3808 27.6462C27.7921 28.0835 28.1805 28.498 28.5483 28.8895C29.0122 28.427 29.4417 27.9965 29.8735 27.566C29.4988 27.1997 29.0944 26.8013 28.658 26.3708C29.5674 25.6679 30.5407 25.2878 31.6374 25.1115V26.8654H33.5041V25.1183C34.6122 25.2717 35.5718 25.677 36.4811 26.3502C36.0448 26.7623 35.6312 27.1516 35.2451 27.5179C35.7089 27.9828 36.1361 28.4132 36.568 28.8483C36.9267 28.4796 37.3242 28.0721 37.7538 27.6302C38.4484 28.5483 38.8391 29.5192 39.0059 30.6205H37.2603V32.4935H39.0013C38.8459 33.6041 38.4438 34.5657 37.7675 35.4816C37.3539 35.042 36.9655 34.6276 36.6022 34.2383C36.1384 34.7008 35.7112 35.1313 35.2748 35.5664C35.6449 35.9304 36.0516 36.3288 36.4903 36.757C35.5787 37.4508 34.6122 37.8424 33.5132 38.0072L33.5178 38.0026ZM32.5856 28.7544C31.0525 28.7521 29.789 30.0023 29.7799 31.5364C29.7707 33.0866 31.0273 34.362 32.5719 34.3642C34.105 34.3665 35.3685 33.1163 35.3776 31.5822C35.3867 30.0298 34.1324 28.759 32.5856 28.7544Z" fill="#F7941E"/>
<path d="M32.5746 30.6229C33.0776 30.6206 33.505 31.0396 33.5119 31.5456C33.5188 32.0608 33.0844 32.4981 32.5678 32.4913C32.0649 32.4844 31.6443 32.0585 31.6466 31.5548C31.6466 31.051 32.0717 30.6274 32.5746 30.6229Z" fill="#F7941E"/>
</svg>
