<svg width="68" height="60" viewBox="0 0 68 60" fill="none" xmlns="http://www.w3.org/2000/svg">
<path d="M11.264 49.9417C10.0371 48.0435 8.67537 46.2187 7.61295 44.2313C5.19792 39.7138 4.19261 34.8346 4.4051 29.3692C1.90553 29.4837 12.3356 29.3852 8.45146 29.344C8.18643 37.8432 10.9099 44.9113 17.3165 50.0195C27.0771 57.7997 37.4523 57.7677 48.0127 51.233C48.7369 52.2176 49.4658 53.2067 50.3728 54.4408C48.8237 55.3475 47.4346 56.3389 45.9061 57.0235C35.019 61.9005 24.7695 60.806 15.2167 53.5799C14.9471 53.3761 14.6432 53.2181 14.3554 53.0396C13.3249 52.0069 12.2945 50.9743 11.264 49.9417Z" fill="#F7941E"/>
<path d="M0 30.1339L6.52766 18.8025L13.0576 30.1339H0Z" fill="#F7941E"/>
<path d="M56.7359 10.0584C57.9629 11.9565 59.3246 13.7813 60.387 15.7687C62.802 20.2862 63.8074 25.1654 63.5949 30.6308C66.0944 30.5163 55.6644 30.6148 59.5485 30.656C59.8135 22.1568 57.0901 15.0887 50.6835 9.98051C40.9229 2.2003 30.5476 2.23235 19.9873 8.767C19.263 7.78245 18.5342 6.79332 17.6271 5.55921C19.1762 4.65251 20.5654 3.66109 22.0939 2.97649C32.9809 -1.90045 43.2305 -0.806003 52.7832 6.42011C53.0528 6.62389 53.3567 6.78187 53.6446 6.96047C54.675 7.9931 55.7055 9.02573 56.7359 10.0584Z" fill="#F7941E"/>
<path d="M68 29.8661L61.47 41.1975L54.9424 29.8661H68Z" fill="#F7941E"/>
<path d="M34.8036 44.9976H33.0111C32.7251 44.9307 32.444 44.8374 32.1532 44.8015C28.6859 44.376 25.6967 42.9509 23.2746 40.4547C19.8313 36.9041 18.5169 32.6649 19.1561 27.761C19.9394 21.7405 25.0503 15.433 33.4965 15.0146C35.2121 14.9285 36.9061 15.2298 38.5401 15.7319C45.0783 17.7427 49.8841 24.3969 48.8629 31.8496C48.4904 34.5729 47.5413 37.0165 45.8352 39.1588C43.6198 41.9443 40.8132 43.8236 37.281 44.5481C36.4592 44.7155 35.6278 44.8494 34.8012 45L34.8036 44.9976ZM44.6026 26.2236C44.0331 24.208 42.7019 22.7638 41.2457 21.444C39.0567 19.4595 36.416 18.6083 33.4772 18.7469C30.5601 18.8856 28.0419 19.9855 26.0187 22.1111C24.8942 23.2922 23.8321 24.5236 23.3707 26.2236H44.6026ZM32.1196 41.1027C32.0812 40.5528 32.0716 40.1439 32.0235 39.7422C31.6607 36.7009 30.4568 34.0684 28.1044 32.0408C26.7083 30.8382 25.1032 30.0611 23.2193 29.9559C22.8902 29.9368 22.6499 29.9439 22.6835 30.4102C23.0415 35.2663 25.5814 38.5587 29.9931 40.4882C30.6298 40.7656 31.3363 40.8827 32.1172 41.1027H32.1196ZM35.9306 40.9903C40.8012 40.6006 46.0371 34.396 45.2177 30.0205C40.6642 29.6809 35.7528 34.9124 35.9306 40.9903ZM33.9458 31.8472C35.0752 31.8472 35.8297 31.1107 35.8345 29.9989C35.8393 28.8895 35.0968 28.0981 34.0491 28.0957C32.9294 28.0957 32.122 28.8537 32.1124 29.9224C32.1028 31.0247 32.8837 31.8448 33.9458 31.8472Z" fill="#F7941E"/>
</svg>
