<svg width="44" height="39" viewBox="0 0 44 39" fill="none" xmlns="http://www.w3.org/2000/svg">
<path d="M11.6953 25.9139C11.723 25.6912 11.7473 25.4685 11.7796 25.2458C12.0788 23.2289 12.7152 21.3331 13.8703 19.6369C14.449 18.7877 15.1605 18.0758 16.103 17.6223C16.5581 17.4031 17.0455 17.3119 17.5376 17.2323C19.5404 16.9069 21.5363 16.5469 23.4907 15.9908C25.0419 15.5488 26.5493 14.9973 27.9677 14.2185C28.0716 14.1619 28.1109 14.1065 28.0959 13.9842C28.0312 13.4777 27.9781 12.97 27.9203 12.4496C27.9527 12.475 27.985 12.5015 28.0185 12.5269C28.3927 12.8038 28.767 13.0796 29.1389 13.36C29.2128 13.4165 29.2636 13.4027 29.3318 13.3519C30.3517 12.5973 31.2261 11.7111 31.8567 10.6011C31.866 10.585 31.8787 10.5723 31.9133 10.5261C32.0138 10.7096 32.1328 10.8677 32.1928 11.0454C32.3753 11.5854 32.5521 12.1288 32.6976 12.6792C32.8108 13.1062 32.8755 13.5446 32.9621 13.9785C32.9702 14.0188 32.9806 14.0581 32.9933 14.1146C33.2532 14.0685 33.5084 14.0235 33.7834 13.975C33.5639 14.1596 33.3618 14.3327 33.1538 14.5C33.0799 14.56 33.0626 14.6212 33.0753 14.7135C33.3132 16.3496 33.4311 17.9938 33.3895 19.6462C33.3594 20.8508 33.2601 22.0496 32.9217 23.2127C32.8143 23.5819 32.6664 23.9431 32.5116 24.2962C32.1848 25.0404 31.6211 25.4985 30.8241 25.6969C30.0699 25.8839 29.3087 26.02 28.5394 26.1042C25.3041 26.4562 22.0561 26.47 18.8081 26.4389C16.5523 26.4181 14.2965 26.3558 12.0418 26.3108C11.9263 26.3085 11.812 26.3039 11.6965 26.3004C11.6953 26.1723 11.6953 26.0431 11.6953 25.9139ZM13.1391 25.4454C17.3412 25.5481 21.5005 25.6508 25.661 25.45C25.6472 25.4292 25.6322 25.42 25.616 25.4165C24.834 25.2389 24.1283 24.8996 23.5092 24.3896C22.5135 23.5681 21.906 22.5215 21.8124 21.2281C21.6923 19.585 22.346 18.2696 23.6258 17.2542C23.8222 17.0985 24.0382 16.9681 24.26 16.8158C24.2253 16.8181 24.2068 16.8181 24.1907 16.8215C22.301 17.3154 20.3755 17.6258 18.4466 17.9165C17.921 17.9962 17.4001 18.0792 16.9161 18.3204C16.1099 18.7219 15.4908 19.3323 14.9826 20.0581C14.0574 21.3804 13.5157 22.8585 13.2489 24.4415C13.1946 24.7669 13.1761 25.0969 13.1391 25.4442V25.4454ZM27.508 16.7431C26.8842 16.5919 26.3067 16.5735 25.7292 16.6854C23.4653 17.1238 21.9972 19.1638 22.2918 21.4554C22.5955 23.8219 24.9068 25.5077 27.2515 25.0427C28.8617 24.7231 29.9763 23.77 30.4972 22.2181C31.0193 20.6604 30.7005 19.2296 29.6078 17.9985C29.1504 17.4838 29.2521 17.5415 28.5186 17.5623C28.4909 17.5623 28.4632 17.5692 28.4366 17.5715C27.8291 17.6442 27.2458 17.815 26.6705 18.0158C26.5735 18.0492 26.4765 18.0838 26.3622 18.1231C26.7468 17.6604 27.1152 17.215 27.508 16.7431ZM28.663 13.6346C28.7658 14.2554 28.8293 14.845 28.8074 15.4404C28.7982 15.6977 28.7335 15.9342 28.5891 16.1419C28.395 16.4212 28.1894 16.6935 27.9827 16.9646C27.8868 17.0904 27.7759 17.2046 27.6431 17.3558C27.7263 17.3292 27.769 17.3154 27.8117 17.3027C28.0543 17.2288 28.2957 17.155 28.5383 17.08C29.1735 16.8827 29.7568 16.975 30.2835 17.3915C30.5977 17.6408 30.9142 17.8854 31.2272 18.1346C31.3104 18.2015 31.3878 18.2754 31.4964 18.3712C31.4756 18.2823 31.4629 18.2338 31.4525 18.1854C31.3139 17.5646 31.1903 16.9415 31.2157 16.3C31.2238 16.0912 31.2757 15.8938 31.4086 15.7346C31.6026 15.5027 31.8071 15.2765 32.0207 15.0619C32.1651 14.9165 32.3303 14.7931 32.5059 14.6431C32.447 14.65 32.4123 14.6535 32.3777 14.6581C32.0219 14.7077 31.6673 14.7642 31.3104 14.8069C30.8357 14.8635 30.3806 14.8 29.9694 14.5369C29.7095 14.3708 29.4473 14.2069 29.1932 14.0327C29.0199 13.9138 28.8571 13.78 28.6642 13.6335L28.663 13.6346ZM31.5391 19.0715C32.0023 20.2658 32.0265 21.4519 31.5148 22.6265C31.0078 23.7919 30.1265 24.5939 28.9864 25.135C29.5616 25.0496 30.1369 24.9689 30.6543 24.7012C30.8484 24.6008 31.0378 24.4496 31.1695 24.2765C31.3728 24.0123 31.5541 23.7227 31.6916 23.4192C32.0924 22.5412 32.2483 21.5985 32.3453 20.6477C32.5047 19.1062 32.4654 17.5646 32.3418 16.0231C32.3257 15.8246 32.3037 15.6262 32.2818 15.4035C31.941 15.7785 31.7909 16.1904 31.7897 16.6692C31.7874 17.6073 31.9607 18.52 32.1663 19.4292C32.1825 19.5019 32.1998 19.5746 32.2217 19.6739C31.978 19.4604 31.7585 19.2665 31.5379 19.0738L31.5391 19.0715ZM31.7354 12.4023C31.3531 13.0438 30.8726 13.5608 30.3251 14.0327C30.9154 14.3258 31.5195 14.2565 32.1374 14.2219C32.0334 13.6023 31.9503 13.0035 31.7354 12.4011V12.4023ZM26.3437 16.1846C26.346 16.1915 26.3471 16.1985 26.3494 16.2054C26.704 16.2054 27.0575 16.2054 27.4121 16.2054C27.5484 16.2054 27.7228 16.2642 27.8129 16.2019C27.918 16.1281 27.9584 15.9538 28.0104 15.8165C28.0531 15.7058 28.0716 15.5869 28.1051 15.4554C27.4964 15.7069 26.92 15.9458 26.3437 16.1846Z" fill="#F7941E"/>
<path d="M11.6953 15.4046C12.0303 15.3758 12.3676 15.3608 12.7002 15.3146C13.9881 15.1381 15.2806 14.9869 16.5604 14.7619C18.8832 14.3546 21.1413 13.7142 23.2897 12.7242C25.0327 11.9211 26.6324 10.9046 27.9965 9.54422C28.2795 9.26153 28.536 8.9523 28.8051 8.65576C29.6448 8.65576 30.4845 8.65576 31.3242 8.65576C31.1649 8.86807 31.0158 9.08961 30.8461 9.29269C29.7002 10.6635 28.2922 11.7042 26.7283 12.5477C24.9414 13.5123 23.0391 14.1746 21.0778 14.6777C18.9744 15.2177 16.8376 15.5627 14.68 15.7923C13.7351 15.8927 12.7891 15.9769 11.8443 16.0692C11.7946 16.0738 11.745 16.0865 11.6953 16.0946C11.6953 15.8638 11.6953 15.6331 11.6953 15.4035V15.4046Z" fill="#F7941E"/>
<path d="M11.6953 30.0631C12.0464 29.9131 12.3895 29.7435 12.7487 29.6189C13.6058 29.3212 14.4975 29.17 15.3926 29.0431C16.9831 28.8192 18.584 28.7085 20.1872 28.6266C22.2559 28.5204 24.3246 28.4316 26.3922 28.315C27.9122 28.2296 29.4288 28.1073 30.9281 27.8258C31.5772 27.7035 32.2183 27.5523 32.8212 27.2742C33.2243 27.0885 33.5939 26.86 33.8169 26.4204C33.8226 26.4723 33.8284 26.5 33.8284 26.5289C33.8284 27.2015 33.8261 27.8742 33.833 28.5469C33.833 28.6623 33.803 28.7119 33.6886 28.7269C33.0129 28.8192 32.3407 28.945 31.6615 29.0039C29.2174 29.2162 26.7664 29.1354 24.3177 29.1492C22.7122 29.1585 21.1067 29.1735 19.5023 29.215C18.1971 29.2496 16.8965 29.3569 15.6052 29.56C14.3993 29.7504 13.2142 30.0146 12.1077 30.5546C11.9667 30.6227 11.8328 30.7046 11.6953 30.7808C11.6953 30.5408 11.6953 30.3019 11.6953 30.0619V30.0631Z" fill="#F7941E"/>
<path d="M19.1073 23.1515C18.5725 23.1527 18.1451 22.7408 18.144 22.2215C18.1428 21.7035 18.5679 21.2892 19.1027 21.2858C19.6374 21.2823 20.0694 21.6931 20.0764 22.21C20.0833 22.7292 19.6501 23.1504 19.1073 23.1515ZM19.0738 21.4208C18.6175 21.4127 18.2375 21.7762 18.2294 22.2273C18.2214 22.675 18.5898 23.0477 19.0495 23.0615C19.5011 23.0742 19.8916 22.705 19.8985 22.2585C19.9054 21.7946 19.545 21.4289 19.0738 21.4208Z" fill="#F7941E"/>
<path d="M17.2072 20.8946C17.0363 21.1335 16.9023 21.4231 16.8272 21.7392C16.8214 21.7635 16.7798 21.7958 16.7521 21.7969C16.6389 21.8039 16.5246 21.7992 16.3929 21.7992C16.4576 21.3319 16.6355 20.9339 16.915 20.5519C17.0155 20.6696 17.1067 20.7758 17.2072 20.8935V20.8946Z" fill="#F7941E"/>
<path d="M18.6649 19.5181C18.6684 19.6715 18.7111 19.8169 18.6603 19.9115C18.6175 19.9889 18.4628 20.0039 18.3565 20.0465C18.2583 20.0869 18.159 20.1227 18.0643 20.1677C17.9695 20.2139 17.8806 20.2692 17.7743 20.3292C17.6808 20.2231 17.5884 20.1169 17.4844 19.9981C17.8263 19.7477 18.2167 19.5815 18.6649 19.5181Z" fill="#F7941E"/>
<path d="M20.6666 20.0142C20.6574 20.0315 20.6539 20.0408 20.6481 20.0465C20.5626 20.1296 20.4864 20.2612 20.3882 20.2796C20.2947 20.2981 20.1815 20.1919 20.0729 20.1504C19.91 20.0881 19.7472 20.0281 19.5797 19.9819C19.4931 19.9577 19.4619 19.9219 19.4596 19.8319C19.4503 19.4881 19.448 19.4881 19.7795 19.5769C20.0914 19.6589 20.4425 19.8319 20.6666 20.0142Z" fill="#F7941E"/>
<path d="M17.3816 24.3596C17.4706 24.2662 17.5526 24.1796 17.6103 24.1185C17.9695 24.2846 18.308 24.4415 18.6684 24.6089V24.9239C18.1798 24.8523 17.7593 24.6608 17.3828 24.3596H17.3816Z" fill="#F7941E"/>
<path d="M21.7535 21.7992C21.6311 21.7992 21.5306 21.805 21.4312 21.7958C21.4024 21.7935 21.3608 21.7554 21.3538 21.7265C21.2742 21.4058 21.1332 21.1139 20.9392 20.8462C21.0316 20.7504 21.1205 20.6592 21.2199 20.5565C21.5075 20.9258 21.6726 21.3296 21.7547 21.7992H21.7535Z" fill="#F7941E"/>
<path d="M17.1067 23.5381C17.0386 23.6073 16.9531 23.6962 16.8538 23.7977C16.5881 23.4239 16.438 23.0223 16.3767 22.5723H16.7533C16.8723 22.8977 16.9866 23.2104 17.1056 23.5369L17.1067 23.5381Z" fill="#F7941E"/>
<path d="M20.5442 24.1392C20.5927 24.1923 20.6666 24.2731 20.7498 24.3665C20.3755 24.6619 19.9551 24.8546 19.478 24.9227C19.47 24.8996 19.4642 24.8915 19.4642 24.8823C19.4411 24.5869 19.4469 24.6019 19.7183 24.5027C19.9886 24.4046 20.2462 24.2719 20.5442 24.1381V24.1392Z" fill="#F7941E"/>
<path d="M21.4301 22.5712H21.7581C21.7027 23.02 21.5491 23.4181 21.2915 23.7908C21.1991 23.7031 21.1171 23.6246 21.0582 23.5692C21.1852 23.23 21.3042 22.9104 21.4301 22.5712Z" fill="#F7941E"/>
<path d="M26.5654 22.8515C25.3469 22.8527 24.3604 21.8662 24.3558 20.6419C24.3512 19.4281 25.3434 18.4323 26.5631 18.4277C27.7863 18.4231 28.7774 19.4165 28.7774 20.6465C28.7774 21.8673 27.7921 22.8504 26.5666 22.8515H26.5654ZM28.3673 20.6881C28.3662 19.6196 27.516 18.7565 26.4649 18.7577C25.4242 18.7577 24.5684 19.6265 24.5684 20.6812C24.5684 21.7508 25.4173 22.6173 26.4649 22.6196C27.5126 22.6219 28.3685 21.7531 28.3662 20.6881H28.3673Z" fill="#F7941E"/>
<path d="M36.7078 6.50802C37.5016 7.73615 38.3826 8.91687 39.07 10.2028C40.6325 13.1257 41.283 16.2827 41.1455 19.8189C42.7627 19.7449 36.0145 19.8086 38.5275 19.8352C38.699 14.3361 36.9369 9.76279 32.7918 6.45765C26.4767 1.42365 19.7639 1.44439 12.9314 5.67248C12.4627 5.03545 11.9912 4.39546 11.4043 3.59695C12.4066 3.0103 13.3054 2.36882 14.2943 1.92586C21.3382 -1.22965 27.9697 -0.521502 34.1504 4.15398C34.3248 4.28583 34.5214 4.38805 34.7077 4.50361C35.3744 5.17174 36.0411 5.83988 36.7078 6.50802Z" fill="#F7941E"/>
<path d="M39.7712 19.3228H43.9961L41.8837 22.9891L39.7712 26.6554L37.6603 22.9891L35.5479 19.3228H39.7712Z" fill="#F7941E"/>
<path d="M7.28792 32.3121C6.49409 31.0839 5.61305 29.9032 4.92566 28.6173C3.36313 25.6944 2.71269 22.5374 2.85017 19.0012C1.23295 19.0752 7.98124 19.0115 5.46819 18.9849C5.29671 24.484 7.05879 29.0573 11.2038 32.3624C17.519 37.3964 24.2318 37.3757 31.0643 33.1476C31.533 33.7846 32.0045 34.4246 32.5914 35.2231C31.5891 35.8098 30.6903 36.4513 29.7014 36.8942C22.6574 40.0497 16.026 39.3416 9.84533 34.6661C9.67089 34.5343 9.47428 34.432 9.28802 34.3165C8.62132 33.6483 7.95462 32.9802 7.28792 32.3121Z" fill="#F7941E"/>
<path d="M4.22339 19.4952H0L2.11243 15.8304L4.22339 12.1641L6.33584 15.8304L8.44827 19.4952H4.22339Z" fill="#F7941E"/>
</svg>
