<svg width="60" height="60" viewBox="0 0 60 60" fill="none" xmlns="http://www.w3.org/2000/svg">
<path d="M28.7882 60C28.4284 59.9656 28.0686 59.9267 27.7088 59.8992C22.5134 59.5005 17.7191 57.8941 13.4084 54.9725C6.42317 50.236 2.07576 43.7076 0.519673 35.3987C-0.617026 29.3332 0.125495 23.4578 2.60515 17.8048C2.63723 17.7291 2.6739 17.6558 2.71057 17.5825C2.71744 17.5665 2.73348 17.555 2.76786 17.5137C3.27204 17.7429 3.78539 17.9766 4.29874 18.2104C4.81438 18.4464 5.32772 18.6847 5.84107 18.923C2.66244 26.3543 2.55931 33.7832 5.92357 41.1526C8.42156 46.6269 12.4092 50.7699 17.7466 53.5472C28.5521 59.1705 41.7479 56.7392 49.7919 47.7016C57.8886 38.6045 58.8305 25.1925 52.0424 15.2154C48.3618 9.80522 43.3636 6.15949 37.0476 4.42255C30.7476 2.69019 24.6081 3.2791 18.6404 6.00137C18.1545 4.97938 17.671 3.95738 17.1714 2.90559C17.4235 2.79102 17.6595 2.68103 17.9002 2.57333C20.8909 1.25573 24.0122 0.442255 27.271 0.158112C27.9265 0.100825 28.5865 0.0824931 29.2465 0.043538C29.3153 0.0389551 29.384 0.0137489 29.4528 0C29.8194 0 30.1861 0 30.5528 0C30.6216 0.0160403 30.6903 0.043538 30.7591 0.043538C33.7108 0.103116 36.5938 0.57516 39.3851 1.52841C47.3283 4.23923 53.2111 9.34922 56.949 16.8607C59.6899 22.3717 60.5286 28.2195 59.6876 34.3057C59.2201 37.6902 58.1727 40.896 56.5777 43.9207C54.1599 48.5037 50.7888 52.2296 46.462 55.0756C42.1513 57.9079 37.4165 59.5142 32.2693 59.9015C31.9164 59.929 31.5657 59.9656 31.2151 60C30.4015 60 29.5949 60 28.7882 60Z" fill="#F7941E"/>
<path d="M2.42964 2.10527C2.81329 2.16254 3.02531 2.45386 3.26762 2.70285C3.99707 3.44983 4.72148 4.20179 5.44841 4.95126C6.40755 5.94225 7.36669 6.93075 8.3233 7.92174C8.37378 7.97403 8.40912 7.98897 8.48484 7.96905C9.89579 7.57564 11.279 8.40478 11.5692 9.82653C11.6677 10.3121 11.6046 10.7901 11.3976 11.2458C11.3926 11.2558 11.3825 11.2632 11.3673 11.2806C11.1452 10.9744 10.9256 10.6731 10.706 10.3718C10.5318 10.1328 10.3602 9.89376 10.1861 9.65473C9.96646 9.35096 9.59038 9.27875 9.2774 9.4879C8.96441 9.69706 8.659 9.91368 8.35612 10.1378C8.11885 10.3121 8.03051 10.7105 8.2703 11.0292C8.65143 11.5396 9.01994 12.0575 9.39603 12.5704C9.41117 12.5904 9.42127 12.6128 9.45408 12.6675C9.31778 12.6675 9.20672 12.67 9.09566 12.6675C7.90936 12.6327 6.89469 11.7214 6.76091 10.5561C6.71548 10.1527 6.75839 9.75432 6.92245 9.37586C6.95274 9.30614 6.94517 9.26381 6.88712 9.20654C5.65285 8.04873 4.42112 6.88842 3.18938 5.72562C2.56594 5.14298 1.94502 4.55785 1.32663 3.97023C0.960638 3.62164 0.960639 3.09875 1.31401 2.7402C1.40487 2.65305 1.49826 2.5684 1.58156 2.47627C1.74562 2.29699 1.93492 2.16005 2.17723 2.10527C2.26053 2.10527 2.34634 2.10527 2.42964 2.10527ZM1.87435 3.43987C1.87435 3.74115 2.10908 3.9752 2.41197 3.9752C2.70224 3.9752 2.94959 3.73617 2.95464 3.44983C2.95969 3.16598 2.70224 2.90703 2.41449 2.90454C2.11666 2.89956 1.87435 3.14108 1.87435 3.43987Z" fill="#F7941E"/>
<path d="M6.12023 4.55782C6.63008 4.38601 7.11218 4.22168 7.61699 4.05236C7.67 3.61911 7.72805 3.1535 7.7861 2.68539C8.46255 2.68539 9.12637 2.68539 9.80787 2.68539C9.86592 3.15101 9.92398 3.61662 9.98203 4.08722C10.502 4.19678 11.0017 4.35613 11.4712 4.59766C11.658 4.69227 11.8423 4.79187 12.0164 4.90392C12.0896 4.95122 12.13 4.93878 12.1906 4.89396C12.5364 4.62504 12.8847 4.35613 13.2229 4.09469C13.7 4.56529 14.1745 5.03339 14.6566 5.50897C14.3714 5.86752 14.0786 6.23603 13.7807 6.61201C14.2098 7.24943 14.5051 7.94661 14.6616 8.70603C15.0377 8.74836 15.4113 8.79318 15.7848 8.83551C15.8605 8.84298 15.9363 8.84547 16.0095 8.86539C16.0398 8.87286 16.0801 8.91519 16.0801 8.94009C16.0827 9.58 16.0801 10.2199 16.0776 10.8573C16.0776 10.8598 16.0726 10.8623 16.065 10.8698C15.6359 10.9221 15.2043 10.9793 14.7727 11.0242C14.6818 11.0341 14.649 11.0665 14.6339 11.1437C14.4925 11.8135 14.2224 12.431 13.859 13.0111C13.8337 13.0485 13.811 13.0883 13.7807 13.1331C14.071 13.4991 14.3638 13.8677 14.6465 14.2237C14.1694 14.6943 13.6949 15.1624 13.2103 15.638C12.8569 15.3641 12.4859 15.0778 12.1073 14.7864C11.9685 14.8661 11.8271 14.9508 11.6858 15.028C11.1784 15.3118 10.6383 15.506 10.0704 15.628C9.99717 15.643 9.96941 15.6704 9.96184 15.7351C9.9265 16.0389 9.88864 16.3426 9.8533 16.6464C9.83816 16.7784 9.82049 16.9103 9.80282 17.0473C9.1289 17.0473 8.46002 17.0473 7.78105 17.0473C7.74824 16.7834 7.7129 16.5169 7.68009 16.253C7.6599 16.0887 7.63971 15.9243 7.62709 15.76C7.61951 15.6604 7.56146 15.643 7.47564 15.623C6.779 15.4662 6.1278 15.2023 5.53212 14.8138C5.5195 14.8039 5.50183 14.7989 5.47912 14.7889C5.10808 15.0753 4.73452 15.3641 4.37358 15.6455C3.89401 15.1749 3.41949 14.7043 2.93739 14.2312C3.21756 13.8776 3.51035 13.5091 3.78548 13.1655C3.59112 12.7696 3.3892 12.3961 3.22009 12.0052C3.1166 11.7413 3.04593 11.4624 2.97021 11.1885C2.93992 11.0839 2.9172 11.0291 2.78343 11.0167C2.36696 10.9818 1.95049 10.9196 1.51635 10.8648C1.51383 10.825 1.50878 10.7752 1.50878 10.7279C1.50878 10.1626 1.5113 9.59743 1.50626 9.0347C1.50373 8.90523 1.5315 8.8629 1.67284 8.85045C2.08931 8.8131 2.50578 8.75334 2.92982 8.70105C3.03583 8.23295 3.17718 7.7748 3.40182 7.3291C3.93692 7.73496 4.46445 8.13335 4.9945 8.53423C4.94654 8.73093 4.88596 8.92266 4.8481 9.11936C4.62599 10.317 4.89354 11.4026 5.66337 12.3563C6.26157 13.0958 7.03898 13.5689 7.97793 13.7531C9.21219 13.9946 10.3379 13.7307 11.3223 12.9514C12.1401 12.3065 12.6323 11.4574 12.7762 10.439C12.9377 9.30362 12.655 8.2703 11.9205 7.37143C11.2794 6.5896 10.4465 6.119 9.4444 5.94969C8.83611 5.8476 8.23034 5.88744 7.63971 6.0692C7.56146 6.09161 7.52108 6.07916 7.46807 6.02189C7.03646 5.54632 6.59727 5.07074 6.12023 4.55782Z" fill="#F7941E"/>
<path d="M29.625 41.2372C23.1952 41.2372 16.7671 41.2372 10.3373 41.2372C8.85205 41.2372 7.71777 40.079 7.71777 38.5567C7.71777 34.0393 7.71777 29.5236 7.71777 25.0079C7.71777 23.4721 8.85039 22.3206 10.3572 22.3206C16.3646 22.3206 22.3703 22.3206 28.3776 22.3206C28.4674 22.3206 28.5572 22.3138 28.6454 22.3257C28.8832 22.3597 29.0529 22.569 29.0512 22.8105C29.0495 23.0537 28.8749 23.251 28.6321 23.2799C28.5439 23.2901 28.4541 23.285 28.3643 23.285C22.4218 23.285 16.481 23.285 10.5385 23.2884C10.2824 23.2884 10.0129 23.3054 9.77012 23.3819C9.06826 23.6065 8.6558 24.2545 8.65414 25.0709C8.65414 26.5319 8.65414 27.9929 8.65414 29.4539C8.65414 32.4252 8.67243 35.3983 8.64416 38.3696C8.63418 39.4565 9.33271 40.2797 10.5003 40.278C21.7017 40.2627 32.9048 40.2695 44.1062 40.2695C45.6895 40.2695 47.2712 40.2729 48.8545 40.2695C49.7194 40.2678 50.3564 39.8 50.551 39.0245C50.5975 38.8425 50.6125 38.6469 50.6125 38.4581C50.6158 34.0087 50.6142 29.5576 50.6158 25.1083C50.6158 23.9874 49.9406 23.2918 48.8412 23.285C48.4021 23.2816 47.9647 23.2867 47.5257 23.2816C47.1947 23.2782 47.0001 23.0911 47.0068 22.7918C47.0117 22.506 47.208 22.3172 47.5223 22.3206C48.1394 22.3257 48.7597 22.2917 49.3701 22.3631C50.6009 22.5094 51.5489 23.6337 51.5505 24.9025C51.5555 29.4845 51.5555 34.0682 51.5505 38.6503C51.5489 40.079 50.3797 41.2338 48.9593 41.2338C42.5145 41.2338 36.0681 41.2338 29.6233 41.2338L29.625 41.2372Z" fill="#F7941E"/>
<path d="M29.635 30.0849C23.8555 30.0849 18.076 30.0849 12.2981 30.0849C11.8358 30.0849 11.6811 29.9301 11.6811 29.4624C11.6811 28.2344 11.6811 27.0047 11.6811 25.7767C11.6811 25.1542 11.7925 25.0437 12.4096 25.0437C16.313 25.0437 20.2181 25.0437 24.1216 25.0437C31.679 25.0437 39.2348 25.0437 46.7922 25.0437C46.897 25.0437 47.0034 25.0403 47.1082 25.0471C47.3993 25.0624 47.5872 25.2341 47.5889 25.5318C47.5955 26.8857 47.5955 28.2378 47.5889 29.5917C47.5889 29.9012 47.3943 30.0781 47.0932 30.0883C46.9951 30.0917 46.8986 30.0883 46.8005 30.0883C41.0776 30.0883 35.3563 30.0883 29.6333 30.0883L29.635 30.0849ZM23.1736 29.1103C23.1736 28.9862 23.1736 28.8875 23.1736 28.7889C23.1736 28.3824 23.1653 27.9742 23.1769 27.5694C23.1852 27.27 23.3865 27.0795 23.6576 27.0846C23.9154 27.0897 24.1016 27.2768 24.1232 27.5626C24.1316 27.6697 24.1266 27.7786 24.1266 27.8857C24.1266 28.2888 24.1266 28.6936 24.1266 29.1052H27.1635C27.1635 29.0083 27.1635 28.9266 27.1635 28.845C27.1635 28.4385 27.1602 28.032 27.1635 27.6238C27.1668 27.3279 27.3115 27.1357 27.546 27.0932C27.8637 27.0353 28.1082 27.2496 28.1132 27.6068C28.1198 28.1017 28.1132 28.5984 28.1132 29.1069H31.1535C31.1535 29.0134 31.1535 28.9317 31.1535 28.8518C31.1535 28.4368 31.1485 28.0218 31.1551 27.6068C31.1618 27.2428 31.4245 27.0217 31.7455 27.0966C31.9717 27.1493 32.1031 27.3449 32.1048 27.6476C32.1081 28.1273 32.1048 28.6086 32.1048 29.1001H35.1417C35.1417 28.5984 35.1384 28.117 35.1417 27.6374C35.1451 27.2972 35.3247 27.0897 35.6074 27.0846C35.9035 27.0795 36.0847 27.2887 36.0914 27.6425C36.0947 27.8245 36.0914 28.0082 36.0914 28.1902V29.1035H39.1333C39.1333 29.0049 39.1333 28.9215 39.1333 28.8399C39.1333 28.4164 39.1267 27.9929 39.1367 27.5694C39.1433 27.2836 39.3329 27.0914 39.5907 27.0846C39.8551 27.0761 40.0464 27.2479 40.078 27.5337C40.0913 27.6561 40.0863 27.782 40.0863 27.9061C40.0863 28.3024 40.0863 28.697 40.0863 29.1035H43.1249C43.1249 29.0066 43.1249 28.9266 43.1249 28.845C43.1249 28.4215 43.1199 27.998 43.1283 27.5745C43.1349 27.2768 43.3295 27.0829 43.6006 27.0812C43.87 27.0812 44.0546 27.2734 44.0696 27.5762C44.0746 27.6748 44.0696 27.7752 44.0696 27.8755C44.0696 28.2803 44.0696 28.6851 44.0696 29.1001H46.6209V26.0182H12.6491V29.1086H15.1954C15.1954 29.0049 15.1954 28.9164 15.1954 28.8263C15.1954 28.4028 15.1904 27.9793 15.2004 27.5558C15.207 27.3007 15.37 27.1221 15.5945 27.0897C15.8191 27.0574 16.0286 27.1714 16.1018 27.384C16.1334 27.4758 16.1417 27.5779 16.1417 27.6765C16.145 28.1477 16.1434 28.6188 16.1434 29.1001H19.1703C19.1753 29.0219 19.182 28.9641 19.182 28.9062C19.182 28.4657 19.1737 28.0252 19.187 27.5864C19.1953 27.2666 19.3932 27.0795 19.6759 27.0863C19.9437 27.0949 20.1233 27.2921 20.1316 27.5949C20.1366 27.7446 20.1316 27.8942 20.1316 28.0439C20.1316 28.3977 20.1316 28.7498 20.1316 29.1103H23.1736Z" fill="#F7941E"/>
<path d="M29.6333 37.1586C27.6458 37.1586 25.6583 37.1586 23.6709 37.1586C23.1885 37.1586 23.0372 37.009 23.0372 36.5259C23.0355 35.4561 23.0355 34.3846 23.0372 33.3148C23.0372 32.8488 23.1985 32.6855 23.6509 32.6855C27.6425 32.6855 31.6341 32.6855 35.6257 32.6855C36.0664 32.6855 36.2344 32.8504 36.2361 33.2944C36.2378 34.3812 36.2394 35.468 36.2361 36.5549C36.2361 36.9937 36.0714 37.1569 35.6473 37.1569C33.6432 37.1569 31.6391 37.1569 29.635 37.1569L29.6333 37.1586ZM27.6126 36.1773H31.6541V33.6822H27.6126V36.1773ZM23.9869 36.1739H26.6429V33.6822H23.9869V36.1739ZM35.2731 36.1841V33.6822H32.6254V36.1841H35.2731Z" fill="#F7941E"/>
<path d="M17.6036 38.7268C15.5529 38.7268 13.8914 37.026 13.8898 34.9272C13.8898 32.8147 15.5446 31.1258 17.6186 31.1241C19.656 31.1241 21.3175 32.8215 21.3175 34.9067C21.3175 37.026 19.6643 38.7285 17.602 38.7268H17.6036ZM17.5953 37.7607C19.1221 37.7658 20.3728 36.4953 20.3778 34.934C20.3828 33.3726 19.1387 32.0919 17.6136 32.0851C16.0918 32.0783 14.8361 33.3539 14.8295 34.9153C14.8228 36.4749 16.0685 37.7556 17.5953 37.7607Z" fill="#F7941E"/>
<path d="M41.6364 38.7268C39.7304 38.6877 38.1471 37.2267 37.9708 35.3422C37.7862 33.376 39.0069 31.6361 40.8747 31.2092C41.4634 31.0748 42.0505 31.0918 42.6343 31.25C42.9702 31.3401 43.1283 31.5782 43.0517 31.8623C42.9736 32.1548 42.7407 32.2688 42.3965 32.1837C40.5387 31.7245 38.8439 33.109 38.8972 35.0411C38.9371 36.4409 40.078 37.657 41.4418 37.7522C42.8821 37.8526 44.1844 36.8457 44.3856 35.4255C44.4438 35.0173 44.3856 34.5853 44.3357 34.172C44.2925 33.8233 44.3856 33.5801 44.6717 33.5087C44.9461 33.4406 45.169 33.5971 45.2588 33.9237C45.9224 36.3184 44.0679 38.7761 41.6364 38.7268Z" fill="#F7941E"/>
<path d="M43.1798 23.285C42.912 23.285 42.6443 23.2884 42.3782 23.285C42.0472 23.2799 41.8526 23.0945 41.8559 22.7986C41.8593 22.5128 42.0538 22.3257 42.3665 22.324C42.9104 22.3189 43.4526 22.3189 43.9964 22.324C44.3058 22.3257 44.5054 22.5179 44.507 22.802C44.5087 23.0894 44.3174 23.2799 44.0064 23.2867C43.7303 23.2935 43.4559 23.2867 43.1798 23.2867V23.285Z" fill="#F7941E"/>
<path d="M32.8532 23.285C32.5854 23.285 32.3177 23.2901 32.0499 23.285C31.7389 23.2782 31.541 23.0843 31.5426 22.8037C31.5426 22.5281 31.7522 22.3257 32.0549 22.3223C32.6071 22.3172 33.1576 22.3172 33.7097 22.3223C33.9941 22.3257 34.2004 22.5281 34.207 22.7935C34.2137 23.069 34.0091 23.2765 33.7064 23.2833C33.422 23.2901 33.1393 23.2833 32.8549 23.2833L32.8532 23.285Z" fill="#F7941E"/>
<path d="M38.0273 23.285C37.7512 23.285 37.4751 23.2901 37.2007 23.285C36.8897 23.2782 36.6968 23.086 36.6984 22.8003C36.7018 22.5179 36.9014 22.3257 37.2107 22.3223C37.7546 22.3172 38.2968 22.3189 38.8406 22.3223C39.1433 22.324 39.3545 22.5247 39.3595 22.7969C39.3645 23.0809 39.1516 23.2799 38.8306 23.285C38.5629 23.2884 38.2951 23.285 38.0273 23.285Z" fill="#F7941E"/>
<path d="M19.5612 34.8455C19.5678 35.1772 19.3915 35.3966 19.1105 35.4068C18.841 35.417 18.6514 35.2197 18.6248 34.9034C18.5749 34.3115 18.2057 33.9305 17.6302 33.8778C17.3159 33.8488 17.123 33.6583 17.1296 33.3879C17.1379 33.1022 17.3558 32.9151 17.6751 32.9185C18.6797 32.9321 19.5429 33.8148 19.5612 34.8438V34.8455Z" fill="#F7941E"/>
</svg>
