<svg width="68" height="60" viewBox="0 0 68 60" fill="none" xmlns="http://www.w3.org/2000/svg">
<path d="M11.2639 49.9413C10.037 48.0431 8.67525 46.2182 7.61282 44.2307C5.1978 39.7131 4.19249 34.8337 4.40497 29.3681C1.90541 29.4826 12.3355 29.3841 8.45134 29.3429C8.18631 37.8424 10.9098 44.9108 17.3163 50.0192C27.077 57.7997 37.4522 57.7676 48.0125 51.2327C48.7368 52.2173 49.4657 53.2065 50.3727 54.4406C48.8236 55.3474 47.4345 56.3388 45.906 57.0235C35.0189 61.9006 24.7693 60.8061 15.2166 53.5797C14.947 53.3759 14.6431 53.2179 14.3552 53.0393C13.3248 52.0066 12.2944 50.974 11.2639 49.9413Z" fill="#F7941E"/>
<path d="M0 30.1351L6.52994 18.801L13.0576 30.1351H0Z" fill="#F7941E"/>
<path d="M56.7359 10.0587C57.9628 11.9569 59.3246 13.7819 60.387 15.7694C62.802 20.287 63.8073 25.1664 63.5948 30.632C66.0944 30.5175 55.6643 30.6159 59.5485 30.6572C59.8135 22.1577 57.09 15.0893 50.6835 9.9809C40.9228 2.2004 30.5476 2.23244 19.9873 8.76734C19.263 7.78275 18.5341 6.79359 17.6271 5.55942C19.1762 4.65269 20.5653 3.66123 22.0938 2.9766C32.9809 -1.90053 43.2305 -0.806029 52.7832 6.42036C53.0528 6.62415 53.3567 6.78214 53.6446 6.96073C54.675 7.9934 55.7054 9.02608 56.7359 10.0587Z" fill="#F7941E"/>
<path d="M67.9998 29.8649L61.4722 41.1991L54.9423 29.8649H67.9998Z" fill="#F7941E"/>
<path d="M25.0754 31.536C25.0025 31.4308 24.953 31.2819 24.8524 31.2278C24.5951 31.0906 24.3013 30.9606 24.0506 31.2293C23.8042 31.4929 23.5899 31.7857 23.2685 32.0616C23.2685 31.8441 23.2678 31.6258 23.2685 31.4082C23.2707 30.8598 23.1351 30.3524 22.8231 29.8975C22.2473 29.0601 21.2057 28.9666 20.5169 29.715C20.2574 29.9961 20.0636 30.3378 19.8019 30.7043C19.7633 30.5174 19.6918 30.3575 19.7057 30.2049C19.7859 29.2952 19.4119 28.5563 18.8296 27.8247C19.5541 28.1021 20.2276 28.3599 20.9011 28.6183C22.1897 29.1134 23.477 29.6121 24.7693 30.0961C24.8764 30.1363 25.0186 30.0801 25.1447 30.0691C25.0572 29.9866 24.9843 29.8676 24.8808 29.8274C22.4521 28.8878 20.0213 27.9539 17.5875 27.0288C17.4665 26.9828 17.3127 27.023 17.1327 27.023C17.2398 26.8478 17.3353 26.6382 17.4826 26.4761C17.538 26.4148 17.7267 26.4221 17.8295 26.4623C19.713 27.2019 21.592 27.9525 23.4726 28.6987C24.1337 28.9608 24.7977 29.2171 25.4362 29.4668C25.7227 29.0017 25.9523 28.541 26.2657 28.1474C26.5769 27.7568 26.9734 27.4341 27.3459 27.0675C27.1826 26.9989 27.0106 26.9266 26.7657 26.8229C27.2781 26.3849 27.7869 26.0118 28.2198 25.5642C28.6893 25.0787 29.1572 24.9567 29.7381 25.3181C29.8394 25.3809 29.9612 25.4109 30.0734 25.4561C30.5851 25.6642 30.5844 25.7073 30.3548 26.2118C30.2345 26.4754 30.1966 26.7762 30.0924 27.1668C29.7265 27.1668 29.276 27.207 28.835 27.1588C27.9152 27.0573 27.2307 27.456 26.6775 28.1226C25.5135 29.5259 25.1053 31.1329 25.4836 32.9217C25.6359 33.6409 26.0295 34.16 26.7672 34.4149C27.5908 34.6996 28.3933 35.0457 29.2009 35.3757C29.4349 35.4714 29.6456 35.6232 29.8817 35.7116C30.2032 35.8328 30.5384 35.9182 30.9678 36.0489C31.2877 37.2507 31.6383 38.5657 32.0108 39.9639C31.4204 39.7843 30.8971 39.6251 30.3242 39.4513C30.193 40.2296 30.0734 40.9788 29.9378 41.7257C29.8059 42.4514 29.701 43.1867 29.5027 43.8949C29.2899 44.6535 28.7578 44.8667 28.0267 44.5462C27.2388 44.2001 26.4625 43.8285 25.687 43.4568C25.5951 43.4123 25.4778 43.2955 25.4748 43.2093C25.4559 42.6172 25.4654 42.0236 25.4654 41.4015C26.0725 41.3314 26.6476 41.2577 27.2235 41.2022C27.5697 41.1693 27.749 40.9809 27.6929 40.6538C27.558 39.8638 27.8423 39.3849 28.5981 39.0753C29.4276 38.7358 29.8278 38.0582 29.7789 37.1353C29.7622 36.8221 29.8176 36.5038 29.7928 36.192C29.7819 36.0526 29.6521 35.9226 29.5763 35.7882C29.5311 35.8028 29.4852 35.8167 29.44 35.8313C29.3671 36.1949 29.268 36.5556 29.2257 36.9221C29.1448 37.6245 28.7826 38.0575 28.1156 38.2941C27.386 38.5525 26.671 38.803 25.8947 38.5007C25.6753 38.4153 25.5973 38.5051 25.5689 38.7321C25.52 39.1271 25.4544 39.5229 25.359 39.9091C25.2861 40.2026 25.0798 40.3946 24.7576 40.3968C24.4573 40.399 24.1439 40.4312 23.8574 40.3618C22.818 40.1114 21.8129 39.758 20.9054 39.1775C20.7764 39.095 20.6467 38.9052 20.6379 38.7584C20.5352 37.0207 19.5555 35.7583 18.4097 34.5864C18.0977 34.2674 17.7588 33.9731 17.4104 33.6935C17.1203 33.4606 16.9381 33.1773 16.8725 32.8188C16.7223 31.9974 16.5372 31.1789 16.4432 30.3509C16.328 29.3412 16.89 28.622 17.6225 28.024C17.8886 27.8072 18.3536 27.8517 18.6313 28.1146C18.8121 28.2861 18.9666 28.4993 19.0832 28.7206C19.4039 29.3266 19.4083 29.3536 18.8463 29.7311C18.4272 30.0129 18.323 30.4064 18.3106 30.8569C18.2814 31.8828 18.5416 32.8298 19.1452 33.6628C19.2837 33.8541 19.5118 33.9797 19.6984 34.136C19.7953 33.9052 19.9593 33.6789 19.9761 33.4423C20.0257 32.7538 20.0038 32.0609 20.033 31.3709C20.0636 30.6525 20.4375 30.0954 21.006 29.7143C21.6773 29.2638 22.517 29.6142 22.7532 30.3933C22.7772 30.4714 22.7364 30.6145 22.6744 30.6671C21.7612 31.4476 21.6642 32.4581 21.8304 33.5548C21.9033 34.0337 21.9485 34.5178 22.001 34.9997C22.033 35.2939 22.208 35.4042 22.4784 35.3582C22.7473 35.3122 23.1081 35.3779 23.1424 34.9588C23.1788 34.512 23.2022 34.0622 23.2029 33.6139C23.2044 32.7443 23.6942 32.1113 24.211 31.4951C24.2707 31.4235 24.4515 31.414 24.5652 31.4352C24.7124 31.4629 24.848 31.5513 24.9887 31.6133C25.0178 31.5871 25.0477 31.5615 25.0769 31.5352L25.0754 31.536ZM25.106 32.7173C24.8823 33.2861 24.5433 33.83 24.7102 34.4558C24.8998 35.1669 25.1352 35.8656 25.3415 36.5731C25.4384 36.9068 25.6833 36.9448 25.9676 36.9192C26.2664 36.8922 26.5456 36.8426 26.6119 36.4665C26.687 36.0379 26.7708 35.6101 26.8721 35.1873C26.9392 34.9055 26.8918 34.742 26.5806 34.6544C25.9078 34.4645 25.5171 33.9746 25.2963 33.3335C25.2263 33.1306 25.1694 32.9225 25.106 32.7173Z" fill="#F7941E"/>
<path d="M40.1613 22.9751C39.9659 22.6984 39.7881 22.4458 39.5351 22.0873C40.2968 21.904 40.963 21.6668 41.646 21.5996C42.5338 21.512 43.4354 21.5499 44.3305 21.5543C44.5579 21.5558 44.7117 21.5353 44.7263 21.2287C44.2175 21.0659 43.7044 20.895 43.1876 20.7366C38.9761 19.4442 34.7646 18.1534 30.5523 16.8661C30.0778 16.7208 29.5945 16.6033 29.1157 16.4726C28.0959 16.1937 27.1834 16.5033 26.2941 16.972C26.1542 17.0457 25.9822 17.0582 25.805 17.037C26.238 16.6193 26.7723 16.4346 27.3175 16.2587C28.2578 15.9557 29.1397 16.228 30.0173 16.5084C30.2979 16.5982 30.4772 16.5807 30.5924 16.2959C30.6055 16.263 30.6339 16.236 30.65 16.2032C30.9751 15.5256 31.5341 15.2562 32.2615 15.2394C32.4532 15.235 32.6384 15.1007 32.833 15.0707C33.0983 15.0306 33.3899 14.9605 33.6348 15.0284C35.9089 15.6629 38.1758 16.3222 40.4441 16.9778C43.0491 17.7306 45.6535 18.4841 48.2563 19.2442C48.5901 19.3413 48.9123 19.4785 49.2848 19.6136C48.6492 19.5786 48.069 19.5099 47.4917 19.5267C46.9997 19.5413 46.5099 19.6487 46.0208 19.729C45.6287 19.7932 45.367 20.0349 45.2205 20.3963C45.098 20.6993 44.98 21.0053 44.8852 21.317C44.8087 21.5704 44.8772 21.7339 45.1775 21.823C47.069 22.3852 48.9546 22.9686 50.8417 23.5454C50.9437 23.5768 51.0443 23.6147 51.1741 23.6593C51.0538 24.1638 50.9372 24.6515 50.8213 25.1349C50.5567 25.0319 50.3234 24.9363 50.0858 24.8501C49.3978 24.5997 48.8868 24.7129 48.4648 25.324C48.1958 25.7131 48.0085 26.1724 47.8569 26.6251C47.6812 27.1508 47.5843 27.7028 47.4225 28.3723C47.1776 28.1715 46.9552 28.0459 46.8138 27.8597C46.5682 27.5363 46.2358 27.4523 45.9005 27.6911C45.4187 28.0342 45.1199 28.8228 45.2496 29.4105C45.3582 29.9019 45.6855 30.0414 46.1731 29.9121C46.4071 29.8501 46.6885 29.9669 46.9968 30.01C46.9458 30.2392 46.9108 30.3977 46.87 30.5817C46.3386 30.3451 45.8255 30.1392 45.3335 29.8917C44.5696 29.5069 43.8618 29.5909 43.181 30.0786C43.1235 30.1195 43.0593 30.1509 42.9624 30.2078V28.3124C43.1563 28.3431 43.3334 28.3621 43.5061 28.3993C44.3101 28.5716 44.9508 28.3139 45.3889 27.629C46.1199 26.4864 46.2912 25.2612 45.7897 23.9835C45.5674 23.4162 45.1512 23.0518 44.504 23.0065C44.2518 22.989 44.0032 22.9182 43.7503 22.8956C43.2977 22.8547 42.923 23.0328 42.6096 23.3497C42.0097 23.9572 41.7481 24.7151 41.665 25.543C41.6387 25.8066 41.6606 26.0753 41.6606 26.3024C41.1431 26.2724 40.6431 26.2126 40.1452 26.2235C39.7582 26.2323 39.3784 26.3286 39.135 26.6996C39.084 26.777 38.9506 26.8018 38.8514 26.8434C38.7851 26.8711 38.713 26.885 38.6437 26.9076C37.0963 27.4056 37.2187 27.4647 37.2034 28.8688C36.6254 28.4081 36.0868 27.9787 35.4694 27.4866C35.9942 27.5363 36.2719 27.2778 36.5474 27.0018C37.5241 26.0227 38.4965 25.0385 39.4885 24.0762C40.2057 23.3811 41.0753 22.9306 42.0177 22.6167C42.0979 22.5896 42.1992 22.5867 42.2554 22.5349C42.3465 22.4502 42.4092 22.3341 42.4835 22.2304C42.3647 22.1903 42.2218 22.0866 42.13 22.1209C41.5862 22.3217 41.0541 22.5517 40.5199 22.7773C40.4091 22.824 40.3078 22.8919 40.1569 22.9751H40.1613Z" fill="#F7941E"/>
<path d="M38.4119 21.842C36.6866 22.8671 35.1975 24.0901 33.7237 25.3335C33.3541 25.6452 33.3644 25.7613 33.7798 26.4046C33.4649 26.2761 33.196 26.1782 32.938 26.0578C32.4875 25.8468 32.0254 25.7343 31.529 25.8322C31.2936 25.8789 31.1427 25.8176 31.0691 25.5657C30.9634 25.205 30.6718 25.0458 30.3395 24.9202C26.3276 23.4118 22.318 21.8975 18.3077 20.3846C18.1845 20.3379 18.0635 20.2853 17.8208 20.186C18.2129 19.8845 18.5067 19.5516 18.8747 19.3953C20.272 18.8024 21.7225 18.3658 23.2379 18.2008C23.5229 18.1701 23.8429 18.2074 24.1096 18.3096C27.3561 19.5508 30.5946 20.8118 33.8381 22.0588C34.0174 22.1275 34.2864 22.3356 34.3928 22.0238C34.4941 21.7274 34.1632 21.7033 33.9774 21.631C30.806 20.3985 27.6345 19.1653 24.4551 17.9548C24.1322 17.8321 24.1833 17.6532 24.2204 17.4261C24.2671 17.1458 24.4792 17.1976 24.6446 17.2436C25.5164 17.486 26.3947 17.7131 27.2512 18.0029C30.8511 19.2223 34.4446 20.462 38.0395 21.6945C38.1495 21.7325 38.2567 21.7792 38.4119 21.8405V21.842Z" fill="#F7941E"/>
<path d="M32.2149 41.1007C32.4409 41.541 32.6464 42.0338 32.9358 42.4704C33.0925 42.7062 33.3804 42.8676 33.6333 43.0231C33.8476 43.1553 34.1027 43.2188 34.3294 43.3327C35.3659 43.8533 36.2785 43.5948 37.1189 42.8939C37.8325 42.2988 38.3128 41.5315 38.6874 40.7261C39.0169 40.897 39.3332 41.0613 39.6751 41.2387C39.3325 42.7712 39.1226 44.322 40.1234 45.8283C39.2297 46.2196 38.3551 46.6227 37.4607 46.9761C37.2894 47.044 37.0292 46.9534 36.8331 46.8782C35.5445 46.3832 34.2463 45.9064 32.9831 45.3522C32.3585 45.0784 31.8184 45.0792 31.2236 45.3836C30.5603 45.7239 30.3198 45.6786 29.6026 45.1975C30.6937 45.0208 31.0742 44.2001 31.3964 43.3261C31.677 42.5646 31.9561 41.8023 32.2149 41.1007ZM36.7377 46.2693C36.7792 46.2452 36.82 46.2211 36.8616 46.197C36.7734 45.7027 36.6961 45.2055 36.5853 44.7163C36.5664 44.6323 36.414 44.5571 36.3091 44.517C35.4264 44.1804 34.5408 43.8511 33.6552 43.5233C33.1559 43.3385 32.6551 43.156 32.1522 42.9815C32.0866 42.9589 32.0021 42.9917 31.9263 42.999C31.9532 43.0808 31.9678 43.1706 32.0101 43.2429C32.0378 43.2896 32.1063 43.313 32.1573 43.3458C33.5808 44.2695 35.0044 45.1938 36.4293 46.1152C36.5256 46.1773 36.6342 46.2182 36.7377 46.2693Z" fill="#F7941E"/>
<path d="M30.6551 26.6996C30.6594 26.4345 30.7994 26.3447 31.1004 26.3038C31.849 26.2023 32.5269 26.3447 33.2098 26.6528C33.919 26.9734 34.6071 27.2953 35.1939 27.8305C35.7486 28.3358 36.355 28.7863 36.9541 29.2411C37.1611 29.3981 37.2369 29.5646 37.2253 29.8209C37.2042 30.2692 37.218 30.7197 37.2209 31.1687C37.2238 31.6674 37.3886 32.0186 37.9053 32.2362C38.9426 32.6728 39.9506 33.1795 40.9638 33.6716C41.0534 33.7147 41.1372 33.8592 41.146 33.9636C41.1926 34.5032 41.2138 35.045 41.2458 35.6174C41.127 35.5531 40.9842 35.4838 40.8493 35.4013C38.7006 34.0812 36.554 32.7575 34.4016 31.4432C34.1844 31.3103 34.1013 31.1577 34.0546 30.9058C33.9569 30.3758 33.8461 29.8347 33.6377 29.3426C33.427 28.8454 32.9883 28.5789 32.4401 28.4343C31.6354 28.2226 30.8533 27.9218 30.0625 27.5903C30.1696 27.5779 30.279 27.575 30.3832 27.5516C30.5224 27.5195 30.6879 27.5064 30.7877 27.4209C30.9124 27.3143 31.0392 27.1464 31.0501 26.9967C31.056 26.9157 30.822 26.8171 30.6565 26.6988L30.6551 26.6996ZM34.7296 28.0693C34.7318 27.6925 34.4934 27.4034 34.1698 27.391C33.7835 27.3757 33.43 27.7736 33.4358 28.2182C33.4402 28.5942 33.6843 28.8746 34.0116 28.879C34.3797 28.8848 34.7267 28.4928 34.7296 28.0693Z" fill="#F7941E"/>
<path d="M39.2662 37.3923C39.1773 37.0631 39.1168 36.7783 39.0235 36.5045C38.7946 35.8313 38.382 35.3071 37.7085 35.0377C37.2391 34.85 36.7668 34.6091 36.2763 34.5463C35.1859 34.4076 34.3987 35.0267 33.7689 35.8167C33.3206 36.3797 32.9788 37.028 32.5837 37.6486C32.4015 36.9879 32.204 36.2913 32.0247 35.5911C32.0093 35.5305 32.0997 35.429 32.161 35.3655C32.3038 35.2173 32.4678 35.0895 32.6063 34.9376C32.8206 34.7018 33.0342 34.5339 33.3687 34.4185C34.1035 34.1652 34.3812 33.5 34.4774 32.7633C34.4941 32.6333 34.4912 32.5012 34.5 32.2975C37.1888 33.9352 39.8398 35.5502 42.5054 37.1733C42.2269 37.4362 42.0207 37.5836 41.6569 37.3558C41.3268 37.1492 40.9208 37.0141 40.533 36.9667C40.2356 36.9302 39.912 37.0667 39.608 37.1543C39.49 37.1879 39.3945 37.2996 39.2662 37.3909V37.3923Z" fill="#F7941E"/>
<path d="M51.7156 23.33C49.5129 22.6605 47.4465 22.0318 45.3874 21.4061C45.4894 20.5248 45.7526 20.2028 46.5383 20.0736C47.3904 19.9341 48.2541 19.8779 49.0953 20.124C50.2425 20.4591 51.0633 21.1987 51.5305 22.2969C51.6522 22.5816 51.6464 22.9211 51.7156 23.33Z" fill="#F7941E"/>
<path d="M45.031 37.6296C42.2517 38.7241 40.4448 43.8423 42.0265 46.362C41.1176 46.3584 40.2152 45.7159 39.9258 44.8397C39.5424 43.6795 39.6787 42.523 39.9666 41.3694C40.0155 41.3555 40.0541 41.3292 40.0811 41.338C40.8501 41.5833 41.3749 41.2087 41.7809 40.6254C42.3807 39.7638 42.6001 38.8278 42.1985 37.8078C42.5068 37.5223 42.7692 37.3741 43.2445 37.5844C43.6169 37.7494 44.1162 37.6253 44.5594 37.6289C44.7168 37.6304 44.8735 37.6296 45.031 37.6296Z" fill="#F7941E"/>
<path d="M33.7959 25.8526C34.2376 25.4802 34.5663 25.1758 34.922 24.9078C35.976 24.112 37.0299 23.3161 38.1051 22.5488C38.616 22.1837 39.4316 22.4721 39.6598 23.0606C39.6846 23.1241 39.6386 23.2489 39.584 23.3044C38.4185 24.488 37.2464 25.6642 36.078 26.8449C35.8696 27.0559 35.6268 27.1033 35.387 26.9463C34.8739 26.6119 34.3761 26.2542 33.7959 25.8526Z" fill="#F7941E"/>
<path d="M47.4079 41.1445C47.2818 42.8829 46.6426 44.7054 45.1133 46.1364C44.727 46.4971 44.2809 46.7687 43.7438 46.8373C42.9799 46.9344 42.364 46.5358 42.0323 45.7166C41.6198 44.6966 41.6759 43.6459 41.9004 42.6018C42.2284 41.0751 42.8625 39.6988 44.0688 38.6591C44.3721 38.3977 44.7496 38.1867 45.1286 38.056C45.9078 37.7873 46.5995 38.105 46.9895 38.8344C47.2803 39.3776 47.4195 40.0398 47.4093 41.1452L47.4079 41.1445ZM42.2736 43.9504C42.329 44.2264 42.3632 44.682 42.5141 45.0945C42.8997 46.1539 43.8757 46.4569 44.7934 45.8013C45.1527 45.5443 45.48 45.2179 45.7533 44.8704C46.4421 43.9949 46.8182 42.9727 46.9917 41.8797C47.1251 41.0386 47.1061 40.207 46.6688 39.4389C46.3299 38.8446 45.7293 38.589 45.09 38.8234C44.7576 38.9453 44.4224 39.1352 44.168 39.3776C42.9157 40.5684 42.3815 42.0791 42.2736 43.9504Z" fill="#F7941E"/>
<path d="M42.5834 33.895C41.9164 33.7731 41.2954 33.5708 40.7764 33.1583C40.6336 33.0451 40.5534 32.7757 40.5498 32.5757C40.5272 31.3264 40.5301 30.0771 40.5388 28.8279C40.5388 28.7279 40.6234 28.5731 40.7072 28.5388C41.3078 28.2934 41.9186 28.0722 42.5834 27.8218V33.895Z" fill="#F7941E"/>
<path d="M33.7609 31.0198C33.3571 30.8372 33.0101 30.6686 32.6544 30.5211C31.5647 30.0698 30.408 30.7394 30.2228 31.9237C30.0982 32.7253 30.3045 33.4898 30.4933 34.255C30.6026 34.6982 30.725 35.1384 30.849 35.6094C30.3351 35.6868 29.9444 35.5035 29.6995 35.1443C29.4743 34.8135 29.2687 34.4178 29.217 34.0294C28.9691 32.1785 29.5085 30.5722 30.889 29.2944C31.3759 28.844 31.9758 28.5453 32.653 28.8213C33.3396 29.101 33.5918 29.7296 33.7142 30.4123C33.7477 30.5963 33.7441 30.7876 33.7601 31.019L33.7609 31.0198Z" fill="#F7941E"/>
<path d="M25.1636 41.4993C25.1636 42.1754 25.1643 42.8515 25.1636 43.5276C25.1636 43.7795 25.0324 43.9409 24.7948 44.0037C23.6701 44.3023 22.5841 44.2388 21.5804 43.6014C21.2312 43.3794 21.0826 43.0501 21.1037 42.6099C21.1379 41.8856 21.1132 41.1584 21.1132 40.3611C21.5097 40.548 21.8428 40.7042 22.1759 40.8619C22.4172 40.9758 22.6482 41.1241 22.9011 41.1956C23.329 41.3168 23.4449 41.5709 23.4092 41.9951C23.3691 42.477 23.4092 42.9655 23.3968 43.4503C23.3895 43.7204 23.5105 43.827 23.7649 43.8204C23.8494 43.8182 23.9347 43.8226 24.0193 43.8182C24.7532 43.7817 24.8706 43.6613 24.8699 42.9421C24.8699 42.5412 24.8597 42.1411 24.8735 41.741C24.8772 41.6395 24.953 41.541 24.9952 41.4402C25.0514 41.4599 25.1075 41.4789 25.1636 41.4993Z" fill="#F7941E"/>
<path d="M20.9827 24.8348C21.3595 24.4829 21.6533 24.1821 21.9754 23.9156C22.3953 23.5687 22.8064 23.0489 23.2794 22.9737C23.7503 22.8985 24.294 23.2818 24.805 23.4651C24.9858 23.5301 25.1651 23.5972 25.4056 23.6863C24.9537 24.0696 24.5411 24.4142 24.1359 24.7662C23.9442 24.9326 23.7233 25.0874 23.5899 25.2955C23.388 25.6109 23.1861 25.6438 22.8516 25.5043C22.2838 25.2678 21.6934 25.086 20.9827 24.8348Z" fill="#F7941E"/>
<path d="M18.3704 23.7863C18.8427 22.8284 19.7101 22.4246 20.4768 21.9077C20.5155 21.8814 20.5935 21.8924 20.6445 21.9106C21.2779 22.1428 21.9091 22.3801 22.5906 22.6349C22.189 22.9591 21.81 23.2358 21.4659 23.552C21.1569 23.836 20.8945 24.1704 20.5957 24.4654C20.5242 24.5362 20.3653 24.5982 20.2837 24.5668C19.6525 24.3252 19.0307 24.0594 18.3704 23.7863Z" fill="#F7941E"/>
<path d="M28.2352 24.7501C27.5208 25.3787 26.8524 25.968 26.1104 26.6214C25.4501 26.3936 24.692 26.1315 23.8407 25.838C24.3283 25.4131 24.7926 25.0765 25.1716 24.661C25.7708 24.0039 26.3947 23.8834 27.1666 24.339C27.4742 24.5208 27.8408 24.6026 28.2352 24.7501Z" fill="#F7941E"/>
<path d="M46.9968 38.1502C46.4406 37.8969 45.9086 37.6545 45.3531 37.4011C46.3153 36.8783 46.9283 36.0394 47.2854 35.0377C47.5099 34.4068 47.6112 33.7271 47.7213 33.0619C47.8591 32.2296 47.9495 31.3899 48.0515 30.6196C48.4225 30.5481 48.7039 30.4933 49.0027 30.4349C48.3409 32.9809 47.6637 35.5845 46.9968 38.1502Z" fill="#F7941E"/>
<path d="M16 22.5663C16.5051 21.9406 16.9534 21.3769 17.4155 20.8249C17.4563 20.7767 17.5992 20.7745 17.6757 20.8023C18.3674 21.052 19.0548 21.3134 19.7982 21.5915C19.4979 21.8099 19.21 21.9785 18.9731 22.2012C18.6153 22.5371 18.2953 22.9131 17.952 23.265C17.8791 23.3395 17.7406 23.4541 17.6903 23.43C17.1502 23.1716 16.621 22.889 16 22.5663Z" fill="#F7941E"/>
<path d="M49.3927 33.7344C49.9029 33.8563 50.4284 33.9819 50.9627 34.1097C49.1878 35.4779 48.5428 37.2244 49.1098 39.4433C48.7607 39.2834 48.4218 39.1374 48.0952 38.968C48.042 38.9402 48.0056 38.7971 48.0245 38.7241C48.4524 37.0864 48.889 35.4517 49.3256 33.8162C49.3307 33.7957 49.3548 33.7804 49.3927 33.7344Z" fill="#F7941E"/>
<path d="M36.4024 35.4582C37.3026 34.9734 38.3361 35.429 38.7006 36.4892C39.2465 38.0758 38.9207 39.5754 38.1969 41.0196C37.7661 41.8797 37.1764 42.6099 36.3083 43.0742C35.4264 43.5466 34.4263 43.267 34.0736 42.4967C34.3629 42.6143 34.6756 42.8041 35.0124 42.8654C35.7238 42.9954 36.3186 42.6705 36.8302 42.2171C37.8456 41.3175 38.3915 40.1574 38.5424 38.8249C38.6 38.3145 38.5985 37.7749 38.4979 37.2741C38.2472 36.0197 37.6488 35.5349 36.4024 35.4582Z" fill="#F7941E"/>
<path d="M36.667 34.9574C34.4198 35.9255 33.6224 37.8341 33.2412 40.1223C33.0794 39.5046 32.892 38.9556 32.8075 38.3904C32.7703 38.1429 32.9197 37.8523 33.0276 37.6004C33.4241 36.6739 33.9642 35.8503 34.8017 35.2567C35.4504 34.7967 36.0817 34.6989 36.667 34.9574Z" fill="#F7941E"/>
<path d="M51.2302 34.5645C51.9831 34.2674 52.5378 34.5025 52.7988 35.1939C53.1443 36.1088 53.008 37.0098 52.669 37.8903C52.3797 38.6401 51.9452 39.29 51.2397 39.7164C50.6004 40.1026 50.029 39.9544 49.6121 39.2659C50.4466 39.7127 51.0399 39.3287 51.5247 38.7402C52.2419 37.8699 52.5728 36.8623 52.3833 35.7269C52.2674 35.0318 51.9081 34.677 51.2302 34.5645Z" fill="#F7941E"/>
<path d="M48.7541 27.4509C48.7811 26.7441 48.9859 26.1352 49.4524 25.6358C49.6879 25.3839 49.9634 25.1707 50.3431 25.2809C50.6981 25.3839 50.8045 25.6854 50.8482 26.0081C50.9641 26.8697 50.7112 27.621 50.0829 28.2117C49.5107 28.7505 48.9531 28.549 48.795 27.7802C48.7709 27.6626 48.7651 27.5414 48.7541 27.4509ZM50.4743 26.7105C50.3081 26.4608 50.2156 26.1702 50.0494 26.1184C49.908 26.0746 49.5873 26.2629 49.5129 26.425C49.3701 26.7383 49.2738 27.1092 49.2906 27.4494C49.3081 27.794 49.6682 27.905 49.9 27.6458C50.1288 27.3888 50.2695 27.0537 50.4743 26.7105Z" fill="#F7941E"/>
<path d="M45.4771 30.3436C44.1694 30.7978 43.5127 31.8587 42.9354 33.0218C42.9354 32.288 42.9325 31.5535 42.9398 30.8197C42.9398 30.7445 42.9777 30.6481 43.0316 30.5985C43.7255 29.9669 44.4982 29.6471 45.4771 30.3436Z" fill="#F7941E"/>
<path d="M43.7962 23.2241C42.4857 24.6785 42.2422 26.2403 43.0819 27.9641C43.0389 28.0065 42.9959 28.0481 42.9529 28.0905C42.9361 28.0109 42.9427 27.9123 42.8968 27.8568C42.8013 27.74 42.6934 27.5881 42.5637 27.5538C42.2831 27.4801 42.1752 27.2953 42.1067 27.05C41.775 25.8577 41.9259 24.7435 42.6694 23.7396C42.9361 23.3796 43.2809 23.1285 43.7962 23.2241Z" fill="#F7941E"/>
<path d="M43.5914 23.9586C44.3043 24.9356 44.1016 26.7244 43.216 27.4246C42.6759 26.6185 42.8538 24.9027 43.5914 23.9586Z" fill="#F7941E"/>
<path d="M48.346 28.9549C48.2046 29.3492 48.0814 29.6946 47.9385 30.0918C47.3408 29.8705 46.6936 29.68 46.0937 29.3901C45.7934 29.2448 45.9465 28.8892 46.0463 28.6366C46.1367 28.4073 46.2788 28.1876 46.5908 28.3015C47.1907 28.5198 47.7876 28.7468 48.346 28.9549Z" fill="#F7941E"/>
<path d="M42.8385 36.5863C41.7539 36.2263 41.3202 35.4327 41.4813 33.9301C41.872 34.0352 42.2583 34.1396 42.587 34.228C42.673 35.0355 42.7576 35.8299 42.8385 36.5863Z" fill="#F7941E"/>
<path d="M44.6366 37.1886C46.5288 35.9284 47.1688 34.117 47.1236 31.9704C47.7548 33.4051 47.2432 34.6814 46.5011 35.8934C45.9246 36.836 45.1607 37.3266 44.6366 37.1886Z" fill="#F7941E"/>
<path d="M20.1168 38.5219C18.8886 37.8355 18.4097 36.7754 18.4833 35.3655C19.3689 36.2679 20.0198 37.2368 20.1168 38.5219Z" fill="#F7941E"/>
<path d="M33.3068 31.5308C32.4999 32.1573 32.2098 32.9466 32.3906 33.9125C31.7841 33.7015 31.4991 33.2342 31.6106 32.6041C31.6442 32.4165 31.6916 32.2215 31.7797 32.0551C32.1865 31.2935 32.5021 31.1103 33.3068 31.5308Z" fill="#F7941E"/>
<path d="M41.568 40.3888C41.5578 40.4107 41.5505 40.4341 41.5367 40.4531C41.1693 40.9605 40.7028 41.2 40.3209 41.0788C39.9863 40.9722 39.7545 40.472 39.783 39.8573C39.8216 39.0351 40.0942 38.3116 40.7684 37.7968C41.3231 37.3741 41.8669 37.5836 42.0207 38.2685C42.0673 38.4766 42.0768 38.6934 42.1132 38.9848C42.071 38.8993 42.0629 38.8891 42.0607 38.8774C41.9755 38.481 41.8997 38.0619 41.4193 37.9626C40.939 37.8625 40.654 38.1802 40.4032 38.5233C40.0884 38.9541 39.9739 39.4411 40.0373 39.9683C40.0774 40.299 40.2101 40.5874 40.5432 40.7079C40.8741 40.8269 41.1598 40.7093 41.4018 40.4669C41.4426 40.426 41.4886 40.3895 41.5323 40.3508C41.544 40.3633 41.5556 40.3757 41.5673 40.3881L41.568 40.3888Z" fill="#F7941E"/>
<path d="M36.468 38.9935C36.2996 39.2739 36.1866 39.5587 35.9905 39.7638C35.7158 40.0515 35.328 39.9193 35.1997 39.5367C35.0838 39.1907 35.2544 38.608 35.5692 38.4408C35.7201 38.3605 35.9869 38.3138 36.1013 38.3941C36.2624 38.508 36.3302 38.7533 36.468 38.9935Z" fill="#F7941E"/>
<path d="M45.5645 33.7044C45.402 33.9885 45.281 34.2922 45.0791 34.5258C44.8604 34.7799 44.5732 34.6806 44.4741 34.363C44.3655 34.0177 44.5579 33.4219 44.8692 33.2299C44.9756 33.1641 45.1891 33.1145 45.2526 33.1707C45.3808 33.2854 45.4406 33.4781 45.5645 33.7044Z" fill="#F7941E"/>
<path d="M39.4287 26.8229C39.936 26.3703 41.1081 26.3659 41.5899 26.7974C41.2531 27.2588 39.9273 27.2866 39.4287 26.8229Z" fill="#F7941E"/>
<path d="M31.6099 33.8636C31.9795 34.0637 32.2943 34.2345 32.6544 34.4295C32.4204 34.6748 32.201 34.9041 31.9139 35.2049C31.8038 34.7193 31.7134 34.3185 31.6099 33.8636Z" fill="#F7941E"/>
<path d="M48.2942 29.8902C48.3868 29.6894 48.4575 29.4857 48.5719 29.3112C48.6244 29.2317 48.7636 29.209 48.8635 29.1608C48.9079 29.2652 49.002 29.3777 48.9874 29.4726C48.9568 29.669 48.8941 29.8713 48.7935 30.0406C48.7323 30.1429 48.5748 30.1881 48.4611 30.259C48.4101 30.1458 48.3584 30.0319 48.2942 29.8902Z" fill="#F7941E"/>
<path d="M17.3798 27.7334C17.3244 27.5655 17.2719 27.4092 17.2012 27.196C17.5387 27.3289 17.8259 27.4421 18.1305 27.5618C17.874 27.6203 17.648 27.6714 17.3798 27.7334Z" fill="#F7941E"/>
<path d="M49.4036 28.8359C49.3693 28.9907 49.3416 29.1185 49.3285 29.1769C49.0683 28.9893 48.8001 28.7965 48.5326 28.6037C48.5377 28.5921 48.542 28.5811 48.5471 28.5694C48.8176 28.6534 49.0887 28.7381 49.4036 28.8359Z" fill="#F7941E"/>
<path d="M43.4172 42.5398C43.5134 41.9871 43.6818 41.5417 44.0645 41.2014C44.4333 40.8729 44.7766 40.9824 44.9012 41.4526C45.0441 41.9929 44.7635 42.8034 44.2941 43.1005C44.1592 43.1859 43.8793 43.2509 43.805 43.1801C43.6308 43.0136 43.5411 42.7581 43.4172 42.5398Z" fill="#F7941E"/>
</svg>
