<svg width="68" height="60" viewBox="0 0 68 60" fill="none" xmlns="http://www.w3.org/2000/svg">
<path d="M11.2639 49.9413C10.037 48.0431 8.67525 46.2182 7.61282 44.2307C5.1978 39.7131 4.19249 34.8337 4.40497 29.3681C1.90541 29.4826 12.3355 29.3841 8.45134 29.3429C8.18631 37.8424 10.9098 44.9108 17.3163 50.0192C27.077 57.7997 37.4522 57.7676 48.0125 51.2327C48.7368 52.2173 49.4657 53.2065 50.3727 54.4406C48.8236 55.3474 47.4345 56.3388 45.906 57.0235C35.0189 61.9006 24.7693 60.8061 15.2166 53.5797C14.947 53.3759 14.6431 53.2179 14.3552 53.0393C13.3248 52.0066 12.2944 50.974 11.2639 49.9413Z" fill="#F7941E"/>
<path d="M0 30.1351L6.52994 18.801L13.0576 30.1351H0Z" fill="#F7941E"/>
<path d="M56.7359 10.0587C57.9628 11.9569 59.3246 13.7819 60.387 15.7694C62.802 20.287 63.8073 25.1664 63.5948 30.632C66.0944 30.5175 55.6643 30.6159 59.5485 30.6572C59.8135 22.1577 57.09 15.0893 50.6835 9.9809C40.9228 2.2004 30.5476 2.23244 19.9873 8.76734C19.263 7.78275 18.5341 6.79359 17.6271 5.55942C19.1762 4.65269 20.5653 3.66123 22.0938 2.9766C32.9809 -1.90053 43.2305 -0.806029 52.7832 6.42036C53.0528 6.62415 53.3567 6.78214 53.6446 6.96073C54.675 7.9934 55.7054 9.02608 56.7359 10.0587Z" fill="#F7941E"/>
<path d="M67.9998 29.8649L61.4722 41.1991L54.9423 29.8649H67.9998Z" fill="#F7941E"/>
<path d="M22.9686 34.6387H27.0489C27.0489 34.1966 27.0446 33.7718 27.0489 33.3449C27.0687 31.6632 28.6662 30.0703 30.3711 30.0703C37.5128 30.0638 44.6523 30.0681 51.794 30.0681C51.8532 30.0681 51.9102 30.0724 52 30.0768V45C51.8663 45 51.7392 45 51.6143 45C44.6611 45 37.7078 45 30.7546 45C28.8262 45 27.4522 43.9012 27.0884 42.0505C27.0226 41.7167 27.0467 41.3635 27.0292 40.9842H26.6435C24.3229 40.9842 22 40.9842 19.6793 40.9842C17.5252 40.982 16 39.4693 16 37.3347C16 35.6421 16.0022 33.9517 16.0044 32.2591C16.0044 31.2492 16.2082 30.8851 17.1768 30.5947C18.805 30.1071 20.4529 30.0789 22.057 30.7009C22.8393 31.0043 23.0015 31.4139 22.9774 32.0467C22.9467 32.9006 22.9708 33.7567 22.9708 34.6365L22.9686 34.6387ZM50.8539 31.2362H31.6815V41.5173H30.5069V31.2471C29.8912 31.2211 29.4091 31.4486 28.9817 31.8127C28.3199 32.3783 28.1907 33.139 28.1907 33.9452C28.1907 35.5077 28.1841 37.0681 28.1928 38.6306C28.1994 39.7056 28.2016 40.7827 28.252 41.8576C28.3024 42.9303 29.4507 43.9056 30.5201 43.7972V42.7201H31.7012V43.8081H50.8539V31.2362ZM17.1965 33.0025C17.1965 34.5889 17.1855 36.1449 17.2009 37.7031C17.2118 38.7932 18.2352 39.7988 19.3923 39.8009C21.8882 39.8074 24.3842 39.8096 26.8824 39.8118C26.9262 39.8118 26.9701 39.7988 27.0292 39.7901V35.8003C26.8846 35.8003 26.7575 35.8003 26.6326 35.8003C25.4755 35.8046 24.3185 35.8003 23.1614 35.8133C22.366 35.8242 21.7655 35.3452 21.8225 34.4892C21.8554 33.9972 21.8291 33.5009 21.8291 32.983C20.2579 33.4294 18.7392 33.4186 17.1987 33.0003L17.1965 33.0025ZM17.3192 31.7455C18.0884 32.2873 21.0073 32.2765 21.6384 31.7412C20.1987 31.2926 18.7831 31.2861 17.3192 31.7455Z" fill="#F7941E"/>
<path d="M34.5676 25.8659C34.1819 25.9916 33.8291 26.1043 33.4785 26.217C32.8408 25.3003 31.8787 25.0598 30.8817 24.9536C29.7597 24.8344 28.6443 24.8799 27.5924 25.3805C26.8714 25.7229 26.2535 26.1737 25.8262 26.8759C25.4799 26.7046 25.149 26.5421 24.794 26.3666C25.1841 25.6362 25.7648 25.1161 26.4375 24.6913C27.7327 23.8721 29.1658 23.6576 30.6713 23.7746C31.4427 23.8353 32.2031 23.9632 32.9043 24.3012C33.6055 24.6415 34.2191 25.0901 34.5698 25.8659H34.5676Z" fill="#F7941E"/>
<path d="M20.9131 28.395C20.7334 28.7526 20.5734 29.0712 20.4047 29.4093C19.8459 29.1492 19.4273 28.7461 19.0635 28.2975C18.2001 27.2356 17.8013 26.0046 17.7619 24.6523C17.729 23.5254 17.8145 22.4158 18.3229 21.3799C18.6603 20.6929 19.1249 20.1186 19.8787 19.7523C19.9993 20.0969 20.1154 20.4155 20.2184 20.7384C20.2337 20.7861 20.1943 20.8793 20.1505 20.9096C19.4799 21.3755 19.2082 22.0734 19.0679 22.8189C18.8093 24.1799 18.8225 25.5279 19.4711 26.8022C19.802 27.4502 20.2513 28.0028 20.9131 28.3972V28.395Z" fill="#F7941E"/>
<path d="M21.9781 26.605C21.7699 25.8269 21.7568 25.0684 21.943 24.3272C22.55 21.9325 24.1169 20.3591 26.385 19.4402C27.0577 19.1672 27.7874 19.1238 28.5325 19.4207C28.3835 19.7241 28.2432 20.0211 28.0877 20.3093C28.0592 20.3613 27.9562 20.4111 27.8948 20.4025C26.9416 20.2811 26.1702 20.6907 25.4514 21.2282C24.4587 21.9715 23.6348 22.8492 23.2272 24.0477C23.0212 24.6567 22.8919 25.2743 23.0256 25.9136C23.076 26.1585 23.0256 26.2972 22.7626 26.3579C22.5172 26.4142 22.2783 26.5074 21.9803 26.6028L21.9781 26.605Z" fill="#F7941E"/>
<path d="M30.2221 19.256C30.2922 18.9028 30.3623 18.5452 30.4368 18.1703C31.4909 18.2353 32.4156 17.9211 33.2396 17.3272C34.1118 16.6988 34.8678 15.9576 35.1461 14.8848C35.2447 14.5056 35.2118 14.0938 35.2425 13.6387C35.4945 13.5152 35.8254 13.3526 36.176 13.1814C36.5004 13.8598 36.4631 14.5511 36.2747 15.2381C35.9525 16.417 35.1614 17.2796 34.2389 18.0316C33.4631 18.6644 32.5756 19.1108 31.5698 19.2474C31.1359 19.3059 30.6866 19.2582 30.2221 19.2582V19.256Z" fill="#F7941E"/>
<path d="M43.4843 26.4836C43.7056 26.5573 44.0562 26.6721 44.4375 26.8C44.0475 27.6799 43.3791 28.2195 42.5267 28.5446C40.55 29.3009 37.6508 28.9238 36.1015 27.2269C36.0248 27.1424 35.9525 27.0557 35.8539 26.943C36.1826 26.722 36.4872 26.5183 36.8093 26.3015C37.4953 27.0817 38.3718 27.5065 39.3776 27.669C40.3594 27.8272 41.3477 27.8337 42.2571 27.3916C42.6801 27.1858 43.0285 26.8282 43.4843 26.4814V26.4836Z" fill="#F7941E"/>
<path d="M20.8342 10.0022C21.7217 10.3814 22.2717 11.0402 22.5961 11.8638C23.3915 13.8836 22.9949 16.8331 21.0818 18.4043C21.0555 18.426 21.0248 18.439 20.9701 18.4693C20.7597 18.1638 20.5537 17.8625 20.3324 17.5375C20.8977 17.0477 21.2966 16.4625 21.5179 15.7669C21.8882 14.6031 21.9321 13.4372 21.5004 12.2777C21.336 11.8356 21.0599 11.4715 20.6654 11.192C20.5866 11.1356 20.534 10.9644 20.5559 10.8669C20.6194 10.5873 20.729 10.3186 20.8342 10V10.0022Z" fill="#F7941E"/>
<path d="M35.2009 42.6768V41.5563H49.6815V42.6768H35.2009Z" fill="#F7941E"/>
<path d="M34.0022 41.5585V42.6833H32.8649V41.5585H34.0022Z" fill="#F7941E"/>
</svg>
