<svg width="60" height="60" viewBox="0 0 60 60" fill="none" xmlns="http://www.w3.org/2000/svg">
<circle cx="30" cy="30" r="28.5" stroke="#F7941E" stroke-width="3"/>
<path d="M12.0762 38.7439C12.119 38.3997 12.1565 38.0555 12.2065 37.7113C12.6689 34.594 13.6525 31.6639 15.4378 29.0423C16.3322 27.7298 17.4319 26.6294 18.8886 25.9286C19.592 25.5897 20.3454 25.4488 21.1059 25.3258C24.2015 24.8229 27.2864 24.2665 30.307 23.4069C32.7046 22.7238 35.0343 21.8714 37.2266 20.6676C37.3873 20.5802 37.448 20.4946 37.4248 20.3056C37.3248 19.5227 37.2427 18.738 37.1534 17.9337C37.2034 17.9729 37.2534 18.0139 37.3051 18.0532C37.8836 18.4812 38.462 18.9074 39.0368 19.3408C39.1511 19.4282 39.2296 19.4068 39.335 19.3283C40.9113 18.162 42.2627 16.7923 43.2375 15.0767C43.2518 15.0518 43.2714 15.0321 43.325 14.9608C43.4803 15.2444 43.6642 15.4887 43.757 15.7633C44.0391 16.5979 44.3122 17.4379 44.5371 18.2886C44.7121 18.9484 44.8121 19.6261 44.9459 20.2967C44.9584 20.3591 44.9745 20.4197 44.9942 20.5071C45.3958 20.4358 45.7904 20.3662 46.2153 20.2913C45.8761 20.5767 45.5636 20.8442 45.2423 21.1027C45.128 21.1955 45.1013 21.29 45.1209 21.4327C45.4887 23.9615 45.6708 26.5028 45.6065 29.0566C45.5601 30.9184 45.4065 32.7714 44.8835 34.569C44.7174 35.1397 44.4889 35.6979 44.2497 36.2436C43.7445 37.3939 42.8733 38.1019 41.6415 38.4086C40.4757 38.6975 39.2992 38.908 38.1103 39.0382C33.1098 39.5821 28.0897 39.6035 23.0697 39.5553C19.5831 39.5232 16.0965 39.4269 12.6117 39.3574C12.4332 39.3538 12.2565 39.3467 12.078 39.3413C12.0762 39.1434 12.0762 38.9436 12.0762 38.7439ZM14.3077 38.0199C20.8024 38.1786 27.231 38.3373 33.6615 38.027C33.64 37.9949 33.6168 37.9806 33.5918 37.9753C32.3832 37.7006 31.2925 37.1763 30.3356 36.3881C28.7967 35.1183 27.8577 33.5008 27.7131 31.5016C27.5274 28.9621 28.5378 26.929 30.5159 25.3597C30.8194 25.1189 31.1532 24.9174 31.496 24.682C31.4424 24.6855 31.4139 24.6855 31.3889 24.6909C28.4682 25.4542 25.4922 25.9339 22.5109 26.3833C21.6986 26.5064 20.8935 26.6348 20.1454 27.0075C18.8993 27.6281 17.9425 28.5715 17.157 29.6933C15.727 31.737 14.8897 34.0215 14.4773 36.4683C14.3934 36.9712 14.3648 37.4813 14.3077 38.0181V38.0199ZM36.5161 24.5696C35.552 24.336 34.6594 24.3075 33.7668 24.4805C30.2677 25.1581 27.9987 28.3112 28.4539 31.8529C28.9235 35.5106 32.4957 38.1162 36.1197 37.3975C38.6084 36.9035 40.3311 35.4304 41.1363 33.0318C41.9432 30.6242 41.4505 28.4128 39.7616 26.5099C39.0547 25.7146 39.2118 25.8037 38.0781 25.8358C38.0353 25.8358 37.9925 25.8465 37.9514 25.8501C37.0124 25.9624 36.1108 26.2264 35.2218 26.5367C35.0718 26.5884 34.9218 26.6419 34.7451 26.7025C35.3396 25.9874 35.9091 25.299 36.5161 24.5696ZM38.3013 19.7652C38.4602 20.7247 38.5584 21.636 38.5245 22.5562C38.5102 22.9539 38.4102 23.3195 38.187 23.6405C37.8871 24.0721 37.5694 24.4929 37.2498 24.912C37.1016 25.1064 36.9302 25.283 36.7249 25.5166C36.8535 25.4756 36.9195 25.4542 36.9856 25.4346C37.3605 25.3204 37.7336 25.2063 38.1085 25.0904C39.0904 24.7854 39.9919 24.9281 40.806 25.5719C41.2916 25.9571 41.7807 26.3352 42.2645 26.7204C42.3931 26.8238 42.5127 26.938 42.6805 27.086C42.6483 26.9487 42.6287 26.8738 42.6126 26.7989C42.3984 25.8394 42.2074 24.8764 42.2467 23.8848C42.2592 23.562 42.3395 23.2571 42.5448 23.011C42.8447 22.6525 43.1607 22.303 43.491 21.9713C43.7141 21.7465 43.9694 21.5557 44.2408 21.3239C44.1497 21.3346 44.0962 21.3399 44.0426 21.3471C43.4928 21.4238 42.9447 21.5111 42.3931 21.5771C41.6593 21.6645 40.9559 21.5664 40.3204 21.1598C39.9187 20.903 39.5135 20.6498 39.1207 20.3805C38.8529 20.1968 38.6012 19.9899 38.3031 19.7634L38.3013 19.7652ZM42.7465 28.1685C43.4624 30.0143 43.4999 31.8476 42.709 33.6631C41.9253 35.4643 40.5632 36.7037 38.8012 37.5401C39.6902 37.4082 40.5793 37.2833 41.379 36.8696C41.679 36.7144 41.9717 36.4808 42.1753 36.2133C42.4895 35.8049 42.7697 35.3573 42.9822 34.8882C43.6017 33.5311 43.8427 32.0741 43.9926 30.6046C44.239 28.222 44.1783 25.8394 43.9873 23.4568C43.9623 23.1501 43.9284 22.8433 43.8944 22.4991C43.3678 23.0787 43.1357 23.7154 43.1339 24.4555C43.1304 25.9054 43.3981 27.316 43.7159 28.7213C43.7409 28.8337 43.7677 28.946 43.8016 29.0994C43.4249 28.7695 43.0857 28.4699 42.7448 28.1721L42.7465 28.1685ZM43.05 17.8606C42.4591 18.8521 41.7165 19.6511 40.8703 20.3805C41.7825 20.8335 42.7162 20.7265 43.6713 20.673C43.5106 19.7153 43.3821 18.7897 43.05 17.8588V17.8606ZM34.7165 23.7065C34.7201 23.7172 34.7219 23.7279 34.7255 23.7386C35.2735 23.7386 35.8198 23.7386 36.3679 23.7386C36.5785 23.7386 36.8481 23.8295 36.9874 23.7332C37.1498 23.6191 37.2123 23.3498 37.2926 23.1376C37.3587 22.9664 37.3873 22.7827 37.439 22.5794C36.4982 22.9682 35.6074 23.3373 34.7165 23.7065Z" fill="#F7941E"/>
<path d="M12.0762 22.5009C12.5939 22.4563 13.1152 22.4331 13.6293 22.3618C15.6199 22.089 17.6175 21.8553 19.5956 21.5076C23.1857 20.878 26.6758 19.8883 29.9964 18.3581C32.6903 17.1169 35.1629 15.5457 37.2712 13.4431C37.7086 13.0062 38.1049 12.5283 38.5209 12.0699C39.8188 12.0699 41.1166 12.0699 42.4145 12.0699C42.1681 12.3981 41.9378 12.7405 41.6754 13.0544C39.9044 15.173 37.7282 16.7816 35.311 18.0853C32.5493 19.5762 29.609 20.5998 26.5777 21.3774C23.3267 22.212 20.024 22.7452 16.6892 23.1001C15.2289 23.2553 13.7668 23.3855 12.3065 23.5281C12.2297 23.5353 12.1529 23.5549 12.0762 23.5674C12.0762 23.2107 12.0762 22.854 12.0762 22.4991V22.5009Z" fill="#F7941E"/>
<path d="M12.0762 45.1569C12.6189 44.9251 13.1491 44.6629 13.7043 44.4703C15.029 44.0102 16.4072 43.7766 17.7907 43.5804C20.249 43.2344 22.7233 43.0632 25.2012 42.9366C28.3986 42.7726 31.596 42.6352 34.7915 42.4551C37.1409 42.3231 39.4849 42.1341 41.8021 41.699C42.8055 41.5099 43.7963 41.2763 44.7281 40.8465C45.3512 40.5594 45.9225 40.2063 46.267 39.5268C46.276 39.6071 46.2849 39.6499 46.2849 39.6944C46.2849 40.7342 46.2813 41.7739 46.292 42.8136C46.292 42.9919 46.2456 43.0686 46.0689 43.0918C45.0245 43.2344 43.9855 43.4288 42.9358 43.5198C39.1582 43.8479 35.3699 43.7231 31.5852 43.7445C29.1038 43.7588 26.6223 43.7819 24.1426 43.8461C22.1253 43.8996 20.1151 44.0655 18.1192 44.3794C16.2554 44.6736 14.4238 45.082 12.7135 45.9166C12.4957 46.0219 12.2886 46.1485 12.0762 46.2662C12.0762 45.8952 12.0762 45.5261 12.0762 45.1551V45.1569Z" fill="#F7941E"/>
<path d="M23.532 34.4745C22.7055 34.4763 22.0449 33.8396 22.0431 33.0371C22.0414 32.2364 22.6983 31.5961 23.5249 31.5908C24.3515 31.5854 25.0191 32.2203 25.0299 33.0193C25.0406 33.8218 24.3711 34.4727 23.532 34.4745ZM23.4803 31.7994C22.7751 31.787 22.1878 32.3487 22.1753 33.046C22.1628 33.738 22.7323 34.314 23.4428 34.3354C24.1408 34.355 24.7442 33.7843 24.7549 33.0942C24.7656 32.3773 24.2086 31.8119 23.4803 31.7994Z" fill="#F7941E"/>
<path d="M20.5953 30.9862C20.3311 31.3554 20.124 31.803 20.008 32.2917C19.9991 32.3291 19.9348 32.379 19.8919 32.3808C19.717 32.3915 19.5402 32.3844 19.3367 32.3844C19.4367 31.6621 19.7116 31.0469 20.1437 30.4566C20.299 30.6385 20.44 30.8025 20.5953 30.9844V30.9862Z" fill="#F7941E"/>
<path d="M22.8483 28.8587C22.8536 29.0958 22.9197 29.3205 22.8411 29.4668C22.7751 29.5863 22.5359 29.6095 22.3716 29.6754C22.2199 29.7379 22.0664 29.7931 21.92 29.8627C21.7736 29.934 21.6361 30.0196 21.4719 30.1124C21.3273 29.9483 21.1844 29.7842 21.0238 29.6005C21.5522 29.2135 22.1556 28.9567 22.8483 28.8587Z" fill="#F7941E"/>
<path d="M25.9421 29.6255C25.9278 29.6523 25.9225 29.6665 25.9135 29.6754C25.7814 29.8038 25.6636 30.0071 25.5119 30.0357C25.3673 30.0642 25.1923 29.9001 25.0245 29.8359C24.7728 29.7396 24.5211 29.6469 24.2622 29.5756C24.1283 29.5381 24.0801 29.4828 24.0765 29.3437C24.0623 28.8123 24.0587 28.8123 24.571 28.9496C25.0531 29.0762 25.5958 29.3437 25.9421 29.6255Z" fill="#F7941E"/>
<path d="M20.8649 36.3417C21.0024 36.1972 21.1291 36.0635 21.2184 35.969C21.7736 36.2258 22.2967 36.4683 22.8536 36.7269V37.2138C22.0985 37.1032 21.4487 36.8072 20.8667 36.3417H20.8649Z" fill="#F7941E"/>
<path d="M27.622 32.3844C27.4328 32.3844 27.2775 32.3933 27.1239 32.379C27.0793 32.3755 27.015 32.3166 27.0043 32.272C26.8811 31.7763 26.6633 31.3251 26.3634 30.9113C26.5062 30.7633 26.6437 30.6224 26.7972 30.4637C27.2418 31.0344 27.497 31.6586 27.6238 32.3844H27.622Z" fill="#F7941E"/>
<path d="M20.44 35.0719C20.3347 35.1789 20.2026 35.3163 20.049 35.4732C19.6384 34.8954 19.4064 34.2748 19.3117 33.5792H19.8937C20.0776 34.0822 20.2543 34.5655 20.4382 35.0702L20.44 35.0719Z" fill="#F7941E"/>
<path d="M25.7529 36.0011C25.8279 36.0831 25.9421 36.2079 26.0706 36.3524C25.4922 36.8089 24.8424 37.1068 24.1051 37.212C24.0926 37.1763 24.0837 37.1638 24.0837 37.1496C24.048 36.693 24.0569 36.7162 24.4764 36.5628C24.8942 36.4112 25.2923 36.2062 25.7529 35.9993V36.0011Z" fill="#F7941E"/>
<path d="M27.1221 33.5775H27.6292C27.5435 34.2712 27.306 34.8865 26.9079 35.4625C26.7651 35.327 26.6383 35.2057 26.5473 35.1201C26.7437 34.5958 26.9276 34.1018 27.1221 33.5775Z" fill="#F7941E"/>
<path d="M35.0593 34.0108C33.1759 34.0126 31.6513 32.4878 31.6442 30.5957C31.637 28.7195 33.1705 27.1805 35.0557 27.1734C36.9463 27.1662 38.478 28.7017 38.478 30.6028C38.478 32.4896 36.9552 34.009 35.0611 34.0108H35.0593ZM37.8443 30.667C37.8425 29.0156 36.5286 27.6816 34.904 27.6834C33.2955 27.6834 31.9726 29.0263 31.9726 30.6563C31.9726 32.3095 33.2848 33.6488 34.904 33.6524C36.5232 33.6559 37.8461 32.3131 37.8425 30.667H37.8443Z" fill="#F7941E"/>
</svg>
