<svg width="60" height="60" viewBox="0 0 60 60" fill="none" xmlns="http://www.w3.org/2000/svg">
<path d="M30.7619 33.5666C30.9021 33.5666 31.0044 33.5666 31.1037 33.5666C33.4031 33.5666 35.7026 33.5696 38.002 33.5637C39.2905 33.5608 40.2342 32.4384 40.0151 31.1865C39.8485 30.2262 39.0246 29.5281 38.0283 29.5222C36.3395 29.5163 34.6536 29.5222 32.9649 29.5222C32.2403 29.5222 31.5128 29.5192 30.7882 29.5251C29.6194 29.531 28.8218 30.2586 28.6932 31.4222C28.6874 31.4663 28.6786 31.5076 28.6611 31.6225C28.0914 31.4104 27.545 31.2042 26.946 30.9803C27.3463 30.3558 27.4223 29.6842 27.8693 29.1451C29.0205 27.7606 29.4617 26.1346 29.2601 24.3377C29.2513 24.267 29.2513 24.1992 29.2425 24.0932C34.8114 24.0932 40.3657 24.0932 45.9872 24.0932C45.9083 23.9547 45.8615 23.8664 45.806 23.7809C44.7542 22.1225 43.8163 20.4022 43.0917 18.57C42.7615 17.7334 42.0662 17.2797 41.1692 17.2797C36.807 17.2797 32.4419 17.2768 28.0797 17.2856C27.7875 17.2856 27.6356 17.2179 27.5245 16.9233C27.3492 16.4697 27.1009 16.0425 26.8701 15.5742C26.984 15.5742 27.0863 15.5742 27.1856 15.5742C32.1351 15.5742 37.0846 15.5742 42.034 15.5742C43.1414 15.5742 44.0384 16.1928 44.4036 17.2444C45.2041 19.5509 46.4021 21.6453 47.749 23.6631C47.7782 23.7073 47.8104 23.7485 47.8425 23.7898C47.8513 23.8016 47.8717 23.8075 47.8892 23.8192C48.0821 23.7132 48.1756 23.563 48.161 23.3302C48.1464 23.1123 48.158 22.8884 48.1785 22.6704C48.2574 21.8073 48.9732 21.1445 49.8322 21.1386C50.0864 21.1357 50.3406 21.1386 50.5919 21.1386C51.6963 21.1445 52.5553 22.1196 52.4297 23.2213C52.3654 23.7692 51.8599 24.2287 51.2931 24.2375C50.6211 24.2464 49.9462 24.264 49.2742 24.2287C48.906 24.211 48.6547 24.3347 48.4444 24.6647C48.6168 24.9092 48.8008 25.1684 49.017 25.4718C44.4912 25.6338 40.0238 25.7929 35.5536 25.9549C35.5536 25.9696 35.5536 25.9843 35.5536 25.9991C36.4973 25.9991 37.4381 25.9991 38.3818 25.9991C42.2298 25.9991 46.0777 25.9991 49.9228 25.9961C51.0243 25.9961 51.632 26.4026 52.0177 27.4454C53.0491 30.2409 53.0228 33.0305 51.9505 35.8113C51.8132 36.1648 51.6583 36.5094 51.5298 36.8659C51.4684 37.0367 51.3749 37.0897 51.1996 37.0838C50.8168 37.0721 50.4341 37.0809 50.0221 37.0809C50.0221 37.2164 50.0221 37.3195 50.0221 37.4226C50.0221 38.4801 50.028 39.5376 50.0251 40.5951C50.0221 41.3551 49.7066 41.9472 49.0375 42.3066C48.8242 42.4215 48.5583 42.4863 48.3158 42.4922C47.3458 42.5128 46.3728 42.4598 45.4057 42.5099C44.6432 42.5511 43.6439 41.8294 43.6235 40.7572C43.6001 39.6466 43.6147 38.5361 43.6147 37.4255C43.6147 37.3224 43.6147 37.2193 43.6147 37.0809C43.492 37.0809 43.3985 37.0809 43.305 37.0809C39.8865 37.0809 36.4681 37.0779 33.0496 37.0838C32.8772 37.0838 32.7837 37.0485 32.7224 36.8717C32.3133 35.6905 31.6939 34.6389 30.8583 33.7139C30.8261 33.6815 30.8115 33.6432 30.7619 33.5666ZM45.2129 29.5722C44.313 29.5575 43.5738 30.3116 43.5533 31.2601C43.5329 32.2175 44.2546 33.0187 45.1574 33.0335C46.0602 33.0482 46.8111 32.2735 46.8199 31.3161C46.8286 30.3735 46.104 29.587 45.2129 29.5722ZM47.2903 31.2867C47.2874 32.1733 47.936 32.8773 48.7629 32.8862C49.5926 32.895 50.2822 32.1674 50.2763 31.2925C50.2705 30.4294 49.5809 29.7107 48.7658 29.7166C47.9564 29.7225 47.2932 30.4294 47.2903 31.2867Z" fill="#F7941E"/>
<path d="M25.155 23.1947C26.2419 23.3951 26.7415 24.0844 26.6509 25.2538C26.5662 26.3614 26.1805 27.3247 25.2368 27.9933C25.1696 28.0405 25.1199 28.1465 25.1053 28.2319C24.6846 30.7711 22.204 32.9363 19.7585 33.222C18.5635 33.3604 17.4737 32.9893 16.4686 32.3648C15.221 31.5901 14.2685 30.5473 13.7455 29.1481C13.6257 28.8299 13.6345 28.4499 13.4709 28.1642C13.316 27.8902 12.9858 27.7223 12.7872 27.466C12.0859 26.5705 11.785 25.5543 12.0363 24.4202C12.1824 23.7633 12.5359 23.2802 13.2839 23.2271C13.3335 23.2242 13.4153 23.1005 13.4153 23.0327C13.4241 22.4878 13.4037 21.9575 13.2663 21.4155C12.6586 19.0089 13.6958 16.5816 15.8638 15.2118C18.8761 13.3118 23.0133 14.2692 24.7547 17.2827C25.567 18.6907 25.6984 20.1783 25.2689 21.7484C25.1404 22.2109 25.1871 22.7175 25.155 23.1947ZM24.5852 24.0549C24.5852 23.8016 24.5736 23.5983 24.5882 23.398C24.6057 23.1535 24.4655 23.0975 24.2814 23.1388C24.1704 23.1623 24.0593 23.2389 23.9775 23.3214C23.8402 23.4569 23.7262 23.616 23.6035 23.7633C23.2909 24.1374 23.1273 24.1344 22.8263 23.7427C21.0908 21.4951 17.4854 21.5098 15.7615 23.7692C15.4898 24.1285 15.3116 24.1285 15.0165 23.778C14.8704 23.6042 14.7418 23.4039 14.5665 23.2625C14.4613 23.1771 14.2802 23.1476 14.1399 23.1623C14.0873 23.1682 14.0318 23.3656 14.0201 23.4805C13.9997 23.6572 14.0143 23.8369 14.0143 24.0461C13.8624 23.9842 13.766 23.9459 13.6695 23.9076C13.1845 23.7161 12.8368 23.8428 12.6761 24.3465C12.5739 24.6647 12.5213 25.027 12.5593 25.3569C12.6644 26.3025 12.9888 27.1361 13.9062 27.6015C13.9617 27.631 14.0143 27.7164 14.0231 27.7812C14.1896 29.2629 14.9434 30.4059 16.0537 31.3279C17.015 32.1232 18.0931 32.6652 19.3699 32.6564C20.3721 32.6476 21.2603 32.2587 22.0725 31.6932C23.3026 30.8389 24.1966 29.7313 24.5093 28.226C24.5823 27.8755 24.6057 27.5456 25.0177 27.4219C25.117 27.3924 25.1988 27.2864 25.2748 27.2009C25.7423 26.6884 26.014 26.0786 26.0461 25.3923C26.0637 25.024 26.0111 24.6352 25.9 24.2847C25.7656 23.8546 25.4121 23.7368 24.9914 23.8929C24.8687 23.9371 24.7489 23.9871 24.5852 24.0549ZM19.2939 20.3374C19.8695 20.3403 20.448 20.3433 21.0236 20.3374C21.7307 20.3315 22.3326 19.8278 22.4261 19.1238C22.4699 18.7879 22.4728 18.4345 22.4319 18.0986C22.3355 17.3475 21.7365 16.8408 20.9856 16.8408C19.8578 16.8408 18.733 16.8379 17.6051 16.8438C16.7987 16.8467 16.1793 17.4535 16.1472 18.2695C16.1384 18.4816 16.1413 18.6937 16.1472 18.9028C16.1735 19.7335 16.7929 20.3374 17.6168 20.3374C18.1778 20.3374 18.7359 20.3374 19.2939 20.3374Z" fill="#F7941E"/>
<path d="M13.1465 33.3693C13.8098 33.2397 14.4233 33.1101 15.0428 33.007C15.1333 32.9922 15.2619 33.0894 15.3466 33.166C16.229 33.9761 17.2341 34.5623 18.4086 34.8127C19.8169 35.1131 21.0733 34.689 22.2449 33.9437C22.6131 33.711 22.9344 33.4046 23.2821 33.1395C23.361 33.0806 23.4662 32.9922 23.5451 33.004C24.1704 33.113 24.7898 33.2397 25.4501 33.3722C24.3252 35.6493 23.8899 37.9882 24.147 40.4213C20.9067 40.2593 17.6957 40.2652 14.4526 40.4155C14.7126 37.997 14.2743 35.6581 13.1465 33.3693Z" fill="#F7941E"/>
<path d="M27.3259 34.2294C27.9365 34.58 28.4712 35.01 28.9328 35.5314C30.1161 36.86 30.6275 38.4507 30.6625 40.2034C30.6742 40.8426 30.5895 41.4848 30.5515 42.1269C30.5398 42.3037 30.4551 42.4009 30.2827 42.4274C30.1366 42.448 29.9905 42.4951 29.8444 42.4981C28.8744 42.504 27.9044 42.501 26.9343 42.5069C26.7824 42.5069 26.6977 42.4716 26.648 42.3125C25.7744 39.57 25.9789 36.913 27.2499 34.3355C27.2703 34.3031 27.2937 34.2766 27.3259 34.2294Z" fill="#F7941E"/>
<path d="M11.3263 34.2C11.5717 34.851 11.8434 35.4607 12.0333 36.0941C12.644 38.1414 12.6119 40.1916 11.9778 42.233C11.9165 42.4333 11.8288 42.5069 11.6126 42.504C10.6601 42.4922 9.70762 42.501 8.75512 42.4981C8.65286 42.4981 8.54768 42.4775 8.44542 42.4657C8.17661 42.4333 8.05682 42.2919 8.01884 42.0061C7.76465 40.0384 7.9458 38.1531 8.99763 36.424C9.55861 35.499 10.33 34.7832 11.3263 34.2Z" fill="#F7941E"/>
<path d="M20.1938 14.0571C19.6007 14.0571 19.0018 14.0571 18.4086 14.0571C18.5343 13.7272 18.8849 13.5063 19.2881 13.5004C19.6153 13.4945 20.1033 13.7007 20.1938 14.0571Z" fill="#F7941E"/>
<path d="M21.8154 26.494C21.4648 26.4881 21.1785 26.1964 21.1872 25.8547C21.196 25.5042 21.4823 25.2273 21.8329 25.2302C22.1806 25.2332 22.464 25.5219 22.4582 25.8724C22.4524 26.223 22.166 26.4969 21.8154 26.494Z" fill="#F7941E"/>
<path d="M16.7695 25.2302C17.1231 25.2273 17.4035 25.5071 17.4035 25.8636C17.4035 26.22 17.126 26.4998 16.7695 26.494C16.4277 26.491 16.156 26.22 16.1472 25.8754C16.1384 25.5219 16.4189 25.2332 16.7695 25.2302Z" fill="#F7941E"/>
<circle cx="30" cy="30" r="28.5" stroke="#F7941E" stroke-width="3"/>
</svg>
