<svg width="60" height="60" viewBox="0 0 60 60" fill="none" xmlns="http://www.w3.org/2000/svg">
<circle cx="30" cy="30" r="28.5" stroke="#F7941E" stroke-width="3"/>
<path d="M49.091 36.6055C49.0208 36.6628 48.9584 36.7461 48.8778 36.7721C48.5242 36.8815 48.1654 36.9726 47.8014 37.0741C47.8404 37.35 47.8976 37.6104 47.9132 37.8733C47.9444 38.4356 47.9652 38.9979 47.9652 39.5601C47.9678 41.2158 47.9704 42.874 47.9444 44.5296C47.9392 44.8394 47.7988 45.1492 47.7052 45.4538C47.661 45.5917 47.544 45.6698 47.3906 45.6932C46.5612 45.8208 45.7293 45.8156 44.8947 45.7818C44.7179 45.7739 44.5411 45.7609 44.3669 45.7349C43.9613 45.675 43.6987 45.4381 43.6363 45.0346C43.5921 44.7483 43.6103 44.4541 43.5921 44.1652C43.5791 43.9673 43.5557 43.7669 43.5349 43.5612C43.4361 43.5612 43.3737 43.5612 43.3113 43.5612C39.9158 43.5612 36.5204 43.5638 33.1249 43.556C32.9611 43.556 32.8961 43.6029 32.8649 43.7643C32.7713 44.2537 32.6699 44.7431 32.5581 45.2273C32.4541 45.6672 32.4099 45.7271 31.9705 45.7531C31.2269 45.7974 30.4807 45.8078 29.7372 45.8208C29.5058 45.8234 29.2718 45.7818 29.0404 45.7661C28.8064 45.7505 28.6556 45.6334 28.5672 45.4199C28.38 44.98 28.3332 44.514 28.3358 44.0428C28.3462 42.1191 28.3644 40.1953 28.38 38.2716C28.3826 37.9123 28.3878 37.5505 28.4008 37.1912C28.406 37.0741 28.367 37.0194 28.2552 36.9934C27.9666 36.9231 27.6832 36.8346 27.3946 36.7773C27.2516 36.7487 27.21 36.6758 27.2022 36.5483C27.1736 36.1604 27.3426 35.835 27.5168 35.5122C27.8314 34.9343 28.3228 34.6766 28.9754 34.7442C29.2172 34.7703 29.3498 34.6245 29.4434 34.4553C29.576 34.2132 29.6826 33.9529 29.7736 33.6926C30.0778 32.8231 30.3897 31.9588 30.6627 31.079C31.0579 29.8034 31.9237 29.0198 33.1769 28.684C33.9646 28.4706 34.781 28.3534 35.5896 28.2233C36.8479 28.0228 38.1141 27.9655 39.3881 28.0619C40.259 28.1269 41.1092 28.317 41.9594 28.494C42.5834 28.6241 43.2073 28.7595 43.8183 28.9365C44.5541 29.15 45.0351 29.6576 45.2977 30.3709C45.7579 31.6204 46.2128 32.8726 46.6756 34.1221C46.7276 34.2627 46.8108 34.3928 46.8992 34.5152C47.0188 34.6844 47.1748 34.7625 47.401 34.7442C48.0562 34.6974 48.5294 34.9994 48.8336 35.5721C48.9324 35.7595 49.0078 35.9599 49.0936 36.1526C49.091 36.3036 49.091 36.4545 49.091 36.6055ZM30.9539 35.0748C35.743 36.0719 40.5008 36.1135 45.2821 35.0748C45.1573 34.7078 45.0325 34.359 44.9207 34.0049C44.6581 33.1823 44.3981 32.3571 44.1433 31.5319C43.9275 30.8316 43.5011 30.3449 42.7628 30.2017C42.456 30.1418 42.1362 30.1288 41.8216 30.1184C40.0796 30.0611 38.3351 30.0195 36.5931 29.9518C35.4752 29.9075 34.3754 29.9856 33.2965 30.2902C32.8727 30.4099 32.5503 30.626 32.4021 31.0737C32.2123 31.6412 31.9835 32.1957 31.7807 32.7606C31.4999 33.5259 31.2321 34.2939 30.9539 35.0748ZM32.0875 40.3541C32.4645 40.3099 32.7297 40.2864 32.9897 40.2448C33.2523 40.2031 33.4836 40.0808 33.65 39.8725C33.7072 39.8022 33.7566 39.6825 33.7384 39.6018C33.6812 39.3467 33.546 39.128 33.2965 39.0213C32.6543 38.7427 32.0121 38.4642 31.3595 38.2117C31.0033 38.0737 30.6315 37.9592 30.2546 37.8889C29.8828 37.8186 29.6124 38.0112 29.511 38.3757C29.4486 38.6048 29.407 38.8469 29.3992 39.0838C29.3784 39.7189 29.628 40.0495 30.2572 40.1485C30.9019 40.2526 31.5519 40.2968 32.0875 40.3541ZM43.9535 40.3099C44.7309 40.3567 45.4927 40.2578 46.2466 40.1016C46.6054 40.0287 46.8446 39.81 46.8628 39.4326C46.8784 39.1124 46.8784 38.7844 46.8238 38.472C46.7328 37.9618 46.4312 37.8082 45.9373 37.967C45.7345 38.0321 45.5239 38.0867 45.3263 38.1674C44.4891 38.498 43.6519 38.8286 42.82 39.1775C42.4352 39.3389 42.378 39.7424 42.6874 40.0183C42.7862 40.1068 42.9239 40.1745 43.0513 40.2005C43.3503 40.2526 43.6545 40.2734 43.9535 40.3099Z" fill="#F7941E"/>
<path d="M22.5691 13.0909C22.9617 13.2029 23.2685 13.4111 23.3803 13.825C23.4141 13.9526 23.4323 14.0854 23.4323 14.2181C23.4349 15.5093 23.4349 16.7979 23.4349 18.0891C23.4349 18.8154 23.0189 19.2371 22.2987 19.2371C21.9945 19.2371 21.6929 19.2397 21.3888 19.2371C20.7856 19.2267 20.3488 18.7945 20.3462 18.1906C20.341 16.8317 20.341 15.4703 20.3462 14.1114C20.3488 13.6402 20.666 13.2471 21.1184 13.13C21.147 13.1196 21.1756 13.104 21.2016 13.0909C21.6591 13.0909 22.1141 13.0909 22.5691 13.0909Z" fill="#F7941E"/>
<path d="M33.8763 13.0909C34.0609 13.1925 34.2689 13.268 34.4274 13.4007C34.651 13.5882 34.7342 13.8563 34.7342 14.1504C34.7342 15.4911 34.7368 16.8343 34.7342 18.175C34.7316 18.7997 34.2948 19.2345 33.6683 19.2397C33.3407 19.2423 33.0105 19.2449 32.6829 19.2397C32.0953 19.2293 31.6507 18.7919 31.6481 18.201C31.6429 16.8473 31.6429 15.4937 31.6481 14.1374C31.6507 13.6584 31.9263 13.294 32.3761 13.1378C32.4073 13.1248 32.4385 13.1066 32.4723 13.0909C32.9403 13.0909 33.4083 13.0909 33.8763 13.0909Z" fill="#F7941E"/>
<path d="M27.535 41.7728C27.535 42.4653 27.535 43.1291 27.535 43.8111C27.4778 43.8163 27.4232 43.8215 27.3686 43.8215C24.8649 43.8215 22.3612 43.8215 19.8575 43.8215C18.3521 43.8215 16.8468 43.8215 15.3414 43.8241C14.9904 43.8241 14.6784 43.7486 14.4392 43.4701C14.2807 43.2853 14.2027 43.0718 14.1845 42.8323C14.1793 42.7751 14.1845 42.7178 14.1845 42.6605C14.1819 33.8722 14.1819 25.0864 14.1819 16.298C14.1819 15.5483 14.5718 15.1474 15.3258 15.1448C16.6102 15.1396 17.8919 15.1422 19.1763 15.1422C19.2127 15.1422 19.2491 15.1422 19.3011 15.1422C19.3011 15.8269 19.3011 16.5011 19.3011 17.1935C19.2309 17.1935 19.1633 17.1935 19.0957 17.1935C18.4951 17.1935 17.8945 17.1935 17.294 17.1935C16.6882 17.1935 16.2462 17.6153 16.241 18.2218C16.2306 19.1017 16.2358 19.9815 16.2358 20.8614C16.2358 24.6517 16.2358 28.4445 16.2358 32.2347C16.2358 35.0384 16.2358 37.842 16.2384 40.6456C16.2384 41.2392 16.5322 41.627 17.0704 41.7494C17.1562 41.7676 17.2446 41.7702 17.333 41.7702C20.6582 41.7702 23.9861 41.7702 27.3114 41.7702C27.3842 41.7728 27.4518 41.7728 27.535 41.7728Z" fill="#F7941E"/>
<path d="M27.5402 25.3858C30.0309 25.3858 32.5216 25.3858 35.0149 25.3858C35.0903 25.3858 35.1657 25.3858 35.2411 25.3884C35.5505 25.4066 35.7429 25.594 35.7533 25.909C35.7637 26.237 35.7637 26.5676 35.7533 26.8956C35.7429 27.2471 35.5375 27.4293 35.1553 27.4319C34.4924 27.4345 33.832 27.4267 33.169 27.4267C31.5493 27.4267 29.9269 27.4319 28.3072 27.4345C26.9006 27.4345 25.494 27.4293 24.0875 27.4293C22.7563 27.4293 21.4252 27.4319 20.0966 27.4345C20.0082 27.4345 19.9198 27.4319 19.8314 27.4241C19.5142 27.4007 19.3244 27.221 19.314 26.9061C19.3036 26.5702 19.3036 26.2344 19.314 25.8986C19.3244 25.5993 19.5246 25.4092 19.8184 25.3884C19.8938 25.3832 19.9692 25.3832 20.0446 25.3832C22.5457 25.3858 25.0443 25.3858 27.5402 25.3858Z" fill="#F7941E"/>
<path d="M40.896 27.398C40.2096 27.398 39.5414 27.398 38.8524 27.398C38.8472 27.3304 38.842 27.2653 38.842 27.1976C38.842 23.9827 38.842 20.7677 38.8446 17.5528C38.8446 16.9384 38.4832 16.6026 37.7969 16.5948C37.1963 16.5896 36.5957 16.5948 35.9951 16.5948C35.9275 16.5948 35.8599 16.5948 35.7793 16.5948C35.7793 16.1054 35.7793 15.6342 35.7793 15.137C35.9639 15.137 36.1433 15.137 36.3253 15.137C37.4641 15.137 38.6002 15.137 39.739 15.1396C39.8846 15.1396 40.0302 15.1448 40.1732 15.1761C40.6854 15.2854 40.9012 15.5587 40.9012 16.0768C40.9012 19.7811 40.9012 23.4828 40.9012 27.1872C40.896 27.2523 40.896 27.3199 40.896 27.398Z" fill="#F7941E"/>
<path d="M22.7693 35.6268C21.7216 35.6268 20.6712 35.6241 19.6234 35.6294C19.4259 35.6294 19.3661 35.5044 19.3479 35.3586C19.3193 35.153 19.3141 34.9421 19.3141 34.7365C19.3141 34.4527 19.3141 34.1664 19.3427 33.8852C19.3713 33.6249 19.4441 33.578 19.7014 33.578C21.7554 33.578 23.8093 33.578 25.8632 33.578C26.1076 33.578 26.1986 33.6353 26.2064 33.88C26.2246 34.3668 26.2246 34.8536 26.2064 35.3378C26.1986 35.5747 26.1024 35.6346 25.858 35.6346C24.8285 35.6346 23.7989 35.6346 22.7693 35.6346C22.7693 35.6294 22.7693 35.6268 22.7693 35.6268Z" fill="#F7941E"/>
<path d="M30.6132 15.1552C30.6132 15.8346 30.6132 16.5037 30.6132 17.1831C28.5619 17.1831 26.5158 17.1831 24.4618 17.1831C24.4618 16.5037 24.4618 15.8372 24.4618 15.1552C26.5132 15.1552 28.5515 15.1552 30.6132 15.1552Z" fill="#F7941E"/>
</svg>
