<svg width="68" height="61" viewBox="0 0 68 61" fill="none" xmlns="http://www.w3.org/2000/svg">
<path d="M34.7489 15.4107C35.9974 15.4107 37.1478 15.4107 38.3011 15.4107C38.5503 15.4107 38.8022 15.4023 39.0513 15.4191C39.7511 15.4669 40.2102 15.9421 40.2186 16.6085C40.227 17.303 39.7511 17.8344 39.0401 17.8484C37.8449 17.8738 36.6524 17.8569 35.4571 17.8569C35.25 17.8569 35.0428 17.8569 34.7517 17.8569C34.7517 18.453 34.7517 18.9872 34.7517 19.5214C34.7517 20.0388 34.7517 20.5589 34.7517 21.1606C35.2108 21.1606 35.6055 21.1606 36.003 21.1606C36.8903 21.1606 37.7749 21.1606 38.6622 21.1606C39.6728 21.1634 40.2158 21.5908 40.2214 22.3837C40.227 23.185 39.6812 23.6293 38.6846 23.6293C37.6069 23.6293 36.5264 23.6293 35.4487 23.6293C35.2416 23.6293 35.0372 23.6293 34.7909 23.6293C34.7909 25.007 34.7909 26.3144 34.7909 27.7372C35.8042 27.7372 36.8147 27.7372 37.8281 27.7372C38.234 27.7372 38.637 27.7147 39.0401 27.7344C39.7483 27.7681 40.2494 28.2967 40.2326 28.9659C40.2158 29.6435 39.7091 30.1496 39.0009 30.158C37.6937 30.1749 36.3837 30.1721 35.0764 30.1777C34.984 30.1777 34.8945 30.203 34.7461 30.2255C34.7461 30.6445 34.6929 31.055 34.7685 31.4402C34.8049 31.6257 35.068 31.8029 35.264 31.9125C36.8679 32.8151 37.7945 34.1703 37.8672 36.0204C37.9428 37.8958 37.1478 39.3804 35.5495 40.342C33.8895 41.3429 32.1568 41.3317 30.5164 40.2885C28.8313 39.2201 28.0867 37.6203 28.3134 35.6352C28.529 33.7373 29.6039 32.4355 31.3478 31.7241C31.7789 31.5498 31.9217 31.3727 31.9189 30.9088C31.9021 24.8524 31.9077 18.796 31.9105 12.7396C31.9105 12.5653 31.9021 12.391 31.9133 12.2166C31.9637 11.3787 32.5823 10.7827 33.3745 10.8024C34.1415 10.822 34.7321 11.4181 34.7461 12.2363C34.7629 13.2682 34.7489 14.2917 34.7489 15.4107Z" fill="#F7941E"/>
<path d="M41.7778 45.116C41.1424 45.116 40.2214 44.7898 39.3676 44.205C38.0296 43.2885 37.2206 43.3026 35.8742 44.1994C34.0211 45.4336 32.0504 45.4365 30.2001 44.205C28.8425 43.3026 28.0475 43.2997 26.7039 44.1966C24.8508 45.4336 22.8549 45.4505 21.0326 44.2022C20.4588 43.8114 19.8737 43.55 19.1683 43.5162C18.5301 43.4853 18.113 42.9764 18.1242 42.3523C18.1382 41.745 18.5917 41.2586 19.2243 41.2277C20.2404 41.1799 21.1866 41.4498 21.9928 42.0627C23.2384 43.0158 24.4085 42.9792 25.699 42.0936C27.5269 40.8397 29.4163 40.8931 31.261 42.1217C32.6243 43.0298 33.4389 43.027 34.8105 42.1161C36.658 40.8931 38.5475 40.8397 40.3726 42.0964C41.6602 42.9821 42.8359 43.0158 44.0788 42.0627C44.8346 41.4835 45.7191 41.2221 46.6737 41.2221C47.4295 41.2221 47.9305 41.6719 47.9473 42.3495C47.9613 43.013 47.5078 43.4094 46.794 43.55C46.2258 43.6624 45.6351 43.8508 45.1509 44.1572C44.2299 44.7477 43.2754 45.13 41.7778 45.116Z" fill="#F7941E"/>
<path d="M24.9348 38.5619C24.0642 38.2864 23.2188 38.0474 22.3931 37.7522C21.8696 37.5638 21.3769 37.2939 20.8703 37.0578C19.9969 36.6529 19.1991 36.7766 18.4321 37.3473C17.8919 37.7494 17.3404 38.1486 16.7498 38.4635C16.2991 38.7025 15.7869 38.8655 15.2858 38.9555C14.6812 39.0623 14.1381 38.6125 14.0233 38.0193C13.9142 37.4542 14.2669 36.9425 14.8211 36.7007C15.4482 36.428 16.1144 36.1721 16.6434 35.7532C18.4825 34.2913 20.3916 34.1282 22.4575 35.2078C23.1013 35.5452 23.7871 35.8291 24.4869 36.0147C24.8564 36.1131 25.3267 36.0203 25.699 35.8798C26.3764 35.6211 26.9894 35.7336 27.3169 36.2959C27.6528 36.875 27.4821 37.5779 26.8103 37.9153C26.2364 38.1964 25.5954 38.3398 24.9348 38.5619Z" fill="#F7941E"/>
<path d="M50.7633 39.0933C50.0915 38.7784 49.4029 38.4944 48.7535 38.1345C48.2496 37.8562 47.8046 37.4767 47.3231 37.159C46.7548 36.7822 46.1418 36.6951 45.5064 36.9565C44.8653 37.2208 44.2383 37.516 43.6057 37.7944C42.514 38.2751 41.3887 38.6153 40.1906 38.306C39.7903 38.202 39.3928 38.0108 39.0485 37.7775C38.5615 37.4457 38.4579 36.83 38.7294 36.3324C39.0093 35.8179 39.6588 35.5143 40.1598 35.8123C40.9996 36.3099 41.7582 36.0456 42.528 35.7251C43.239 35.4299 43.9248 35.0701 44.6414 34.7917C46.0298 34.2519 47.3567 34.415 48.6135 35.2191C49.5149 35.7954 50.3155 36.532 51.4072 36.8047C51.9306 36.9369 52.1574 37.5694 52.023 38.0924C51.8774 38.6434 51.3876 39.0033 50.7633 39.0933Z" fill="#F7941E"/>
<path d="M11.264 50.3521C10.037 48.454 8.67529 46.629 7.61286 44.6416C5.19783 40.1239 4.19252 35.2445 4.405 29.7789C1.90544 29.8934 12.3355 29.7949 8.45139 29.7537C8.18635 38.2532 10.9098 45.3216 17.3164 50.43C27.077 58.2105 37.4523 58.1784 48.0126 51.6435C48.7369 52.6281 49.4657 53.6173 50.3728 54.8515C48.8237 55.7582 47.4345 56.7496 45.906 57.4343C35.0189 62.3114 24.7694 61.2169 15.2167 53.9905C14.9471 53.7867 14.6432 53.6287 14.3553 53.4501C13.3248 52.4175 12.2944 51.3848 11.264 50.3521Z" fill="#F7941E"/>
<path d="M-3.05176e-05 30.5427L6.52761 19.2118L13.0575 30.5427H-3.05176e-05Z" fill="#F7941E"/>
<path d="M56.7359 10.4696C57.9629 12.3678 59.3246 14.1927 60.387 16.1802C62.8021 20.6978 63.8074 25.5773 63.5949 31.0429C66.0945 30.9284 55.6644 31.0268 59.5485 31.068C59.8136 22.5686 57.0901 15.5002 50.6835 10.3918C40.9229 2.61127 30.5477 2.64333 19.9873 9.17822C19.2631 8.19364 18.5342 7.20447 17.6271 5.97031C19.1762 5.06358 20.5654 4.07212 22.0939 3.38749C32.981 -1.48964 43.2305 -0.39514 52.7832 6.83125C53.0529 7.03504 53.3567 7.19302 53.6446 7.37162C54.6751 8.40429 55.7055 9.43695 56.7359 10.4696Z" fill="#F7941E"/>
<path d="M68 30.2758L61.47 41.6091L54.9424 30.2758H68Z" fill="#F7941E"/>
</svg>
