<svg width="60" height="61" viewBox="0 0 60 61" fill="none" xmlns="http://www.w3.org/2000/svg">
<path d="M28.7882 60.4109C28.4284 60.3765 28.0686 60.3376 27.7088 60.3101C22.5134 59.9114 17.7191 58.305 13.4084 55.3834C6.4232 50.6469 2.07579 44.1185 0.519703 35.8096C-0.616995 29.7441 0.125525 23.8687 2.60518 18.2157C2.63726 18.14 2.67393 18.0667 2.7106 17.9934C2.71747 17.9773 2.73351 17.9659 2.76789 17.9246C3.27207 18.1538 3.78542 18.3875 4.29877 18.6212C4.81441 18.8573 5.32775 19.0956 5.8411 19.3339C2.66247 26.7652 2.55934 34.1941 5.9236 41.5635C8.42159 47.0378 12.4092 51.1808 17.7466 53.9581C28.5522 59.5814 41.7479 57.1501 49.7919 48.1125C57.8886 39.0154 58.8305 25.6034 52.0424 15.6263C48.3619 10.2161 43.3636 6.57038 37.0476 4.83344C30.7476 3.10108 24.6081 3.68999 18.6404 6.41226C18.1546 5.39027 17.671 4.36827 17.1714 3.31648C17.4235 3.20191 17.6596 3.09192 17.9002 2.98422C20.8909 1.66662 24.0122 0.853144 27.2711 0.569001C27.9265 0.511714 28.5865 0.493382 29.2465 0.454427C29.3153 0.449844 29.3841 0.424638 29.4528 0.410889C29.8195 0.410889 30.1862 0.410889 30.5528 0.410889C30.6216 0.426929 30.6903 0.454427 30.7591 0.454427C33.7108 0.514005 36.5938 0.986049 39.3852 1.9393C47.3283 4.65012 53.2112 9.76011 56.949 17.2716C59.6899 22.7826 60.5287 28.6304 59.6876 34.7166C59.2201 38.1011 58.1728 41.3069 56.5777 44.3316C54.16 48.9146 50.7888 52.6405 46.462 55.4865C42.1513 58.3188 37.4166 59.9251 32.2693 60.3124C31.9164 60.3399 31.5658 60.3765 31.2151 60.4109C30.4016 60.4109 29.5949 60.4109 28.7882 60.4109Z" fill="#F7941E"/>
<path d="M2.43052 2.51611C2.81418 2.57338 3.0262 2.8647 3.26851 3.1137C3.99796 3.86067 4.72236 4.61263 5.44929 5.3621C6.40843 6.35309 7.36757 7.34159 8.32419 8.33258C8.37467 8.38487 8.41 8.39981 8.48573 8.37989C9.89667 7.98648 11.2799 8.81563 11.5701 10.2374C11.6686 10.7229 11.6055 11.201 11.3985 11.6566C11.3934 11.6666 11.3833 11.6741 11.3682 11.6915C11.1461 11.3852 10.9265 11.084 10.7069 10.7827C10.5327 10.5436 10.3611 10.3046 10.1869 10.0656C9.96735 9.7618 9.59126 9.68959 9.27828 9.89875C8.9653 10.1079 8.65989 10.3245 8.357 10.5486C8.11974 10.7229 8.0314 11.1213 8.27118 11.44C8.65231 11.9504 9.02083 12.4683 9.39691 12.9813C9.41206 13.0012 9.42215 13.0236 9.45496 13.0784C9.31866 13.0784 9.20761 13.0809 9.09655 13.0784C7.91024 13.0435 6.89557 12.1322 6.7618 10.9669C6.71637 10.5636 6.75927 10.1652 6.92334 9.7867C6.95363 9.71698 6.94605 9.67465 6.888 9.61738C5.65374 8.45957 4.422 7.29926 3.19026 6.13647C2.56682 5.55382 1.9459 4.96869 1.32751 4.38107C0.961523 4.03248 0.961523 3.50959 1.31489 3.15104C1.40576 3.0639 1.49915 2.97924 1.58244 2.88711C1.7465 2.70784 1.93581 2.57089 2.17812 2.51611C2.26141 2.51611 2.34723 2.51611 2.43052 2.51611ZM1.87523 3.85071C1.87523 4.152 2.10997 4.38605 2.41285 4.38605C2.70312 4.38605 2.95048 4.14702 2.95553 3.86067C2.96057 3.57682 2.70312 3.31787 2.41538 3.31538C2.11754 3.3104 1.87523 3.55192 1.87523 3.85071Z" fill="#F7941E"/>
<path d="M6.12108 4.96869C6.63094 4.79689 7.11304 4.63255 7.61785 4.46324C7.67085 4.02999 7.72891 3.56437 7.78696 3.09627C8.46341 3.09627 9.12723 3.09627 9.80873 3.09627C9.86678 3.56188 9.92483 4.0275 9.98289 4.4981C10.5028 4.60765 11.0026 4.76701 11.4721 5.00853C11.6589 5.10315 11.8431 5.20275 12.0173 5.31479C12.0905 5.3621 12.1309 5.34965 12.1914 5.30483C12.5372 5.03592 12.8855 4.76701 13.2238 4.50557C13.7008 4.97616 14.1753 5.44427 14.6574 5.91985C14.3722 6.2784 14.0794 6.6469 13.7816 7.02288C14.2107 7.6603 14.506 8.35748 14.6625 9.11691C15.0386 9.15924 15.4121 9.20406 15.7857 9.24639C15.8614 9.25386 15.9371 9.25635 16.0103 9.27627C16.0406 9.28374 16.081 9.32606 16.081 9.35096C16.0835 9.99087 16.081 10.6308 16.0785 11.2682C16.0785 11.2707 16.0734 11.2732 16.0659 11.2807C15.6368 11.3329 15.2052 11.3902 14.7735 11.435C14.6827 11.445 14.6499 11.4774 14.6347 11.5545C14.4934 12.2243 14.2233 12.8418 13.8598 13.422C13.8346 13.4593 13.8119 13.4992 13.7816 13.544C14.0719 13.91 14.3646 14.2785 14.6473 14.6346C14.1703 15.1052 13.6958 15.5733 13.2112 16.0489C12.8578 15.775 12.4867 15.4886 12.1081 15.1973C11.9693 15.277 11.828 15.3616 11.6866 15.4388C11.1793 15.7227 10.6391 15.9169 10.0712 16.0389C9.99803 16.0538 9.97027 16.0812 9.96269 16.146C9.92736 16.4497 9.8895 16.7535 9.85416 17.0573C9.83902 17.1893 9.82135 17.3212 9.80368 17.4582C9.12976 17.4582 8.46088 17.4582 7.78191 17.4582C7.7491 17.1942 7.71376 16.9278 7.68095 16.6639C7.66076 16.4995 7.64056 16.3352 7.62794 16.1709C7.62037 16.0713 7.56232 16.0538 7.4765 16.0339C6.77986 15.8771 6.12866 15.6131 5.53298 15.2247C5.52036 15.2147 5.50269 15.2098 5.47998 15.1998C5.10894 15.4861 4.73538 15.775 4.37444 16.0563C3.89487 15.5857 3.42035 15.1151 2.93825 14.6421C3.21842 14.2885 3.51121 13.92 3.78633 13.5764C3.59198 13.1805 3.39006 12.807 3.22095 12.4161C3.11746 12.1521 3.04679 11.8733 2.97107 11.5994C2.94078 11.4948 2.91806 11.44 2.78429 11.4276C2.36782 11.3927 1.95135 11.3305 1.51721 11.2757C1.51469 11.2358 1.50964 11.186 1.50964 11.1387C1.50964 10.5735 1.51216 10.0083 1.50711 9.44558C1.50459 9.3161 1.53235 9.27378 1.6737 9.26133C2.09017 9.22398 2.50664 9.16422 2.93068 9.11193C3.03669 8.64382 3.17804 8.18568 3.40268 7.73998C3.93778 8.14584 4.46531 8.54423 4.99536 8.94511C4.9474 9.14181 4.88682 9.33354 4.84896 9.53024C4.62684 10.7279 4.89439 11.8135 5.66423 12.7671C6.26243 13.5067 7.03984 13.9797 7.97879 14.164C9.21305 14.4055 10.3388 14.1416 11.3232 13.3622C12.141 12.7173 12.6331 11.8683 12.777 10.8499C12.9386 9.71449 12.6559 8.68117 11.9214 7.78231C11.2803 7.00047 10.4473 6.52988 9.44526 6.36056C8.83697 6.25848 8.23119 6.29831 7.64056 6.48008C7.56232 6.50249 7.52193 6.49004 7.46893 6.43277C7.03732 5.95719 6.59813 5.48162 6.12108 4.96869Z" fill="#F7941E"/>
<path d="M17.512 37.2531C17.0249 37.2531 16.5756 37.2531 16.0859 37.2531C16.0859 37.5768 16.0859 37.893 16.0859 38.2092C16.0859 38.9985 16.091 39.7853 16.0834 40.5746C16.0758 41.217 15.8461 41.4337 15.2 41.4337C14.3544 41.4337 13.5114 41.4337 12.6658 41.4337C12.0727 41.4337 11.8177 41.1946 11.8177 40.6145C11.8152 38.1694 11.8152 35.7243 11.8152 33.2816C11.8152 32.0715 11.8127 30.8589 11.8127 29.6488C11.8127 29.0712 12.0701 28.8172 12.6532 28.8172C13.5316 28.8172 14.4125 28.8147 15.2908 28.8172C15.8411 28.8197 16.1162 29.1683 16.1036 29.7211C16.0783 30.8042 16.096 31.8873 16.096 32.9853C16.5579 32.9853 17.0047 32.9853 17.5069 32.9853C17.5069 32.694 17.5069 32.3903 17.5069 32.089C17.5069 31.7354 17.5347 31.3793 17.5019 31.0283C17.4211 30.1742 18.2616 29.0612 19.3142 28.8446C19.7912 28.7475 20.3061 28.7824 20.8008 28.8147C21.2425 28.8446 21.5429 28.7176 21.8332 28.3715C22.6989 27.3307 23.6051 26.3273 24.496 25.3064C24.9302 24.8084 25.4905 24.5843 26.1468 24.5818C27.2776 24.5769 28.4109 24.5818 29.5644 24.5818C29.5644 23.8896 29.5644 23.2223 29.5644 22.5003C29.2867 22.5003 29.0015 22.5003 28.7188 22.5003C28.1181 22.5003 27.5148 22.5028 26.9141 22.5003C26.3108 22.4978 26.0433 22.2338 26.0433 21.6512C26.0433 20.7947 26.0433 19.9381 26.0433 19.0816C26.0433 18.5288 26.3184 18.2649 26.9065 18.2649C29.4154 18.2624 31.9269 18.2649 34.4358 18.2649C35.1425 18.2649 35.8467 18.2624 36.5535 18.2649C37.1289 18.2674 37.4318 18.5637 37.4293 19.1289C37.4293 19.9506 37.4243 20.7747 37.4167 21.5964C37.4116 22.2438 37.1491 22.4978 36.4828 22.5003C35.617 22.5028 34.7513 22.5003 33.8704 22.5003C33.8704 23.1999 33.8704 23.8697 33.8704 24.5818C34.0218 24.5818 34.1556 24.5818 34.2894 24.5818C36.2455 24.5818 38.1991 24.6167 40.1528 24.5694C41.2987 24.542 42.4295 25.5629 42.3891 26.7655C42.3386 28.2794 42.3739 29.7982 42.3714 31.3146C42.3714 31.4042 42.384 31.4914 42.3916 31.5985C42.6162 31.5985 42.8182 31.5985 43.0655 31.5985C43.0731 31.4789 43.0882 31.3594 43.0882 31.2399C43.0908 30.4855 43.0857 29.731 43.0908 28.9791C43.0958 28.3491 43.3331 28.1101 43.9691 28.1051C44.8248 28.1001 45.6804 28.1001 46.5361 28.1051C47.0989 28.1101 47.3564 28.3715 47.3564 28.9293C47.3589 32.5845 47.3615 36.2397 47.3589 39.8949C47.3589 40.4775 47.0813 40.7489 46.4907 40.7489C45.635 40.7489 44.7793 40.7514 43.9237 40.7489C43.3608 40.7464 43.0958 40.4925 43.0908 39.9372C43.0832 39.1728 43.0882 38.4059 43.0882 37.6415C43.0882 37.5195 43.0882 37.395 43.0882 37.2581C42.8409 37.2581 42.6364 37.2581 42.3714 37.2581C42.3714 37.5892 42.3613 37.9154 42.3739 38.2416C42.4017 38.9363 42.1392 39.4965 41.647 39.9845C39.9761 41.6453 38.3127 43.3136 36.6569 44.9893C36.19 45.4599 35.6296 45.674 34.9835 45.674C32.0303 45.679 29.0772 45.6815 26.1241 45.6715C25.5183 45.669 24.9655 45.4723 24.5516 45.0042C23.5798 43.9037 22.6131 42.8006 21.654 41.6876C21.505 41.5158 21.3662 41.4262 21.1315 41.4337C20.6469 41.4511 20.1572 41.4063 19.6751 41.4411C18.6882 41.5133 17.4287 40.2684 17.4994 39.2799C17.5499 38.62 17.512 37.9552 17.512 37.2531ZM44.5168 29.5119C44.5168 30.4282 44.5168 31.3171 44.5168 32.206C44.5168 32.7538 44.2695 33.0078 43.7268 33.0127C43.0781 33.0177 42.432 33.0177 41.7833 33.0127C41.2129 33.0102 40.9731 32.7687 40.9731 32.1936C40.9705 30.3659 40.9731 28.5383 40.9705 26.7082C40.9705 26.1331 40.8342 26.0061 40.2537 26.0061C35.6498 26.0061 31.0434 26.016 26.4396 25.9936C25.9297 25.9911 25.6117 26.1605 25.3012 26.529C24.337 27.6669 23.3426 28.7774 22.3658 29.9053C22.1764 30.1244 21.9543 30.2091 21.6691 30.2066C21.0331 30.1966 20.397 30.2016 19.7609 30.2041C19.1829 30.2066 18.9356 30.4431 18.933 31.0158C18.928 33.7572 18.928 36.4986 18.933 39.2375C18.933 39.8028 19.1602 40.0194 19.7332 40.0269C20.3667 40.0343 21.0028 40.0343 21.6363 40.0269C21.9316 40.0244 22.184 40.1065 22.3758 40.3257C23.4132 41.5208 24.4531 42.7135 25.4804 43.9161C25.6849 44.1527 25.907 44.2498 26.2276 44.2473C29.1555 44.2348 32.0808 44.2373 35.0087 44.2448C35.2687 44.2448 35.458 44.1801 35.6473 43.9908C37.3359 42.2827 39.0396 40.5896 40.7257 38.879C40.862 38.7396 40.9478 38.503 40.9579 38.3038C40.9882 37.7461 40.968 37.1859 40.9705 36.6256C40.9731 36.0828 41.2431 35.8114 41.7959 35.8064C42.4093 35.8015 43.0226 35.8039 43.6359 35.8064C44.2493 35.8089 44.5143 36.0753 44.5143 36.6829C44.5143 37.5494 44.5143 38.4134 44.5143 39.2898C45.0015 39.2898 45.4558 39.2898 45.9126 39.2898C45.9126 36.0156 45.9126 32.7662 45.9126 29.5094C45.4482 29.5119 45.009 29.5119 44.5168 29.5119ZM13.2691 30.2066C13.2691 33.4908 13.2691 36.7501 13.2691 40.0269C13.7411 40.0269 14.1853 40.0269 14.6674 40.0269C14.6674 39.8974 14.6674 39.7853 14.6674 39.6758C14.6674 38.8192 14.6977 37.9602 14.6598 37.1062C14.6068 35.9135 14.9349 35.7666 15.99 35.8064C16.4923 35.8264 16.9971 35.8089 17.4842 35.8089C17.4842 35.3159 17.4842 34.8777 17.4842 34.4245C16.8103 34.4245 16.1642 34.427 15.5155 34.4245C14.9324 34.422 14.6649 34.1631 14.6649 33.5954C14.6649 32.6816 14.6649 31.7678 14.6649 30.854C14.6649 30.6423 14.6649 30.4282 14.6649 30.2041C14.1828 30.2066 13.7461 30.2066 13.2691 30.2066ZM31.0233 24.5569C31.5053 24.5569 31.9597 24.5569 32.4392 24.5569C32.4392 23.7029 32.4392 22.8713 32.4392 22.0396C32.4392 21.2827 32.6538 21.071 33.4261 21.071C34.2667 21.071 35.1072 21.071 35.9603 21.071C35.9603 20.598 35.9603 20.1597 35.9603 19.7091C33.1182 19.7091 30.2963 19.7091 27.4643 19.7091C27.4643 20.1697 27.4643 20.6079 27.4643 21.071C28.3831 21.071 29.2817 21.0686 30.1802 21.071C30.7582 21.0735 31.0434 21.4147 31.0283 21.9824C31.0031 22.8364 31.0233 23.6904 31.0233 24.5569Z" fill="#F7941E"/>
<path d="M28.9535 41.9242C29.635 39.8999 30.3165 37.8781 31.0106 35.8214C29.8243 35.8214 28.6835 35.8214 27.482 35.8214C27.5729 35.6247 27.6385 35.4653 27.7167 35.3109C28.7718 33.2269 29.8269 31.1428 30.892 29.0612C30.945 28.9591 31.0712 28.8272 31.1646 28.8272C32.2727 28.8097 33.3807 28.8172 34.5645 28.8172C33.3731 30.7021 32.2096 32.5421 31.0182 34.427C32.2121 34.427 33.3479 34.427 34.5645 34.427C32.6866 36.9792 30.8516 39.4741 29.0166 41.969C28.9939 41.9541 28.9737 41.9391 28.9535 41.9242Z" fill="#F7941E"/>
</svg>
