<svg width="254" height="53" viewBox="0 0 254 53" fill="none" xmlns="http://www.w3.org/2000/svg">
<path d="M0 0L0.0638397 52.9076L254 53V0H0ZM37.7202 17.7221H23.6937C22.6631 17.7221 21.7329 17.8237 20.9121 18.027C20.0913 18.2303 19.3252 18.5629 18.6138 19.0342C17.9025 19.5054 17.3188 20.0968 16.8446 20.8175C16.3794 21.5382 16.0146 22.4345 15.7502 23.5155C15.4857 24.5966 15.358 25.8347 15.358 27.2299C15.358 28.6252 15.4857 29.8633 15.7502 30.9444C16.0146 32.0255 16.3794 32.931 16.8446 33.6424C17.3097 34.3631 17.9025 34.9545 18.6138 35.4257C19.3252 35.897 20.0913 36.2296 20.9121 36.4329C21.7329 36.6362 22.654 36.7378 23.6937 36.7378H37.7202V42.5959L23.6937 42.5497C18.8601 42.5404 15.2577 41.2469 12.8865 38.6782C10.643 36.128 9.52124 32.3119 9.52124 27.2484C9.52124 24.5596 9.84044 22.2127 10.4697 20.2169C11.099 18.2211 12.0201 16.6226 13.2148 15.4214C14.4278 14.2387 15.9143 13.3516 17.6745 12.788C19.4255 12.1782 21.4319 11.864 23.6845 11.864H37.711V17.7221H37.7202ZM72.4763 42.5959H66.6304V17.7221H57.4101C54.7198 17.7221 52.6495 18.4613 51.1812 19.9397C49.7129 21.4181 48.9833 23.8574 48.9833 27.2484C48.9833 30.6302 49.7129 33.0511 51.1812 34.5202C52.6495 35.9894 54.7289 36.7286 57.4101 36.7286H63.8944V42.5866L57.4101 42.6051H57.3281C55.0663 42.6051 53.0599 42.3187 51.3089 41.7366C49.5487 41.1545 48.0622 40.2582 46.831 39.0478C45.6363 37.8373 44.7152 36.2204 44.0859 34.2245C43.4475 32.2195 43.1374 29.8541 43.1374 27.1191C43.1374 24.4395 43.4566 22.1111 44.095 20.1337C44.7334 18.1564 45.6545 16.5764 46.8492 15.3937C48.0895 14.2109 49.5943 13.3239 51.3545 12.7603C53.1146 12.1597 55.1393 11.864 57.4101 11.864H72.4763V42.5959ZM104.442 41.7181V42.5959H98.5776C98.5776 35.7029 96.8175 32.2565 93.3063 32.2565H77.702V26.3984H93.3063C95.0573 26.3984 96.3706 26.0565 97.2552 25.3727C98.1399 24.689 98.5776 23.5894 98.5776 22.0649C98.5776 20.5403 98.1399 19.4407 97.2552 18.757C96.3706 18.0732 95.0573 17.7313 93.3063 17.7313H77.702V11.8733H93.3063C97.2461 11.8733 100.092 12.7418 101.843 14.4881C103.575 16.216 104.442 18.7015 104.442 21.9447C104.442 25.8902 103.366 28.5051 101.222 29.7709C103.366 31.6374 104.442 35.6198 104.442 41.7181ZM144.816 42.5959H119.59V11.864H125.454V36.7378H144.816V42.5959ZM178.505 42.5959H172.659V17.7221H163.439C160.748 17.7221 158.678 18.4613 157.21 19.9397C155.742 21.4181 155.012 23.8574 155.012 27.2484C155.012 30.6302 155.742 33.0511 157.21 34.5202C158.678 35.9894 160.758 36.7286 163.439 36.7286H169.923V42.5866L163.439 42.6051H163.357C161.095 42.6051 159.089 42.3187 157.338 41.7366C155.577 41.1545 154.091 40.2582 152.86 39.0478C151.665 37.8373 150.744 36.2204 150.115 34.2245C149.476 32.2195 149.166 29.8541 149.166 27.1191C149.166 24.4395 149.485 22.1111 150.124 20.1337C150.762 18.1564 151.683 16.5764 152.878 15.3937C154.118 14.2109 155.623 13.3239 157.383 12.7603C159.143 12.1597 161.168 11.864 163.439 11.864H178.505V42.5959ZM213.033 42.5959H207.251V24.6982C207.251 22.4529 206.558 20.7251 205.181 19.5239C203.804 18.3227 201.533 17.7221 198.359 17.7221C195.194 17.7221 192.915 18.3227 191.537 19.5239C190.16 20.7251 189.467 22.4437 189.467 24.6982V42.5959H183.685V24.4672C183.685 20.337 184.843 17.2047 187.16 15.0703C189.54 12.9358 193.27 11.864 198.341 11.864H198.359C203.43 11.864 207.16 12.9358 209.558 15.0703C211.875 17.2047 213.033 20.337 213.033 24.4672V42.5959ZM247.187 27.2484C247.187 28.9393 247.051 30.4916 246.777 31.9053C246.503 33.319 246.129 34.5572 245.664 35.6013C245.199 36.6454 244.616 37.5786 243.932 38.3825C243.238 39.1956 242.491 39.8516 241.679 40.3691C240.813 40.8865 239.855 41.3115 238.806 41.6534C237.757 41.9953 236.709 42.2355 235.669 42.3741C234.62 42.5127 233.517 42.5866 232.34 42.5866H217.566V36.7286H232.34C233.735 36.7286 234.967 36.5622 236.043 36.2388C237.119 35.9154 238.058 35.3888 238.87 34.6681C239.682 33.9473 240.302 32.9679 240.721 31.739C241.141 30.5009 241.351 29.0317 241.351 27.3131C241.351 25.5668 241.141 24.0699 240.721 22.8133C240.302 21.5567 239.682 20.5588 238.87 19.8288C238.058 19.0988 237.11 18.5629 236.043 18.2303C234.967 17.8977 233.735 17.7313 232.34 17.7313H217.566V11.8733H232.34C234.693 11.8733 236.8 12.1689 238.642 12.7695C240.475 13.3424 242.035 14.2202 243.33 15.4029C244.579 16.6041 245.537 18.1933 246.202 20.1614C246.868 22.1388 247.196 24.4672 247.196 27.1468V27.2484H247.187Z" fill="#F7941E"/>
</svg>
