<svg width="33" height="58" viewBox="0 0 33 58" fill="none" xmlns="http://www.w3.org/2000/svg">
<path d="M32.9877 5.16287C32.9764 1.4307 31.5698 0.0186518 27.9043 0.0116845C20.2905 -0.0022502 12.679 -0.00457265 5.06528 0.00936203C1.38391 0.0186518 0.0271354 1.37264 0.0203516 5.19771C-0.00678386 21.2087 -0.00678386 37.2219 0.0203516 53.2329C0.0271354 56.7816 1.24145 57.9823 4.65825 57.9892C12.4167 58.0055 20.1752 58.0008 27.9337 57.9916C31.9022 57.9869 32.9899 56.8628 32.9944 52.7475C33.0035 44.8535 32.9967 36.9618 32.9967 29.0678C32.9944 21.0995 33.0103 13.1312 32.9877 5.16287ZM20.7903 3.12841C20.7925 3.30027 20.7948 3.47445 20.7993 3.64631C17.9297 3.64631 15.0624 3.64631 12.1929 3.64631C12.1906 3.47445 12.1861 3.30027 12.1838 3.12841C15.0534 3.12841 17.9207 3.12841 20.7903 3.12841ZM16.5006 56.9674C15.1257 56.9674 14.0132 55.8224 14.0132 54.4127C14.0132 53.0029 15.128 51.858 16.5006 51.858C17.8732 51.858 18.988 53.0029 18.988 54.4127C18.988 55.8224 17.8732 56.9674 16.5006 56.9674ZM28.3226 51.3122C20.4217 51.2402 12.5207 51.2286 4.61981 51.3168C2.84922 51.3354 2.36531 50.7246 2.38566 48.9805C2.4648 42.2941 2.41732 35.6055 2.41732 28.9192C2.41732 22.1562 2.4648 15.3932 2.38792 8.63261C2.36757 6.86058 2.76103 6.09185 4.68086 6.11507C12.5818 6.21029 20.4827 6.201 28.3837 6.1174C30.1543 6.09882 30.6133 6.73284 30.6065 8.46771C30.55 21.9913 30.5432 35.5172 30.611 49.0432C30.6178 50.8825 29.9982 51.3285 28.3226 51.3122Z" fill="#F7941E"/>
</svg>
