<svg width="35" height="35" viewBox="0 0 35 35" fill="none" xmlns="http://www.w3.org/2000/svg">
<path d="M34.9991 17.5986C34.9026 27.312 26.9396 35.1639 17.3555 34.9974C7.54319 34.8288 -0.117103 26.931 0.00135544 17.1102C0.115426 7.71427 8.10696 -0.0674548 17.566 0.000440957C27.2796 0.0749072 35.0956 7.96395 34.9991 17.5986ZM17.6253 6.66736C14.8525 6.60604 12.2025 6.87762 9.67543 8.31C4.62341 11.177 4.54225 24.1538 9.74782 26.8806C10.9346 27.5026 11.2724 28.302 11.2395 29.557C11.2242 30.1264 11.7024 30.709 11.9546 31.285C12.4614 30.9916 13.148 30.8207 13.4463 30.3849C14.6309 28.6612 16.1753 27.9713 18.2351 28.2954C18.8449 28.3918 19.4833 28.3217 20.1085 28.3064C24.9302 28.1837 28.2624 25.2905 28.9051 20.5115C29.1201 18.9149 29.153 17.2657 29.028 15.6603C28.598 10.0709 25.3141 6.95647 19.6873 6.67174C19.0029 6.6367 18.3119 6.66736 17.6253 6.66736Z" fill="#F7941E"/>
<path d="M12.1585 30C12.1222 29.6463 12.0221 29.3054 12.0608 28.9794C12.2836 27.1363 11.9971 25.6363 10.0103 24.5752C9.17825 24.1299 8.40533 22.9452 8.31894 22.0354C8.05752 19.2975 7.82336 16.4913 8.18709 13.7853C8.54172 11.1475 10.6513 9.44083 13.4839 9.15319C16.2232 8.8762 19.0148 9.05944 21.7836 9.05944C22.0996 9.05944 22.4202 9.17023 22.7293 9.25972C26.8212 10.4359 28.6444 14.2562 27.7965 19.8621C27.1645 24.0426 24.5957 26.4524 20.3242 26.2329C17.1779 26.071 14.7887 26.7443 13.1883 29.3651C13.0633 29.5696 12.8496 29.7337 12.6541 29.8892C12.57 29.9553 12.4222 29.9446 12.1585 30ZM21.2699 23.7613C21.8973 23.267 22.6884 22.8472 23.1203 22.2123C23.3158 21.9246 22.9453 20.9317 22.5611 20.7464C21.6836 20.3202 20.3014 19.6938 19.7286 20.0347C17.8418 21.164 16.9393 19.8855 15.9504 18.9885C15.0683 18.1874 14.0476 17.2754 15.1911 15.8862C16.2505 14.5993 15.0024 13.7214 14.2363 12.9395C13.9249 12.6198 12.8792 12.5772 12.4109 12.8201C11.2901 13.4018 11.1833 14.4011 11.672 15.5006C13.0678 18.6306 15.2866 21.0638 18.5124 22.6405C19.308 23.0241 20.156 23.3117 21.2699 23.7613ZM23.6841 18.262C24.3775 14.3883 20.8561 11.1113 17.7099 12.1191C22.0291 13.3081 22.8043 14.0538 23.6841 18.262ZM22.0178 17.1646C22.3701 14.627 20.5674 12.9927 17.9509 13.6873C20.3537 13.9665 21.6768 15.0574 22.0178 17.1646Z" fill="#F7941E"/>
</svg>
